%FSTAX42Y42*%
%MOMM*%
%SFA1B1*%

%IPPOS*%
%ADD11R,1.699997X1.099998*%
%ADD13R,0.699999X0.899998*%
%ADD14R,0.899998X0.699999*%
%ADD16R,1.099998X1.699997*%
%ADD28R,1.499997X1.499997*%
%ADD29C,1.499997*%
%ADD30R,5.499989X5.499989*%
%ADD31C,5.499989*%
%ADD32R,5.499989X5.499989*%
%ADD33C,1.349997*%
%ADD34R,1.349997X1.349997*%
%ADD38R,10.249980X7.999984*%
%ADD39R,0.799998X3.699993*%
%LNwhey_agr_agr_pcb-1*%
%LPD*%
G54D11*
X002649Y003194D03*
Y002924D03*
X001624Y003434D03*
Y003164D03*
X001199Y003194D03*
Y002924D03*
X003124Y003434D03*
Y003164D03*
X003824Y003384D03*
Y003114D03*
X004624Y003434D03*
Y003164D03*
X005699Y003159D03*
Y002889D03*
G54D13*
X005293Y000561D03*
X005143D03*
X004349Y003099D03*
X004199D03*
G54D14*
X002399Y003074D03*
Y002924D03*
X002168Y000405D03*
Y000555D03*
X000924Y003074D03*
Y002924D03*
X005424Y003024D03*
Y002874D03*
G54D16*
X006159Y003399D03*
X005889D03*
X005355Y00018D03*
X005085D03*
X006909Y002624D03*
X006639D03*
X002384Y002574D03*
X002114D03*
X001614Y002924D03*
X001884D03*
X003114D03*
X003384D03*
X003884Y002624D03*
X003614D03*
X004614Y002899D03*
X004884D03*
X005384Y002624D03*
X005114D03*
X006114Y003149D03*
X006384D03*
G54D28*
X006622Y004237D03*
X00662Y004561D03*
X005553Y004574D03*
G54D29*
X006368Y004237D03*
X006114D03*
X006111Y004561D03*
X006366D03*
X004537Y004574D03*
X004791D03*
X005045D03*
X005299D03*
G54D30*
X000499Y001156D03*
G54D31*
X000511Y000487D03*
X005999Y000499D03*
X002999D03*
G54D32*
X004499Y000499D03*
X001499D03*
G54D33*
X004049Y002924D03*
X005999D03*
G54D34*
X003549Y002924D03*
X006499D03*
G54D38*
X001499Y001224D03*
X004499D03*
X005999D03*
X002999D03*
G54D39*
X00188Y002224D03*
X001753D03*
X001626D03*
X001499D03*
X001372D03*
X001245D03*
X001118D03*
X00488D03*
X004753D03*
X004626D03*
X004499D03*
X004372D03*
X004245D03*
X004118D03*
X00638D03*
X006253D03*
X006126D03*
X005999D03*
X005872D03*
X005745D03*
X005618D03*
X00338D03*
X003253D03*
X003126D03*
X002999D03*
X002872D03*
X002745D03*
X002618D03*
M02*