%FSTAX42Y42*%
%MOMM*%
%SFA1B1*%

%IPPOS*%
%AMD10*
4,1,8,0.398780,1.094740,-0.398780,1.094740,-0.800100,0.695960,-0.800100,-0.695960,-0.398780,-1.094740,0.398780,-1.094740,0.800100,-0.695960,0.800100,0.695960,0.398780,1.094740,0.0*
1,1,0.800000,0.398780,0.695960*
1,1,0.800000,-0.398780,0.695960*
1,1,0.800000,-0.398780,-0.695960*
1,1,0.800000,0.398780,-0.695960*
%
%AMD17*
4,1,8,-0.299720,-0.500380,0.299720,-0.500380,0.398780,-0.398780,0.398780,0.398780,0.299720,0.500380,-0.299720,0.500380,-0.398780,0.398780,-0.398780,-0.398780,-0.299720,-0.500380,0.0*
1,1,0.200000,-0.299720,-0.398780*
1,1,0.200000,0.299720,-0.398780*
1,1,0.200000,0.299720,0.398780*
1,1,0.200000,-0.299720,0.398780*
%
%AMD18*
4,1,8,-0.873760,1.529080,-0.873760,-1.529080,-0.655320,-1.750060,0.655320,-1.750060,0.873760,-1.529080,0.873760,1.529080,0.655320,1.750060,-0.655320,1.750060,-0.873760,1.529080,0.0*
1,1,0.440000,-0.655320,1.529080*
1,1,0.440000,-0.655320,-1.529080*
1,1,0.440000,0.655320,-1.529080*
1,1,0.440000,0.655320,1.529080*
%
%AMD19*
4,1,8,-0.873760,0.408940,-0.873760,-0.408940,-0.734060,-0.551180,0.734060,-0.551180,0.873760,-0.408940,0.873760,0.408940,0.734060,0.551180,-0.734060,0.551180,-0.873760,0.408940,0.0*
1,1,0.280000,-0.734060,0.408940*
1,1,0.280000,-0.734060,-0.408940*
1,1,0.280000,0.734060,-0.408940*
1,1,0.280000,0.734060,0.408940*
%
%AMD20*
4,1,8,-0.873760,0.408940,-0.873760,-0.408940,-0.734060,-0.551180,0.734060,-0.551180,0.873760,-0.408940,0.873760,0.408940,0.734060,0.551180,-0.734060,0.551180,-0.873760,0.408940,0.0*
1,1,0.280000,-0.734060,0.408940*
1,1,0.280000,-0.734060,-0.408940*
1,1,0.280000,0.734060,-0.408940*
1,1,0.280000,0.734060,0.408940*
%
%AMD21*
4,1,8,-2.059940,-2.849880,2.059940,-2.849880,2.750820,-2.159000,2.750820,2.159000,2.059940,2.849880,-2.059940,2.849880,-2.750820,2.159000,-2.750820,-2.159000,-2.059940,-2.849880,0.0*
1,1,1.380000,-2.059940,-2.159000*
1,1,1.380000,2.059940,-2.159000*
1,1,1.380000,2.059940,2.159000*
1,1,1.380000,-2.059940,2.159000*
%
%AMD22*
4,1,8,-0.370840,-0.800100,0.370840,-0.800100,0.500380,-0.670560,0.500380,0.670560,0.370840,0.800100,-0.370840,0.800100,-0.500380,0.670560,-0.500380,-0.670560,-0.370840,-0.800100,0.0*
1,1,0.260000,-0.370840,-0.670560*
1,1,0.260000,0.370840,-0.670560*
1,1,0.260000,0.370840,0.670560*
1,1,0.260000,-0.370840,0.670560*
%
G04~CAMADD=10~8~0.0~0.0~629.9~862.2~157.5~0.0~15~0.0~0.0~0.0~0.0~0~0.0~0.0~0.0~0.0~0~0.0~0.0~0.0~0.0~629.9~862.2*
%ADD10D10*%
%ADD11R,1.699997X1.099998*%
%ADD12O,2.099996X0.449999*%
%ADD13R,0.699999X0.899998*%
%ADD14R,0.899998X0.699999*%
%ADD15R,0.649999X0.799998*%
%ADD16R,1.099998X1.699997*%
G04~CAMADD=17~8~0.0~0.0~315.0~393.7~39.4~0.0~15~0.0~0.0~0.0~0.0~0~0.0~0.0~0.0~0.0~0~0.0~0.0~0.0~180.0~316.0~394.0*
%ADD17D17*%
G04~CAMADD=18~8~0.0~0.0~1378.0~689.0~86.6~0.0~15~0.0~0.0~0.0~0.0~0~0.0~0.0~0.0~0.0~0~0.0~0.0~0.0~90.0~689.0~1377.0*
%ADD18D18*%
G04~CAMADD=19~8~0.0~0.0~433.1~689.0~55.1~0.0~15~0.0~0.0~0.0~0.0~0~0.0~0.0~0.0~0.0~0~0.0~0.0~0.0~90.0~690.0~433.0*
%ADD19D19*%
G04~CAMADD=20~8~0.0~0.0~433.1~689.0~55.1~0.0~15~0.0~0.0~0.0~0.0~0~0.0~0.0~0.0~0.0~0~0.0~0.0~0.0~90.0~690.0~433.0*
%ADD20D20*%
G04~CAMADD=21~8~0.0~0.0~2165.4~2244.1~271.7~0.0~15~0.0~0.0~0.0~0.0~0~0.0~0.0~0.0~0.0~0~0.0~0.0~0.0~180.0~2166.0~2244.0*
%ADD21D21*%
G04~CAMADD=22~8~0.0~0.0~393.7~629.9~51.2~0.0~15~0.0~0.0~0.0~0.0~0~0.0~0.0~0.0~0.0~0~0.0~0.0~0.0~180.0~394.0~630.0*
%ADD22D22*%
%LNwhey_agr_agr_pcb-1*%
%LPD*%
G54D10*
X006499Y001064D03*
Y001983D03*
G54D11*
X005624Y004009D03*
Y003739D03*
X005299Y004009D03*
Y003739D03*
X001024Y001289D03*
Y001559D03*
X000274Y003759D03*
Y003489D03*
G54D12*
X003404Y001766D03*
Y001701D03*
Y001637D03*
Y001572D03*
Y001506D03*
Y001442D03*
Y001376D03*
Y001311D03*
Y001247D03*
Y001181D03*
X004094Y001766D03*
Y001701D03*
Y001637D03*
Y001572D03*
Y001506D03*
Y001442D03*
Y001376D03*
Y001311D03*
Y001247D03*
Y001181D03*
G54D13*
X002155Y004337D03*
X002305D03*
X005174Y001074D03*
X005324D03*
X002237Y000955D03*
X002387D03*
X004368Y004143D03*
X004218D03*
X003511Y004337D03*
X003661D03*
X002837D03*
X002987D03*
X001424Y004143D03*
X001274D03*
X001268Y004355D03*
X001418D03*
X001024Y003149D03*
X000874D03*
G54D14*
X005899Y001074D03*
Y001224D03*
X00128Y001387D03*
Y001537D03*
X001468Y001387D03*
Y001537D03*
X001249Y002068D03*
Y002218D03*
X005624Y002055D03*
Y002205D03*
X005787Y002149D03*
Y002299D03*
X004049Y002087D03*
Y002237D03*
X004249Y002087D03*
Y002237D03*
X002555Y002105D03*
Y002255D03*
G54D15*
X002964Y004599D03*
X002834D03*
X003509D03*
X003639D03*
X002174D03*
X002304D03*
G54D16*
X001214Y004599D03*
X001484D03*
X00147Y001149D03*
X00174D03*
X003007Y000955D03*
X002737D03*
X004428Y003868D03*
X004158D03*
G54D17*
X000749Y003671D03*
Y003302D03*
G54D18*
X000219Y004374D03*
G54D19*
X000879Y004604D03*
Y004374D03*
G54D20*
X000879Y004144D03*
G54D21*
X000499Y002154D03*
G54D22*
X00027Y002894D03*
X000727D03*
M02*