%FSTAX42Y42*%
%MOMM*%
%SFA1B1*%

%IPPOS*%
%ADD38R,10.249980X7.999984*%
%ADD39R,0.799998X3.699993*%
%ADD51R,1.899996X1.299997*%
%ADD53R,0.899998X1.099998*%
%ADD54R,1.099998X0.899998*%
%ADD56R,1.299997X1.899996*%
%ADD63R,1.699997X1.699997*%
%ADD64C,1.699997*%
%ADD65R,5.699989X5.699989*%
%ADD66C,5.699989*%
%ADD67R,5.699989X5.699989*%
%ADD68C,1.549997*%
%ADD69R,1.549997X1.549997*%
%ADD70C,1.469997*%
%ADD71C,0.699999*%
%ADD72C,2.199996*%
%LNwhey_agr_agr_pcb-1*%
%LPD*%
G54D38*
X001499Y001224D03*
X004499D03*
X005999D03*
X002999D03*
G54D39*
X00188Y002224D03*
X001753D03*
X001626D03*
X001499D03*
X001372D03*
X001245D03*
X001118D03*
X00488D03*
X004753D03*
X004626D03*
X004499D03*
X004372D03*
X004245D03*
X004118D03*
X00638D03*
X006253D03*
X006126D03*
X005999D03*
X005872D03*
X005745D03*
X005618D03*
X00338D03*
X003253D03*
X003126D03*
X002999D03*
X002872D03*
X002745D03*
X002618D03*
G54D51*
X002649Y003194D03*
Y002924D03*
X001624Y003434D03*
Y003164D03*
X001199Y003194D03*
Y002924D03*
X003124Y003434D03*
Y003164D03*
X003824Y003384D03*
Y003114D03*
X004624Y003434D03*
Y003164D03*
X005699Y003159D03*
Y002889D03*
G54D53*
X005293Y000561D03*
X005143D03*
X004349Y003099D03*
X004199D03*
G54D54*
X002399Y003074D03*
Y002924D03*
X002168Y000405D03*
Y000555D03*
X000924Y003074D03*
Y002924D03*
X005424Y003024D03*
Y002874D03*
G54D56*
X006159Y003399D03*
X005889D03*
X005355Y00018D03*
X005085D03*
X006909Y002624D03*
X006639D03*
X002384Y002574D03*
X002114D03*
X001614Y002924D03*
X001884D03*
X003114D03*
X003384D03*
X003884Y002624D03*
X003614D03*
X004614Y002899D03*
X004884D03*
X005384Y002624D03*
X005114D03*
X006114Y003149D03*
X006384D03*
G54D63*
X006622Y004237D03*
X00662Y004561D03*
X005553Y004574D03*
G54D64*
X006368Y004237D03*
X006114D03*
X006111Y004561D03*
X006366D03*
X004537Y004574D03*
X004791D03*
X005045D03*
X005299D03*
G54D65*
X000499Y001156D03*
G54D66*
X000511Y000487D03*
X005999Y000499D03*
X002999D03*
G54D67*
X004499Y000499D03*
X001499D03*
G54D68*
X004049Y002924D03*
X005999D03*
G54D69*
X003549Y002924D03*
X006499D03*
G54D70*
X005037Y00178D03*
X00363Y000343D03*
X003811Y000505D03*
X002437Y003449D03*
X00223Y001418D03*
X002299Y001243D03*
X003787Y000161D03*
X003637Y00063D03*
X004749Y002624D03*
X001049Y003399D03*
X004049D03*
X005949Y002624D03*
X001449D03*
X001049D03*
X002549D03*
X001249D03*
X005549D03*
X005749D03*
X005318Y002361D03*
X005787Y004311D03*
X005474Y001905D03*
X005468Y00173D03*
X005418Y003199D03*
X005365Y001374D03*
X00288Y002618D03*
X002874Y003437D03*
X001455Y001774D03*
X005524Y000437D03*
X006674Y00043D03*
X004568Y002705D03*
X004037Y002749D03*
X004111Y00253D03*
X00423Y002837D03*
X001749Y002649D03*
X006024Y001861D03*
X005824Y001793D03*
G54D71*
X005199Y002005D03*
X004705Y001955D03*
X004099Y000655D03*
X002418Y00173D03*
X003061Y001711D03*
X002361Y000486D03*
X00373Y001761D03*
X003711Y001937D03*
X001749Y004349D03*
X003749Y002343D03*
X00523Y000387D03*
X003711Y001311D03*
X003739Y001441D03*
X004161Y001924D03*
X004537Y00178D03*
X00388Y002324D03*
G54D72*
X000274Y003224D03*
M02*