%FSTAX24Y24*%
%MOIN*%
%SFA1B1*%

%IPPOS*%
%AMD11*
4,1,8,0.016200,0.034400,-0.016200,0.034400,-0.021600,0.029000,-0.021600,-0.029000,-0.016200,-0.034400,0.016200,-0.034400,0.021600,-0.029000,0.021600,0.029000,0.016200,0.034400,0.0*
1,1,0.010800,0.016200,0.029000*
1,1,0.010800,-0.016200,0.029000*
1,1,0.010800,-0.016200,-0.029000*
1,1,0.010800,0.016200,-0.029000*
%
%AMD12*
4,1,8,0.016200,0.034400,-0.016200,0.034400,-0.021600,0.029000,-0.021600,-0.029000,-0.016200,-0.034400,0.016200,-0.034400,0.021600,-0.029000,0.021600,0.029000,0.016200,0.034400,0.0*
1,1,0.010800,0.016200,0.029000*
1,1,0.010800,-0.016200,0.029000*
1,1,0.010800,-0.016200,-0.029000*
1,1,0.010800,0.016200,-0.029000*
%
%AMD13*
4,1,8,0.060300,0.034400,-0.060300,0.034400,-0.068900,0.025800,-0.068900,-0.025800,-0.060300,-0.034400,0.060300,-0.034400,0.068900,-0.025800,0.068900,0.025800,0.060300,0.034400,0.0*
1,1,0.017200,0.060300,0.025800*
1,1,0.017200,-0.060300,0.025800*
1,1,0.017200,-0.060300,-0.025800*
1,1,0.017200,0.060300,-0.025800*
%
%AMD16*
4,1,8,0.031500,-0.014800,0.031500,0.014800,0.026600,0.019700,-0.026600,0.019700,-0.031500,0.014800,-0.031500,-0.014800,-0.026600,-0.019700,0.026600,-0.019700,0.031500,-0.014800,0.0*
1,1,0.009800,0.026600,-0.014800*
1,1,0.009800,0.026600,0.014800*
1,1,0.009800,-0.026600,0.014800*
1,1,0.009800,-0.026600,-0.014800*
%
%AMD17*
4,1,8,0.112200,-0.081100,0.112200,0.081100,0.085100,0.108200,-0.085100,0.108200,-0.112200,0.081100,-0.112200,-0.081100,-0.085100,-0.108200,0.085100,-0.108200,0.112200,-0.081100,0.0*
1,1,0.054200,0.085100,-0.081100*
1,1,0.054200,0.085100,0.081100*
1,1,0.054200,-0.085100,0.081100*
1,1,0.054200,-0.085100,-0.081100*
%
%AMD18*
4,1,8,0.019700,-0.011800,0.019700,0.011800,0.015800,0.015700,-0.015800,0.015700,-0.019700,0.011800,-0.019700,-0.011800,-0.015800,-0.015700,0.015800,-0.015700,0.019700,-0.011800,0.0*
1,1,0.007800,0.015800,-0.011800*
1,1,0.007800,0.015800,0.011800*
1,1,0.007800,-0.015800,0.011800*
1,1,0.007800,-0.015800,-0.011800*
%
%AMD31*
4,1,8,0.035000,-0.022500,0.035000,0.022500,0.027500,0.030000,-0.027500,0.030000,-0.035000,0.022500,-0.035000,-0.022500,-0.027500,-0.030000,0.027500,-0.030000,0.035000,-0.022500,0.0*
1,1,0.015000,0.027500,-0.022500*
1,1,0.015000,0.027500,0.022500*
1,1,0.015000,-0.027500,0.022500*
1,1,0.015000,-0.027500,-0.022500*
%
%ADD10R,0.066900X0.043300*%
G04~CAMADD=11~8~0.0~0.0~433.0~689.0~54.0~0.0~15~0.0~0.0~0.0~0.0~0~0.0~0.0~0.0~0.0~0~0.0~0.0~0.0~0.0~433.0~689.0*
%ADD11D11*%
G04~CAMADD=12~8~0.0~0.0~433.0~689.0~54.0~0.0~15~0.0~0.0~0.0~0.0~0~0.0~0.0~0.0~0.0~0~0.0~0.0~0.0~0.0~433.0~689.0*
%ADD12D12*%
G04~CAMADD=13~8~0.0~0.0~1378.0~689.0~86.0~0.0~15~0.0~0.0~0.0~0.0~0~0.0~0.0~0.0~0.0~0~0.0~0.0~0.0~0.0~1378.0~689.0*
%ADD13D13*%
%ADD14R,0.035400X0.031500*%
%ADD15R,0.027600X0.035400*%
G04~CAMADD=16~8~0.0~0.0~394.0~630.0~49.0~0.0~15~0.0~0.0~0.0~0.0~0~0.0~0.0~0.0~0.0~0~0.0~0.0~0.0~270.0~630.0~394.0*
%ADD16D16*%
G04~CAMADD=17~8~0.0~0.0~2165.0~2244.0~271.0~0.0~15~0.0~0.0~0.0~0.0~0~0.0~0.0~0.0~0.0~0~0.0~0.0~0.0~270.0~2244.0~2164.0*
%ADD17D17*%
G04~CAMADD=18~8~0.0~0.0~315.0~394.0~39.0~0.0~15~0.0~0.0~0.0~0.0~0~0.0~0.0~0.0~0.0~0~0.0~0.0~0.0~270.0~394.0~314.0*
%ADD18D18*%
%ADD19R,0.031500X0.035400*%
%ADD20R,0.035400X0.027600*%
%ADD21R,0.031500X0.145700*%
%ADD22R,0.403500X0.315000*%
%ADD23R,0.043300X0.066900*%
%ADD24O,0.082700X0.017700*%
%ADD25C,0.031500*%
%ADD26C,0.023600*%
%ADD27C,0.039400*%
%ADD28C,0.015700*%
%ADD29C,0.078700*%
%ADD30O,0.070000X0.060000*%
G04~CAMADD=31~8~0.0~0.0~600.0~700.0~75.0~0.0~15~0.0~0.0~0.0~0.0~0~0.0~0.0~0.0~0.0~0~0.0~0.0~0.0~270.0~700.0~600.0*
%ADD31D31*%
%ADD32R,0.059100X0.059100*%
%ADD33C,0.059100*%
%ADD34C,0.060000*%
%ADD35C,0.137800*%
%LNteste2pcb-1*%
%LPD*%
G36*
X03075Y022285D02*
Y-0001D01*
X0001*
X0Y0*
X00005Y0223*
X0307*
X030704Y022304*
X03075Y022285*
G37*
%LNteste2pcb-2*%
%LPC*%
G36*
X005187Y010231D02*
X0048D01*
Y009963*
X005085*
X005124Y009971*
X005157Y009993*
X005179Y010026*
X005187Y010065*
Y010231*
G37*
G36*
X012332Y0105D02*
X012063D01*
Y010215*
X012071Y010176*
X012093Y010143*
X012126Y010121*
X012165Y010113*
X012332*
Y0105*
G37*
G36*
X0127D02*
X012431D01*
Y010113*
X012598*
X012637Y010121*
X01267Y010143*
X012692Y010176*
X0127Y010215*
Y0105*
G37*
G36*
X0047Y010231D02*
X004313D01*
Y010065*
X004321Y010026*
X004343Y009993*
X004376Y009971*
X004415Y009963*
X0047*
Y010231*
G37*
G36*
X009643Y011749D02*
X008057D01*
Y011541*
X008072Y011468*
X008113Y011407*
X008175Y011366*
X008247Y011351*
X008572*
Y009596*
X008542Y009551*
X00853Y009491*
Y009251*
X00917*
Y009491*
X009158Y009551*
X009128Y009596*
Y011351*
X009453*
X009525Y011366*
X009587Y011407*
X009628Y011468*
X009643Y011541*
Y011749*
G37*
G36*
X006Y010035D02*
X005873D01*
X005834Y010027*
X005801Y010005*
X005779Y009972*
X005771Y009933*
Y009826*
X006*
Y010035*
G37*
G36*
X006227D02*
X0061D01*
Y009826*
X006329*
Y009933*
X006321Y009972*
X006299Y010005*
X006266Y010027*
X006227Y010035*
G37*
G36*
X0047Y0106D02*
X004415D01*
X004376Y010592*
X004343Y01057*
X004321Y010537*
X004313Y010498*
Y010331*
X0047*
Y0106*
G37*
G36*
X012598Y010987D02*
X012431D01*
Y0106*
X0127*
Y010885*
X012692Y010924*
X01267Y010957*
X012637Y010979*
X012598Y010987*
G37*
G36*
X0195Y010994D02*
X019373D01*
X019334Y010987*
X019301Y010965*
X019279Y010932*
X019271Y010893*
Y010805*
X0195*
Y010994*
G37*
G36*
X019727D02*
X0196D01*
Y010805*
X019829*
Y010893*
X019821Y010932*
X019799Y010965*
X019766Y010987*
X019727Y010994*
G37*
G36*
X012332Y010987D02*
X012165D01*
X012126Y010979*
X012093Y010957*
X012071Y010924*
X012063Y010885*
Y0106*
X012332*
Y010987*
G37*
G36*
X005085Y0106D02*
X0048D01*
Y010331*
X005187*
Y010498*
X005179Y010537*
X005157Y01057*
X005124Y010592*
X005085Y0106*
G37*
G36*
X0195Y010705D02*
X019271D01*
Y010617*
X019279Y010578*
X019301Y010545*
X019334Y010523*
X019373Y010515*
X0195*
Y010705*
G37*
G36*
X019829D02*
X0196D01*
Y010515*
X019727*
X019766Y010523*
X019799Y010545*
X019821Y010578*
X019829Y010617*
Y010705*
G37*
G36*
X00917Y009151D02*
X0089D01*
Y008753*
X009012*
X009073Y008765*
X009124Y008799*
X009158Y00885*
X00917Y00891*
Y009151*
G37*
G36*
X0109Y00555D02*
X010503D01*
X01051Y005496*
X010551Y005398*
X010615Y005315*
X010698Y005251*
X010796Y00521*
X0109Y005197*
Y00555*
G37*
G36*
X011397D02*
X011D01*
Y005197*
X011104Y00521*
X011202Y005251*
X011285Y005315*
X011349Y005398*
X01139Y005496*
X011397Y00555*
G37*
G36*
X00945Y008371D02*
X009299Y008357D01*
X009155Y008313*
X009021Y008241*
X008905Y008145*
X008809Y008029*
X008737Y007895*
X008693Y00775*
X008679Y0076*
X008693Y007449*
X008724Y007348*
X00865Y00725*
X008602Y007136*
X008586Y007012*
Y00656*
X007857Y005831*
X007554*
Y006112*
X007542Y006203*
X007507Y006288*
X007451Y006361*
X007378Y006417*
X007293Y006452*
X007201Y006464*
X005499*
X005407Y006452*
X005322Y006417*
X005249Y006361*
X005193Y006288*
X005158Y006203*
X005146Y006112*
Y004488*
X005158Y004397*
X005193Y004312*
X005249Y004239*
X005322Y004183*
X005407Y004148*
X005499Y004136*
X007201*
X007293Y004148*
X007378Y004183*
X007451Y004239*
X007507Y004312*
X007542Y004397*
X007554Y004488*
Y004878*
X00783*
X007842Y00487*
X007873Y004863*
X008227*
X008258Y00487*
X008284Y004887*
X008301Y004913*
X008307Y004944*
Y004953*
X008391Y005017*
X009399Y006025*
X009475Y006124*
X009522Y006239*
X009539Y006362*
Y006815*
X009564Y00684*
X0096Y006843*
X009745Y006887*
X009879Y006959*
X009995Y007055*
X010091Y007171*
X010163Y007305*
X010207Y007449*
X010221Y0076*
X010207Y00775*
X010163Y007895*
X010091Y008029*
X009995Y008145*
X009879Y008241*
X009745Y008313*
X0096Y008357*
X00945Y008371*
G37*
G36*
X008227Y004809D02*
X0081D01*
Y0046*
X008329*
Y004707*
X008321Y004746*
X008299Y00478*
X008266Y004802*
X008227Y004809*
G37*
G36*
X008Y0045D02*
X007771D01*
Y004393*
X007779Y004354*
X007801Y00432*
X007834Y004298*
X007873Y004291*
X008*
Y0045*
G37*
G36*
X008329D02*
X0081D01*
Y004291*
X008227*
X008266Y004298*
X008299Y00432*
X008321Y004354*
X008329Y004393*
Y0045*
G37*
G36*
X008Y004809D02*
X007873D01*
X007834Y004802*
X007801Y00478*
X007779Y004746*
X007771Y004707*
Y0046*
X008*
Y004809*
G37*
G36*
X017949Y0063D02*
X017739D01*
Y006173*
X017747Y006134*
X017769Y006101*
X017802Y006079*
X017841Y006071*
X017949*
Y0063*
G37*
G36*
X004895Y007679D02*
X004807D01*
X004768Y007671*
X004735Y007649*
X004713Y007616*
X004706Y007577*
Y00745*
X004895*
Y007679*
G37*
G36*
X005083D02*
X004995D01*
Y00745*
X005185*
Y007577*
X005177Y007616*
X005155Y007649*
X005122Y007671*
X005083Y007679*
G37*
G36*
X0088Y009151D02*
X00853D01*
Y00891*
X008542Y00885*
X008576Y008799*
X008627Y008765*
X008688Y008753*
X0088*
Y009151*
G37*
G36*
X003586Y007889D02*
X003271D01*
X003225Y007879*
X003186Y007853*
X00316Y007814*
X00315Y007768*
Y007532*
X00316Y007486*
X003186Y007447*
X003225Y007421*
X003236Y007418*
Y006478*
X003171*
X003121Y006468*
X003079Y006439*
X00305Y006397*
X00304Y006347*
Y006052*
X00305Y006002*
X003079Y00596*
X003121Y005931*
X003171Y005922*
X003702*
X003752Y005931*
X003795Y00596*
X003823Y006002*
X003833Y006052*
Y006347*
X003823Y006397*
X003795Y006439*
X003752Y006468*
X003702Y006478*
X003637*
Y007424*
X003671Y007447*
X003697Y007486*
X003698Y007489*
X003983*
X004136Y007336*
X004137*
Y007223*
X004143Y007192*
X00416Y007166*
X004186Y007149*
X004217Y007143*
X004493*
X004523Y007149*
X004549Y007166*
X004567Y007192*
X004573Y007223*
Y007577*
X004567Y007608*
X004549Y007634*
X004523Y007651*
X004493Y007657*
X00427*
X004164Y007764*
X004111Y007798*
X00405Y007811*
X003698*
X003697Y007814*
X003671Y007853*
X003632Y007879*
X003586Y007889*
G37*
G36*
X017949Y006629D02*
X017841D01*
X017802Y006621*
X017769Y006599*
X017747Y006566*
X017739Y006527*
Y0064*
X017949*
Y006629*
G37*
G36*
X004895Y00735D02*
X004706D01*
Y007223*
X004713Y007184*
X004735Y007151*
X004768Y007129*
X004807Y007121*
X004895*
Y00735*
G37*
G36*
X005185D02*
X004995D01*
Y007121*
X005083*
X005122Y007129*
X005155Y007151*
X005177Y007184*
X005185Y007223*
Y00735*
G37*
G36*
X0068Y016738D02*
X006695Y016728D01*
X006547Y016682*
X00641Y016609*
X006289Y016511*
X006191Y01639*
X006118Y016253*
X006072Y016105*
X006062Y016*
X0068*
Y016738*
G37*
G36*
X007638Y0159D02*
X0069D01*
Y015162*
X007005Y015172*
X007153Y015218*
X00729Y015291*
X007411Y015389*
X007509Y01551*
X007582Y015647*
X007628Y015795*
X007638Y0159*
G37*
G36*
X009453Y012247D02*
X0089D01*
Y011849*
X009643*
Y012058*
X009628Y01213*
X009587Y012192*
X009525Y012233*
X009453Y012247*
G37*
G36*
X0207Y01565D02*
X020491D01*
Y014972*
X020498Y014933*
X02052Y0149*
X020554Y014877*
X020593Y01487*
X0207*
Y01565*
G37*
G36*
Y01653D02*
X020593D01*
X020554Y016523*
X02052Y0165*
X020498Y016467*
X020491Y016428*
Y01575*
X0207*
Y01653*
G37*
G36*
X018899Y01975D02*
X018689D01*
Y019623*
X018697Y019584*
X018719Y019551*
X018752Y019529*
X018791Y019521*
X018899*
Y01975*
G37*
G36*
X0069Y016738D02*
Y016D01*
X007638*
X007628Y016105*
X007582Y016253*
X007509Y01639*
X007411Y016511*
X00729Y016609*
X007153Y016682*
X007005Y016728*
X0069Y016738*
G37*
G36*
X020124Y011079D02*
X020017D01*
X019978Y011071*
X019945Y011049*
X019923Y011016*
X019915Y010977*
Y01085*
X020124*
Y011079*
G37*
G36*
X019106Y020079D02*
X018999D01*
Y01985*
X019208*
Y019977*
X019201Y020016*
X019178Y020049*
X019145Y020071*
X019106Y020079*
G37*
G36*
X024268Y021292D02*
X020232D01*
X020202Y021286*
X020176Y021269*
X020158Y021243*
X020152Y021212*
Y019878*
X019763*
X019738Y019903*
Y019977*
X019732Y020008*
X019714Y020034*
X019688Y020051*
X019657Y020057*
X019343*
X019312Y020051*
X019286Y020034*
X019268Y020008*
X019262Y019977*
Y019816*
X019259Y0198*
X019262Y019784*
Y019623*
X019268Y019592*
X019286Y019566*
X019312Y019549*
X019343Y019543*
X019417*
X019493Y019467*
X019571Y019414*
X019663Y019396*
X020152*
Y018062*
X020158Y018031*
X020176Y018005*
X020202Y017988*
X020232Y017982*
X022009*
Y016508*
X021982Y016494*
X021959Y016489*
X021938Y016503*
X021907Y016509*
X021593*
X021562Y016503*
X021536Y016485*
X021528Y016473*
X021521Y016471*
X021479*
X021472Y016473*
X021464Y016485*
X021438Y016503*
X021407Y016509*
X021093*
X021062Y016503*
X021044Y016491*
X021034Y016485*
X020983Y016496*
X02098Y0165*
X020947Y016523*
X020907Y01653*
X0208*
Y0157*
Y01487*
X020907*
X020947Y014877*
X02098Y0149*
X020997Y014888*
X020998Y014826*
X020833Y014661*
X020513*
Y014677*
X020507Y014708*
X02049Y014734*
X020464Y014751*
X020433Y014757*
X020157*
X020127Y014751*
X020101Y014734*
X020083Y014708*
X020077Y014677*
Y014661*
X019923*
Y014677*
X019917Y014708*
X019899Y014734*
X019873Y014751*
X019843Y014757*
X019567*
X019536Y014751*
X01951Y014734*
X019493Y014708*
X019487Y014677*
Y014661*
X019319*
X019311Y014669*
Y0171*
X019298Y017161*
X019264Y017214*
X017864Y018614*
X017811Y018648*
X01775Y018661*
X0158*
X015739Y018648*
X015686Y018614*
X014886Y017814*
X014852Y017761*
X014839Y0177*
Y017504*
X014789Y017487*
X014767Y017517*
X014689Y017577*
X014651Y017592*
X014047Y018197*
X013989Y018241*
X013922Y018269*
X01385Y018278*
X0117*
X011628Y018269*
X011561Y018241*
X011503Y018197*
X009803Y016497*
X009759Y016439*
X009732Y016372*
X009722Y0163*
Y01325*
X009732Y013178*
X009759Y013111*
X009803Y013053*
X011072Y011785*
Y010959*
X011071*
X011045Y010941*
X011028Y010915*
X011022Y010885*
Y010215*
X011028Y010185*
X011045Y010159*
X011071Y010141*
X011072*
Y009865*
X010675Y009468*
X010671Y009469*
X010599Y009479*
X010053*
Y009491*
X010043Y009543*
X010014Y009587*
X00997Y009616*
X009918Y009627*
X009593*
X009541Y009616*
X009497Y009587*
X009468Y009543*
X009458Y009491*
Y00891*
X009468Y008859*
X009497Y008815*
X009541Y008785*
X009593Y008775*
X009918*
X00997Y008785*
X010014Y008815*
X010043Y008859*
X010053Y00891*
Y008923*
X010484*
X010503Y008903*
X010561Y008859*
X010628Y008831*
X0107Y008822*
X010772Y008831*
X010839Y008859*
X010897Y008903*
X011547Y009553*
X011591Y009611*
X011618Y009678*
X011628Y00975*
Y0119*
X011618Y011972*
X011591Y012039*
X011547Y012097*
X010278Y013365*
Y016185*
X011815Y017722*
X013735*
X013781Y017676*
X013761Y017626*
X013205*
X013174Y017619*
X013148Y017602*
X013131Y017576*
X013124Y017545*
Y017102*
X012736Y016714*
X012702Y016661*
X012689Y0166*
Y01475*
X012702Y014689*
X012736Y014636*
X012997Y014376*
X013049Y014341*
X013111Y014329*
X013777*
X013806Y014279*
X013796Y014228*
X013809Y014163*
X013825Y014139*
X013843Y0141*
X013825Y014061*
X013809Y014037*
X013796Y013972*
X013809Y013907*
X013846Y013851*
Y013837*
X013809Y013781*
X013796Y013716*
X013805Y013671*
X013774Y013621*
X01361*
X013549Y013609*
X013497Y013574*
X013336Y013414*
X013302Y013361*
X013289Y0133*
Y01205*
X013302Y011989*
X013336Y011936*
X014041Y011232*
X014093Y011197*
X014155Y011185*
X019274*
X019278Y011182*
X019298Y011178*
X019299Y011177*
X019316Y011151*
X019342Y011133*
X019373Y011127*
X019727*
X019758Y011133*
X019784Y011151*
X019793Y011164*
X02025*
X020285Y011129*
X020264Y011079*
X020224*
Y0108*
X020174*
Y01075*
X019915*
Y010623*
X019923Y010584*
X019945Y010551*
X019978Y010529*
X020007Y010523*
X020006Y010472*
X019978Y010468*
X019911Y010441*
X019853Y010397*
X019809Y010339*
X019782Y010272*
X019772Y0102*
Y008765*
X01971Y008704*
X019576*
X019504Y008694*
X019437Y008666*
X019379Y008622*
X018353Y007597*
X018309Y007539*
X018282Y007472*
X018272Y0074*
Y006624*
X018249Y006611*
X018222Y006604*
X018195Y006621*
X018156Y006629*
X018049*
Y00635*
Y006071*
X018156*
X018195Y006079*
X018222Y006096*
X018249Y006089*
X018272Y006076*
Y003515*
X017403Y002647*
X017359Y002589*
X017332Y002522*
X017322Y00245*
X017332Y002378*
X017359Y002311*
Y00185*
X017287Y001778*
X013215*
X011497Y003497*
X011439Y003541*
X011372Y003568*
X0113Y003578*
X009828*
Y005035*
X010047Y005253*
X010091Y005311*
X010118Y005378*
X010128Y00545*
Y005885*
X010365Y006122*
X010529*
X01053Y006115*
X010564Y006064*
X010615Y00603*
X010675Y006018*
X010734*
X010744Y005968*
X010698Y005949*
X010615Y005885*
X010551Y005802*
X01051Y005704*
X010503Y00565*
X01095*
X011397*
X01139Y005704*
X011349Y005802*
X011285Y005885*
X011202Y005949*
X011156Y005968*
X011166Y006018*
X011225*
X011285Y00603*
X011336Y006064*
X01137Y006115*
X011382Y006175*
Y006625*
X01137Y006685*
X011336Y006736*
X011285Y00677*
X011225Y006782*
X010675*
X010615Y00677*
X010564Y006736*
X01053Y006685*
X010529Y006678*
X01025*
X010178Y006668*
X010111Y006641*
X010053Y006597*
X009653Y006197*
X009609Y006139*
X009582Y006072*
X009572Y006*
Y005565*
X009353Y005347*
X009309Y005289*
X009281Y005222*
X009272Y00515*
Y003578*
X007765*
X007697Y003647*
X007639Y003691*
X007572Y003719*
X0075Y003728*
X002715*
X002578Y003866*
Y004122*
X00317*
X003171*
X003702*
X003752Y004132*
X003795Y004161*
X003823Y004203*
X003833Y004253*
Y004548*
X003823Y004598*
X003795Y00464*
X003752Y004669*
X003702Y004678*
X003171*
X00317*
X002415*
X002228Y004865*
Y007467*
X00224Y007486*
X00225Y007532*
Y00765*
Y008257*
X002916Y008923*
X00441*
X004415Y008922*
X005085*
X00509Y008923*
X007647*
Y00891*
X007657Y008859*
X007686Y008815*
X00773Y008785*
X007782Y008775*
X008107*
X008159Y008785*
X008203Y008815*
X008232Y008859*
X008242Y00891*
Y009491*
X008232Y009543*
X008203Y009587*
X008159Y009616*
X008107Y009627*
X007782*
X00773Y009616*
X007686Y009587*
X007657Y009543*
X007647Y009491*
Y009479*
X006282*
X006275Y009498*
X006273Y009529*
X006299Y009546*
X006321Y009579*
X006329Y009618*
Y009726*
X005771*
Y009618*
X005779Y009579*
X005801Y009546*
X005827Y009529*
X005825Y009498*
X005818Y009479*
X00515*
X005141Y009492*
X005115Y009509*
X005085Y009515*
X004415*
X004385Y009509*
X004359Y009492*
X00435Y009479*
X002801*
X002729Y009469*
X002662Y009442*
X002604Y009397*
X001775Y008568*
X001731Y008511*
X001703Y008444*
X001694Y008372*
Y00773*
X001681Y0077*
X001672Y007628*
Y00475*
X001681Y004678*
X001709Y004611*
X001753Y004553*
X002022Y004285*
Y00375*
X002031Y003678*
X002059Y003611*
X002103Y003554*
X002403Y003253*
X002461Y003209*
X002528Y003182*
X0026Y003172*
X007385*
X007453Y003103*
X007511Y003059*
X007578Y003031*
X00765Y003022*
X011185*
X012903Y001303*
X012961Y001259*
X013028Y001231*
X0131Y001222*
X0225*
X022572Y001231*
X022639Y001259*
X022697Y001303*
X025797Y004403*
X025841Y004461*
X025868Y004528*
X025878Y0046*
Y0131*
X025868Y013172*
X025841Y013239*
X025797Y013297*
X025278Y013815*
Y014374*
X025268Y014446*
X025257Y014473*
Y014532*
X025251Y014563*
X025234Y014589*
X025208Y014606*
X025177Y014612*
X025156*
X025141Y01464*
X025143Y014668*
X025166Y014688*
X025177*
X025208Y014694*
X025234Y014711*
X025251Y014737*
X025257Y014768*
Y014827*
X025268Y014854*
X025278Y014926*
Y0175*
X025268Y017572*
X025241Y017639*
X025197Y017697*
X024348Y018545*
Y01916*
X025937*
X02606Y019177*
X026175Y019224*
X026274Y0193*
X026311Y019337*
X0264Y019329*
X026551Y019343*
X026695Y019387*
X026829Y019459*
X026945Y019555*
X027041Y019671*
X027113Y019805*
X027157Y01995*
X027171Y0201*
X027157Y02025*
X027113Y020395*
X027041Y020529*
X026945Y020645*
X026829Y020741*
X026695Y020813*
X026551Y020857*
X0264Y020871*
X026249Y020857*
X026105Y020813*
X025971Y020741*
X025855Y020645*
X025759Y020529*
X025687Y020395*
X025643Y02025*
X02563Y020114*
X024348*
Y021212*
X024342Y021243*
X024324Y021269*
X024298Y021286*
X024268Y021292*
G37*
G36*
X018899Y020079D02*
X018791D01*
X018752Y020071*
X018719Y020049*
X018697Y020016*
X018689Y019977*
Y01985*
X018899*
Y020079*
G37*
G36*
X0088Y012247D02*
X008247D01*
X008175Y012233*
X008113Y012192*
X008072Y01213*
X008057Y012058*
Y011849*
X0088*
Y012247*
G37*
G36*
X019208Y01975D02*
X018999D01*
Y019521*
X019106*
X019145Y019529*
X019178Y019551*
X019201Y019584*
X019208Y019623*
Y01975*
G37*
G36*
X0068Y0159D02*
X006062D01*
X006072Y015795*
X006118Y015647*
X006191Y01551*
X006289Y015389*
X00641Y015291*
X006547Y015218*
X006695Y015172*
X0068Y015162*
Y0159*
G37*
%LNteste2pcb-3*%
%LPD*%
G36*
X024722Y017385D02*
Y014926D01*
X024732Y014854*
X024743Y014827*
Y014768*
X024749Y014737*
X024766Y014711*
X024792Y014694*
X024823Y014688*
X024844*
X024859Y01466*
X024857Y014632*
X024834Y014612*
X024823*
X024792Y014606*
X024766Y014589*
X024749Y014563*
X024743Y014532*
Y014473*
X024732Y014446*
X02473Y014434*
X024677Y014416*
X024228Y014865*
Y01625*
X024218Y016322*
X024191Y016389*
X024147Y016447*
X024089Y016491*
X024022Y016518*
X02395Y016528*
X023878Y016518*
X023854Y016509*
X023593*
X023562Y016503*
X023536Y016485*
X023528Y016473*
X023521Y016471*
X023479*
X023472Y016473*
X023464Y016485*
X023438Y016503*
X023407Y016509*
X023093*
X023062Y016503*
X023036Y016485*
X023028Y016473*
X023021Y016471*
X022979*
X022972Y016473*
X022964Y016485*
X022938Y016503*
X022907Y016509*
X022593*
X022562Y016503*
X022541Y016489*
X022518Y016494*
X022491Y016508*
Y017982*
X024125*
X024722Y017385*
G37*
G36*
X014133Y017324D02*
X014123Y01725D01*
X014136Y017152*
X014173Y017061*
X014233Y016983*
X014259Y016963*
Y01595*
X01383Y01552*
X013777Y015442*
X013759Y01535*
X013777Y015258*
X013803Y01522*
X013809Y015186*
X013825Y015162*
X013843Y015124*
X013825Y015085*
X013809Y015061*
X013796Y014996*
X013809Y01493*
X013846Y014875*
X013825Y014829*
X013809Y014805*
X013796Y01474*
X013804Y0147*
X01377Y01465*
X013177*
X013011Y014817*
Y016533*
X013352Y016874*
X013795*
X013826Y016881*
X013852Y016898*
X013869Y016924*
X013876Y016955*
Y017511*
X013926Y017531*
X014133Y017324*
G37*
G36*
X021028Y008877D02*
X021036Y008865D01*
X021062Y008847*
X021093Y008841*
X021407*
X021438Y008847*
X021459Y008861*
X021482Y008856*
X021509Y008842*
Y007368*
X019732*
X019702Y007362*
X019676Y007345*
X019658Y007319*
X019652Y007288*
Y005954*
X019539*
X019446Y005936*
X019368Y005883*
X018992Y005507*
X018918*
X018887Y005501*
X018878Y005495*
X018828Y005517*
Y00635*
Y007285*
X019691Y008148*
X019826*
X019898Y008157*
X019965Y008185*
X020022Y008229*
X020247Y008453*
X020291Y008511*
X020319Y008578*
X020328Y00865*
Y008841*
X020407*
X020438Y008847*
X020464Y008865*
X020472Y008877*
X020479Y008879*
X020521*
X020528Y008877*
X020536Y008865*
X020562Y008847*
X020593Y008841*
X020907*
X020938Y008847*
X020964Y008865*
X020972Y008877*
X020979Y008879*
X021021*
X021028Y008877*
G37*
G36*
X021959Y012029D02*
X021954Y012007D01*
X02193Y011979*
X021895*
Y01175*
X022085*
Y011867*
X022109Y011883*
X022134Y011889*
X022344Y011679*
Y011403*
X022336Y011401*
X02231Y011384*
X022293Y011358*
X022287Y011327*
Y011251*
X022277Y011237*
X022259Y011145*
Y0108*
X022277Y010708*
X02233Y01063*
X022461Y010499*
X022439Y010455*
X022436Y010453*
X022407Y010459*
X022093*
X022062Y010453*
X022036Y010435*
X022028Y010423*
X022021Y010421*
X021979*
X021972Y010423*
X021964Y010435*
X021938Y010453*
X021907Y010459*
X021593*
X021562Y010453*
X021541Y010439*
X021518Y010444*
X021491Y010458*
Y010851*
X021513Y010866*
X02153Y010892*
X021537Y010923*
Y011277*
X02153Y011308*
X021513Y011334*
X021491Y011349*
Y011851*
X021473Y011943*
X021442Y011989*
X021468Y012039*
X021947*
X021959Y012029*
G37*
G36*
X021058Y011989D02*
X021027Y011943D01*
X021009Y011851*
Y011132*
X020959Y011117*
X02092Y011175*
X02052Y011575*
X020442Y011627*
X02035Y011646*
X01937*
X019278Y011627*
X019199Y011575*
X019153Y011506*
X019026*
X019018Y011532*
Y011556*
X019064Y011586*
X019517Y012039*
X021032*
X021058Y011989*
G37*
G36*
X023562Y014897D02*
X023593Y014891D01*
X023672*
Y01475*
X023681Y014678*
X023709Y014611*
X023753Y014553*
X023932Y014375*
X023912Y014329*
X023876*
Y0141*
X024085*
Y014157*
X024131Y014176*
X024803Y013503*
X025322Y012985*
Y012579*
X025272Y012576*
X025269Y012599*
X025231Y012691*
X02517Y01277*
X025091Y012831*
X024999Y012869*
X0249Y012882*
X024801Y012869*
X024709Y012831*
X02463Y01277*
X024569Y012691*
X024531Y012599*
X024523Y012541*
X024384*
X024369Y012551*
X024338Y012557*
X024062*
X024031Y012551*
X024005Y012534*
X023988Y012508*
X023982Y012477*
Y012399*
X023977Y012392*
X023959Y0123*
X023977Y012208*
X023982Y012201*
Y012123*
X023988Y012092*
X024005Y012066*
X024031Y012049*
X024062Y012043*
X024338*
X024369Y012049*
X024384Y012059*
X0247*
X024792Y012077*
X024861Y012123*
X0249Y012118*
X024999Y012131*
X025091Y012169*
X02517Y01223*
X025231Y012309*
X025269Y012401*
X025272Y012424*
X025322Y012421*
Y004715*
X022385Y001778*
X017841*
Y002298*
X018747Y003203*
X018791Y003261*
X018819Y003328*
X018828Y0034*
Y004983*
X018878Y005005*
X018887Y004999*
X018918Y004993*
X019233*
X019264Y004999*
X01929Y005016*
X019307Y005042*
X019313Y005073*
Y005147*
X019602Y005436*
X019652Y005415*
Y004138*
X019658Y004107*
X019676Y004081*
X019702Y004064*
X019732Y004058*
X021019*
X021038Y004012*
X020689Y003663*
X0206Y003671*
X02045Y003657*
X020305Y003613*
X020171Y003541*
X020055Y003445*
X019959Y003329*
X019887Y003195*
X019843Y00305*
X019829Y0029*
X019843Y002749*
X019887Y002605*
X019959Y002471*
X020055Y002355*
X020171Y002259*
X020305Y002187*
X02045Y002143*
X0206Y002129*
X020751Y002143*
X020895Y002187*
X021029Y002259*
X021145Y002355*
X021241Y002471*
X021313Y002605*
X021357Y002749*
X021371Y0029*
X021363Y002989*
X022087Y003713*
X022163Y003812*
X02221Y003927*
X022227Y00405*
Y004058*
X023768*
X023798Y004064*
X023824Y004081*
X023842Y004107*
X023848Y004138*
Y005519*
X023883Y005543*
X024Y005659*
X024045*
X024061Y005649*
X024091Y005643*
X024406*
X024437Y005649*
X024463Y005666*
X02448Y005692*
X024487Y005723*
Y005884*
X02449Y0059*
X024487Y005916*
Y006077*
X02448Y006108*
X024463Y006134*
X024437Y006151*
X024406Y006157*
X024091*
X024061Y006151*
X024045Y006141*
X0239*
X023887Y006138*
X023848Y00617*
Y007288*
X023842Y007319*
X023824Y007345*
X023798Y007362*
X023768Y007368*
X021991*
Y008373*
X022041Y008388*
X02208Y00833*
X02273Y00768*
X022808Y007627*
X0229Y007609*
X02395*
X024042Y007627*
X02412Y00768*
X02472Y00828*
X024773Y008358*
X024791Y00845*
Y011295*
X024773Y011387*
X02472Y011466*
X024413Y011773*
Y011827*
X024407Y011858*
X02439Y011884*
X024364Y011901*
X024333Y011907*
X024057*
X024027Y011901*
X024001Y011884*
X023983Y011858*
X023977Y011827*
Y011749*
X023973Y011742*
X023954Y01165*
X023973Y011558*
X023977Y011551*
Y011473*
X023983Y011442*
X024001Y011416*
X024027Y011399*
X024057Y011393*
X024112*
X024309Y011196*
Y00855*
X02385Y008091*
X023*
X022491Y0086*
Y008842*
X022518Y008856*
X022541Y008861*
X022562Y008847*
X022593Y008841*
X022907*
X022938Y008847*
X022958Y00886*
X022965Y008865*
X023017Y008854*
X02302Y00885*
X023054Y008827*
X023093Y00882*
X0232*
Y00965*
Y01048*
X023142*
X023121Y01053*
X02327Y01068*
X023323Y010758*
X023341Y01085*
X023336Y010874*
Y01115*
X023318Y011242*
X023313Y011249*
Y011327*
X023307Y011358*
X02329Y011384*
X023264Y011401*
X023233Y011407*
X022957*
X022927Y011401*
X022901Y011384*
X022883Y011358*
X022877Y011327*
Y011249*
X022873Y011242*
X022854Y01115*
Y010945*
X022778Y010869*
X022741Y010902*
Y011126*
X022746Y01115*
X022727Y011242*
X022723Y011249*
Y011327*
X022717Y011358*
X022699Y011384*
X022673Y011401*
X022665Y011403*
Y011745*
X022653Y011807*
X022618Y011859*
X022384Y012093*
X022403Y012139*
X023369*
Y011674*
X023364Y01165*
X023382Y011558*
X023387Y011551*
Y011473*
X023393Y011442*
X02341Y011416*
X023436Y011399*
X023467Y011393*
X023743*
X023773Y011399*
X023799Y011416*
X023817Y011442*
X023823Y011473*
Y011549*
X023832Y011563*
X02385Y011655*
Y0123*
X023832Y012392*
X023828Y012399*
Y012477*
X023821Y012508*
X023804Y012534*
X023778Y012551*
X023747Y012557*
X023472*
X023441Y012551*
X023415Y012534*
X023397Y012508*
X023391Y012477*
Y012461*
X022381*
X02227Y012571*
X022218Y012606*
X022157Y012618*
X019343*
X019282Y012606*
X01923Y012571*
X019119Y012461*
X016617*
X016111Y012967*
Y013083*
X016327Y0133*
X01649*
X016522Y01325*
X016513Y013204*
X016526Y013139*
X016563Y013084*
Y013069*
X016526Y013014*
X016513Y012948*
X016526Y012883*
X016563Y012828*
X016618Y012791*
X016683Y012778*
X017333*
X017398Y012791*
X017454Y012828*
X017491Y012883*
X017504Y012948*
X017546Y012989*
X017933*
X018136Y012786*
X018189Y012752*
X01825Y012739*
X022655*
X022716Y012752*
X022768Y012786*
X023224Y013243*
X023393*
X023423Y013249*
X023449Y013266*
X023467Y013292*
X023473Y013323*
Y013405*
X023491Y013495*
Y013819*
X023506Y013842*
X023512Y013873*
Y014227*
X023506Y014258*
X023491Y014281*
Y014892*
X023518Y014906*
X023541Y014911*
X023562Y014897*
G37*
G36*
X018989Y017033D02*
Y014603D01*
X019002Y014541*
X019036Y014489*
X019139Y014386*
X019191Y014352*
X019253Y014339*
X019487*
Y014323*
X019493Y014292*
X01951Y014266*
X019536Y014249*
X019567Y014243*
X019843*
X019873Y014249*
X019899Y014266*
X019917Y014292*
X019923Y014323*
Y014339*
X020077*
Y014323*
X020083Y014292*
X020101Y014266*
X020127Y014249*
X020157Y014243*
X020433*
X020464Y014249*
X02049Y014266*
X020507Y014292*
X020513Y014323*
Y014339*
X0209*
X020961Y014352*
X021014Y014386*
X021364Y014736*
X021398Y014789*
X021411Y01485*
Y014892*
X021438Y014897*
X021459Y014911*
X021482Y014906*
X021509Y014892*
Y01475*
X020737Y013977*
X0207Y013982*
X020601Y013969*
X020509Y013931*
X02043Y01387*
X020369Y013791*
X020331Y013699*
X020318Y0136*
X020331Y013501*
X020369Y013409*
X02043Y01333*
X020509Y013269*
X020601Y013231*
X0207Y013218*
X020799Y013231*
X020891Y013269*
X02097Y01333*
X021031Y013409*
X021069Y013501*
X021082Y0136*
X021077Y013637*
X021891Y01445*
X021941Y014429*
Y01435*
X0222*
Y01425*
X021941*
Y014123*
X021948Y014084*
X02197Y014051*
X022004Y014029*
X022007Y014028*
Y013977*
X021978Y013971*
X021945Y013949*
X021923Y013916*
X021915Y013877*
Y01375*
X022155*
X022394*
Y013877*
X022387Y013916*
X022365Y013949*
X022332Y013971*
X022339Y014021*
X022357*
X022397Y014029*
X02243Y014051*
X022452Y014084*
X022459Y014123*
X022509Y014122*
Y01365*
X022527Y013559*
Y013523*
X022533Y013492*
X022551Y013466*
X022577Y013449*
X022607Y013443*
X022635*
X022658Y013427*
X02275Y013409*
X022842Y013427*
X022865Y013443*
X022883*
X022904Y013447*
X022929Y013414*
X022933Y013405*
X022588Y013061*
X018317*
X018114Y013264*
X018061Y013298*
X018Y013311*
X017576*
X017569Y013318*
X017521Y01335*
X0175Y013372*
X017491Y013395*
X017504Y01346*
X017491Y013526*
X017475Y013549*
X017457Y013588*
X017475Y013627*
X017491Y013651*
X017504Y013716*
X017491Y013781*
X017454Y013837*
Y013851*
X017491Y013907*
X017504Y013972*
X017491Y014037*
X017475Y014061*
X017457Y0141*
X017475Y014139*
X017491Y014163*
X017504Y014228*
X017491Y014293*
X017454Y014349*
Y014363*
X017491Y014419*
X017504Y014484*
X017491Y014549*
X0175Y014572*
X017521Y014594*
X017569Y014626*
X018064Y015121*
X018098Y015173*
X018111Y015235*
Y0156*
X018098Y015661*
X018064Y015714*
X017661Y016117*
Y016912*
X017689Y016923*
X017767Y016983*
X017827Y017061*
X017864Y017152*
X017877Y01725*
X017864Y017348*
X017827Y017439*
X017767Y017517*
X017689Y017577*
X017598Y017614*
X0175Y017627*
X017402Y017614*
X017311Y017577*
X017233Y017517*
X017173Y017439*
X017136Y017348*
X017123Y01725*
X017136Y017152*
X017173Y017061*
X017233Y016983*
X017311Y016923*
X017339Y016912*
Y01605*
X017352Y015989*
X017386Y015936*
X017789Y015533*
Y015301*
X01754Y015051*
X017487Y015068*
X017465Y015113*
X017469Y015116*
X017511Y015178*
X017515Y015202*
X017008*
X016497*
X016465Y015156*
X016371*
X016161Y015367*
Y015833*
X016614Y016286*
X016648Y016339*
X016661Y0164*
Y016912*
X016689Y016923*
X016767Y016983*
X016827Y017061*
X016864Y017152*
X016877Y01725*
X016864Y017348*
X016827Y017439*
X016767Y017517*
X016689Y017577*
X016598Y017614*
X0165Y017627*
X016402Y017614*
X016311Y017577*
X016233Y017517*
X016173Y017439*
X016136Y017348*
X016123Y01725*
X016136Y017152*
X016173Y017061*
X016233Y016983*
X016311Y016923*
X016339Y016912*
Y016467*
X015886Y016014*
X015852Y015961*
X015839Y0159*
Y0153*
X015852Y015239*
X015886Y015186*
X016191Y014882*
X016243Y014847*
X016304Y014835*
X01649*
X016522Y014785*
X016513Y01474*
X016526Y014674*
X016542Y014651*
X016559Y014612*
X016542Y014573*
X016526Y014549*
X016513Y014484*
X016526Y014419*
X016563Y014363*
Y014349*
X016526Y014293*
X016513Y014228*
X016526Y014163*
X016542Y014139*
X016559Y0141*
X016542Y014061*
X016526Y014037*
X016513Y013972*
X016526Y013907*
X016563Y013851*
Y013837*
X016526Y013781*
X016513Y013716*
X016522Y013671*
X01649Y013621*
X01626*
X016199Y013609*
X016147Y013574*
X015836Y013264*
X015802Y013211*
X015789Y01315*
Y0129*
X015802Y012839*
X015836Y012786*
X016436Y012186*
X016489Y012152*
X01655Y012139*
X019097*
X019116Y012093*
X018883Y011861*
X015617*
X015211Y012267*
Y014428*
X015198Y01449*
X015164Y014542*
X014873Y014833*
X014865Y014878*
X014875Y014898*
X015114Y015136*
X015148Y015189*
X015161Y01525*
Y016965*
X015208Y016981*
X015218Y016968*
X015301Y016905*
X015397Y016865*
X01545Y016858*
Y01725*
Y017642*
X015397Y017635*
X015301Y017595*
X015218Y017532*
X015208Y017519*
X015161Y017535*
Y017633*
X015867Y018339*
X017683*
X018989Y017033*
G37*
G36*
X014889Y014362D02*
Y0122D01*
X014902Y012139*
X014936Y012086*
X015436Y011586*
X015482Y011556*
Y011532*
X015474Y011506*
X014221*
X013611Y012117*
Y013233*
X013677Y0133*
X013774*
X013805Y01325*
X013796Y013204*
X013809Y013139*
X013825Y013115*
X013843Y013076*
X013825Y013038*
X013809Y013014*
X013796Y012948*
X013809Y012883*
X013846Y012828*
X013902Y012791*
X013967Y012778*
X014617*
X014682Y012791*
X014737Y012828*
X014774Y012883*
X014787Y012948*
X014774Y013014*
X014758Y013038*
X014741Y013076*
X014758Y013115*
X014774Y013139*
X014787Y013204*
X014774Y01327*
X014737Y013325*
Y01334*
X014774Y013395*
X014787Y01346*
X014774Y013526*
X014758Y013549*
X014741Y013588*
X014758Y013627*
X014774Y013651*
X014787Y013716*
X014774Y013781*
X014737Y013837*
Y013851*
X014774Y013907*
X014787Y013972*
X014774Y014037*
X014758Y014061*
X014741Y0141*
X014758Y014139*
X014774Y014163*
X014787Y014228*
X014774Y014293*
X014737Y014349*
Y014363*
X014769Y014411*
X014823Y014428*
X014889Y014362*
G37*
%LNteste2pcb-4*%
%LPC*%
G36*
X021795Y011979D02*
X021707D01*
X021668Y011971*
X021635Y011949*
X021613Y011916*
X021606Y011877*
Y01175*
X021795*
Y011979*
G37*
G36*
X022109Y01105D02*
X0219D01*
Y010821*
X022007*
X022046Y010829*
X02208Y010851*
X022102Y010884*
X022109Y010923*
Y01105*
G37*
G36*
X0218D02*
X021591D01*
Y010923*
X021598Y010884*
X02162Y010851*
X021653Y010829*
X021693Y010821*
X0218*
Y01105*
G37*
G36*
X022085Y01165D02*
X021845D01*
X021606*
Y011523*
X021613Y011484*
X021635Y011451*
X021668Y011429*
X021677Y011427*
Y011376*
X021653Y011371*
X02162Y011349*
X021598Y011316*
X021591Y011277*
Y01115*
X02185*
Y0111*
Y01115*
X022109*
Y011277*
X022102Y011316*
X02208Y011349*
X022046Y011371*
X022018Y011377*
Y011428*
X022022Y011429*
X022055Y011451*
X022077Y011484*
X022085Y011523*
Y01165*
G37*
G36*
X02475Y00585D02*
X024541D01*
Y005723*
X024548Y005684*
X02457Y005651*
X024604Y005629*
X024643Y005621*
X02475*
Y00585*
G37*
G36*
X024957Y006179D02*
X02485D01*
Y00595*
X025059*
Y006077*
X025052Y006116*
X02503Y006149*
X024997Y006171*
X024957Y006179*
G37*
G36*
X02475D02*
X024643D01*
X024604Y006171*
X02457Y006149*
X024548Y006116*
X024541Y006077*
Y00595*
X02475*
Y006179*
G37*
G36*
X025059Y00585D02*
X02485D01*
Y005621*
X024957*
X024997Y005629*
X02503Y005651*
X025052Y005684*
X025059Y005723*
Y00585*
G37*
G36*
X023795Y01345D02*
X023606D01*
Y013323*
X023613Y013284*
X023635Y013251*
X023668Y013229*
X023707Y013221*
X023795*
Y01345*
G37*
G36*
X024085D02*
X023895D01*
Y013221*
X023983*
X024022Y013229*
X024055Y013251*
X024077Y013284*
X024085Y013323*
Y01345*
G37*
G36*
X023509Y0096D02*
X0233D01*
Y00882*
X023407*
X023447Y008827*
X02348Y00885*
X023502Y008883*
X023509Y008922*
Y0096*
G37*
G36*
X023776Y014329D02*
X023668D01*
X023629Y014321*
X023596Y014299*
X023574Y014266*
X023566Y014227*
Y0141*
X023776*
Y014329*
G37*
G36*
X024085Y014D02*
X023826D01*
X023566*
Y013873*
X023574Y013834*
X023596Y013801*
X023609Y013792*
X023627Y013763*
X023622Y013729*
X023613Y013716*
X023606Y013677*
Y01355*
X023845*
Y0135*
Y01355*
X024085*
Y013677*
X024077Y013716*
X024055Y013749*
Y013801*
X024077Y013834*
X024085Y013873*
Y014*
G37*
G36*
X023407Y01048D02*
X0233D01*
Y0097*
X023509*
Y010378*
X023502Y010417*
X02348Y01045*
X023447Y010473*
X023407Y01048*
G37*
G36*
X015892Y0172D02*
X01555D01*
Y016858*
X015603Y016865*
X015699Y016905*
X015782Y016968*
X015845Y017051*
X015885Y017147*
X015892Y0172*
G37*
G36*
X01555Y017642D02*
Y0173D01*
X015892*
X015885Y017353*
X015845Y017449*
X015782Y017532*
X015699Y017595*
X015603Y017635*
X01555Y017642*
G37*
G36*
X022105Y01365D02*
X021915D01*
Y013523*
X021923Y013484*
X021945Y013451*
X021978Y013429*
X022017Y013421*
X022105*
Y01365*
G37*
G36*
X016958Y015444D02*
X016683D01*
X01661Y015429*
X016547Y015388*
X016506Y015325*
X016501Y015302*
X016958*
Y015444*
G37*
G36*
X017333D02*
X017058D01*
Y015302*
X017515*
X017511Y015325*
X017469Y015388*
X017407Y015429*
X017333Y015444*
G37*
G36*
X022394Y01365D02*
X022205D01*
Y013421*
X022293*
X022332Y013429*
X022365Y013451*
X022387Y013484*
X022394Y013523*
Y01365*
G37*
%LNteste2pcb-5*%
%LPD*%
G54D10*
X00475Y010281D03*
Y009219D03*
G54D11*
X007944Y009201D03*
G54D12*
X00885Y009201D03*
X009756D03*
G54D13*
X00885Y011799D03*
G54D14*
X00805Y005101D03*
Y00455D03*
X00605Y009224D03*
Y009776D03*
X025Y014374D03*
Y014926D03*
G54D15*
X004355Y0074D03*
X004945D03*
X023255Y0135D03*
X023845D03*
X020295Y0145D03*
X019705D03*
X022505Y01115D03*
X023095D03*
X022745Y0137D03*
X022155D03*
X021255Y0117D03*
X021845D03*
X023605Y01165D03*
X024195D03*
X023609Y0123D03*
X0242D03*
G54D16*
X003437Y0062D03*
Y0044D03*
G54D17*
X00635Y0053D03*
G54D18*
X001972Y00765D03*
X003428D03*
G54D19*
X0195Y0198D03*
X018949D03*
X024249Y0059D03*
X0248D03*
X020726Y0108D03*
X020174D03*
X022751Y0143D03*
X0222D03*
X021299Y0111D03*
X02185D03*
X01855Y00635D03*
X017999D03*
X023274Y01405D03*
X023826D03*
X018524Y00525D03*
X019076D03*
G54D20*
X01955Y011345D03*
Y010755D03*
G54D21*
X02075Y0157D03*
X02125D03*
X02175D03*
X02225D03*
X02275D03*
X02325D03*
X02375D03*
X02325Y00965D03*
X02275D03*
X02225D03*
X02175D03*
X02125D03*
X02075D03*
X02025D03*
G54D22*
X02225Y019637D03*
X02175Y005713D03*
G54D23*
X011319Y01055D03*
X012382D03*
G54D24*
X014292Y015252D03*
Y014996D03*
Y01474D03*
Y014484D03*
Y014228D03*
Y013972D03*
Y013716D03*
Y01346D03*
Y013204D03*
Y012948D03*
X017008Y015252D03*
Y014996D03*
Y01474D03*
Y014484D03*
Y014228D03*
Y013972D03*
Y013716D03*
Y01346D03*
Y013204D03*
Y012948D03*
G54D25*
X02175Y005713D02*
Y00965D01*
X02035Y011405D02*
X02075Y011005D01*
X019539Y005713D02*
X02175D01*
X019076Y00525D02*
X019539Y005713D01*
X02125Y00965D02*
Y011851D01*
X02225Y0157D02*
Y019637D01*
X023713Y005713D02*
X0239Y0059D01*
X024249*
X02175Y005713D02*
X023713D01*
X019663Y019637D02*
X02225D01*
X0195Y0198D02*
X019663Y019637D01*
X0145Y01585D02*
Y01725D01*
X02225Y0085D02*
Y00965D01*
Y0085D02*
X0229Y00785D01*
X02395*
X02455Y00845*
Y011295*
X024195Y01165D02*
X02455Y011295D01*
X023609Y011655D02*
Y0123D01*
X023605Y01165D02*
X023609Y011655D01*
X02275Y00965D02*
Y01055D01*
X0225Y0108D02*
X02275Y01055D01*
X0225Y0108D02*
Y011145D01*
X022505Y01115*
X02275Y01055D02*
X0228D01*
X0231Y01085*
X023095Y010855D02*
X0231Y01085D01*
X023095Y010855D02*
Y01115D01*
X02075Y00965D02*
Y011005D01*
X01937Y011405D02*
X02035D01*
X02325Y013495D02*
Y01405D01*
Y0157*
X02275Y01365D02*
Y0143D01*
Y0157*
X02175Y01465D02*
Y0157D01*
X0207Y0136D02*
X02175Y01465D01*
X0242Y0123D02*
X0247D01*
X0249Y0125*
X0176Y00175D02*
Y00245D01*
X01735Y0015D02*
X0176Y00175D01*
X014Y01535D02*
X0144D01*
X014D02*
X0145Y01585D01*
G54D26*
X003437Y0062D02*
Y007642D01*
X003428Y00765D02*
X003437Y007642D01*
G54D27*
X00195Y007628D02*
X001972Y00765D01*
Y008372*
X019576Y008426D02*
X019826D01*
X02005Y00865*
X01855Y0074D02*
X019576Y008426D01*
X00885Y009201D02*
Y011799D01*
X00195Y00475D02*
Y007628D01*
Y00475D02*
X0023Y0044D01*
X003437*
X0023Y00375D02*
Y0044D01*
Y00375D02*
X0026Y00345D01*
X0075*
X00765Y0033*
X02225Y019637D02*
X023437Y01845D01*
X02405*
X025Y0175*
Y014926D02*
Y0175D01*
Y0137D02*
Y014374D01*
X02395Y01475D02*
X025Y0137D01*
X01Y0163D02*
X0117Y018D01*
X01385*
X0145Y01735*
Y01725D02*
Y01735D01*
X01855Y00635D02*
Y0074D01*
X01025Y0064D02*
X01095D01*
X00765Y0033D02*
X00955D01*
X0113*
X001972Y008372D02*
X002801Y009201D01*
X01Y01325D02*
Y0163D01*
Y01325D02*
X01135Y0119D01*
X0107Y0091D02*
X01135Y00975D01*
X010599Y009201D02*
X0107Y0091D01*
X009756Y009201D02*
X010599D01*
X025Y0137D02*
X0256Y0131D01*
Y0046D02*
Y0131D01*
X0225Y0015D02*
X0256Y0046D01*
X0113Y0033D02*
X0131Y0015D01*
X0176Y00245D02*
X01855Y0034D01*
X0131Y0015D02*
X01735D01*
X0225*
X01135Y00975D02*
Y0119D01*
X00955Y0033D02*
Y00515D01*
X00985Y00545*
Y006*
X01025Y0064*
X002801Y009201D02*
X007944D01*
X01855Y0034D02*
Y00635D01*
X02005Y00865D02*
Y0102D01*
X02395Y01475D02*
Y01625D01*
X0064Y0057D02*
X006746Y005354D01*
G54D28*
X003428Y00765D02*
X00405D01*
X00425Y00745*
X004355*
X02125Y01485D02*
Y0157D01*
X01285Y0166D02*
X0135Y01725D01*
X01285Y01475D02*
Y0166D01*
Y01475D02*
X013111Y014489D01*
X013839*
X014155Y011345D02*
X01955D01*
X01361Y01346D02*
X013845D01*
X0165Y0164D02*
Y01725D01*
X016Y0159D02*
X0165Y0164D01*
X016Y0153D02*
Y0159D01*
Y0153D02*
X016304Y014996D01*
X016561*
X0175Y01605D02*
Y01725D01*
Y01605D02*
X01795Y0156D01*
Y015235D02*
Y0156D01*
X017455Y01474D02*
X01795Y015235D01*
X022505Y01115D02*
Y011745D01*
X014739Y01474D02*
X01505Y014428D01*
Y0122D02*
Y014428D01*
Y0122D02*
X01555Y0117D01*
X01895*
X01345Y01205D02*
X014155Y011345D01*
X01345Y01205D02*
Y0133D01*
X01361Y01346*
X022314Y0123D02*
X023609D01*
X022157Y012457D02*
X022314Y0123D01*
X019343Y012457D02*
X022157D01*
X01595Y0129D02*
Y01315D01*
X01626Y01346*
X016561*
X01825Y0129D02*
X022655D01*
X018Y01315D02*
X01825Y0129D01*
X01751Y01315D02*
X018D01*
X017455Y013204D02*
X01751Y01315D01*
X022655Y0129D02*
X02325Y013495D01*
X023255Y0135*
X015Y01525D02*
Y0177D01*
X01475Y015D02*
X015Y01525D01*
Y0177D02*
X0158Y0185D01*
X01775*
X0209Y0145D02*
X02125Y01485D01*
X020295Y0145D02*
X0209D01*
X01775Y0185D02*
X01915Y0171D01*
X019253Y0145D02*
X019695D01*
X01915Y014603D02*
Y0171D01*
Y014603D02*
X019253Y0145D01*
X019705D02*
X020295D01*
X019186Y0123D02*
X019343Y012457D01*
X01595Y0129D02*
X01655Y0123D01*
X019186*
X02205Y0122D02*
X022505Y011745D01*
X01895Y0117D02*
X01945Y0122D01*
X02205*
G54D29*
X02225Y019637D02*
X025937D01*
X0264Y0201*
X02175Y00405D02*
Y005713D01*
X0206Y0029D02*
X02175Y00405D01*
X009062Y006362D02*
Y007012D01*
X00945Y0074*
X00635Y0053D02*
Y005354D01*
X008054D02*
X009062Y006362D01*
X006746Y005354D02*
X008054D01*
X00635D02*
X006746D01*
G54D30*
X01095Y0056D03*
G54D31*
X01095Y0064D03*
G54D32*
X0135Y01725D03*
G54D33*
X0145Y01725D03*
X0155D03*
X0165D03*
X0175D03*
G54D34*
X0207Y0136D03*
X0249Y0125D03*
G54D35*
X0206Y0029D03*
X0264Y0201D03*
X00685Y01595D03*
X00945Y0076D03*
M02*