%FSTAX24Y24*%
%MOIN*%
%SFA1B1*%

%IPPOS*%
%AMD11*
4,1,8,0.016200,0.034400,-0.016200,0.034400,-0.021600,0.029000,-0.021600,-0.029000,-0.016200,-0.034400,0.016200,-0.034400,0.021600,-0.029000,0.021600,0.029000,0.016200,0.034400,0.0*
1,1,0.010800,0.016200,0.029000*
1,1,0.010800,-0.016200,0.029000*
1,1,0.010800,-0.016200,-0.029000*
1,1,0.010800,0.016200,-0.029000*
%
%AMD12*
4,1,8,0.016200,0.034400,-0.016200,0.034400,-0.021600,0.029000,-0.021600,-0.029000,-0.016200,-0.034400,0.016200,-0.034400,0.021600,-0.029000,0.021600,0.029000,0.016200,0.034400,0.0*
1,1,0.010800,0.016200,0.029000*
1,1,0.010800,-0.016200,0.029000*
1,1,0.010800,-0.016200,-0.029000*
1,1,0.010800,0.016200,-0.029000*
%
%AMD13*
4,1,8,0.060300,0.034400,-0.060300,0.034400,-0.068900,0.025800,-0.068900,-0.025800,-0.060300,-0.034400,0.060300,-0.034400,0.068900,-0.025800,0.068900,0.025800,0.060300,0.034400,0.0*
1,1,0.017200,0.060300,0.025800*
1,1,0.017200,-0.060300,0.025800*
1,1,0.017200,-0.060300,-0.025800*
1,1,0.017200,0.060300,-0.025800*
%
%AMD16*
4,1,8,0.031500,-0.014800,0.031500,0.014800,0.026600,0.019700,-0.026600,0.019700,-0.031500,0.014800,-0.031500,-0.014800,-0.026600,-0.019700,0.026600,-0.019700,0.031500,-0.014800,0.0*
1,1,0.009800,0.026600,-0.014800*
1,1,0.009800,0.026600,0.014800*
1,1,0.009800,-0.026600,0.014800*
1,1,0.009800,-0.026600,-0.014800*
%
%AMD17*
4,1,8,0.112200,-0.081100,0.112200,0.081100,0.085100,0.108200,-0.085100,0.108200,-0.112200,0.081100,-0.112200,-0.081100,-0.085100,-0.108200,0.085100,-0.108200,0.112200,-0.081100,0.0*
1,1,0.054200,0.085100,-0.081100*
1,1,0.054200,0.085100,0.081100*
1,1,0.054200,-0.085100,0.081100*
1,1,0.054200,-0.085100,-0.081100*
%
%AMD18*
4,1,8,0.019700,-0.011800,0.019700,0.011800,0.015800,0.015700,-0.015800,0.015700,-0.019700,0.011800,-0.019700,-0.011800,-0.015800,-0.015700,0.015800,-0.015700,0.019700,-0.011800,0.0*
1,1,0.007800,0.015800,-0.011800*
1,1,0.007800,0.015800,0.011800*
1,1,0.007800,-0.015800,0.011800*
1,1,0.007800,-0.015800,-0.011800*
%
%AMD31*
4,1,8,0.035000,-0.022500,0.035000,0.022500,0.027500,0.030000,-0.027500,0.030000,-0.035000,0.022500,-0.035000,-0.022500,-0.027500,-0.030000,0.027500,-0.030000,0.035000,-0.022500,0.0*
1,1,0.015000,0.027500,-0.022500*
1,1,0.015000,0.027500,0.022500*
1,1,0.015000,-0.027500,0.022500*
1,1,0.015000,-0.027500,-0.022500*
%
%ADD10R,0.066900X0.043300*%
G04~CAMADD=11~8~0.0~0.0~433.0~689.0~54.0~0.0~15~0.0~0.0~0.0~0.0~0~0.0~0.0~0.0~0.0~0~0.0~0.0~0.0~0.0~433.0~689.0*
%ADD11D11*%
G04~CAMADD=12~8~0.0~0.0~433.0~689.0~54.0~0.0~15~0.0~0.0~0.0~0.0~0~0.0~0.0~0.0~0.0~0~0.0~0.0~0.0~0.0~433.0~689.0*
%ADD12D12*%
G04~CAMADD=13~8~0.0~0.0~1378.0~689.0~86.0~0.0~15~0.0~0.0~0.0~0.0~0~0.0~0.0~0.0~0.0~0~0.0~0.0~0.0~0.0~1378.0~689.0*
%ADD13D13*%
%ADD14R,0.035400X0.031500*%
%ADD15R,0.027600X0.035400*%
G04~CAMADD=16~8~0.0~0.0~394.0~630.0~49.0~0.0~15~0.0~0.0~0.0~0.0~0~0.0~0.0~0.0~0.0~0~0.0~0.0~0.0~270.0~630.0~394.0*
%ADD16D16*%
G04~CAMADD=17~8~0.0~0.0~2165.0~2244.0~271.0~0.0~15~0.0~0.0~0.0~0.0~0~0.0~0.0~0.0~0.0~0~0.0~0.0~0.0~270.0~2244.0~2164.0*
%ADD17D17*%
G04~CAMADD=18~8~0.0~0.0~315.0~394.0~39.0~0.0~15~0.0~0.0~0.0~0.0~0~0.0~0.0~0.0~0.0~0~0.0~0.0~0.0~270.0~394.0~314.0*
%ADD18D18*%
%ADD19R,0.031500X0.035400*%
%ADD20R,0.035400X0.027600*%
%ADD21R,0.031500X0.145700*%
%ADD22R,0.403500X0.315000*%
%ADD23R,0.043300X0.066900*%
%ADD24O,0.082700X0.017700*%
%ADD25C,0.078700*%
%ADD26C,0.039400*%
%ADD27C,0.015700*%
%ADD28C,0.031500*%
%ADD29C,0.023600*%
%ADD30O,0.070000X0.060000*%
G04~CAMADD=31~8~0.0~0.0~600.0~700.0~75.0~0.0~15~0.0~0.0~0.0~0.0~0~0.0~0.0~0.0~0.0~0~0.0~0.0~0.0~270.0~700.0~600.0*
%ADD31D31*%
%ADD32R,0.059100X0.059100*%
%ADD33C,0.059100*%
%ADD34C,0.060000*%
%ADD35C,0.137800*%
%LNteste2.1pcb-1*%
%LPD*%
G36*
X03075Y000015D02*
X030704Y-000004D01*
X0307Y0*
X000035*
X0Y000035*
X00005Y0223*
X03075*
Y000015*
G37*
%LNteste2.1pcb-2*%
%LPC*%
G36*
X012332Y0105D02*
X012063D01*
Y010215*
X012071Y010176*
X012093Y010143*
X012126Y010121*
X012165Y010113*
X012332*
Y0105*
G37*
G36*
X0127D02*
X012431D01*
Y010113*
X012598*
X012637Y010121*
X01267Y010143*
X012692Y010176*
X0127Y010215*
Y0105*
G37*
G36*
X0047Y0106D02*
X004415D01*
X004376Y010592*
X004343Y01057*
X004321Y010537*
X004313Y010498*
Y010331*
X0047*
Y0106*
G37*
G36*
X005187Y010231D02*
X0048D01*
Y009963*
X005085*
X005124Y009971*
X005157Y009993*
X005179Y010026*
X005187Y010065*
Y010231*
G37*
G36*
X006Y010035D02*
X005873D01*
X005834Y010027*
X005801Y010005*
X005779Y009972*
X005771Y009933*
Y009826*
X006*
Y010035*
G37*
G36*
X006227D02*
X0061D01*
Y009826*
X006329*
Y009933*
X006321Y009972*
X006299Y010005*
X006266Y010027*
X006227Y010035*
G37*
G36*
X0047Y010231D02*
X004313D01*
Y010065*
X004321Y010026*
X004343Y009993*
X004376Y009971*
X004415Y009963*
X0047*
Y010231*
G37*
G36*
X012598Y010987D02*
X012431D01*
Y0106*
X0127*
Y010885*
X012692Y010924*
X01267Y010957*
X012637Y010979*
X012598Y010987*
G37*
G36*
X0195Y010994D02*
X019373D01*
X019334Y010987*
X019301Y010965*
X019279Y010932*
X019271Y010893*
Y010805*
X0195*
Y010994*
G37*
G36*
X019727D02*
X0196D01*
Y010805*
X019829*
Y010893*
X019821Y010932*
X019799Y010965*
X019766Y010987*
X019727Y010994*
G37*
G36*
X012332Y010987D02*
X012165D01*
X012126Y010979*
X012093Y010957*
X012071Y010924*
X012063Y010885*
Y0106*
X012332*
Y010987*
G37*
G36*
X005085Y0106D02*
X0048D01*
Y010331*
X005187*
Y010498*
X005179Y010537*
X005157Y01057*
X005124Y010592*
X005085Y0106*
G37*
G36*
X0195Y010705D02*
X019271D01*
Y010617*
X019279Y010578*
X019301Y010545*
X019334Y010523*
X019373Y010515*
X0195*
Y010705*
G37*
G36*
X019829D02*
X0196D01*
Y010515*
X019727*
X019766Y010523*
X019799Y010545*
X019821Y010578*
X019829Y010617*
Y010705*
G37*
G36*
X017949Y0063D02*
X017739D01*
Y006173*
X017747Y006134*
X017769Y006101*
X017802Y006079*
X017841Y006071*
X017949*
Y0063*
G37*
G36*
Y006629D02*
X017841D01*
X017802Y006621*
X017769Y006599*
X017747Y006566*
X017739Y006527*
Y0064*
X017949*
Y006629*
G37*
G36*
X003586Y007929D02*
X003271D01*
X003209Y007916*
X003157Y007882*
X003123Y00783*
X00311Y007768*
Y007532*
X003123Y00747*
X003157Y007418*
X003196Y007393*
Y006518*
X003171*
X003106Y006505*
X00305Y006468*
X003013Y006413*
X003Y006347*
Y006052*
X003013Y005987*
X00305Y005931*
X003106Y005894*
X003171Y005881*
X003702*
X003768Y005894*
X003823Y005931*
X00386Y005987*
X003873Y006052*
Y006347*
X00386Y006413*
X003823Y006468*
X003768Y006505*
X003702Y006518*
X003677*
Y007404*
X003699Y007418*
X00372Y007449*
X003967*
X004097Y00732*
Y007223*
X004106Y007177*
X004132Y007138*
X004171Y007112*
X004217Y007102*
X004493*
X004539Y007112*
X004578Y007138*
X004604Y007177*
X004613Y007223*
Y007577*
X004604Y007623*
X004578Y007662*
X004539Y007688*
X004493Y007698*
X004286*
X004192Y007792*
X004127Y007835*
X00405Y007851*
X00372*
X003699Y007882*
X003647Y007916*
X003586Y007929*
G37*
G36*
X011397Y00555D02*
X011D01*
Y005197*
X011104Y00521*
X011202Y005251*
X011285Y005315*
X011349Y005398*
X01139Y005496*
X011397Y00555*
G37*
G36*
X008Y0045D02*
X007771D01*
Y004393*
X007779Y004354*
X007801Y00432*
X007834Y004298*
X007873Y004291*
X008*
Y0045*
G37*
G36*
X008329D02*
X0081D01*
Y004291*
X008227*
X008266Y004298*
X008299Y00432*
X008321Y004354*
X008329Y004393*
Y0045*
G37*
G36*
X0109Y00555D02*
X010503D01*
X01051Y005496*
X010551Y005398*
X010615Y005315*
X010698Y005251*
X010796Y00521*
X0109Y005197*
Y00555*
G37*
G36*
X0088Y009151D02*
X00853D01*
Y00891*
X008542Y00885*
X008576Y008799*
X008627Y008765*
X008688Y008753*
X0088*
Y009151*
G37*
G36*
X00917D02*
X0089D01*
Y008753*
X009012*
X009073Y008765*
X009124Y008799*
X009158Y00885*
X00917Y00891*
Y009151*
G37*
G36*
X009643Y011749D02*
X008057D01*
Y011541*
X008072Y011468*
X008113Y011407*
X008175Y011366*
X008247Y011351*
X008532*
Y009501*
X00853Y009491*
Y009251*
X00917*
Y009491*
X009168Y009501*
Y011351*
X009453*
X009525Y011366*
X009587Y011407*
X009628Y011468*
X009643Y011541*
Y011749*
G37*
G36*
X005083Y007679D02*
X004995D01*
Y00745*
X005185*
Y007577*
X005177Y007616*
X005155Y007649*
X005122Y007671*
X005083Y007679*
G37*
G36*
X004895Y00735D02*
X004706D01*
Y007223*
X004713Y007184*
X004735Y007151*
X004768Y007129*
X004807Y007121*
X004895*
Y00735*
G37*
G36*
X005185D02*
X004995D01*
Y007121*
X005083*
X005122Y007129*
X005155Y007151*
X005177Y007184*
X005185Y007223*
Y00735*
G37*
G36*
X004895Y007679D02*
X004807D01*
X004768Y007671*
X004735Y007649*
X004713Y007616*
X004706Y007577*
Y00745*
X004895*
Y007679*
G37*
G36*
X0207Y01653D02*
X020593D01*
X020554Y016523*
X02052Y0165*
X020498Y016467*
X020491Y016428*
Y01575*
X0207*
Y01653*
G37*
G36*
X009453Y012247D02*
X0089D01*
Y011849*
X009643*
Y012058*
X009628Y01213*
X009587Y012192*
X009525Y012233*
X009453Y012247*
G37*
G36*
X0088D02*
X008247D01*
X008175Y012233*
X008113Y012192*
X008072Y01213*
X008057Y012058*
Y011849*
X0088*
Y012247*
G37*
G36*
X0207Y01565D02*
X020491D01*
Y014972*
X020498Y014933*
X02052Y0149*
X020554Y014877*
X020593Y01487*
X0207*
Y01565*
G37*
G36*
X0068Y0159D02*
X006062D01*
X006072Y015795*
X006118Y015647*
X006191Y01551*
X006289Y015389*
X00641Y015291*
X006547Y015218*
X006695Y015172*
X0068Y015162*
Y0159*
G37*
G36*
X007638D02*
X0069D01*
Y015162*
X007005Y015172*
X007153Y015218*
X00729Y015291*
X007411Y015389*
X007509Y01551*
X007582Y015647*
X007628Y015795*
X007638Y0159*
G37*
G36*
X018899Y01975D02*
X018689D01*
Y019623*
X018697Y019584*
X018719Y019551*
X018752Y019529*
X018791Y019521*
X018899*
Y01975*
G37*
G36*
Y020079D02*
X018791D01*
X018752Y020071*
X018719Y020049*
X018697Y020016*
X018689Y019977*
Y01985*
X018899*
Y020079*
G37*
G36*
X024268Y021332D02*
X020232D01*
X020186Y021323*
X020147Y021297*
X020121Y021258*
X020112Y021212*
Y019915*
X019778*
Y019977*
X019769Y020023*
X019743Y020062*
X019704Y020088*
X019657Y020098*
X019343*
X019296Y020088*
X019257Y020062*
X019243Y02004*
X01919Y020037*
X019186Y020038*
X019178Y020049*
X019145Y020071*
X019106Y020079*
X018999*
Y0198*
Y019521*
X019106*
X019145Y019529*
X019178Y019551*
X019186Y019562*
X01919Y019563*
X019243Y01956*
X019257Y019538*
X019296Y019512*
X019343Y019502*
X019404*
X019466Y01944*
X019524Y019396*
X019591Y019369*
X019663Y019359*
X020112*
Y018062*
X020121Y018016*
X020147Y017977*
X020186Y017951*
X020232Y017942*
X021972*
Y016583*
X021922Y016546*
X021907Y016549*
X021593*
X021546Y01654*
X021507Y016514*
X021493*
X021454Y01654*
X021407Y016549*
X021093*
X021046Y01654*
X021007Y016514*
X020951Y016519*
X020947Y016523*
X020907Y01653*
X0208*
Y0157*
Y01487*
X020907*
X020917Y014872*
X020942Y014826*
X020817Y014701*
X020549*
X020544Y014723*
X020518Y014762*
X020479Y014788*
X020433Y014798*
X020157*
X020111Y014788*
X020072Y014762*
X020046Y014723*
X020042Y014701*
X019958*
X019954Y014723*
X019928Y014762*
X019889Y014788*
X019843Y014798*
X019567*
X019521Y014788*
X019482Y014762*
X019456Y014723*
X019451Y014701*
X019351*
Y0171*
X019335Y017177*
X019292Y017242*
X017892Y018642*
X017827Y018685*
X01775Y018701*
X0158*
X015723Y018685*
X015658Y018642*
X014858Y017842*
X014815Y017777*
X014799Y0177*
Y017604*
X014749Y01758*
X014708Y017611*
X014674Y017625*
X014075Y018225*
X014009Y018275*
X013932Y018307*
X01385Y018318*
X0117*
X011618Y018307*
X011541Y018275*
X011475Y018225*
X009775Y016525*
X009725Y016459*
X009693Y016382*
X009682Y0163*
Y01325*
X009693Y013168*
X009725Y013091*
X009775Y013025*
X011032Y011768*
Y01098*
X011017Y01097*
X010991Y010931*
X010982Y010885*
Y010215*
X010991Y010169*
X011017Y01013*
X011032Y01012*
Y009882*
X010661Y00951*
X010599Y009518*
X010088*
X01008Y009558*
X010042Y009615*
X009985Y009653*
X009918Y009667*
X009593*
X009526Y009653*
X009469Y009615*
X009431Y009558*
X009417Y009491*
Y00891*
X009431Y008843*
X009469Y008786*
X009526Y008748*
X009593Y008735*
X009918*
X009985Y008748*
X010042Y008786*
X01008Y008843*
X010088Y008883*
X010468*
X010475Y008875*
X010541Y008825*
X010618Y008793*
X0107Y008782*
X010782Y008793*
X010859Y008825*
X010925Y008875*
X011575Y009525*
X011625Y009591*
X011657Y009668*
X011668Y00975*
Y0119*
X011657Y011982*
X011625Y012059*
X011575Y012125*
X010318Y013382*
Y016168*
X011832Y017682*
X013107*
X013122Y017632*
X01312Y01763*
X013093Y017591*
X013084Y017545*
Y017118*
X012708Y016742*
X012665Y016677*
X012649Y0166*
Y01475*
X012665Y014673*
X012708Y014608*
X012969Y014347*
X013034Y014304*
X013111Y014289*
X013729*
X013761Y01425*
X013756Y014228*
X013772Y014147*
X013804Y0141*
X013772Y014053*
X013756Y013972*
X013772Y013891*
X013804Y013844*
X013772Y013797*
X013756Y013716*
X013759Y0137*
X013728Y013661*
X01361*
X013533Y013646*
X013468Y013602*
X013308Y013442*
X013265Y013377*
X013249Y0133*
Y01205*
X013265Y011973*
X013308Y011908*
X014013Y011203*
X014078Y01116*
X014155Y011145*
X019273*
X019288Y011122*
X019327Y011096*
X019373Y011087*
X019727*
X019773Y011096*
X019812Y011122*
X019815Y011127*
X02*
X020005Y011077*
X019978Y011071*
X019945Y011049*
X019923Y011016*
X019915Y010977*
Y01085*
X020174*
Y01075*
X019915*
Y010623*
X019923Y010584*
X019945Y010551*
X019939Y010495*
X019891Y010475*
X019825Y010425*
X019775Y010359*
X019743Y010282*
X019732Y0102*
Y008782*
X019694Y008743*
X019576*
X019493Y008732*
X019417Y008701*
X019351Y00865*
X018325Y007625*
X018275Y007559*
X018243Y007482*
X018232Y0074*
Y006657*
X018221Y006646*
X018182Y006624*
X018156Y006629*
X018049*
Y00635*
Y006071*
X018156*
X018182Y006076*
X018221Y006054*
X018232Y006043*
Y003532*
X017375Y002675*
X017325Y002609*
X017293Y002532*
X017282Y00245*
X017293Y002368*
X017322Y002298*
Y001865*
X017275Y001818*
X013232*
X011525Y003525*
X011459Y003575*
X011382Y003607*
X0113Y003618*
X009868*
Y005018*
X010075Y005225*
X010125Y005291*
X010157Y005368*
X010168Y00545*
Y005868*
X010382Y006082*
X010505*
X010536Y006036*
X0106Y005993*
X010658Y005981*
X010672Y005936*
Y005929*
X010615Y005885*
X010551Y005802*
X01051Y005704*
X010503Y00565*
X01095*
X011397*
X01139Y005704*
X011349Y005802*
X011285Y005885*
X011228Y005929*
Y005936*
X011242Y005981*
X0113Y005993*
X011364Y006036*
X011407Y0061*
X011422Y006175*
Y006625*
X011407Y0067*
X011364Y006764*
X0113Y006807*
X011225Y006822*
X010675*
X0106Y006807*
X010536Y006764*
X010505Y006718*
X01025*
X010168Y006707*
X010091Y006675*
X010025Y006625*
X009625Y006225*
X009599Y006191*
X009556Y006216*
X009561Y006229*
X009578Y006362*
Y006798*
X009582Y006802*
X009608Y006805*
X00976Y006851*
X009901Y006926*
X010023Y007027*
X010124Y007149*
X010199Y00729*
X010245Y007442*
X010261Y0076*
X010245Y007758*
X010199Y00791*
X010124Y008051*
X010023Y008173*
X009901Y008274*
X00976Y008349*
X009608Y008395*
X00945Y008411*
X009292Y008395*
X00914Y008349*
X008999Y008274*
X008877Y008173*
X008776Y008051*
X008701Y00791*
X008655Y007758*
X008639Y0076*
X008655Y007442*
X008681Y007356*
X008615Y00727*
X008564Y007146*
X008546Y007012*
Y006576*
X00784Y005871*
X007594*
Y006112*
X00758Y006213*
X007541Y006308*
X007479Y006389*
X007397Y006452*
X007303Y006491*
X007201Y006504*
X005499*
X005397Y006491*
X005303Y006452*
X005221Y006389*
X005159Y006308*
X00512Y006213*
X005106Y006112*
Y004488*
X00512Y004387*
X005159Y004292*
X005221Y004211*
X005303Y004148*
X005397Y004109*
X005499Y004096*
X007201*
X007303Y004109*
X007397Y004148*
X007479Y004211*
X007541Y004292*
X00758Y004387*
X007594Y004488*
Y004838*
X007798*
X007813Y00479*
X007812Y004787*
X007801Y00478*
X007779Y004746*
X007771Y004707*
Y0046*
X00805*
X008329*
Y004707*
X008321Y004746*
X008299Y00478*
X008288Y004787*
X008287Y004791*
X00829Y004844*
X008312Y004859*
X008338Y004898*
X008345Y004933*
X008419Y004989*
X009427Y005997*
X009493Y006083*
X009541Y006063*
X009532Y006*
Y005582*
X009325Y005375*
X009275Y005309*
X009243Y005232*
X009232Y00515*
Y003618*
X007782*
X007725Y003675*
X007659Y003725*
X007582Y003757*
X0075Y003768*
X002732*
X002617Y003882*
Y004083*
X003168*
X003171Y004082*
X003702*
X003768Y004095*
X003823Y004132*
X00386Y004187*
X003873Y004253*
Y004548*
X00386Y004613*
X003823Y004669*
X003768Y004706*
X003702Y004719*
X003171*
X003168Y004718*
X002431*
X002268Y004882*
Y007456*
X002277Y00747*
X00229Y007532*
Y007768*
X002289Y00777*
Y00824*
X002932Y008883*
X004407*
X004415Y008882*
X005085*
X005093Y008883*
X007612*
X00762Y008843*
X007658Y008786*
X007715Y008748*
X007782Y008735*
X008107*
X008174Y008748*
X008231Y008786*
X008269Y008843*
X008283Y00891*
Y009491*
X008269Y009558*
X008231Y009615*
X008174Y009653*
X008107Y009667*
X007782*
X007715Y009653*
X007658Y009615*
X00762Y009558*
X007612Y009518*
X006341*
X006314Y009568*
X006321Y009579*
X006329Y009618*
Y009726*
X005771*
Y009618*
X005779Y009579*
X005786Y009568*
X005759Y009518*
X005171*
X00517Y00952*
X005131Y009546*
X005085Y009555*
X004415*
X004369Y009546*
X00433Y00952*
X004329Y009518*
X002801*
X002719Y009508*
X002642Y009476*
X002576Y009425*
X001747Y008596*
X001697Y00853*
X001665Y008454*
X001654Y008372*
Y00777*
Y007768*
Y007736*
X001643Y007711*
X001632Y007628*
Y00475*
X001643Y004668*
X001675Y004591*
X001725Y004525*
X001982Y004269*
Y00375*
X001993Y003668*
X002024Y003592*
X002075Y003526*
X002375Y003225*
X002441Y003175*
X002518Y003143*
X0026Y003132*
X007368*
X007425Y003075*
X007491Y003025*
X007568Y002993*
X00765Y002982*
X011168*
X012875Y001275*
X012941Y001225*
X013018Y001193*
X0131Y001182*
X0225*
X022582Y001193*
X022659Y001225*
X022725Y001275*
X025825Y004375*
X025875Y004441*
X025907Y004518*
X025918Y0046*
Y0131*
X025907Y013182*
X025875Y013259*
X025825Y013325*
X025318Y013832*
Y014374*
X025307Y014457*
X025298Y014479*
Y014532*
X025288Y014578*
X025262Y014617*
X025258Y01462*
Y01468*
X025262Y014683*
X025288Y014722*
X025298Y014768*
Y014821*
X025307Y014843*
X025318Y014926*
Y0175*
X025307Y017582*
X025275Y017659*
X025225Y017725*
X024388Y018561*
Y019121*
X025937*
X026071Y019138*
X026195Y01919*
X026302Y019272*
X026326Y019296*
X0264Y019289*
X026558Y019305*
X02671Y019351*
X026851Y019426*
X026973Y019527*
X027074Y019649*
X027149Y01979*
X027195Y019942*
X027211Y0201*
X027195Y020258*
X027149Y02041*
X027074Y020551*
X026973Y020673*
X026851Y020774*
X02671Y020849*
X026558Y020895*
X0264Y020911*
X026242Y020895*
X02609Y020849*
X025949Y020774*
X025827Y020673*
X025726Y020551*
X025651Y02041*
X025605Y020258*
X025594Y020153*
X024388*
Y021212*
X024379Y021258*
X024353Y021297*
X024314Y021323*
X024268Y021332*
G37*
G36*
X0068Y016738D02*
X006695Y016728D01*
X006547Y016682*
X00641Y016609*
X006289Y016511*
X006191Y01639*
X006118Y016253*
X006072Y016105*
X006062Y016*
X0068*
Y016738*
G37*
G36*
X0069D02*
Y016D01*
X007638*
X007628Y016105*
X007582Y016253*
X007509Y01639*
X007411Y016511*
X00729Y016609*
X007153Y016682*
X007005Y016728*
X0069Y016738*
G37*
%LNteste2.1pcb-3*%
%LPD*%
G36*
X024682Y017368D02*
Y014926D01*
X024693Y014843*
X024702Y014821*
Y014768*
X024712Y014722*
X024738Y014683*
X024742Y01468*
Y01462*
X024738Y014617*
X024712Y014578*
X024702Y014532*
Y014518*
X024652Y014497*
X024268Y014882*
Y01625*
X024257Y016332*
X024225Y016409*
X024175Y016475*
X024109Y016525*
X024032Y016557*
X02395Y016568*
X023868Y016557*
X023848Y016549*
X023593*
X023546Y01654*
X023507Y016514*
X023493*
X023454Y01654*
X023407Y016549*
X023093*
X023046Y01654*
X023007Y016514*
X022993*
X022954Y01654*
X022907Y016549*
X022593*
X022578Y016546*
X022528Y016583*
Y017942*
X024109*
X024682Y017368*
G37*
G36*
X024775Y013475D02*
D01*
X025282Y012968*
Y012771*
X025232Y012754*
X025198Y012798*
X025111Y012865*
X025009Y012907*
X0249Y012922*
X024791Y012907*
X024689Y012865*
X024602Y012798*
X024535Y012711*
X024493Y012609*
X024489Y012578*
X0244*
X024384Y012588*
X024338Y012598*
X024062*
X024016Y012588*
X023977Y012562*
X023951Y012523*
X023942Y012477*
Y012397*
X023939Y012391*
X023889Y012381*
X023884Y012382*
X023868Y012405*
Y012477*
X023858Y012523*
X023832Y012562*
X023793Y012588*
X023747Y012598*
X023472*
X023426Y012588*
X023386Y012562*
X02336Y012523*
X023356Y012501*
X022397*
X022299Y012599*
X022233Y012643*
X022201Y012649*
X022206Y012699*
X022655*
X022732Y012715*
X022797Y012758*
X023241Y013202*
X023393*
X023439Y013212*
X023478Y013238*
X023504Y013277*
X023513Y013323*
Y01341*
X023519Y013423*
X023528Y013495*
Y013804*
X023532Y01381*
X023584Y013813*
X023589Y013812*
X023596Y013801*
X023609Y013792*
X023627Y013763*
X023622Y013729*
X023613Y013716*
X023606Y013677*
Y01355*
X023845*
X024085*
Y013677*
X024077Y013716*
X024055Y013749*
Y013801*
X024077Y013834*
X024085Y013873*
Y014*
X023826*
Y0141*
X024085*
X024131Y01412*
X024775Y013475*
G37*
G36*
X020539Y008816D02*
X020546Y00881D01*
X020593Y008801*
X020907*
X020954Y00881*
X020961Y008816*
X021Y008833*
X021039Y008816*
X021046Y00881*
X021093Y008801*
X021407*
X021422Y008804*
X021472Y008767*
Y007408*
X019732*
X019686Y007399*
X019647Y007373*
X019621Y007334*
X019612Y007288*
Y005991*
X019539*
X019467Y005981*
X0194Y005954*
X019342Y00591*
X01898Y005548*
X018918*
X018868Y005589*
Y00635*
Y007268*
X019707Y008108*
X019826*
X019908Y008119*
X019984Y00815*
X02005Y008201*
X020275Y008425*
X020325Y008491*
X020357Y008568*
X020368Y00865*
Y008801*
X020407*
X020454Y00881*
X020461Y008816*
X0205Y008833*
X020539Y008816*
G37*
G36*
X014091Y01731D02*
X014083Y01725D01*
X014097Y017142*
X014139Y017042*
X014205Y016955*
X014222Y016942*
Y015965*
X013803Y015547*
X013759Y015489*
X013731Y015422*
X013722Y01535*
X013731Y015278*
X013759Y015211*
X013766Y015202*
X013772Y015171*
X013804Y015124*
X013772Y015076*
X013756Y014996*
X013772Y014915*
X013804Y014868*
X013772Y01482*
X013756Y01474*
X013758Y014729*
X013727Y01469*
X013194*
X013051Y014833*
Y016517*
X013368Y016834*
X013795*
X013841Y016843*
X01388Y01687*
X013907Y016909*
X013916Y016955*
Y01742*
X013962Y017439*
X014091Y01731*
G37*
G36*
X013722Y013247D02*
X013756Y013204D01*
X013772Y013124*
X013804Y013076*
X013772Y013029*
X013756Y012948*
X013772Y012868*
X013818Y012799*
X013886Y012754*
X013967Y012738*
X014617*
X014697Y012754*
X014766Y012799*
X014799Y01285*
X014849Y012835*
Y0122*
X014865Y012123*
X014908Y012058*
X01537Y011596*
X015349Y011546*
X014238*
X013651Y012133*
Y013213*
X013688Y013249*
X013722Y013247*
G37*
G36*
X025282Y012229D02*
Y004732D01*
X022368Y001818*
X017878*
Y002279*
X018775Y003175*
X018825Y003241*
X018857Y003318*
X018868Y0034*
Y004911*
X018918Y004952*
X019233*
X019279Y004962*
X019318Y004988*
X019344Y005027*
X019353Y005073*
Y005135*
X019566Y005347*
X019612Y005328*
Y004138*
X019621Y004092*
X019647Y004053*
X019686Y004027*
X019732Y004018*
X020922*
X020942Y003972*
X020674Y003704*
X0206Y003711*
X020442Y003695*
X02029Y003649*
X020149Y003574*
X020027Y003473*
X019926Y003351*
X019851Y00321*
X019805Y003058*
X019789Y0029*
X019805Y002742*
X019851Y00259*
X019926Y002449*
X020027Y002327*
X020149Y002226*
X02029Y002151*
X020442Y002105*
X0206Y002089*
X020758Y002105*
X02091Y002151*
X021051Y002226*
X021173Y002327*
X021274Y002449*
X021349Y00259*
X021395Y002742*
X021411Y0029*
X021404Y002974*
X022115Y003685*
X022197Y003792*
X022249Y003916*
X022262Y004018*
X023768*
X023814Y004027*
X023853Y004053*
X023879Y004092*
X023888Y004138*
Y0055*
X02391Y005516*
X024015Y005622*
X02403*
X024045Y005612*
X024091Y005602*
X024406*
X024452Y005612*
X024491Y005638*
X024506Y00566*
X024559Y005663*
X024563Y005662*
X02457Y005651*
X024604Y005629*
X024643Y005621*
X02475*
Y0059*
Y006179*
X024643*
X024604Y006171*
X02457Y006149*
X024563Y006138*
X024559Y006137*
X024506Y00614*
X024491Y006162*
X024452Y006188*
X024406Y006198*
X024091*
X024045Y006188*
X02403Y006178*
X0239*
X023888Y006188*
Y007288*
X023879Y007334*
X023853Y007373*
X023814Y007399*
X023768Y007408*
X022028*
Y008258*
X022078Y008279*
X022703Y007653*
X022761Y007609*
X022828Y007581*
X0229Y007572*
X02395*
X024022Y007581*
X024089Y007609*
X024147Y007653*
X024747Y008253*
X024791Y008311*
X024818Y008378*
X024828Y00845*
Y011295*
X024818Y011367*
X024791Y011434*
X024747Y011492*
X024453Y011785*
Y011827*
X024444Y011873*
X024418Y011912*
X024379Y011938*
X024333Y011948*
X024057*
X024011Y011938*
X023972Y011912*
X023946Y011873*
X023937Y011827*
X023887Y011828*
Y012144*
X023937Y012167*
X023942Y012164*
Y012123*
X023951Y012077*
X023977Y012038*
X024016Y012012*
X024062Y012002*
X024338*
X024384Y012012*
X0244Y012022*
X0247*
X024772Y012032*
X024839Y012059*
X024869Y012082*
X0249Y012078*
X025009Y012093*
X025111Y012135*
X025198Y012202*
X025232Y012246*
X025282Y012229*
G37*
G36*
X016476Y013221D02*
X016473Y013204D01*
X016489Y013124*
X01652Y013076*
X016489Y013029*
X016473Y012948*
X016489Y012868*
X016534Y012799*
X016603Y012754*
X016683Y012738*
X017333*
X017414Y012754*
X017482Y012799*
X017528Y012868*
X017544Y012948*
X017545Y012949*
X017917*
X018108Y012758*
X018173Y012715*
X01825Y012699*
X019294*
X019299Y012649*
X019267Y012643*
X019201Y012599*
X019103Y012501*
X016633*
X016151Y012983*
Y013067*
X016343Y01326*
X016444*
X016476Y013221*
G37*
G36*
X023331Y011686D02*
X023327Y01165D01*
X023336Y011578*
X023347Y011553*
Y011473*
X023352Y011445*
X023351Y011444*
X023306Y011421*
X023279Y011438*
X023233Y011448*
X022957*
X022911Y011438*
X022872Y011412*
X022846Y011373*
X022837Y011327*
Y011247*
X022835Y011241*
X022784Y011231*
X022779Y011232*
X022763Y011255*
Y011327*
X022754Y011373*
X022728Y011412*
X022705Y011427*
Y011745*
X02269Y011822*
X022647Y011887*
X022481Y012053*
X0225Y012099*
X023331*
Y011686*
G37*
G36*
X022304Y011662D02*
Y011427D01*
X022282Y011412*
X022256Y011373*
X022247Y011327*
Y011253*
X022232Y011217*
X022222Y011145*
Y0108*
X022232Y010728*
X022259Y010661*
X022303Y010603*
X022358Y010549*
X022337Y010499*
X022093*
X022046Y01049*
X022007Y010464*
X021993*
X021954Y01049*
X021907Y010499*
X021593*
X021578Y010496*
X021528Y010533*
Y010829*
X021541Y010838*
X021556Y01086*
X021609Y010863*
X021613Y010862*
X02162Y010851*
X021653Y010829*
X021693Y010821*
X0218*
Y0111*
X02185*
Y01115*
X022109*
Y011277*
X022102Y011316*
X02208Y011349*
X022046Y011371*
X022018Y011377*
Y011428*
X022022Y011429*
X022055Y011451*
X022077Y011484*
X022085Y011523*
Y01165*
X021845*
Y01175*
X022085*
Y01181*
X022135Y011831*
X022304Y011662*
G37*
G36*
X020992Y011949D02*
X020982Y011923D01*
X020972Y011851*
Y011247*
X020922Y011226*
X020547Y011601*
X020489Y011645*
X020422Y011673*
X02035Y011683*
X01937*
X019298Y011673*
X019264Y011659*
X019235Y011701*
X019533Y011999*
X020959*
X020992Y011949*
G37*
G36*
X023933Y011554D02*
X023937Y011551D01*
Y011473*
X023946Y011427*
X023972Y011388*
X024011Y011362*
X024057Y011352*
X0241*
X024272Y01118*
Y008565*
X023835Y008128*
X023015*
X022528Y008615*
Y008767*
X022578Y008804*
X022593Y008801*
X022907*
X022954Y00881*
X022993Y008837*
X023049Y008831*
X023054Y008827*
X023093Y00882*
X0232*
Y00965*
Y01048*
X023189*
X02317Y010526*
X023297Y010653*
X023341Y010711*
X023368Y010778*
X023378Y01085*
X023373Y010886*
Y01115*
X023364Y011222*
X023353Y011247*
Y011327*
X023348Y011355*
X023349Y011356*
X023394Y011379*
X023421Y011362*
X023467Y011352*
X023743*
X023789Y011362*
X023828Y011388*
X023854Y011427*
X023863Y011473*
Y011541*
X023881Y011561*
X023933Y011554*
G37*
G36*
X018949Y017017D02*
Y014603D01*
X018965Y014526*
X019008Y014461*
X019111Y014358*
X019176Y014315*
X019253Y014299*
X019451*
X019456Y014277*
X019482Y014238*
X019521Y014212*
X019567Y014202*
X019843*
X019889Y014212*
X019928Y014238*
X019954Y014277*
X019958Y014299*
X020042*
X020046Y014277*
X020072Y014238*
X020111Y014212*
X020157Y014202*
X020433*
X020479Y014212*
X020518Y014238*
X020544Y014277*
X020549Y014299*
X0209*
X020944Y014308*
X020969Y014262*
X020725Y014018*
X0207Y014022*
X020591Y014007*
X020489Y013965*
X020402Y013898*
X020335Y013811*
X020293Y013709*
X020278Y0136*
X020293Y013491*
X020335Y013389*
X020402Y013302*
X020489Y013235*
X020591Y013193*
X0207Y013178*
X020809Y013193*
X020911Y013235*
X020998Y013302*
X021065Y013389*
X021107Y013491*
X021122Y0136*
X021118Y013625*
X021894Y014401*
X021941Y014382*
Y01435*
X0222*
Y01425*
X021941*
Y014123*
X021948Y014084*
X02197Y014051*
X022004Y014029*
X022007Y014028*
Y013977*
X021978Y013971*
X021945Y013949*
X021923Y013916*
X021915Y013877*
Y01375*
X022155*
X022394*
Y013877*
X022387Y013916*
X022365Y013949*
X022332Y013971*
X022339Y014021*
X022357*
X022397Y014029*
X022422Y014046*
X022451Y014037*
X022472Y014024*
Y01365*
X022482Y013578*
X022487Y013565*
Y013523*
X022496Y013477*
X022522Y013438*
X022561Y013412*
X022607Y013402*
X022628*
X022678Y013382*
X02275Y013372*
X022776Y013375*
X022799Y013328*
X022572Y013101*
X018333*
X018142Y013292*
X018077Y013335*
X018Y013351*
X01759*
X017532Y01339*
X01753*
X017544Y01346*
X017528Y013541*
X017496Y013588*
X017528Y013635*
X017544Y013716*
X017528Y013797*
X017496Y013844*
X017528Y013891*
X017544Y013972*
X017528Y014053*
X017496Y0141*
X017528Y014147*
X017544Y014228*
X017528Y014309*
X017496Y014356*
X017528Y014403*
X017544Y014484*
X01753Y014554*
X017532*
X017597Y014598*
X018092Y015093*
X018135Y015158*
X018151Y015235*
Y0156*
X018135Y015677*
X018092Y015742*
X017701Y016133*
Y016886*
X017708Y016889*
X017795Y016955*
X017861Y017042*
X017903Y017142*
X017917Y01725*
X017903Y017358*
X017861Y017458*
X017795Y017545*
X017708Y017611*
X017608Y017653*
X0175Y017667*
X017392Y017653*
X017292Y017611*
X017205Y017545*
X017139Y017458*
X017097Y017358*
X017083Y01725*
X017097Y017142*
X017139Y017042*
X017205Y016955*
X017292Y016889*
X017299Y016886*
Y01605*
X017315Y015973*
X017358Y015908*
X017749Y015517*
Y015318*
X017574Y015143*
X017514Y015153*
X017506Y01517*
X017511Y015178*
X017515Y015202*
X017357*
X017333Y015206*
X017008*
X016683*
X016659Y015202*
X016467*
X016463Y015196*
X016387*
X016201Y015383*
Y015817*
X016642Y016258*
X016685Y016323*
X016701Y0164*
Y016886*
X016708Y016889*
X016795Y016955*
X016861Y017042*
X016903Y017142*
X016917Y01725*
X016903Y017358*
X016861Y017458*
X016795Y017545*
X016708Y017611*
X016608Y017653*
X0165Y017667*
X016392Y017653*
X016292Y017611*
X016205Y017545*
X016139Y017458*
X016097Y017358*
X016083Y01725*
X016097Y017142*
X016139Y017042*
X016205Y016955*
X016292Y016889*
X016299Y016886*
Y016483*
X015858Y016042*
X015815Y015977*
X015799Y0159*
Y0153*
X015815Y015223*
X015858Y015158*
X016162Y014854*
X016228Y01481*
X016304Y014795*
X016444*
X016476Y014756*
X016473Y01474*
X016489Y014659*
X01652Y014612*
X016489Y014564*
X016473Y014484*
X016489Y014403*
X01652Y014356*
X016489Y014309*
X016473Y014228*
X016489Y014147*
X01652Y0141*
X016489Y014053*
X016473Y013972*
X016489Y013891*
X01652Y013844*
X016489Y013797*
X016473Y013716*
X016476Y0137*
X016444Y013661*
X01626*
X016183Y013646*
X016118Y013602*
X015808Y013292*
X015765Y013227*
X015749Y01315*
Y0129*
X015765Y012823*
X015808Y012758*
X016408Y012158*
X016473Y012115*
X01655Y012099*
X019*
X019019Y012053*
X018867Y011901*
X015633*
X015251Y012283*
Y014428*
X015235Y014505*
X015192Y01457*
X014898Y014864*
X015142Y015108*
X015185Y015173*
X015201Y01525*
Y016918*
X015251Y016943*
X015301Y016905*
X015397Y016865*
X01545Y016858*
Y01725*
Y017642*
X015397Y017635*
X015301Y017595*
X015263Y017566*
X015215Y017588*
X015211Y017627*
X015883Y018299*
X017667*
X018949Y017017*
G37*
%LNteste2.1pcb-4*%
%LPC*%
G36*
X023795Y01345D02*
X023606D01*
Y013323*
X023613Y013284*
X023635Y013251*
X023668Y013229*
X023707Y013221*
X023795*
Y01345*
G37*
G36*
X024085D02*
X023895D01*
Y013221*
X023983*
X024022Y013229*
X024055Y013251*
X024077Y013284*
X024085Y013323*
Y01345*
G37*
G36*
X025059Y00585D02*
X02485D01*
Y005621*
X024957*
X024997Y005629*
X02503Y005651*
X025052Y005684*
X025059Y005723*
Y00585*
G37*
G36*
X024957Y006179D02*
X02485D01*
Y00595*
X025059*
Y006077*
X025052Y006116*
X02503Y006149*
X024997Y006171*
X024957Y006179*
G37*
G36*
X022109Y01105D02*
X0219D01*
Y010821*
X022007*
X022046Y010829*
X02208Y010851*
X022102Y010884*
X022109Y010923*
Y01105*
G37*
G36*
X023407Y01048D02*
X0233D01*
Y0097*
X023509*
Y010378*
X023502Y010417*
X02348Y01045*
X023447Y010473*
X023407Y01048*
G37*
G36*
X023509Y0096D02*
X0233D01*
Y00882*
X023407*
X023447Y008827*
X02348Y00885*
X023502Y008883*
X023509Y008922*
Y0096*
G37*
G36*
X01555Y017642D02*
Y0173D01*
X015892*
X015885Y017353*
X015845Y017449*
X015782Y017532*
X015699Y017595*
X015603Y017635*
X01555Y017642*
G37*
G36*
X015892Y0172D02*
X01555D01*
Y016858*
X015603Y016865*
X015699Y016905*
X015782Y016968*
X015845Y017051*
X015885Y017147*
X015892Y0172*
G37*
G36*
X022105Y01365D02*
X021915D01*
Y013523*
X021923Y013484*
X021945Y013451*
X021978Y013429*
X022017Y013421*
X022105*
Y01365*
G37*
G36*
X022394D02*
X022205D01*
Y013421*
X022293*
X022332Y013429*
X022365Y013451*
X022387Y013484*
X022394Y013523*
Y01365*
G37*
G36*
X017333Y015444D02*
X017058D01*
Y015302*
X017515*
X017511Y015325*
X017469Y015388*
X017407Y015429*
X017333Y015444*
G37*
G36*
X016958D02*
X016683D01*
X01661Y015429*
X016547Y015388*
X016506Y015325*
X016501Y015302*
X016958*
Y015444*
G37*
%LNteste2.1pcb-5*%
%LPD*%
G54D10*
X00475Y010281D03*
Y009219D03*
G54D11*
X007944Y009201D03*
G54D12*
X00885Y009201D03*
X009756D03*
G54D13*
X00885Y011799D03*
G54D14*
X00805Y005101D03*
Y00455D03*
X00605Y009224D03*
Y009776D03*
X025Y014374D03*
Y014926D03*
G54D15*
X004355Y0074D03*
X004945D03*
X023255Y0135D03*
X023845D03*
X020295Y0145D03*
X019705D03*
X022505Y01115D03*
X023095D03*
X022745Y0137D03*
X022155D03*
X021255Y0117D03*
X021845D03*
X023605Y01165D03*
X024195D03*
X023609Y0123D03*
X0242D03*
G54D16*
X003437Y0062D03*
Y0044D03*
G54D17*
X00635Y0053D03*
G54D18*
X001972Y00765D03*
X003428D03*
G54D19*
X0195Y0198D03*
X018949D03*
X024249Y0059D03*
X0248D03*
X020726Y0108D03*
X020174D03*
X022751Y0143D03*
X0222D03*
X021299Y0111D03*
X02185D03*
X01855Y00635D03*
X017999D03*
X023274Y01405D03*
X023826D03*
X018524Y00525D03*
X019076D03*
G54D20*
X01955Y011345D03*
Y010755D03*
G54D21*
X02075Y0157D03*
X02125D03*
X02175D03*
X02225D03*
X02275D03*
X02325D03*
X02375D03*
X02325Y00965D03*
X02275D03*
X02225D03*
X02175D03*
X02125D03*
X02075D03*
X02025D03*
G54D22*
X02225Y019637D03*
X02175Y005713D03*
G54D23*
X011319Y01055D03*
X012382D03*
G54D24*
X014292Y015252D03*
Y014996D03*
Y01474D03*
Y014484D03*
Y014228D03*
Y013972D03*
Y013716D03*
Y01346D03*
Y013204D03*
Y012948D03*
X017008Y015252D03*
Y014996D03*
Y01474D03*
Y014484D03*
Y014228D03*
Y013972D03*
Y013716D03*
Y01346D03*
Y013204D03*
Y012948D03*
G54D25*
X00635Y005354D02*
X006746D01*
X008054*
X02225Y019637D02*
X025937D01*
X0264Y0201*
X02175Y00405D02*
Y005713D01*
X0206Y0029D02*
X02175Y00405D01*
X009062Y006362D02*
Y007012D01*
X00945Y0074*
X00635Y0053D02*
Y005354D01*
X008054D02*
X009062Y006362D01*
G54D26*
X0064Y0057D02*
X006746Y005354D01*
X002801Y009201D02*
X007944D01*
X01855Y0034D02*
Y00635D01*
X02005Y00865D02*
Y0102D01*
X02395Y01475D02*
Y01625D01*
X00195Y007628D02*
X001972Y00765D01*
Y008372*
X019576Y008426D02*
X019826D01*
X02005Y00865*
X01855Y0074D02*
X019576Y008426D01*
X00885Y009201D02*
Y011799D01*
X00195Y00475D02*
Y007628D01*
Y00475D02*
X0023Y0044D01*
X003437*
X0023Y00375D02*
Y0044D01*
Y00375D02*
X0026Y00345D01*
X0075*
X00765Y0033*
X02225Y019637D02*
X023437Y01845D01*
X02405*
X025Y0175*
Y014926D02*
Y0175D01*
Y0137D02*
Y014374D01*
X02395Y01475D02*
X025Y0137D01*
X01Y0163D02*
X0117Y018D01*
X01385*
X0145Y01735*
Y01725D02*
Y01735D01*
X01855Y00635D02*
Y0074D01*
X01025Y0064D02*
X01095D01*
X00765Y0033D02*
X00955D01*
X0113*
X001972Y008372D02*
X002801Y009201D01*
X01Y01325D02*
Y0163D01*
Y01325D02*
X01135Y0119D01*
X0107Y0091D02*
X01135Y00975D01*
X010599Y009201D02*
X0107Y0091D01*
X009756Y009201D02*
X010599D01*
X025Y0137D02*
X0256Y0131D01*
Y0046D02*
Y0131D01*
X0225Y0015D02*
X0256Y0046D01*
X0113Y0033D02*
X0131Y0015D01*
X0176Y00245D02*
X01855Y0034D01*
X0131Y0015D02*
X01735D01*
X0225*
X01135Y00975D02*
Y0119D01*
X00955Y0033D02*
Y00515D01*
X00985Y00545*
Y006*
X01025Y0064*
G54D27*
X00425Y00745D02*
X004355D01*
X019343Y012457D02*
X022157D01*
X019186Y0123D02*
X019343Y012457D01*
X01655Y0123D02*
X019186D01*
X003428Y00765D02*
X00405D01*
X00425Y00745*
X02125Y01485D02*
Y0157D01*
X01285Y0166D02*
X0135Y01725D01*
X01285Y01475D02*
Y0166D01*
Y01475D02*
X013111Y014489D01*
X013839*
X014155Y011345D02*
X01955D01*
X01361Y01346D02*
X013845D01*
X0165Y0164D02*
Y01725D01*
X016Y0159D02*
X0165Y0164D01*
X016Y0153D02*
Y0159D01*
Y0153D02*
X016304Y014996D01*
X016561*
X0175Y01605D02*
Y01725D01*
Y01605D02*
X01795Y0156D01*
Y015235D02*
Y0156D01*
X017455Y01474D02*
X01795Y015235D01*
X022505Y01115D02*
Y011745D01*
X014739Y01474D02*
X01505Y014428D01*
Y0122D02*
Y014428D01*
Y0122D02*
X01555Y0117D01*
X01895*
X01345Y01205D02*
X014155Y011345D01*
X01345Y01205D02*
Y0133D01*
X01361Y01346*
X022314Y0123D02*
X023609D01*
X022157Y012457D02*
X022314Y0123D01*
X01595Y0129D02*
Y01315D01*
X01626Y01346*
X016561*
X01825Y0129D02*
X022655D01*
X018Y01315D02*
X01825Y0129D01*
X01751Y01315D02*
X018D01*
X017455Y013204D02*
X01751Y01315D01*
X022655Y0129D02*
X02325Y013495D01*
X023255Y0135*
X015Y01525D02*
Y0177D01*
X01475Y015D02*
X015Y01525D01*
Y0177D02*
X0158Y0185D01*
X01775*
X0209Y0145D02*
X02125Y01485D01*
X020295Y0145D02*
X0209D01*
X01775Y0185D02*
X01915Y0171D01*
X019253Y0145D02*
X019695D01*
X01915Y014603D02*
Y0171D01*
Y014603D02*
X019253Y0145D01*
X019705D02*
X020295D01*
X01595Y0129D02*
X01655Y0123D01*
X02205Y0122D02*
X022505Y011745D01*
X01895Y0117D02*
X01945Y0122D01*
X02205*
G54D28*
X02125Y00965D02*
Y011851D01*
X02175Y005713D02*
Y00965D01*
X02035Y011405D02*
X02075Y011005D01*
X019539Y005713D02*
X02175D01*
X019076Y00525D02*
X019539Y005713D01*
X02225Y0157D02*
Y019637D01*
X023713Y005713D02*
X0239Y0059D01*
X024249*
X02175Y005713D02*
X023713D01*
X019663Y019637D02*
X02225D01*
X0195Y0198D02*
X019663Y019637D01*
X0145Y01585D02*
Y01725D01*
X02225Y0085D02*
Y00965D01*
Y0085D02*
X0229Y00785D01*
X02395*
X02455Y00845*
Y011295*
X024195Y01165D02*
X02455Y011295D01*
X023609Y011655D02*
Y0123D01*
X023605Y01165D02*
X023609Y011655D01*
X02275Y00965D02*
Y01055D01*
X0225Y0108D02*
X02275Y01055D01*
X0225Y0108D02*
Y011145D01*
X022505Y01115*
X02275Y01055D02*
X0228D01*
X0231Y01085*
X023095Y010855D02*
X0231Y01085D01*
X023095Y010855D02*
Y01115D01*
X02075Y00965D02*
Y011005D01*
X01937Y011405D02*
X02035D01*
X02325Y013495D02*
Y01405D01*
Y0157*
X02275Y01365D02*
Y0143D01*
Y0157*
X02175Y01465D02*
Y0157D01*
X0207Y0136D02*
X02175Y01465D01*
X0242Y0123D02*
X0247D01*
X0249Y0125*
X0176Y00175D02*
Y00245D01*
X01735Y0015D02*
X0176Y00175D01*
X014Y01535D02*
X0144D01*
X014D02*
X0145Y01585D01*
G54D29*
X003437Y0062D02*
Y007642D01*
X003428Y00765D02*
X003437Y007642D01*
G54D30*
X01095Y0056D03*
G54D31*
X01095Y0064D03*
G54D32*
X0135Y01725D03*
G54D33*
X0145Y01725D03*
X0155D03*
X0165D03*
X0175D03*
G54D34*
X0207Y0136D03*
X0249Y0125D03*
G54D35*
X0206Y0029D03*
X0264Y0201D03*
X00685Y01595D03*
X00945Y0076D03*
M02*