G04 Layer_Physical_Order=2*
G04 Layer_Color=16711680*
%FSLAX42Y42*%
%MOMM*%
%TF.FileFunction,Copper,L2,Bot,Signal*%
%TF.Part,Single*%
G01*
G75*
%TA.AperFunction,SMDPad,CuDef*%
%ADD11R,1.70X1.10*%
%ADD13R,0.70X0.90*%
%ADD14R,0.90X0.70*%
%ADD16R,1.10X1.70*%
%TA.AperFunction,Conductor*%
%ADD23C,0.45*%
%ADD24C,0.60*%
%ADD26C,3.50*%
%ADD27C,3.25*%
%TA.AperFunction,ComponentPad*%
%ADD28R,1.50X1.50*%
%ADD29C,1.50*%
%ADD30R,5.50X5.50*%
%ADD31C,5.50*%
%ADD32R,5.50X5.50*%
%ADD33C,1.35*%
%ADD34R,1.35X1.35*%
%TA.AperFunction,ViaPad*%
%ADD35C,1.27*%
%ADD36C,0.50*%
%ADD37C,2.00*%
%TA.AperFunction,SMDPad,CuDef*%
%ADD38R,10.25X8.00*%
%ADD39R,0.80X3.70*%
%TA.AperFunction,Conductor*%
%ADD40C,1.00*%
%ADD41R,1.63X0.75*%
%ADD42R,1.63X0.75*%
%ADD43R,1.50X0.63*%
G36*
X3318Y3573D02*
Y3026D01*
X3316Y3024D01*
X3311Y3018D01*
X3310Y3010D01*
Y2840D01*
X3311Y2832D01*
X3316Y2826D01*
X3318Y2824D01*
Y2432D01*
X3315Y2430D01*
X3305Y2426D01*
X3302Y2429D01*
X3294Y2430D01*
X3214D01*
X3206Y2429D01*
X3199Y2424D01*
X3186Y2423D01*
X3178Y2431D01*
Y2648D01*
X3174Y2668D01*
X3163Y2684D01*
X3061Y2786D01*
X3045Y2797D01*
X3025Y2801D01*
X2721D01*
X2701Y2821D01*
Y2850D01*
X2735D01*
X2743Y2851D01*
X2749Y2856D01*
X2754Y2862D01*
X2755Y2870D01*
Y2980D01*
X2754Y2988D01*
X2749Y2994D01*
X2743Y2999D01*
X2735Y3000D01*
X2565D01*
X2557Y2999D01*
X2551Y2994D01*
X2546Y2988D01*
X2545Y2980D01*
Y2976D01*
X2457D01*
X2453Y2979D01*
X2445Y2980D01*
X2355D01*
X2347Y2979D01*
X2341Y2974D01*
X2336Y2968D01*
X2335Y2960D01*
Y2890D01*
X2336Y2882D01*
X2341Y2876D01*
X2347Y2871D01*
X2355Y2870D01*
X2445D01*
X2453Y2871D01*
X2457Y2874D01*
X2545D01*
Y2870D01*
X2546Y2862D01*
X2551Y2856D01*
X2557Y2851D01*
X2565Y2850D01*
X2599D01*
Y2800D01*
X2603Y2780D01*
X2614Y2764D01*
X2664Y2714D01*
X2680Y2703D01*
X2700Y2699D01*
X2828D01*
X2832Y2686D01*
X2822Y2678D01*
X2808Y2661D01*
X2800Y2641D01*
X2797Y2619D01*
X2800Y2597D01*
X2808Y2577D01*
X2822Y2559D01*
X2839Y2546D01*
X2859Y2537D01*
X2866Y2536D01*
X2949Y2454D01*
Y2427D01*
X2945Y2424D01*
X2943Y2421D01*
X2942Y2421D01*
X2931D01*
X2929Y2421D01*
X2927Y2424D01*
X2921Y2429D01*
X2913Y2430D01*
X2833D01*
X2825Y2429D01*
X2818Y2424D01*
X2805Y2423D01*
X2797Y2429D01*
X2793Y2449D01*
X2782Y2465D01*
X2736Y2511D01*
X2720Y2522D01*
X2700Y2526D01*
X2621D01*
X2601Y2546D01*
Y2559D01*
X2610Y2565D01*
X2623Y2583D01*
X2631Y2603D01*
X2634Y2625D01*
X2631Y2647D01*
X2623Y2667D01*
X2610Y2685D01*
X2592Y2698D01*
X2572Y2706D01*
X2550Y2709D01*
X2528Y2706D01*
X2508Y2698D01*
X2490Y2685D01*
X2477Y2667D01*
X2476Y2667D01*
X2464Y2669D01*
X2464Y2670D01*
X2458Y2678D01*
X2450Y2684D01*
X2440Y2686D01*
X2398D01*
Y2575D01*
Y2464D01*
X2440D01*
X2450Y2466D01*
X2458Y2472D01*
X2464Y2480D01*
X2466Y2490D01*
Y2577D01*
X2471Y2580D01*
X2479Y2581D01*
X2490Y2565D01*
X2499Y2559D01*
Y2525D01*
X2503Y2505D01*
X2514Y2489D01*
X2560Y2443D01*
X2560Y2428D01*
X2555Y2420D01*
X2553Y2410D01*
Y2238D01*
X2619D01*
Y2212D01*
X2553D01*
Y2041D01*
X2198D01*
X2181Y2038D01*
X2167Y2028D01*
X2024Y1886D01*
X2015Y1872D01*
X2012Y1855D01*
Y1645D01*
X1287D01*
Y1726D01*
X1360Y1798D01*
X1374Y1796D01*
X1375Y1795D01*
X1372Y1775D01*
X1375Y1753D01*
X1383Y1733D01*
X1397Y1715D01*
X1414Y1702D01*
X1434Y1694D01*
X1456Y1691D01*
X1478Y1694D01*
X1498Y1702D01*
X1516Y1715D01*
X1522Y1724D01*
X1594D01*
X1613Y1728D01*
X1630Y1739D01*
X1790Y1899D01*
X1801Y1916D01*
X1805Y1935D01*
Y2023D01*
X1808Y2026D01*
X1810Y2029D01*
X1812Y2029D01*
X1823D01*
X1825Y2029D01*
X1827Y2026D01*
X1833Y2021D01*
X1841Y2020D01*
X1842Y2019D01*
X1850Y2017D01*
X2012D01*
X2020Y2019D01*
X2027Y2023D01*
X2031Y2030D01*
X2032Y2031D01*
X2048Y2033D01*
X2083Y2043D01*
X2114Y2060D01*
X2142Y2083D01*
X2165Y2111D01*
X2182Y2142D01*
X2192Y2177D01*
X2196Y2212D01*
Y3524D01*
X2438Y3767D01*
X3124D01*
X3318Y3573D01*
D02*
G37*
G36*
X5820Y3658D02*
X5848Y3635D01*
X5880Y3618D01*
X5914Y3608D01*
X5950Y3604D01*
X5950Y3604D01*
X6224D01*
X6329Y3499D01*
Y3255D01*
X6322Y3254D01*
X6316Y3249D01*
X6311Y3243D01*
X6310Y3235D01*
Y3065D01*
X6311Y3057D01*
X6316Y3051D01*
X6322Y3046D01*
X6329Y3045D01*
Y2426D01*
X6327Y2424D01*
X6325Y2421D01*
X6323Y2421D01*
X6312D01*
X6310Y2421D01*
X6308Y2424D01*
X6302Y2429D01*
X6294Y2430D01*
X6214D01*
X6206Y2429D01*
X6200Y2424D01*
X6200Y2424D01*
X6186Y2423D01*
X6178Y2431D01*
Y2648D01*
X6174Y2668D01*
X6163Y2684D01*
X6049Y2799D01*
X6032Y2810D01*
X6012Y2813D01*
X5810D01*
X5803Y2826D01*
X5804Y2827D01*
X5805Y2835D01*
Y2945D01*
X5804Y2953D01*
X5799Y2959D01*
X5793Y2964D01*
X5785Y2965D01*
X5615D01*
X5607Y2964D01*
X5601Y2959D01*
X5596Y2953D01*
X5595Y2945D01*
Y2926D01*
X5482D01*
X5478Y2929D01*
X5470Y2930D01*
X5380D01*
X5372Y2929D01*
X5366Y2924D01*
X5361Y2918D01*
X5360Y2910D01*
Y2840D01*
X5361Y2832D01*
X5366Y2826D01*
X5372Y2821D01*
X5380Y2820D01*
X5470D01*
X5478Y2821D01*
X5482Y2824D01*
X5598D01*
X5601Y2821D01*
X5607Y2816D01*
X5615Y2815D01*
X5651D01*
X5653Y2805D01*
X5664Y2789D01*
X5726Y2726D01*
X5736Y2720D01*
X5733Y2707D01*
X5728Y2706D01*
X5708Y2698D01*
X5690Y2685D01*
X5677Y2667D01*
X5669Y2647D01*
X5666Y2625D01*
X5669Y2603D01*
X5677Y2583D01*
X5690Y2565D01*
X5708Y2552D01*
X5728Y2544D01*
X5731Y2543D01*
X5822Y2452D01*
Y2427D01*
X5819Y2424D01*
X5805Y2423D01*
X5797Y2429D01*
X5793Y2449D01*
X5782Y2465D01*
X5736Y2511D01*
X5720Y2522D01*
X5700Y2526D01*
X5621D01*
X5601Y2546D01*
Y2559D01*
X5610Y2565D01*
X5623Y2583D01*
X5631Y2603D01*
X5634Y2625D01*
X5631Y2647D01*
X5623Y2667D01*
X5610Y2685D01*
X5592Y2698D01*
X5572Y2706D01*
X5550Y2709D01*
X5528Y2706D01*
X5508Y2698D01*
X5490Y2685D01*
X5479Y2669D01*
X5471Y2670D01*
X5466Y2673D01*
Y2710D01*
X5464Y2720D01*
X5458Y2728D01*
X5450Y2734D01*
X5440Y2736D01*
X5398D01*
Y2625D01*
Y2514D01*
X5440D01*
X5450Y2516D01*
X5458Y2522D01*
X5464Y2530D01*
X5466Y2540D01*
Y2577D01*
X5471Y2580D01*
X5479Y2581D01*
X5490Y2565D01*
X5499Y2559D01*
Y2525D01*
X5503Y2505D01*
X5514Y2489D01*
X5560Y2443D01*
X5561Y2428D01*
X5555Y2420D01*
X5553Y2410D01*
Y2238D01*
X5619D01*
Y2225D01*
X5632D01*
Y2014D01*
X5659D01*
X5669Y2016D01*
X5677Y2022D01*
X5678Y2023D01*
X5691Y2026D01*
X5693Y2024D01*
X5698Y2021D01*
X5706Y2020D01*
X5786D01*
X5794Y2021D01*
X5800Y2026D01*
X5802Y2029D01*
X5804Y2029D01*
X5815D01*
X5817Y2029D01*
X5819Y2026D01*
X5825Y2021D01*
X5833Y2020D01*
X5913D01*
X5921Y2021D01*
X5927Y2026D01*
X5929Y2029D01*
X5931Y2029D01*
X5942D01*
X5944Y2029D01*
X5946Y2026D01*
X5952Y2021D01*
X5957Y2020D01*
Y2006D01*
X5960Y1990D01*
X5969Y1976D01*
X5994Y1951D01*
X5991Y1939D01*
X5983Y1935D01*
X5965Y1922D01*
X5952Y1905D01*
X5944Y1884D01*
X5942Y1870D01*
X5910Y1839D01*
X5908Y1838D01*
X5894Y1841D01*
X5884Y1853D01*
X5867Y1867D01*
X5847Y1875D01*
X5825Y1878D01*
X5761Y1942D01*
X5745Y1953D01*
X5725Y1957D01*
X5541D01*
X5535Y1966D01*
X5517Y1979D01*
X5497Y1988D01*
X5475Y1990D01*
X5453Y1988D01*
X5433Y1979D01*
X5415Y1966D01*
X5402Y1948D01*
X5394Y1928D01*
X5391Y1906D01*
X5394Y1884D01*
X5402Y1864D01*
X5415Y1847D01*
X5433Y1833D01*
X5451Y1826D01*
X5451Y1816D01*
X5450Y1813D01*
X5447Y1813D01*
X5427Y1804D01*
X5409Y1791D01*
X5396Y1773D01*
X5387Y1753D01*
X5386Y1741D01*
X5372Y1735D01*
X5370Y1736D01*
Y2296D01*
X5378Y2303D01*
X5392Y2320D01*
X5400Y2341D01*
X5403Y2362D01*
X5400Y2384D01*
X5392Y2405D01*
X5378Y2422D01*
X5361Y2435D01*
X5341Y2444D01*
X5319Y2447D01*
X5297Y2444D01*
X5277Y2435D01*
X5259Y2422D01*
X5246Y2405D01*
X5237Y2384D01*
X5235Y2362D01*
X5237Y2341D01*
X5246Y2320D01*
X5259Y2303D01*
X5268Y2296D01*
Y1706D01*
X5272Y1687D01*
X5283Y1670D01*
X5315Y1638D01*
Y1441D01*
X5306Y1435D01*
X5293Y1417D01*
X5284Y1397D01*
X5281Y1375D01*
X5284Y1353D01*
X5293Y1333D01*
X5306Y1315D01*
X5324Y1302D01*
X5344Y1294D01*
X5366Y1291D01*
X5387Y1294D01*
X5408Y1302D01*
X5425Y1315D01*
X5439Y1333D01*
X5447Y1353D01*
X5450Y1375D01*
X5447Y1397D01*
X5439Y1417D01*
X5425Y1435D01*
X5417Y1441D01*
Y1650D01*
X5421Y1654D01*
X5429Y1657D01*
X5447Y1650D01*
X5464Y1648D01*
X5470Y1637D01*
X5470Y1635D01*
X5469Y1633D01*
X5467Y1625D01*
Y825D01*
X5469Y817D01*
X5473Y811D01*
X5480Y806D01*
X5488Y805D01*
X5804D01*
Y721D01*
X5791Y709D01*
X5761Y674D01*
X5736Y634D01*
X5719Y591D01*
X5708Y546D01*
X5704Y500D01*
X5708Y454D01*
X5719Y409D01*
X5736Y366D01*
X5761Y326D01*
X5791Y291D01*
X5826Y261D01*
X5866Y236D01*
X5909Y219D01*
X5954Y208D01*
X6000Y204D01*
X6046Y208D01*
X6091Y219D01*
X6134Y236D01*
X6174Y261D01*
X6209Y291D01*
X6239Y326D01*
X6264Y366D01*
X6281Y409D01*
X6292Y454D01*
X6296Y500D01*
X6292Y546D01*
X6281Y591D01*
X6264Y634D01*
X6239Y674D01*
X6209Y709D01*
X6196Y721D01*
Y805D01*
X6512D01*
X6520Y806D01*
X6527Y811D01*
X6531Y817D01*
X6533Y825D01*
Y1625D01*
X6531Y1633D01*
X6527Y1639D01*
X6520Y1644D01*
X6512Y1645D01*
X6174D01*
Y1906D01*
X6171Y1923D01*
X6162Y1937D01*
X6100Y1999D01*
X6088Y2007D01*
X6090Y2019D01*
X6090Y2020D01*
X6167D01*
X6175Y2021D01*
X6181Y2026D01*
X6181Y2026D01*
X6195Y2027D01*
X6203Y2019D01*
Y1865D01*
X6207Y1845D01*
X6218Y1829D01*
X6314Y1733D01*
X6330Y1722D01*
X6350Y1718D01*
X6591D01*
X6705Y1604D01*
Y523D01*
X6702Y519D01*
X6693Y513D01*
X6675Y515D01*
X6653Y513D01*
X6633Y504D01*
X6615Y491D01*
X6602Y473D01*
X6594Y453D01*
X6591Y431D01*
X6594Y409D01*
X6602Y389D01*
X6615Y372D01*
X6633Y358D01*
X6653Y350D01*
X6675Y347D01*
X6697Y350D01*
X6717Y358D01*
X6735Y372D01*
X6748Y389D01*
X6756Y409D01*
X6758Y424D01*
X6792Y458D01*
X6803Y474D01*
X6807Y494D01*
Y1625D01*
X6803Y1645D01*
X6792Y1661D01*
X6649Y1805D01*
X6632Y1816D01*
X6612Y1820D01*
X6371D01*
X6305Y1886D01*
Y2023D01*
X6308Y2026D01*
X6310Y2029D01*
X6312Y2029D01*
X6323D01*
X6325Y2029D01*
X6327Y2026D01*
X6333Y2021D01*
X6341Y2020D01*
X6353D01*
X6355Y2019D01*
X6362Y2017D01*
X6508D01*
X6512Y2017D01*
X6548Y2020D01*
X6583Y2031D01*
X6614Y2048D01*
X6642Y2070D01*
X6665Y2098D01*
X6682Y2130D01*
X6692Y2164D01*
X6696Y2200D01*
Y2515D01*
X6707Y2521D01*
X6718Y2515D01*
Y2438D01*
X6722Y2418D01*
X6733Y2401D01*
X6830Y2304D01*
Y259D01*
X6691Y120D01*
X5746D01*
X5576Y290D01*
Y371D01*
X5585Y378D01*
X5598Y395D01*
X5606Y416D01*
X5609Y438D01*
X5606Y459D01*
X5598Y480D01*
X5585Y497D01*
X5567Y510D01*
X5547Y519D01*
X5525Y522D01*
X5503Y519D01*
X5483Y510D01*
X5465Y497D01*
X5452Y480D01*
X5444Y459D01*
X5441Y438D01*
X5444Y416D01*
X5452Y395D01*
X5465Y378D01*
X5474Y371D01*
Y269D01*
X5478Y249D01*
X5489Y233D01*
X5677Y45D01*
X5672Y33D01*
X4854D01*
X4847Y46D01*
X4855Y57D01*
X4856Y63D01*
X4987Y194D01*
X4996Y208D01*
X4998Y218D01*
X5011Y217D01*
Y96D01*
X5012Y88D01*
X5017Y82D01*
X5023Y77D01*
X5031Y76D01*
X5141D01*
X5149Y77D01*
X5156Y82D01*
X5160Y88D01*
X5162Y96D01*
Y266D01*
X5160Y274D01*
X5156Y281D01*
X5149Y285D01*
X5141Y287D01*
X5130D01*
Y356D01*
X5144Y370D01*
X5169Y344D01*
X5183Y335D01*
X5200Y332D01*
X5217Y335D01*
X5228Y342D01*
X5231Y342D01*
X5249Y345D01*
X5264Y355D01*
X5274Y370D01*
X5277Y388D01*
X5274Y405D01*
X5264Y420D01*
X5249Y430D01*
X5231Y433D01*
X5218Y431D01*
X5212D01*
X5207Y430D01*
X5187Y449D01*
Y499D01*
X5193Y503D01*
X5198Y510D01*
X5199Y518D01*
Y607D01*
X5198Y615D01*
X5193Y622D01*
X5187Y626D01*
X5181Y628D01*
X5174Y637D01*
X5162Y645D01*
X5157Y658D01*
X5231Y732D01*
X5240Y746D01*
X5243Y762D01*
Y1993D01*
X5246Y2006D01*
X5242Y2024D01*
X5232Y2039D01*
X5218Y2049D01*
X5200Y2052D01*
X5187Y2050D01*
X5138D01*
X5137Y2049D01*
X5131Y2061D01*
X5142Y2070D01*
X5165Y2098D01*
X5182Y2130D01*
X5192Y2164D01*
X5196Y2200D01*
Y3562D01*
X5401Y3767D01*
X5712D01*
X5820Y3658D01*
D02*
G37*
G36*
X4829Y3562D02*
Y3005D01*
X4822Y3004D01*
X4816Y2999D01*
X4811Y2993D01*
X4810Y2985D01*
Y2815D01*
X4811Y2807D01*
X4816Y2801D01*
X4822Y2796D01*
X4829Y2795D01*
Y2680D01*
X4816Y2676D01*
X4810Y2685D01*
X4792Y2698D01*
X4772Y2706D01*
X4750Y2709D01*
X4728Y2706D01*
X4708Y2698D01*
X4690Y2685D01*
X4677Y2667D01*
X4669Y2647D01*
X4666Y2625D01*
X4669Y2603D01*
X4677Y2583D01*
X4690Y2565D01*
X4699Y2559D01*
Y2426D01*
X4691Y2423D01*
X4686Y2423D01*
X4678Y2431D01*
Y2448D01*
X4674Y2468D01*
X4663Y2484D01*
X4620Y2527D01*
Y2640D01*
X4628Y2647D01*
X4642Y2664D01*
X4650Y2684D01*
X4653Y2706D01*
X4650Y2728D01*
X4642Y2748D01*
X4628Y2766D01*
X4611Y2779D01*
X4604Y2782D01*
X4607Y2795D01*
X4670D01*
X4678Y2796D01*
X4684Y2801D01*
X4689Y2807D01*
X4690Y2815D01*
Y2985D01*
X4689Y2993D01*
X4684Y2999D01*
X4678Y3004D01*
X4670Y3005D01*
X4666D01*
Y3090D01*
X4710D01*
X4718Y3091D01*
X4724Y3096D01*
X4729Y3102D01*
X4730Y3110D01*
Y3220D01*
X4729Y3228D01*
X4724Y3234D01*
X4718Y3239D01*
X4710Y3240D01*
X4540D01*
X4532Y3239D01*
X4526Y3234D01*
X4521Y3228D01*
X4520Y3220D01*
Y3110D01*
X4521Y3102D01*
X4526Y3096D01*
X4532Y3091D01*
X4540Y3090D01*
X4564D01*
Y3005D01*
X4560D01*
X4552Y3004D01*
X4546Y2999D01*
X4541Y2993D01*
X4540Y2985D01*
Y2951D01*
X4500D01*
X4480Y2947D01*
X4464Y2936D01*
X4389Y2861D01*
X4378Y2845D01*
X4374Y2825D01*
Y2689D01*
X4377Y2676D01*
X4365Y2670D01*
X4282Y2752D01*
Y2771D01*
X4291Y2778D01*
X4304Y2795D01*
X4313Y2816D01*
X4315Y2838D01*
X4313Y2859D01*
X4304Y2880D01*
X4291Y2897D01*
X4273Y2910D01*
X4253Y2919D01*
X4231Y2922D01*
X4209Y2919D01*
X4189Y2910D01*
X4172Y2897D01*
X4158Y2880D01*
X4150Y2859D01*
X4147Y2838D01*
X4150Y2816D01*
X4158Y2795D01*
X4172Y2778D01*
X4180Y2771D01*
Y2747D01*
X4168Y2742D01*
X4124Y2786D01*
X4107Y2797D01*
X4107Y2797D01*
X4097Y2810D01*
X4080Y2823D01*
X4080Y2823D01*
Y2837D01*
X4097Y2844D01*
X4116Y2859D01*
X4131Y2878D01*
X4141Y2901D01*
X4142Y2912D01*
X3958D01*
X3959Y2901D01*
X3969Y2878D01*
X3984Y2859D01*
X4003Y2844D01*
X4008Y2842D01*
Y2828D01*
X3995Y2823D01*
X3978Y2810D01*
X3965Y2792D01*
X3956Y2772D01*
X3953Y2750D01*
X3954Y2745D01*
X3942Y2735D01*
X3940Y2736D01*
X3898D01*
Y2638D01*
X3966D01*
Y2686D01*
X3974Y2689D01*
X3979Y2690D01*
X3995Y2677D01*
X4016Y2669D01*
X4038Y2666D01*
X4059Y2669D01*
X4080Y2677D01*
X4085Y2681D01*
X4135Y2631D01*
X4129Y2619D01*
X4125Y2619D01*
Y2531D01*
X4112D01*
Y2519D01*
X4025D01*
X4026Y2508D01*
X4035Y2486D01*
X4049Y2468D01*
X4068Y2454D01*
X4076Y2450D01*
X4076Y2448D01*
X4069Y2434D01*
X4061Y2428D01*
X4055Y2420D01*
X4053Y2410D01*
Y2238D01*
X4119D01*
Y2212D01*
X4053D01*
Y2041D01*
X4020D01*
X3925Y2137D01*
Y2312D01*
X3927Y2325D01*
X3924Y2343D01*
X3914Y2357D01*
X3899Y2367D01*
X3881Y2371D01*
X3864Y2367D01*
X3849Y2357D01*
X3839Y2343D01*
X3835Y2325D01*
X3838Y2312D01*
Y2119D01*
X3841Y2102D01*
X3851Y2088D01*
X3932Y2006D01*
X3927Y1995D01*
X3712D01*
X3693Y1991D01*
X3676Y1980D01*
X3665Y1963D01*
X3662Y1944D01*
X3665Y1924D01*
X3676Y1908D01*
X3680Y1905D01*
X3680Y1905D01*
X3695Y1895D01*
X3712Y1892D01*
X3718Y1893D01*
X3933D01*
X3936Y1889D01*
X3953Y1878D01*
X3972Y1874D01*
X4162D01*
X4182Y1878D01*
X4199Y1889D01*
X4210Y1905D01*
X4213Y1925D01*
X4210Y1941D01*
X4216Y1952D01*
X4229Y1953D01*
X4432Y1751D01*
X4446Y1741D01*
X4462Y1738D01*
X4525D01*
X4538Y1735D01*
X4555Y1739D01*
X4570Y1749D01*
X4580Y1764D01*
X4583Y1781D01*
X4580Y1799D01*
X4570Y1814D01*
X4555Y1824D01*
X4538Y1827D01*
X4525Y1825D01*
X4480D01*
X4296Y2009D01*
X4296Y2011D01*
X4299Y2024D01*
X4300Y2026D01*
X4302Y2029D01*
X4304Y2029D01*
X4315D01*
X4317Y2029D01*
X4319Y2026D01*
X4325Y2021D01*
X4333Y2020D01*
X4413D01*
X4421Y2021D01*
X4427Y2026D01*
X4429Y2029D01*
X4431Y2029D01*
X4442D01*
X4444Y2029D01*
X4446Y2026D01*
X4452Y2021D01*
X4457Y2020D01*
Y1969D01*
X4460Y1952D01*
X4469Y1938D01*
X4713Y1695D01*
Y1645D01*
X3988D01*
X3980Y1644D01*
X3973Y1639D01*
X3969Y1633D01*
X3967Y1625D01*
Y1292D01*
X3955Y1287D01*
X3779Y1463D01*
X3772Y1474D01*
X3757Y1484D01*
X3740Y1487D01*
X3722Y1484D01*
X3707Y1474D01*
X3697Y1459D01*
X3694Y1442D01*
X3697Y1424D01*
X3707Y1409D01*
X3718Y1402D01*
X3902Y1218D01*
Y807D01*
X3905Y791D01*
X3914Y777D01*
X3939Y752D01*
X3951Y744D01*
X4060Y635D01*
X4068Y624D01*
X4082Y614D01*
X4100Y610D01*
X4118Y614D01*
X4132Y624D01*
X4142Y639D01*
X4146Y656D01*
X4142Y674D01*
X4132Y689D01*
X4122Y696D01*
X4025Y793D01*
X4030Y805D01*
X4211D01*
X4214Y792D01*
X4211Y789D01*
X4206Y783D01*
X4205Y775D01*
Y225D01*
X4206Y220D01*
X4201Y211D01*
X4198Y207D01*
X4046D01*
X3963Y290D01*
Y406D01*
X3960Y426D01*
X3949Y442D01*
X3895Y496D01*
X3897Y506D01*
X3894Y528D01*
X3885Y548D01*
X3872Y566D01*
X3855Y579D01*
X3834Y588D01*
X3812Y590D01*
X3791Y588D01*
X3770Y579D01*
X3753Y566D01*
X3740Y548D01*
X3731Y528D01*
X3728Y506D01*
X3731Y484D01*
X3740Y464D01*
X3753Y447D01*
X3770Y433D01*
X3791Y425D01*
X3812Y422D01*
X3823Y423D01*
X3862Y385D01*
Y269D01*
X3865Y249D01*
X3876Y233D01*
X3970Y139D01*
X3965Y127D01*
X3895D01*
X3870Y152D01*
X3872Y162D01*
X3869Y184D01*
X3860Y205D01*
X3847Y222D01*
X3830Y235D01*
X3809Y244D01*
X3788Y247D01*
X3766Y244D01*
X3745Y235D01*
X3728Y222D01*
X3721Y213D01*
X3619D01*
X3599Y210D01*
X3587Y201D01*
X3579Y211D01*
X3628Y260D01*
X3631Y260D01*
X3653Y262D01*
X3673Y271D01*
X3691Y284D01*
X3704Y302D01*
X3713Y322D01*
X3715Y344D01*
X3715Y350D01*
X3718Y355D01*
X3722Y372D01*
X3718Y388D01*
X3709Y402D01*
X3695Y412D01*
X3678Y415D01*
X3676Y415D01*
X3673Y417D01*
X3653Y425D01*
X3631Y428D01*
X3609Y425D01*
X3589Y417D01*
X3572Y403D01*
X3558Y386D01*
X3550Y366D01*
X3547Y344D01*
X3550Y322D01*
X3555Y310D01*
X3471Y226D01*
X3142D01*
X3138Y239D01*
X3174Y261D01*
X3209Y291D01*
X3239Y326D01*
X3264Y366D01*
X3281Y409D01*
X3292Y454D01*
X3296Y500D01*
X3292Y546D01*
X3281Y591D01*
X3264Y634D01*
X3239Y674D01*
X3209Y709D01*
X3196Y721D01*
Y805D01*
X3512D01*
X3520Y806D01*
X3527Y811D01*
X3531Y817D01*
X3533Y825D01*
Y1625D01*
X3531Y1633D01*
X3527Y1639D01*
X3520Y1644D01*
X3512Y1645D01*
X2487D01*
X2479Y1644D01*
X2473Y1639D01*
X2468Y1633D01*
X2467Y1625D01*
Y1156D01*
X2352D01*
X2348Y1169D01*
X2363Y1180D01*
X2378Y1199D01*
X2387Y1221D01*
X2388Y1231D01*
X2212D01*
X2213Y1221D01*
X2221Y1202D01*
X2210Y1195D01*
X2169Y1236D01*
Y1346D01*
X2181Y1352D01*
X2189Y1346D01*
X2209Y1337D01*
X2231Y1335D01*
X2253Y1337D01*
X2273Y1346D01*
X2291Y1359D01*
X2304Y1377D01*
X2313Y1397D01*
X2315Y1419D01*
X2313Y1441D01*
X2304Y1461D01*
X2291Y1478D01*
X2282Y1485D01*
Y1746D01*
X2330Y1794D01*
X2839D01*
X2844Y1783D01*
X2837Y1775D01*
X2432D01*
X2419Y1777D01*
X2401Y1774D01*
X2386Y1764D01*
X2376Y1749D01*
X2373Y1731D01*
X2376Y1714D01*
X2386Y1699D01*
X2401Y1689D01*
X2419Y1685D01*
X2432Y1688D01*
X2856D01*
X2873Y1691D01*
X2887Y1701D01*
X2961Y1775D01*
X3054D01*
X3055Y1762D01*
X3043Y1760D01*
X3026Y1749D01*
X3015Y1732D01*
X3014Y1725D01*
X3111D01*
X3110Y1732D01*
X3099Y1749D01*
X3082Y1760D01*
X3070Y1762D01*
X3071Y1775D01*
X3489D01*
X3590Y1673D01*
Y1398D01*
X3594Y1381D01*
X3603Y1367D01*
X3669Y1301D01*
X3670Y1295D01*
X3680Y1280D01*
X3695Y1270D01*
X3712Y1267D01*
X3730Y1270D01*
X3745Y1280D01*
X3755Y1295D01*
X3758Y1312D01*
X3755Y1330D01*
X3753Y1333D01*
X3753Y1335D01*
X3743Y1349D01*
X3677Y1416D01*
Y1691D01*
X3674Y1706D01*
X3675Y1710D01*
X3680Y1719D01*
X3718D01*
X3731Y1717D01*
X3749Y1720D01*
X3764Y1730D01*
X3774Y1745D01*
X3777Y1762D01*
X3774Y1780D01*
X3764Y1795D01*
X3749Y1805D01*
X3731Y1808D01*
X3718Y1806D01*
X3672D01*
X3606Y1872D01*
Y1952D01*
X3781Y2127D01*
X3790Y2141D01*
X3793Y2157D01*
Y2331D01*
X3796Y2344D01*
X3792Y2361D01*
X3782Y2376D01*
X3768Y2386D01*
X3750Y2390D01*
X3732Y2386D01*
X3718Y2376D01*
X3708Y2361D01*
X3704Y2344D01*
X3707Y2331D01*
Y2175D01*
X3694Y2163D01*
X3682Y2168D01*
X3685Y2199D01*
Y2526D01*
X3689Y2532D01*
X3690Y2540D01*
Y2710D01*
X3689Y2718D01*
X3685Y2724D01*
Y3600D01*
X3863Y3779D01*
X4612D01*
X4829Y3562D01*
D02*
G37*
G36*
X6967Y2737D02*
X6965Y2736D01*
X6923D01*
Y2625D01*
Y2514D01*
X6965D01*
X6967Y2513D01*
Y33D01*
X6766D01*
X6761Y45D01*
X6917Y201D01*
X6928Y218D01*
X6932Y238D01*
Y2325D01*
X6928Y2345D01*
X6917Y2361D01*
X6820Y2459D01*
Y2526D01*
X6823Y2527D01*
X6832Y2528D01*
X6837Y2522D01*
X6845Y2516D01*
X6855Y2514D01*
X6897D01*
Y2625D01*
Y2740D01*
X6894Y2748D01*
X6917Y2771D01*
X6928Y2787D01*
X6932Y2807D01*
Y3706D01*
X6928Y3726D01*
X6917Y3742D01*
X6655Y4005D01*
X6638Y4016D01*
X6619Y4020D01*
X6559D01*
X6428Y4151D01*
X6428Y4163D01*
X6437Y4170D01*
X6452Y4190D01*
X6461Y4213D01*
X6465Y4238D01*
X6461Y4262D01*
X6452Y4285D01*
X6437Y4305D01*
X6417Y4320D01*
Y4482D01*
X6434Y4495D01*
X6449Y4515D01*
X6459Y4538D01*
X6462Y4562D01*
X6459Y4587D01*
X6449Y4610D01*
X6434Y4630D01*
X6414Y4645D01*
X6391Y4655D01*
X6367Y4658D01*
X6342Y4655D01*
X6319Y4645D01*
X6299Y4630D01*
X6284Y4610D01*
X6274Y4587D01*
X6271Y4562D01*
X6274Y4538D01*
X6284Y4515D01*
X6299Y4495D01*
X6316Y4482D01*
Y4316D01*
X6301Y4305D01*
X6286Y4285D01*
X6276Y4262D01*
X6273Y4238D01*
X6276Y4213D01*
X6286Y4190D01*
X6301Y4170D01*
X6318Y4157D01*
Y4138D01*
X6322Y4118D01*
X6333Y4101D01*
X6501Y3933D01*
X6518Y3922D01*
X6538Y3918D01*
X6598D01*
X6830Y3685D01*
Y2828D01*
X6733Y2731D01*
X6726Y2721D01*
X6723Y2720D01*
X6711Y2721D01*
X6709Y2724D01*
X6703Y2729D01*
X6696Y2730D01*
Y3575D01*
X6696Y3575D01*
X6692Y3611D01*
X6682Y3645D01*
X6665Y3677D01*
X6642Y3705D01*
X6430Y3917D01*
X6402Y3940D01*
X6370Y3957D01*
X6336Y3967D01*
X6300Y3971D01*
X6026D01*
X5917Y4080D01*
X5889Y4102D01*
X5858Y4119D01*
X5823Y4130D01*
X5788Y4133D01*
X5325D01*
X5289Y4130D01*
X5255Y4119D01*
X5223Y4102D01*
X5195Y4080D01*
X5012Y3897D01*
X4817Y4092D01*
X4789Y4115D01*
X4758Y4132D01*
X4723Y4142D01*
X4688Y4146D01*
X3788D01*
X3752Y4142D01*
X3717Y4132D01*
X3686Y4115D01*
X3658Y4092D01*
X3658Y4092D01*
X3488Y3922D01*
X3330Y4080D01*
X3302Y4102D01*
X3270Y4119D01*
X3236Y4130D01*
X3200Y4133D01*
X2363D01*
X2362Y4133D01*
X2327Y4130D01*
X2292Y4119D01*
X2261Y4102D01*
X2233Y4080D01*
X2012Y3859D01*
X1792Y4080D01*
X1764Y4102D01*
X1733Y4119D01*
X1698Y4130D01*
X1662Y4133D01*
X600D01*
X564Y4130D01*
X530Y4119D01*
X498Y4102D01*
X470Y4080D01*
X470Y4080D01*
X145Y3755D01*
X123Y3727D01*
X106Y3695D01*
X95Y3661D01*
X92Y3625D01*
Y3225D01*
X95Y3189D01*
X106Y3155D01*
X123Y3123D01*
X145Y3095D01*
X173Y3073D01*
X205Y3056D01*
X239Y3045D01*
X275Y3042D01*
X311Y3045D01*
X345Y3056D01*
X377Y3073D01*
X405Y3095D01*
X427Y3123D01*
X444Y3155D01*
X455Y3189D01*
X458Y3225D01*
Y3549D01*
X676Y3767D01*
X1587D01*
X1829Y3524D01*
Y3030D01*
X1822Y3029D01*
X1816Y3024D01*
X1811Y3018D01*
X1810Y3010D01*
Y2840D01*
X1811Y2832D01*
X1816Y2826D01*
X1822Y2821D01*
X1829Y2820D01*
Y2721D01*
X1795D01*
X1792Y2723D01*
X1772Y2731D01*
X1750Y2734D01*
X1728Y2731D01*
X1708Y2723D01*
X1690Y2710D01*
X1677Y2692D01*
X1675Y2686D01*
X1661Y2686D01*
X1561Y2786D01*
X1545Y2797D01*
X1525Y2801D01*
X1271D01*
X1251Y2821D01*
Y2850D01*
X1285D01*
X1293Y2851D01*
X1299Y2856D01*
X1304Y2862D01*
X1305Y2870D01*
Y2980D01*
X1304Y2988D01*
X1299Y2994D01*
X1293Y2999D01*
X1285Y3000D01*
X1115D01*
X1107Y2999D01*
X1101Y2994D01*
X1096Y2988D01*
X1095Y2980D01*
Y2976D01*
X982D01*
X978Y2979D01*
X970Y2980D01*
X880D01*
X872Y2979D01*
X866Y2974D01*
X861Y2968D01*
X860Y2960D01*
Y2890D01*
X861Y2882D01*
X866Y2876D01*
X872Y2871D01*
X880Y2870D01*
X970D01*
X978Y2871D01*
X982Y2874D01*
X1095D01*
Y2870D01*
X1096Y2862D01*
X1101Y2856D01*
X1107Y2851D01*
X1115Y2850D01*
X1149D01*
Y2800D01*
X1153Y2780D01*
X1164Y2764D01*
X1214Y2714D01*
X1215Y2713D01*
X1214Y2700D01*
X1208Y2698D01*
X1190Y2685D01*
X1177Y2667D01*
X1169Y2647D01*
X1166Y2625D01*
X1169Y2603D01*
X1177Y2583D01*
X1190Y2565D01*
X1202Y2557D01*
X1203Y2551D01*
X1213Y2536D01*
X1211Y2532D01*
X1206Y2525D01*
X1200Y2526D01*
X1121D01*
X1101Y2546D01*
Y2559D01*
X1110Y2565D01*
X1123Y2583D01*
X1131Y2603D01*
X1134Y2625D01*
X1131Y2647D01*
X1123Y2667D01*
X1110Y2685D01*
X1092Y2698D01*
X1072Y2706D01*
X1050Y2709D01*
X1028Y2706D01*
X1008Y2698D01*
X990Y2685D01*
X977Y2667D01*
X969Y2647D01*
X966Y2625D01*
X969Y2603D01*
X977Y2583D01*
X990Y2565D01*
X999Y2559D01*
Y2525D01*
X1003Y2505D01*
X1014Y2489D01*
X1060Y2443D01*
X1061Y2428D01*
X1055Y2420D01*
X1053Y2410D01*
Y2238D01*
X1119D01*
Y2225D01*
X1132D01*
Y2014D01*
X1159D01*
X1169Y2016D01*
X1177Y2022D01*
X1178Y2023D01*
X1191Y2026D01*
X1193Y2024D01*
X1198Y2021D01*
X1206Y2020D01*
X1286D01*
X1294Y2021D01*
X1300Y2026D01*
X1302Y2029D01*
X1304Y2029D01*
X1315D01*
X1317Y2029D01*
X1319Y2026D01*
X1325Y2021D01*
X1333Y2020D01*
X1413D01*
X1421Y2021D01*
X1427Y2026D01*
X1429Y2029D01*
X1431Y2029D01*
X1442D01*
X1444Y2029D01*
X1446Y2026D01*
X1446Y2025D01*
X1449Y2010D01*
X1448Y2010D01*
X1213Y1774D01*
X1204Y1760D01*
X1200Y1744D01*
Y1645D01*
X988D01*
X980Y1644D01*
X973Y1639D01*
X969Y1633D01*
X967Y1625D01*
Y825D01*
X969Y817D01*
X973Y811D01*
X980Y806D01*
X988Y805D01*
X1211D01*
X1214Y792D01*
X1211Y789D01*
X1206Y783D01*
X1205Y775D01*
Y225D01*
X1206Y217D01*
X1211Y211D01*
X1217Y206D01*
X1225Y205D01*
X1775D01*
X1783Y206D01*
X1789Y211D01*
X1794Y217D01*
X1795Y225D01*
Y775D01*
X1794Y783D01*
X1789Y789D01*
X1786Y792D01*
X1789Y805D01*
X2012D01*
X2015Y791D01*
X2024Y777D01*
X2130Y671D01*
Y612D01*
X2124D01*
X2116Y610D01*
X2109Y606D01*
X2105Y599D01*
X2103Y591D01*
Y521D01*
X2105Y513D01*
X2109Y507D01*
X2116Y502D01*
X2124Y501D01*
X2214D01*
X2222Y502D01*
X2228Y507D01*
X2233Y513D01*
X2234Y521D01*
Y591D01*
X2233Y599D01*
X2228Y606D01*
X2222Y610D01*
X2217Y611D01*
Y689D01*
X2214Y705D01*
X2204Y719D01*
X2098Y825D01*
Y1168D01*
X2110Y1172D01*
X2201Y1082D01*
X2215Y1072D01*
X2231Y1069D01*
X2467D01*
Y825D01*
X2468Y817D01*
X2473Y811D01*
X2479Y806D01*
X2487Y805D01*
X2804D01*
Y721D01*
X2791Y709D01*
X2761Y674D01*
X2736Y634D01*
X2719Y591D01*
X2708Y546D01*
X2704Y500D01*
X2708Y454D01*
X2719Y409D01*
X2736Y366D01*
X2761Y326D01*
X2791Y291D01*
X2826Y261D01*
X2862Y239D01*
X2858Y226D01*
X2427D01*
X2406Y247D01*
Y475D01*
X2408Y487D01*
X2405Y505D01*
X2395Y520D01*
X2380Y530D01*
X2362Y533D01*
X2345Y530D01*
X2330Y520D01*
X2320Y505D01*
X2317Y487D01*
X2319Y475D01*
Y259D01*
X2307Y254D01*
X2222Y340D01*
X2222Y344D01*
X2223Y354D01*
X2228Y357D01*
X2233Y363D01*
X2234Y371D01*
Y441D01*
X2233Y449D01*
X2228Y456D01*
X2222Y460D01*
X2214Y462D01*
X2124D01*
X2116Y460D01*
X2109Y456D01*
X2105Y449D01*
X2103Y441D01*
Y371D01*
X2105Y363D01*
X2109Y357D01*
X2116Y352D01*
X2124Y351D01*
X2132D01*
Y325D01*
X2135Y308D01*
X2144Y294D01*
X2342Y97D01*
X2343Y90D01*
X2354Y74D01*
X2370Y63D01*
X2390Y59D01*
X3566D01*
X3586Y63D01*
X3602Y74D01*
X3640Y112D01*
X3721D01*
X3728Y103D01*
X3745Y90D01*
X3766Y81D01*
X3788Y78D01*
X3798Y80D01*
X3832Y46D01*
X3827Y33D01*
X33D01*
Y4967D01*
X6967D01*
Y2737D01*
D02*
G37*
%LPC*%
G36*
X2875Y3522D02*
X2853Y3519D01*
X2833Y3510D01*
X2815Y3497D01*
X2802Y3480D01*
X2794Y3459D01*
X2791Y3438D01*
X2794Y3416D01*
X2802Y3395D01*
X2815Y3378D01*
X2824Y3371D01*
Y3019D01*
X2828Y2999D01*
X2839Y2983D01*
X2933Y2889D01*
X2949Y2878D01*
X2969Y2874D01*
X3040D01*
Y2840D01*
X3041Y2832D01*
X3046Y2826D01*
X3052Y2821D01*
X3060Y2820D01*
X3170D01*
X3178Y2821D01*
X3184Y2826D01*
X3189Y2832D01*
X3190Y2840D01*
Y3010D01*
X3189Y3018D01*
X3184Y3024D01*
X3178Y3029D01*
X3176Y3029D01*
Y3090D01*
X3210D01*
X3218Y3091D01*
X3224Y3096D01*
X3229Y3102D01*
X3230Y3110D01*
Y3220D01*
X3229Y3228D01*
X3224Y3234D01*
X3218Y3239D01*
X3210Y3240D01*
X3040D01*
X3032Y3239D01*
X3026Y3234D01*
X3021Y3228D01*
X3020Y3220D01*
Y3110D01*
X3021Y3102D01*
X3026Y3096D01*
X3032Y3091D01*
X3040Y3090D01*
X3074D01*
Y3030D01*
X3060D01*
X3052Y3029D01*
X3046Y3024D01*
X3041Y3018D01*
X3040Y3010D01*
Y2976D01*
X2990D01*
X2926Y3040D01*
Y3371D01*
X2935Y3378D01*
X2948Y3395D01*
X2956Y3416D01*
X2959Y3438D01*
X2956Y3459D01*
X2948Y3480D01*
X2935Y3497D01*
X2917Y3510D01*
X2897Y3519D01*
X2875Y3522D01*
D02*
G37*
G36*
X2372Y2686D02*
X2330D01*
X2320Y2684D01*
X2312Y2678D01*
X2306Y2670D01*
X2304Y2660D01*
Y2588D01*
X2372D01*
Y2686D01*
D02*
G37*
G36*
X2387Y3136D02*
X2355D01*
X2345Y3134D01*
X2337Y3128D01*
X2331Y3120D01*
X2329Y3110D01*
Y3088D01*
X2387D01*
Y3136D01*
D02*
G37*
G36*
X2471Y3062D02*
X2413D01*
Y3014D01*
X2445D01*
X2455Y3016D01*
X2463Y3022D01*
X2469Y3030D01*
X2471Y3040D01*
Y3062D01*
D02*
G37*
G36*
X2387D02*
X2329D01*
Y3040D01*
X2331Y3030D01*
X2337Y3022D01*
X2345Y3016D01*
X2355Y3014D01*
X2387D01*
Y3062D01*
D02*
G37*
G36*
X2372Y2562D02*
X2304D01*
Y2490D01*
X2306Y2480D01*
X2312Y2472D01*
X2320Y2466D01*
X2330Y2464D01*
X2372D01*
Y2562D01*
D02*
G37*
G36*
X2450Y3538D02*
Y3463D01*
X2525D01*
X2524Y3473D01*
X2515Y3495D01*
X2501Y3513D01*
X2482Y3528D01*
X2461Y3537D01*
X2450Y3538D01*
D02*
G37*
G36*
X2425D02*
X2414Y3537D01*
X2393Y3528D01*
X2374Y3513D01*
X2360Y3495D01*
X2351Y3473D01*
X2350Y3463D01*
X2425D01*
Y3538D01*
D02*
G37*
G36*
X3112Y3516D02*
X3040D01*
X3030Y3514D01*
X3022Y3508D01*
X3016Y3500D01*
X3014Y3490D01*
Y3448D01*
X3112D01*
Y3516D01*
D02*
G37*
G36*
X3210D02*
X3138D01*
Y3448D01*
X3236D01*
Y3490D01*
X3234Y3500D01*
X3228Y3508D01*
X3220Y3514D01*
X3210Y3516D01*
D02*
G37*
G36*
X2761Y3182D02*
X2663D01*
Y3114D01*
X2735D01*
X2745Y3116D01*
X2753Y3122D01*
X2759Y3130D01*
X2761Y3140D01*
Y3182D01*
D02*
G37*
G36*
X2637Y3276D02*
X2565D01*
X2555Y3274D01*
X2547Y3268D01*
X2541Y3260D01*
X2539Y3250D01*
Y3208D01*
X2637D01*
Y3276D01*
D02*
G37*
G36*
X2445Y3136D02*
X2413D01*
Y3088D01*
X2471D01*
Y3110D01*
X2469Y3120D01*
X2463Y3128D01*
X2455Y3134D01*
X2445Y3136D01*
D02*
G37*
G36*
X2637Y3182D02*
X2539D01*
Y3140D01*
X2541Y3130D01*
X2547Y3122D01*
X2555Y3116D01*
X2565Y3114D01*
X2637D01*
Y3182D01*
D02*
G37*
G36*
X3236Y3422D02*
X3138D01*
Y3354D01*
X3210D01*
X3220Y3356D01*
X3228Y3362D01*
X3234Y3370D01*
X3236Y3380D01*
Y3422D01*
D02*
G37*
G36*
X3112D02*
X3014D01*
Y3380D01*
X3016Y3370D01*
X3022Y3362D01*
X3030Y3356D01*
X3040Y3354D01*
X3112D01*
Y3422D01*
D02*
G37*
G36*
X2525Y3437D02*
X2450D01*
Y3362D01*
X2461Y3363D01*
X2482Y3372D01*
X2501Y3387D01*
X2515Y3405D01*
X2524Y3427D01*
X2525Y3437D01*
D02*
G37*
G36*
X2425D02*
X2350D01*
X2351Y3427D01*
X2360Y3405D01*
X2374Y3387D01*
X2393Y3372D01*
X2414Y3363D01*
X2425Y3362D01*
Y3437D01*
D02*
G37*
G36*
X2735Y3276D02*
X2663D01*
Y3208D01*
X2761D01*
Y3250D01*
X2759Y3260D01*
X2753Y3268D01*
X2745Y3274D01*
X2735Y3276D01*
D02*
G37*
G36*
X6092Y2912D02*
X6013D01*
Y2833D01*
X6024Y2834D01*
X6047Y2844D01*
X6066Y2859D01*
X6081Y2878D01*
X6091Y2901D01*
X6092Y2912D01*
D02*
G37*
G36*
X5987D02*
X5908D01*
X5909Y2901D01*
X5919Y2878D01*
X5934Y2859D01*
X5953Y2844D01*
X5976Y2834D01*
X5987Y2833D01*
Y2912D01*
D02*
G37*
G36*
Y3017D02*
X5976Y3016D01*
X5953Y3006D01*
X5934Y2991D01*
X5919Y2972D01*
X5909Y2949D01*
X5908Y2938D01*
X5987D01*
Y3017D01*
D02*
G37*
G36*
X5372Y2736D02*
X5330D01*
X5320Y2734D01*
X5312Y2728D01*
X5306Y2720D01*
X5304Y2710D01*
Y2638D01*
X5372D01*
Y2736D01*
D02*
G37*
G36*
X5470Y3086D02*
X5438D01*
Y3038D01*
X5496D01*
Y3060D01*
X5494Y3070D01*
X5488Y3078D01*
X5480Y3084D01*
X5470Y3086D01*
D02*
G37*
G36*
X5412D02*
X5380D01*
X5370Y3084D01*
X5362Y3078D01*
X5356Y3070D01*
X5354Y3060D01*
Y3038D01*
X5412D01*
Y3086D01*
D02*
G37*
G36*
X5945Y3505D02*
X5835D01*
X5827Y3504D01*
X5821Y3499D01*
X5816Y3493D01*
X5815Y3485D01*
Y3451D01*
X5619D01*
X5599Y3447D01*
X5583Y3436D01*
X5429Y3283D01*
X5419Y3284D01*
X5397Y3281D01*
X5377Y3273D01*
X5359Y3260D01*
X5346Y3242D01*
X5337Y3222D01*
X5335Y3200D01*
X5337Y3178D01*
X5346Y3158D01*
X5359Y3140D01*
X5377Y3127D01*
X5397Y3119D01*
X5419Y3116D01*
X5441Y3119D01*
X5461Y3127D01*
X5478Y3140D01*
X5492Y3158D01*
X5500Y3178D01*
X5503Y3200D01*
X5502Y3211D01*
X5640Y3349D01*
X5815D01*
Y3315D01*
X5816Y3307D01*
X5821Y3301D01*
X5827Y3296D01*
X5835Y3295D01*
X5839D01*
Y3210D01*
X5843Y3190D01*
X5854Y3174D01*
X5914Y3114D01*
X5930Y3103D01*
X5950Y3099D01*
X6040D01*
Y3065D01*
X6041Y3057D01*
X6046Y3051D01*
X6052Y3046D01*
X6060Y3045D01*
X6170D01*
X6178Y3046D01*
X6184Y3051D01*
X6189Y3057D01*
X6190Y3065D01*
Y3235D01*
X6189Y3243D01*
X6184Y3249D01*
X6178Y3254D01*
X6170Y3255D01*
X6060D01*
X6052Y3254D01*
X6046Y3249D01*
X6041Y3243D01*
X6040Y3235D01*
Y3201D01*
X5971D01*
X5941Y3231D01*
Y3295D01*
X5945D01*
X5953Y3296D01*
X5959Y3301D01*
X5964Y3307D01*
X5965Y3315D01*
Y3485D01*
X5964Y3493D01*
X5959Y3499D01*
X5953Y3504D01*
X5945Y3505D01*
D02*
G37*
G36*
X5811Y3147D02*
X5713D01*
Y3079D01*
X5785D01*
X5795Y3081D01*
X5803Y3087D01*
X5809Y3095D01*
X5811Y3105D01*
Y3147D01*
D02*
G37*
G36*
X5687D02*
X5589D01*
Y3105D01*
X5591Y3095D01*
X5597Y3087D01*
X5605Y3081D01*
X5615Y3079D01*
X5687D01*
Y3147D01*
D02*
G37*
G36*
X5496Y3012D02*
X5438D01*
Y2964D01*
X5470D01*
X5480Y2966D01*
X5488Y2972D01*
X5494Y2980D01*
X5496Y2990D01*
Y3012D01*
D02*
G37*
G36*
X5412D02*
X5354D01*
Y2990D01*
X5356Y2980D01*
X5362Y2972D01*
X5370Y2966D01*
X5380Y2964D01*
X5412D01*
Y3012D01*
D02*
G37*
G36*
X6013Y3017D02*
Y2938D01*
X6092D01*
X6091Y2949D01*
X6081Y2972D01*
X6066Y2991D01*
X6047Y3006D01*
X6024Y3016D01*
X6013Y3017D01*
D02*
G37*
G36*
X5355Y550D02*
X5306D01*
Y492D01*
X5329D01*
X5339Y494D01*
X5347Y499D01*
X5353Y508D01*
X5355Y518D01*
Y550D01*
D02*
G37*
G36*
X5281Y633D02*
X5259D01*
X5249Y631D01*
X5240Y626D01*
X5235Y617D01*
X5233Y607D01*
Y575D01*
X5281D01*
Y633D01*
D02*
G37*
G36*
Y550D02*
X5233D01*
Y518D01*
X5235Y508D01*
X5240Y499D01*
X5249Y494D01*
X5259Y492D01*
X5281D01*
Y550D01*
D02*
G37*
G36*
X5437Y169D02*
X5369D01*
Y70D01*
X5411D01*
X5421Y72D01*
X5430Y78D01*
X5435Y86D01*
X5437Y96D01*
Y169D01*
D02*
G37*
G36*
X5344D02*
X5275D01*
Y96D01*
X5277Y86D01*
X5283Y78D01*
X5291Y72D01*
X5301Y70D01*
X5344D01*
Y169D01*
D02*
G37*
G36*
X5411Y292D02*
X5369D01*
Y194D01*
X5437D01*
Y266D01*
X5435Y276D01*
X5430Y285D01*
X5421Y290D01*
X5411Y292D01*
D02*
G37*
G36*
X5344D02*
X5301D01*
X5291Y290D01*
X5283Y285D01*
X5277Y276D01*
X5275Y266D01*
Y194D01*
X5344D01*
Y292D01*
D02*
G37*
G36*
X5329Y633D02*
X5306D01*
Y575D01*
X5355D01*
Y607D01*
X5353Y617D01*
X5347Y626D01*
X5339Y631D01*
X5329Y633D01*
D02*
G37*
G36*
X5606Y2212D02*
X5553D01*
Y2040D01*
X5555Y2030D01*
X5561Y2022D01*
X5569Y2016D01*
X5579Y2014D01*
X5606D01*
Y2212D01*
D02*
G37*
G36*
X5372Y2612D02*
X5304D01*
Y2540D01*
X5306Y2530D01*
X5312Y2522D01*
X5320Y2516D01*
X5330Y2514D01*
X5372D01*
Y2612D01*
D02*
G37*
G36*
X6215Y3511D02*
X6173D01*
Y3413D01*
X6241D01*
Y3485D01*
X6239Y3495D01*
X6233Y3503D01*
X6225Y3509D01*
X6215Y3511D01*
D02*
G37*
G36*
X6147D02*
X6105D01*
X6095Y3509D01*
X6087Y3503D01*
X6081Y3495D01*
X6079Y3485D01*
Y3413D01*
X6147D01*
Y3511D01*
D02*
G37*
G36*
X5687Y3241D02*
X5615D01*
X5605Y3239D01*
X5597Y3233D01*
X5591Y3225D01*
X5589Y3215D01*
Y3173D01*
X5687D01*
Y3241D01*
D02*
G37*
G36*
X5785D02*
X5713D01*
Y3173D01*
X5811D01*
Y3215D01*
X5809Y3225D01*
X5803Y3233D01*
X5795Y3239D01*
X5785Y3241D01*
D02*
G37*
G36*
X6241Y3387D02*
X6173D01*
Y3289D01*
X6215D01*
X6225Y3291D01*
X6233Y3297D01*
X6239Y3305D01*
X6241Y3315D01*
Y3387D01*
D02*
G37*
G36*
X6147D02*
X6079D01*
Y3315D01*
X6081Y3305D01*
X6087Y3297D01*
X6095Y3291D01*
X6105Y3289D01*
X6147D01*
Y3387D01*
D02*
G37*
G36*
X4063Y3017D02*
Y2938D01*
X4142D01*
X4141Y2949D01*
X4131Y2972D01*
X4116Y2991D01*
X4097Y3006D01*
X4074Y3016D01*
X4063Y3017D01*
D02*
G37*
G36*
X4037D02*
X4026Y3016D01*
X4003Y3006D01*
X3984Y2991D01*
X3969Y2972D01*
X3959Y2949D01*
X3958Y2938D01*
X4037D01*
Y3017D01*
D02*
G37*
G36*
X3872Y2736D02*
X3830D01*
X3820Y2734D01*
X3812Y2728D01*
X3806Y2720D01*
X3804Y2710D01*
Y2638D01*
X3872D01*
Y2736D01*
D02*
G37*
G36*
X4100Y2619D02*
X4089Y2618D01*
X4068Y2609D01*
X4049Y2595D01*
X4035Y2576D01*
X4026Y2554D01*
X4025Y2544D01*
X4100D01*
Y2619D01*
D02*
G37*
G36*
X4411Y3087D02*
X4363D01*
Y3029D01*
X4385D01*
X4395Y3031D01*
X4403Y3037D01*
X4409Y3045D01*
X4411Y3055D01*
Y3087D01*
D02*
G37*
G36*
X4337D02*
X4289D01*
Y3055D01*
X4291Y3045D01*
X4297Y3037D01*
X4305Y3031D01*
X4315Y3029D01*
X4337D01*
Y3087D01*
D02*
G37*
G36*
X3725Y619D02*
X3650D01*
Y543D01*
X3661Y545D01*
X3682Y554D01*
X3701Y568D01*
X3715Y586D01*
X3724Y608D01*
X3725Y619D01*
D02*
G37*
G36*
X3625D02*
X3550D01*
X3551Y608D01*
X3560Y586D01*
X3574Y568D01*
X3593Y554D01*
X3614Y545D01*
X3625Y543D01*
Y619D01*
D02*
G37*
G36*
X3966Y2612D02*
X3898D01*
Y2514D01*
X3940D01*
X3950Y2516D01*
X3958Y2522D01*
X3964Y2530D01*
X3966Y2540D01*
Y2612D01*
D02*
G37*
G36*
X3872D02*
X3804D01*
Y2540D01*
X3806Y2530D01*
X3812Y2522D01*
X3820Y2516D01*
X3830Y2514D01*
X3872D01*
Y2612D01*
D02*
G37*
G36*
X3111Y1700D02*
X3075D01*
Y1664D01*
X3082Y1665D01*
X3099Y1676D01*
X3110Y1693D01*
X3111Y1700D01*
D02*
G37*
G36*
X3650Y719D02*
Y644D01*
X3725D01*
X3724Y654D01*
X3715Y676D01*
X3701Y695D01*
X3682Y709D01*
X3661Y718D01*
X3650Y719D01*
D02*
G37*
G36*
X3625D02*
X3614Y718D01*
X3593Y709D01*
X3574Y695D01*
X3560Y676D01*
X3551Y654D01*
X3550Y644D01*
X3625D01*
Y719D01*
D02*
G37*
G36*
X3050Y1700D02*
X3014D01*
X3015Y1693D01*
X3026Y1676D01*
X3043Y1665D01*
X3050Y1664D01*
Y1700D01*
D02*
G37*
G36*
X2313Y1332D02*
Y1256D01*
X2388D01*
X2387Y1267D01*
X2378Y1289D01*
X2363Y1307D01*
X2345Y1321D01*
X2323Y1330D01*
X2313Y1332D01*
D02*
G37*
G36*
X2287D02*
X2277Y1330D01*
X2255Y1321D01*
X2237Y1307D01*
X2222Y1289D01*
X2213Y1267D01*
X2212Y1256D01*
X2287D01*
Y1332D01*
D02*
G37*
G36*
X4710Y3516D02*
X4638D01*
Y3448D01*
X4736D01*
Y3490D01*
X4734Y3500D01*
X4728Y3508D01*
X4720Y3514D01*
X4710Y3516D01*
D02*
G37*
G36*
X4612D02*
X4540D01*
X4530Y3514D01*
X4522Y3508D01*
X4516Y3500D01*
X4514Y3490D01*
Y3448D01*
X4612D01*
Y3516D01*
D02*
G37*
G36*
X3910Y3466D02*
X3838D01*
Y3398D01*
X3936D01*
Y3440D01*
X3934Y3450D01*
X3928Y3458D01*
X3920Y3464D01*
X3910Y3466D01*
D02*
G37*
G36*
X4050Y3484D02*
X4028Y3481D01*
X4008Y3473D01*
X3990Y3460D01*
X3977Y3442D01*
X3969Y3422D01*
X3966Y3400D01*
X3969Y3378D01*
X3977Y3358D01*
X3990Y3340D01*
X3999Y3334D01*
Y3196D01*
X3969Y3166D01*
X3930D01*
Y3170D01*
X3929Y3178D01*
X3924Y3184D01*
X3918Y3189D01*
X3910Y3190D01*
X3740D01*
X3732Y3189D01*
X3726Y3184D01*
X3721Y3178D01*
X3720Y3170D01*
Y3060D01*
X3721Y3052D01*
X3726Y3046D01*
X3732Y3041D01*
X3740Y3040D01*
X3910D01*
X3918Y3041D01*
X3924Y3046D01*
X3929Y3052D01*
X3930Y3060D01*
Y3064D01*
X3990D01*
X4010Y3068D01*
X4026Y3079D01*
X4050Y3103D01*
X4089Y3064D01*
X4105Y3053D01*
X4125Y3049D01*
X4146D01*
X4146Y3047D01*
X4151Y3041D01*
X4157Y3036D01*
X4165Y3035D01*
X4235D01*
X4243Y3036D01*
X4249Y3041D01*
X4254Y3047D01*
X4255Y3055D01*
Y3145D01*
X4254Y3153D01*
X4249Y3159D01*
X4243Y3164D01*
X4235Y3165D01*
X4165D01*
X4157Y3164D01*
X4151Y3159D01*
X4136Y3161D01*
X4101Y3196D01*
Y3334D01*
X4110Y3340D01*
X4123Y3358D01*
X4131Y3378D01*
X4134Y3400D01*
X4131Y3422D01*
X4123Y3442D01*
X4110Y3460D01*
X4092Y3473D01*
X4072Y3481D01*
X4050Y3484D01*
D02*
G37*
G36*
X4337Y3171D02*
X4315D01*
X4305Y3169D01*
X4297Y3163D01*
X4291Y3155D01*
X4289Y3145D01*
Y3113D01*
X4337D01*
Y3171D01*
D02*
G37*
G36*
X4385D02*
X4363D01*
Y3113D01*
X4411D01*
Y3145D01*
X4409Y3155D01*
X4403Y3163D01*
X4395Y3169D01*
X4385Y3171D01*
D02*
G37*
G36*
X4612Y3422D02*
X4514D01*
Y3380D01*
X4516Y3370D01*
X4522Y3362D01*
X4530Y3356D01*
X4540Y3354D01*
X4612D01*
Y3422D01*
D02*
G37*
G36*
X4736D02*
X4638D01*
Y3354D01*
X4710D01*
X4720Y3356D01*
X4728Y3362D01*
X4734Y3370D01*
X4736Y3380D01*
Y3422D01*
D02*
G37*
G36*
X3812Y3466D02*
X3740D01*
X3730Y3464D01*
X3722Y3458D01*
X3716Y3450D01*
X3714Y3440D01*
Y3398D01*
X3812D01*
Y3466D01*
D02*
G37*
G36*
Y3372D02*
X3714D01*
Y3330D01*
X3716Y3320D01*
X3722Y3312D01*
X3730Y3306D01*
X3740Y3304D01*
X3812D01*
Y3372D01*
D02*
G37*
G36*
X3936D02*
X3838D01*
Y3304D01*
X3910D01*
X3920Y3306D01*
X3928Y3312D01*
X3934Y3320D01*
X3936Y3330D01*
Y3372D01*
D02*
G37*
G36*
X1050Y3484D02*
X1028Y3481D01*
X1008Y3473D01*
X990Y3460D01*
X977Y3442D01*
X969Y3422D01*
X966Y3400D01*
X969Y3378D01*
X977Y3358D01*
X990Y3340D01*
X1008Y3327D01*
X1028Y3319D01*
X1050Y3316D01*
X1072Y3319D01*
X1092Y3327D01*
X1110Y3340D01*
X1116Y3349D01*
X1304D01*
X1374Y3279D01*
Y3000D01*
X1378Y2980D01*
X1389Y2964D01*
X1464Y2889D01*
X1480Y2878D01*
X1500Y2874D01*
X1540D01*
Y2840D01*
X1541Y2832D01*
X1546Y2826D01*
X1552Y2821D01*
X1560Y2820D01*
X1670D01*
X1678Y2821D01*
X1684Y2826D01*
X1689Y2832D01*
X1690Y2840D01*
Y3010D01*
X1689Y3018D01*
X1684Y3024D01*
X1678Y3029D01*
X1676Y3029D01*
Y3090D01*
X1710D01*
X1718Y3091D01*
X1724Y3096D01*
X1729Y3102D01*
X1730Y3110D01*
Y3220D01*
X1729Y3228D01*
X1724Y3234D01*
X1718Y3239D01*
X1710Y3240D01*
X1540D01*
X1532Y3239D01*
X1526Y3234D01*
X1521Y3228D01*
X1520Y3220D01*
Y3110D01*
X1521Y3102D01*
X1526Y3096D01*
X1532Y3091D01*
X1540Y3090D01*
X1574D01*
Y3030D01*
X1560D01*
X1552Y3029D01*
X1546Y3024D01*
X1541Y3018D01*
X1540Y3010D01*
Y2976D01*
X1521D01*
X1476Y3021D01*
Y3300D01*
X1472Y3320D01*
X1461Y3336D01*
X1361Y3436D01*
X1345Y3447D01*
X1325Y3451D01*
X1116D01*
X1110Y3460D01*
X1092Y3473D01*
X1072Y3481D01*
X1050Y3484D01*
D02*
G37*
G36*
X912Y3062D02*
X854D01*
Y3040D01*
X856Y3030D01*
X862Y3022D01*
X870Y3016D01*
X880Y3014D01*
X912D01*
Y3062D01*
D02*
G37*
G36*
X996D02*
X938D01*
Y3014D01*
X970D01*
X980Y3016D01*
X988Y3022D01*
X994Y3030D01*
X996Y3040D01*
Y3062D01*
D02*
G37*
G36*
X525Y788D02*
Y500D01*
X813D01*
X810Y535D01*
X799Y581D01*
X781Y624D01*
X756Y665D01*
X726Y701D01*
X690Y731D01*
X649Y756D01*
X606Y774D01*
X560Y785D01*
X525Y788D01*
D02*
G37*
G36*
X500D02*
X465Y785D01*
X419Y774D01*
X376Y756D01*
X335Y731D01*
X299Y701D01*
X269Y665D01*
X244Y624D01*
X226Y581D01*
X215Y535D01*
X212Y500D01*
X500D01*
Y788D01*
D02*
G37*
G36*
Y475D02*
X212D01*
X215Y440D01*
X226Y394D01*
X244Y351D01*
X269Y310D01*
X299Y274D01*
X335Y244D01*
X376Y219D01*
X419Y201D01*
X465Y190D01*
X500Y187D01*
Y475D01*
D02*
G37*
G36*
X813D02*
X525D01*
Y187D01*
X560Y190D01*
X606Y201D01*
X649Y219D01*
X690Y244D01*
X726Y274D01*
X756Y310D01*
X781Y351D01*
X799Y394D01*
X810Y440D01*
X813Y475D01*
D02*
G37*
G36*
X1106Y2212D02*
X1053D01*
Y2040D01*
X1055Y2030D01*
X1061Y2022D01*
X1069Y2016D01*
X1079Y2014D01*
X1106D01*
Y2212D01*
D02*
G37*
G36*
X775Y1452D02*
X225D01*
X217Y1451D01*
X211Y1446D01*
X206Y1440D01*
X205Y1432D01*
Y882D01*
X206Y874D01*
X211Y867D01*
X217Y863D01*
X225Y861D01*
X775D01*
X783Y863D01*
X789Y867D01*
X794Y874D01*
X795Y882D01*
Y1432D01*
X794Y1440D01*
X789Y1446D01*
X783Y1451D01*
X775Y1452D01*
D02*
G37*
G36*
X912Y3136D02*
X880D01*
X870Y3134D01*
X862Y3128D01*
X856Y3120D01*
X854Y3110D01*
Y3088D01*
X912D01*
Y3136D01*
D02*
G37*
G36*
X1710Y3516D02*
X1638D01*
Y3448D01*
X1736D01*
Y3490D01*
X1734Y3500D01*
X1728Y3508D01*
X1720Y3514D01*
X1710Y3516D01*
D02*
G37*
G36*
X6102Y4225D02*
X6015D01*
X6017Y4211D01*
X6027Y4187D01*
X6043Y4166D01*
X6064Y4150D01*
X6089Y4140D01*
X6102Y4138D01*
Y4225D01*
D02*
G37*
G36*
Y4337D02*
X6089Y4335D01*
X6064Y4325D01*
X6043Y4309D01*
X6027Y4288D01*
X6017Y4264D01*
X6015Y4250D01*
X6102D01*
Y4337D01*
D02*
G37*
G36*
X6698Y4333D02*
X6548D01*
X6540Y4331D01*
X6533Y4327D01*
X6529Y4320D01*
X6527Y4312D01*
Y4162D01*
X6529Y4155D01*
X6533Y4148D01*
X6540Y4144D01*
X6548Y4142D01*
X6698D01*
X6706Y4144D01*
X6712Y4148D01*
X6717Y4155D01*
X6718Y4162D01*
Y4312D01*
X6717Y4320D01*
X6712Y4327D01*
X6706Y4331D01*
X6698Y4333D01*
D02*
G37*
G36*
X6214Y4225D02*
X6127D01*
Y4138D01*
X6141Y4140D01*
X6165Y4150D01*
X6186Y4166D01*
X6202Y4187D01*
X6213Y4211D01*
X6214Y4225D01*
D02*
G37*
G36*
X1612Y3516D02*
X1540D01*
X1530Y3514D01*
X1522Y3508D01*
X1516Y3500D01*
X1514Y3490D01*
Y3448D01*
X1612D01*
Y3516D01*
D02*
G37*
G36*
X5629Y4670D02*
X5479D01*
X5471Y4669D01*
X5465Y4664D01*
X5460Y4658D01*
X5459Y4650D01*
Y4500D01*
X5460Y4492D01*
X5465Y4486D01*
X5471Y4481D01*
X5479Y4480D01*
X5629D01*
X5637Y4481D01*
X5643Y4486D01*
X5648Y4492D01*
X5649Y4500D01*
Y4650D01*
X5648Y4658D01*
X5643Y4664D01*
X5637Y4669D01*
X5629Y4670D01*
D02*
G37*
G36*
X5300Y4671D02*
X5275Y4668D01*
X5252Y4658D01*
X5232Y4643D01*
X5217Y4623D01*
X5207Y4600D01*
X5204Y4575D01*
X5207Y4550D01*
X5217Y4527D01*
X5232Y4507D01*
X5252Y4492D01*
X5275Y4482D01*
X5300Y4479D01*
X5325Y4482D01*
X5348Y4492D01*
X5368Y4507D01*
X5383Y4527D01*
X5393Y4550D01*
X5396Y4575D01*
X5393Y4600D01*
X5383Y4623D01*
X5368Y4643D01*
X5348Y4658D01*
X5325Y4668D01*
X5300Y4671D01*
D02*
G37*
G36*
X4792D02*
X4767Y4668D01*
X4744Y4658D01*
X4724Y4643D01*
X4709Y4623D01*
X4699Y4600D01*
X4696Y4575D01*
X4699Y4550D01*
X4709Y4527D01*
X4724Y4507D01*
X4744Y4492D01*
X4767Y4482D01*
X4792Y4479D01*
X4817Y4482D01*
X4840Y4492D01*
X4860Y4507D01*
X4875Y4527D01*
X4885Y4550D01*
X4888Y4575D01*
X4885Y4600D01*
X4875Y4623D01*
X4860Y4643D01*
X4840Y4658D01*
X4817Y4668D01*
X4792Y4671D01*
D02*
G37*
G36*
X6100Y4662D02*
X6086Y4660D01*
X6062Y4650D01*
X6041Y4634D01*
X6025Y4613D01*
X6015Y4589D01*
X6013Y4575D01*
X6100D01*
Y4662D01*
D02*
G37*
G36*
X5059Y4675D02*
Y4588D01*
X5146D01*
X5144Y4601D01*
X5134Y4626D01*
X5118Y4647D01*
X5097Y4663D01*
X5072Y4673D01*
X5059Y4675D01*
D02*
G37*
G36*
X5033D02*
X5020Y4673D01*
X4995Y4663D01*
X4974Y4647D01*
X4958Y4626D01*
X4948Y4601D01*
X4946Y4588D01*
X5033D01*
Y4675D01*
D02*
G37*
G36*
X6125Y4662D02*
Y4575D01*
X6212D01*
X6210Y4589D01*
X6200Y4613D01*
X6184Y4634D01*
X6163Y4650D01*
X6139Y4660D01*
X6125Y4662D01*
D02*
G37*
G36*
X6212Y4550D02*
X6125D01*
Y4463D01*
X6139Y4465D01*
X6163Y4475D01*
X6184Y4491D01*
X6200Y4512D01*
X6210Y4536D01*
X6212Y4550D01*
D02*
G37*
G36*
X6100D02*
X6013D01*
X6015Y4536D01*
X6025Y4512D01*
X6041Y4491D01*
X6062Y4475D01*
X6086Y4465D01*
X6100Y4463D01*
Y4550D01*
D02*
G37*
G36*
X6127Y4337D02*
Y4250D01*
X6214D01*
X6213Y4264D01*
X6202Y4288D01*
X6186Y4309D01*
X6165Y4325D01*
X6141Y4335D01*
X6127Y4337D01*
D02*
G37*
G36*
X6500Y4901D02*
X5925D01*
X5905Y4897D01*
X5889Y4886D01*
X5751Y4749D01*
X5740Y4732D01*
X5737Y4712D01*
Y4379D01*
X5728Y4372D01*
X5715Y4355D01*
X5706Y4334D01*
X5703Y4312D01*
X5706Y4291D01*
X5715Y4270D01*
X5728Y4253D01*
X5745Y4240D01*
X5766Y4231D01*
X5788Y4228D01*
X5809Y4231D01*
X5830Y4240D01*
X5847Y4253D01*
X5860Y4270D01*
X5869Y4291D01*
X5872Y4312D01*
X5869Y4334D01*
X5860Y4355D01*
X5847Y4372D01*
X5838Y4379D01*
Y4691D01*
X5946Y4799D01*
X6479D01*
X6570Y4708D01*
Y4658D01*
X6546D01*
X6538Y4656D01*
X6531Y4652D01*
X6527Y4645D01*
X6525Y4638D01*
Y4488D01*
X6527Y4480D01*
X6531Y4473D01*
X6538Y4469D01*
X6546Y4467D01*
X6696D01*
X6703Y4469D01*
X6710Y4473D01*
X6714Y4480D01*
X6716Y4488D01*
Y4638D01*
X6714Y4645D01*
X6710Y4652D01*
X6703Y4656D01*
X6696Y4658D01*
X6671D01*
Y4729D01*
X6668Y4749D01*
X6657Y4766D01*
X6536Y4886D01*
X6520Y4897D01*
X6500Y4901D01*
D02*
G37*
G36*
X4538Y4671D02*
X4513Y4668D01*
X4490Y4658D01*
X4470Y4643D01*
X4455Y4623D01*
X4453Y4618D01*
X1975D01*
X1958Y4615D01*
X1944Y4606D01*
X1728Y4390D01*
X1718Y4382D01*
X1708Y4368D01*
X1704Y4350D01*
X1708Y4332D01*
X1718Y4318D01*
X1732Y4308D01*
X1750Y4304D01*
X1768Y4308D01*
X1782Y4318D01*
X1790Y4328D01*
X1993Y4532D01*
X4453D01*
X4455Y4527D01*
X4470Y4507D01*
X4490Y4492D01*
X4513Y4482D01*
X4538Y4479D01*
X4563Y4482D01*
X4586Y4492D01*
X4606Y4507D01*
X4621Y4527D01*
X4631Y4550D01*
X4634Y4575D01*
X4631Y4600D01*
X4621Y4623D01*
X4606Y4643D01*
X4586Y4658D01*
X4563Y4668D01*
X4538Y4671D01*
D02*
G37*
G36*
X5146Y4562D02*
X5059D01*
Y4475D01*
X5072Y4477D01*
X5097Y4487D01*
X5118Y4503D01*
X5134Y4524D01*
X5144Y4549D01*
X5146Y4562D01*
D02*
G37*
G36*
X5033D02*
X4946D01*
X4948Y4549D01*
X4958Y4524D01*
X4974Y4503D01*
X4995Y4487D01*
X5020Y4477D01*
X5033Y4475D01*
Y4562D01*
D02*
G37*
G36*
X1285Y3276D02*
X1213D01*
Y3208D01*
X1311D01*
Y3250D01*
X1309Y3260D01*
X1303Y3268D01*
X1295Y3274D01*
X1285Y3276D01*
D02*
G37*
G36*
X1187D02*
X1115D01*
X1105Y3274D01*
X1097Y3268D01*
X1091Y3260D01*
X1089Y3250D01*
Y3208D01*
X1187D01*
Y3276D01*
D02*
G37*
G36*
X970Y3136D02*
X938D01*
Y3088D01*
X996D01*
Y3110D01*
X994Y3120D01*
X988Y3128D01*
X980Y3134D01*
X970Y3136D01*
D02*
G37*
G36*
X1311Y3182D02*
X1213D01*
Y3114D01*
X1285D01*
X1295Y3116D01*
X1303Y3122D01*
X1309Y3130D01*
X1311Y3140D01*
Y3182D01*
D02*
G37*
G36*
X1187D02*
X1089D01*
Y3140D01*
X1091Y3130D01*
X1097Y3122D01*
X1105Y3116D01*
X1115Y3114D01*
X1187D01*
Y3182D01*
D02*
G37*
G36*
X1736Y3422D02*
X1638D01*
Y3354D01*
X1710D01*
X1720Y3356D01*
X1728Y3362D01*
X1734Y3370D01*
X1736Y3380D01*
Y3422D01*
D02*
G37*
G36*
X1612D02*
X1514D01*
Y3380D01*
X1516Y3370D01*
X1522Y3362D01*
X1530Y3356D01*
X1540Y3354D01*
X1612D01*
Y3422D01*
D02*
G37*
%LPD*%
D11*
X2650Y3195D02*
D03*
Y2925D02*
D03*
X1625Y3435D02*
D03*
Y3165D02*
D03*
X1200Y3195D02*
D03*
Y2925D02*
D03*
X3125Y3435D02*
D03*
Y3165D02*
D03*
X3825Y3385D02*
D03*
Y3115D02*
D03*
X4625Y3435D02*
D03*
Y3165D02*
D03*
X5700Y3160D02*
D03*
Y2890D02*
D03*
D13*
X5294Y562D02*
D03*
X5144D02*
D03*
X4350Y3100D02*
D03*
X4200D02*
D03*
D14*
X2400Y3075D02*
D03*
Y2925D02*
D03*
X2169Y406D02*
D03*
Y556D02*
D03*
X925Y3075D02*
D03*
Y2925D02*
D03*
X5425Y3025D02*
D03*
Y2875D02*
D03*
D16*
X6160Y3400D02*
D03*
X5890D02*
D03*
X5356Y181D02*
D03*
X5086D02*
D03*
X6910Y2625D02*
D03*
X6640D02*
D03*
X2385Y2575D02*
D03*
X2115D02*
D03*
X1615Y2925D02*
D03*
X1885D02*
D03*
X3115D02*
D03*
X3385D02*
D03*
X3885Y2625D02*
D03*
X3615D02*
D03*
X4615Y2900D02*
D03*
X4885D02*
D03*
X5385Y2625D02*
D03*
X5115D02*
D03*
X6115Y3150D02*
D03*
X6385D02*
D03*
D23*
X4500Y1969D02*
X4756Y1712D01*
X4500Y1969D02*
Y2225D01*
X4756Y1481D02*
Y1712D01*
X5200Y762D02*
Y2006D01*
X5138D02*
X5200D01*
X4956Y519D02*
X5200Y762D01*
X4706Y1956D02*
X5087D01*
X4500Y1225D02*
X4756Y1481D01*
X3974Y782D02*
X4100Y656D01*
X2873Y2067D02*
Y2225D01*
X2174Y556D02*
Y689D01*
X1244Y1481D02*
Y1744D01*
Y1481D02*
X1500Y1225D01*
X1244Y1744D02*
X1500Y2000D01*
Y2225D01*
X3634Y1398D02*
Y1691D01*
X3507Y1818D02*
X3634Y1691D01*
X3945Y807D02*
Y1236D01*
X2419Y1731D02*
X2856D01*
X2943Y1818D01*
X2312Y1838D02*
X2869D01*
X2231Y1756D02*
X2312Y1838D01*
X2125Y1775D02*
X2262Y1912D01*
X2125Y1219D02*
Y1775D01*
Y1219D02*
X2231Y1112D01*
X2055Y807D02*
Y1855D01*
X2262Y1912D02*
X2850D01*
X2198Y1998D02*
X2804D01*
X2055Y1855D02*
X2198Y1998D01*
X2231Y1112D02*
X2938D01*
X3000Y1050D01*
X2869Y1838D02*
X2925Y1894D01*
X3091D01*
X2850Y1912D02*
X3000Y2062D01*
X2943Y1818D02*
X3507D01*
X3091Y1894D02*
X3254Y2056D01*
X2804Y1998D02*
X2873Y2067D01*
X4808Y76D02*
X4956Y225D01*
X2175Y325D02*
X2390Y110D01*
X2175Y325D02*
Y406D01*
X2055Y807D02*
X2174Y689D01*
X2362Y229D02*
X2409Y183D01*
X2362Y229D02*
Y487D01*
X3750Y2157D02*
Y2344D01*
X3562Y1970D02*
X3750Y2157D01*
X3654Y1762D02*
X3731D01*
X3562Y1854D02*
X3654Y1762D01*
X3562Y1854D02*
Y1970D01*
X2175Y406D02*
X2175Y406D01*
X6881Y2325D02*
Y2325D01*
X5086Y181D02*
Y374D01*
X5144Y431D01*
X1975Y4575D02*
X4538D01*
X1750Y4350D02*
X1975Y4575D01*
X5144Y431D02*
Y562D01*
Y606D01*
X4956Y225D02*
Y519D01*
X3945Y807D02*
X3970Y782D01*
X3974D01*
X5087Y1956D02*
X5138Y2006D01*
X5144Y431D02*
X5200Y375D01*
X5212Y388D01*
X5231D01*
X3254Y2056D02*
Y2225D01*
X3712Y1312D02*
Y1319D01*
X3634Y1398D02*
X3712Y1319D01*
X3740Y1442D02*
X3945Y1236D01*
X4003Y1998D02*
X4246D01*
X4462Y1781D01*
X4538D01*
X6000Y2006D02*
Y2225D01*
Y2006D02*
X6038Y1968D01*
X6069D01*
X6131Y1906D01*
Y1606D02*
Y1906D01*
X6050Y1525D02*
X6131Y1606D01*
X3881Y2119D02*
Y2325D01*
Y2119D02*
X4003Y1998D01*
X3000Y2062D02*
Y2225D01*
X2409Y183D02*
X3489D01*
X3678Y372D01*
D24*
X5038Y1781D02*
X5094Y1725D01*
X5319Y1706D02*
Y2362D01*
X5094Y831D02*
Y1725D01*
X4373Y2225D02*
Y2590D01*
X3000Y2225D02*
Y2475D01*
X3127Y2225D02*
Y2648D01*
X2746Y2225D02*
Y2429D01*
X5475Y1906D02*
X5725D01*
X2231Y1419D02*
Y1756D01*
X3874Y76D02*
X4808D01*
X3788Y162D02*
X3874Y76D01*
X3619Y162D02*
X3788D01*
X3566Y110D02*
X3619Y162D01*
X2390Y110D02*
X3566D01*
X3912Y269D02*
X4025Y156D01*
X4785D01*
X4862Y234D01*
Y600D01*
X1912Y2650D02*
X1988Y2575D01*
X2550Y2525D02*
X2600Y2475D01*
X4750Y2229D02*
Y2625D01*
X5950Y3150D02*
X6115D01*
X5890Y3210D02*
X5950Y3150D01*
X5890Y3210D02*
Y3375D01*
X5890Y3400D02*
X5890Y3400D01*
X3115Y2925D02*
X3125Y2935D01*
Y3165D01*
X1425Y3000D02*
Y3300D01*
X1325Y3400D02*
X1425Y3300D01*
X1050Y3400D02*
X1325D01*
X1425Y3000D02*
X1500Y2925D01*
X1615D02*
X1625Y2935D01*
Y3165D01*
X1500Y2925D02*
X1615D01*
X4615Y3155D02*
X4625Y3165D01*
X4615Y2900D02*
Y3155D01*
X4500Y2900D02*
X4615D01*
X4425Y2825D02*
X4500Y2900D01*
X4125Y3100D02*
X4200D01*
X4050Y3175D02*
X4125Y3100D01*
X4050Y3175D02*
Y3175D01*
X3825Y3115D02*
X3990D01*
X4050Y3175D01*
Y3400D01*
X4627Y2225D02*
Y2448D01*
X3025Y2750D02*
X3127Y2648D01*
X2700Y2750D02*
X3025D01*
X2400Y2925D02*
X2650D01*
X3550D02*
X3550Y2925D01*
X2650Y2800D02*
Y2925D01*
Y2800D02*
X2700Y2750D01*
X1525D02*
X1627Y2648D01*
X925Y2925D02*
X925Y2925D01*
X1200D01*
Y2800D02*
Y2925D01*
Y2800D02*
X1250Y2750D01*
X1525D01*
X1627Y2225D02*
Y2648D01*
X5550Y2525D02*
Y2625D01*
Y2525D02*
X5600Y2475D01*
X5700D01*
X5746Y2429D01*
Y2225D02*
Y2429D01*
X5750Y2596D02*
Y2625D01*
Y2596D02*
X5873Y2473D01*
Y2225D02*
Y2473D01*
X6000Y2225D02*
Y2475D01*
X5950Y2525D02*
X6000Y2475D01*
X5950Y2525D02*
Y2625D01*
X6250Y2229D02*
X6254Y2225D01*
X4750Y2229D02*
X4754Y2225D01*
X1250Y2571D02*
Y2625D01*
Y2571D02*
X1373Y2448D01*
Y2225D02*
Y2448D01*
X1246Y2225D02*
Y2429D01*
X1200Y2475D02*
X1246Y2429D01*
X1100Y2475D02*
X1200D01*
X1050Y2525D02*
X1100Y2475D01*
X1050Y2525D02*
Y2625D01*
X2700Y2475D02*
X2746Y2429D01*
X2600Y2475D02*
X2700D01*
X2550Y2525D02*
Y2625D01*
X1365Y2233D02*
X1373Y2225D01*
X1500D02*
Y2450D01*
X1450Y2500D02*
X1500Y2450D01*
X1450Y2500D02*
Y2625D01*
X1750Y2229D02*
X1754Y2225D01*
X5788Y4312D02*
Y4712D01*
X5925Y4850D01*
X6500D01*
X6621Y4729D01*
Y4562D02*
Y4729D01*
X6367Y4240D02*
Y4562D01*
Y4240D02*
X6369Y4238D01*
X6538Y3969D02*
X6619D01*
X6369Y4138D02*
X6538Y3969D01*
X6369Y4138D02*
Y4238D01*
X5419Y3200D02*
X5619Y3400D01*
X5890D01*
X5366Y1375D02*
Y1659D01*
X5319Y1706D02*
X5366Y1659D01*
X2875Y2600D02*
X3000Y2475D01*
X2969Y2925D02*
X3065D01*
X2875Y3019D02*
X2969Y2925D01*
X2875Y2600D02*
X2881Y2606D01*
Y2619D01*
X2875Y3019D02*
Y3438D01*
X1456Y1775D02*
X1594D01*
X1754Y1935D01*
X6619Y3969D02*
X6881Y3706D01*
Y2807D02*
Y3706D01*
X6769Y2694D02*
X6881Y2807D01*
X6769Y2438D02*
Y2694D01*
Y2438D02*
X6881Y2325D01*
Y238D02*
Y2325D01*
X6254Y1865D02*
Y2225D01*
Y1865D02*
X6350Y1769D01*
X6612D01*
X6712Y69D02*
X6881Y238D01*
X5525Y269D02*
Y438D01*
Y269D02*
X5725Y69D01*
X6712D01*
X6612Y1769D02*
X6756Y1625D01*
Y494D02*
Y1625D01*
X6675Y431D02*
X6694D01*
X6756Y494D01*
X6127Y2225D02*
Y2648D01*
X6012Y2762D02*
X6127Y2648D01*
X5762Y2762D02*
X6012D01*
X5700Y2825D02*
X5762Y2762D01*
X5700Y2825D02*
Y2890D01*
X5425Y2875D02*
X5685D01*
X5700Y2890D01*
X1754Y1935D02*
Y2225D01*
X4862Y600D02*
X5094Y831D01*
X4569Y2506D02*
Y2706D01*
Y2506D02*
X4627Y2448D01*
X4489Y2236D02*
X4500Y2225D01*
X4489Y2236D02*
Y2626D01*
X4425Y2689D02*
X4489Y2626D01*
X4425Y2689D02*
Y2825D01*
X4038Y2750D02*
X4088D01*
X4246Y2592D01*
Y2225D02*
Y2592D01*
X4231Y2731D02*
X4373Y2590D01*
X4231Y2731D02*
Y2838D01*
X3250Y2229D02*
X3254Y2225D01*
X3972Y1925D02*
X4162D01*
X6006Y1862D02*
X6025D01*
X5938Y1795D02*
X6006Y1862D01*
X5725Y1906D02*
X5825Y1806D01*
Y1794D02*
Y1806D01*
X5872Y1680D02*
X5938Y1747D01*
Y1795D01*
X5520Y1680D02*
X5872D01*
X5469Y1731D02*
X5520Y1680D01*
X3825Y494D02*
X3912Y406D01*
Y269D02*
Y406D01*
X3954Y1944D02*
X3972Y1925D01*
X3712Y1944D02*
X3954D01*
D26*
X3000Y500D02*
Y1050D01*
X4500Y500D02*
Y1225D01*
X3000Y425D02*
Y500D01*
X1500Y425D02*
Y500D01*
X6000D02*
Y1225D01*
X4500Y425D02*
Y500D01*
X6000Y425D02*
Y500D01*
X1500D02*
Y1225D01*
D27*
X3488Y3662D02*
X3501Y3649D01*
X275Y3225D02*
Y3625D01*
X600Y3950D01*
X1662D01*
X2362D02*
X3200D01*
X3488Y3662D01*
X3788Y3962D01*
X4688D01*
X5325Y3950D02*
X5788D01*
X5950Y3788D01*
X6300D01*
X5012Y3638D02*
X5325Y3950D01*
X4688Y3962D02*
X5012Y3638D01*
X6300Y3788D02*
X6512Y3575D01*
X2012Y3600D02*
X2362Y3950D01*
X1662D02*
X2012Y3600D01*
Y2212D02*
Y3600D01*
X3501Y2199D02*
Y3649D01*
X5012Y2200D02*
Y3638D01*
X6512Y2200D02*
Y3575D01*
D28*
X6623Y4238D02*
D03*
X6621Y4562D02*
D03*
X5554Y4575D02*
D03*
D29*
X6369Y4238D02*
D03*
X6115D02*
D03*
X6112Y4562D02*
D03*
X6367D02*
D03*
X4538Y4575D02*
D03*
X4792D02*
D03*
X5046D02*
D03*
X5300D02*
D03*
D30*
X500Y1157D02*
D03*
D31*
X512Y488D02*
D03*
X6000Y500D02*
D03*
X3000D02*
D03*
D32*
X4500D02*
D03*
X1500D02*
D03*
D33*
X4050Y2925D02*
D03*
X6000Y2925D02*
D03*
D34*
X3550D02*
D03*
X6500Y2925D02*
D03*
D35*
X5038Y1781D02*
D03*
X3631Y344D02*
D03*
X3812Y506D02*
D03*
X2438Y3450D02*
D03*
X2231Y1419D02*
D03*
X2300Y1244D02*
D03*
X3788Y162D02*
D03*
X3638Y631D02*
D03*
X4750Y2625D02*
D03*
X1050Y3400D02*
D03*
X4050D02*
D03*
X5950Y2625D02*
D03*
X1450D02*
D03*
X1050D02*
D03*
X2550D02*
D03*
X1250D02*
D03*
X5550D02*
D03*
X5750D02*
D03*
X5319Y2362D02*
D03*
X5788Y4312D02*
D03*
X5475Y1906D02*
D03*
X5469Y1731D02*
D03*
X5419Y3200D02*
D03*
X5366Y1375D02*
D03*
X2881Y2619D02*
D03*
X2875Y3438D02*
D03*
X1456Y1775D02*
D03*
X5525Y438D02*
D03*
X6675Y431D02*
D03*
X4569Y2706D02*
D03*
X4038Y2750D02*
D03*
X4112Y2531D02*
D03*
X4231Y2838D02*
D03*
X1750Y2650D02*
D03*
X6025Y1862D02*
D03*
X5825Y1794D02*
D03*
D36*
X5200Y2006D02*
D03*
X4706Y1956D02*
D03*
X4100Y656D02*
D03*
X2419Y1731D02*
D03*
X3062Y1712D02*
D03*
X2362Y487D02*
D03*
X3731Y1762D02*
D03*
X3712Y1938D02*
D03*
X1750Y4350D02*
D03*
X3750Y2344D02*
D03*
X5231Y388D02*
D03*
X3712Y1312D02*
D03*
X3740Y1442D02*
D03*
X4162Y1925D02*
D03*
X4538Y1781D02*
D03*
X3881Y2325D02*
D03*
D37*
X275Y3225D02*
D03*
D38*
X1500Y1225D02*
D03*
X4500D02*
D03*
X6000Y1225D02*
D03*
X3000D02*
D03*
D39*
X1881Y2225D02*
D03*
X1754D02*
D03*
X1627D02*
D03*
X1500D02*
D03*
X1373D02*
D03*
X1246D02*
D03*
X1119D02*
D03*
X4881D02*
D03*
X4754D02*
D03*
X4627D02*
D03*
X4500D02*
D03*
X4373D02*
D03*
X4246D02*
D03*
X4119D02*
D03*
X6381Y2225D02*
D03*
X6254D02*
D03*
X6127D02*
D03*
X6000D02*
D03*
X5873D02*
D03*
X5746D02*
D03*
X5619D02*
D03*
X3381D02*
D03*
X3254D02*
D03*
X3127D02*
D03*
X3000D02*
D03*
X2873D02*
D03*
X2746D02*
D03*
X2619D02*
D03*
D40*
X1889Y2221D02*
X1906Y2238D01*
X1750Y2650D02*
X1912D01*
X1988Y2550D02*
Y2575D01*
X1906Y2238D02*
X1939Y2276D01*
D41*
X1931Y2075D02*
D03*
D42*
X3431Y2075D02*
D03*
D43*
X4925Y2069D02*
D03*
X6438D02*
D03*
%TF.MD5,5f63c9c71a1dd5b401933aa9f4118dfa*%
M02*
