M48
;Layer_Color=9474304
;FILE_FORMAT=4:2
METRIC,LZ
;TYPE=PLATED
T1F00S00C0.40
T2F00S00C0.71
T3F00S00C0.80
T4F00S00C0.90
T5F00S00C3.50
%
T01
X002362Y000487
X0041Y000656
X003712Y001312
X005231Y000388
X0052Y002006
X004706Y001956
X004538Y001781
X004162Y001925
X003712Y001938
X003731Y001762
X00374Y001442
X00375Y002344
X003881Y002325
X003062Y001712
X002419Y001731
X00175Y00435
T02
X0023Y001244
X003638Y000631
X003631Y000344
X003788Y000162
X003812Y000506
X005525Y000438
X006675Y000431
X006025Y001862
X005825Y001794
X005469Y001731
X005475Y001906
X005366Y001375
X00555Y002625
X00575
X00595
X005419Y0032
X005788Y004312
X005319Y002362
X00475Y002625
X004569Y002706
X004231Y002838
X004038Y00275
X004112Y002531
X00405Y0034
X002875Y003438
X002438Y00345
X00255Y002625
X002881Y002619
X00175Y00265
X00145Y002625
X001456Y001775
X002231Y001419
X005038Y001781
X00125Y002625
X00105
Y0034
T03
X006Y002925
X0065Y002925
X00405
X00355Y002925
X000275Y003225
T04
X005554Y004575
X006112Y004562
X006367
X006621
X006623Y004238
X006369
X006115
X0053Y004575
X005046
X004792
X004538
T05
X000512Y000488
X0005Y001157
X0015Y0005
X003
X0045
X006
M30
