G04 Layer_Color=255*
%FSLAX42Y42*%
%MOMM*%
%TF.FileFunction,Pads,Bot*%
%TF.Part,Single*%
G01*
G75*
%TA.AperFunction,SMDPad,CuDef*%
%ADD11R,1.70X1.10*%
%ADD13R,0.70X0.90*%
%ADD14R,0.90X0.70*%
%ADD16R,1.10X1.70*%
%TA.AperFunction,ComponentPad*%
%ADD28R,1.50X1.50*%
%ADD29C,1.50*%
%ADD30R,5.50X5.50*%
%ADD31C,5.50*%
%ADD32R,5.50X5.50*%
%ADD33C,1.35*%
%ADD34R,1.35X1.35*%
%TA.AperFunction,SMDPad,CuDef*%
%ADD38R,10.25X8.00*%
%ADD39R,0.80X3.70*%
D11*
X2650Y3195D02*
D03*
Y2925D02*
D03*
X1625Y3435D02*
D03*
Y3165D02*
D03*
X1200Y3195D02*
D03*
Y2925D02*
D03*
X3125Y3435D02*
D03*
Y3165D02*
D03*
X3825Y3385D02*
D03*
Y3115D02*
D03*
X4625Y3435D02*
D03*
Y3165D02*
D03*
X5700Y3160D02*
D03*
Y2890D02*
D03*
D13*
X5294Y562D02*
D03*
X5144D02*
D03*
X4350Y3100D02*
D03*
X4200D02*
D03*
D14*
X2400Y3075D02*
D03*
Y2925D02*
D03*
X2169Y406D02*
D03*
Y556D02*
D03*
X925Y3075D02*
D03*
Y2925D02*
D03*
X5425Y3025D02*
D03*
Y2875D02*
D03*
D16*
X6160Y3400D02*
D03*
X5890D02*
D03*
X5356Y181D02*
D03*
X5086D02*
D03*
X6910Y2625D02*
D03*
X6640D02*
D03*
X2385Y2575D02*
D03*
X2115D02*
D03*
X1615Y2925D02*
D03*
X1885D02*
D03*
X3115D02*
D03*
X3385D02*
D03*
X3885Y2625D02*
D03*
X3615D02*
D03*
X4615Y2900D02*
D03*
X4885D02*
D03*
X5385Y2625D02*
D03*
X5115D02*
D03*
X6115Y3150D02*
D03*
X6385D02*
D03*
D28*
X6623Y4238D02*
D03*
X6621Y4562D02*
D03*
X5554Y4575D02*
D03*
D29*
X6369Y4238D02*
D03*
X6115D02*
D03*
X6112Y4562D02*
D03*
X6367D02*
D03*
X4538Y4575D02*
D03*
X4792D02*
D03*
X5046D02*
D03*
X5300D02*
D03*
D30*
X500Y1157D02*
D03*
D31*
X512Y488D02*
D03*
X6000Y500D02*
D03*
X3000D02*
D03*
D32*
X4500D02*
D03*
X1500D02*
D03*
D33*
X4050Y2925D02*
D03*
X6000Y2925D02*
D03*
D34*
X3550D02*
D03*
X6500Y2925D02*
D03*
D38*
X1500Y1225D02*
D03*
X4500D02*
D03*
X6000Y1225D02*
D03*
X3000D02*
D03*
D39*
X1881Y2225D02*
D03*
X1754D02*
D03*
X1627D02*
D03*
X1500D02*
D03*
X1373D02*
D03*
X1246D02*
D03*
X1119D02*
D03*
X4881D02*
D03*
X4754D02*
D03*
X4627D02*
D03*
X4500D02*
D03*
X4373D02*
D03*
X4246D02*
D03*
X4119D02*
D03*
X6381Y2225D02*
D03*
X6254D02*
D03*
X6127D02*
D03*
X6000D02*
D03*
X5873D02*
D03*
X5746D02*
D03*
X5619D02*
D03*
X3381D02*
D03*
X3254D02*
D03*
X3127D02*
D03*
X3000D02*
D03*
X2873D02*
D03*
X2746D02*
D03*
X2619D02*
D03*
%TF.MD5,0cfe34a33bdf2b2ece4525be301acb5c*%
M02*
