G04 Layer_Color=65535*
%FSLAX42Y42*%
%MOMM*%
%TF.FileFunction,Legend,Top*%
%TF.Part,Single*%
G01*
G75*
%TA.AperFunction,NonConductor*%
%ADD44C,0.25*%
%ADD45C,0.20*%
%ADD46C,0.12*%
%ADD70C,0.60*%
%ADD71C,0.13*%
%ADD72C,0.25*%
%ADD73C,0.15*%
G36*
X735Y4040D02*
X635D01*
X735Y4140D01*
Y4040D01*
D02*
G37*
D44*
X4108Y1105D02*
G03*
X4108Y1105I-12J0D01*
G01*
X741Y2760D02*
G03*
X741Y2760I-12J0D01*
G01*
D45*
X4346Y3175D02*
G03*
X3294Y3248I-546J-250D01*
G01*
Y2602D02*
G03*
X4346Y2675I506J323D01*
G01*
X6756Y3248D02*
G03*
X5704Y3175I-506J-323D01*
G01*
Y2675D02*
G03*
X6756Y2602I546J250D01*
G01*
X6678Y1207D02*
Y1842D01*
X6322D02*
X6678D01*
X6322Y1207D02*
Y1842D01*
Y1207D02*
X6678D01*
X5700Y3835D02*
Y3915D01*
X5550Y3835D02*
Y3915D01*
X5375Y3835D02*
Y3915D01*
X5225Y3835D02*
Y3915D01*
X3550Y1850D02*
X3950D01*
X3550Y1100D02*
X3950D01*
X3550D02*
Y1850D01*
X3950Y1100D02*
Y1850D01*
X2211Y4372D02*
X2251D01*
X2211Y4303D02*
X2251D01*
X5865Y1130D02*
Y1170D01*
X5935Y1130D02*
Y1170D01*
X5230Y1110D02*
X5270D01*
X5230Y1040D02*
X5270D01*
X5988Y4365D02*
X6750D01*
X5988Y4110D02*
Y4365D01*
Y4110D02*
X6750D01*
Y4365D01*
X6747Y4435D02*
Y4690D01*
X5985Y4435D02*
X6747D01*
X5985D02*
Y4690D01*
X6747D01*
X2773Y4663D02*
X2836D01*
X2773Y4537D02*
Y4663D01*
Y4537D02*
X2836D01*
X2964Y4663D02*
X3014D01*
X3040Y4638D01*
Y4562D02*
Y4638D01*
X3014Y4537D02*
X3040Y4562D01*
X2964Y4537D02*
X3014D01*
X3638D02*
X3689D01*
X3715Y4562D01*
Y4638D01*
X3689Y4663D02*
X3715Y4638D01*
X3638Y4663D02*
X3689D01*
X3448Y4537D02*
X3512D01*
X3448D02*
Y4663D01*
X3512D01*
X2303Y4537D02*
X2354D01*
X2380Y4562D01*
Y4638D01*
X2354Y4663D02*
X2380Y4638D01*
X2303Y4663D02*
X2354D01*
X2113Y4537D02*
X2176D01*
X2113D02*
Y4663D01*
X2176D01*
X5681Y4448D02*
Y4702D01*
X4411Y4448D02*
X5681D01*
X4411Y4702D02*
X5681D01*
X4411Y4448D02*
Y4702D01*
X1310Y4675D02*
X1390D01*
X1310Y4525D02*
X1390D01*
X735Y4040D02*
Y4710D01*
X365D02*
X735D01*
X365Y4040D02*
Y4710D01*
Y4040D02*
X735D01*
X183Y179D02*
X818D01*
X183D02*
Y1474D01*
X818D01*
Y179D02*
Y1474D01*
X4183Y818D02*
X6300D01*
X4183Y183D02*
Y818D01*
Y183D02*
X6300D01*
Y818D01*
X3300Y183D02*
Y818D01*
X1182Y183D02*
X3300D01*
X1182D02*
Y818D01*
X3300D01*
X1246Y1443D02*
Y1482D01*
X1316Y1443D02*
Y1482D01*
X950Y1385D02*
Y1465D01*
X1100Y1385D02*
Y1465D01*
X1434Y1443D02*
Y1482D01*
X1504Y1443D02*
Y1482D01*
X1566Y1225D02*
X1646D01*
X1566Y1075D02*
X1646D01*
X1215Y2124D02*
Y2164D01*
X1285Y2124D02*
Y2164D01*
X2833Y881D02*
X2912D01*
X2833Y1031D02*
X2912D01*
X2292Y991D02*
X2333D01*
X2292Y921D02*
X2333D01*
X5590Y2111D02*
Y2151D01*
X5660Y2111D02*
Y2151D01*
X5753Y2205D02*
Y2245D01*
X5822Y2205D02*
Y2245D01*
X4015Y2142D02*
Y2183D01*
X4085Y2142D02*
Y2183D01*
X4215Y2142D02*
Y2183D01*
X4285Y2142D02*
Y2183D01*
X2521Y2161D02*
Y2201D01*
X2591Y2161D02*
Y2201D01*
X4254Y3794D02*
X4334D01*
X4254Y3944D02*
X4334D01*
X4274Y4109D02*
X4314D01*
X4274Y4179D02*
X4314D01*
X3567Y4372D02*
X3608D01*
X3567Y4303D02*
X3608D01*
X2892Y4372D02*
X2933D01*
X2892Y4303D02*
X2933D01*
X1330Y4109D02*
X1370D01*
X1330Y4179D02*
X1370D01*
X1324Y4391D02*
X1364D01*
X1324Y4321D02*
X1364D01*
X350Y3585D02*
Y3665D01*
X200Y3585D02*
Y3665D01*
X930Y3115D02*
X970D01*
X930Y3185D02*
X970D01*
X4300Y850D02*
Y1002D01*
X4351Y952D01*
X4402Y1002D01*
Y850D01*
X4529Y1002D02*
X4478D01*
X4452Y977D01*
Y875D01*
X4478Y850D01*
X4529D01*
X4554Y875D01*
Y977D01*
X4529Y1002D01*
X4605D02*
X4706D01*
X4655D01*
Y850D01*
X4833Y1002D02*
X4782D01*
X4757Y977D01*
Y875D01*
X4782Y850D01*
X4833D01*
X4859Y875D01*
Y977D01*
X4833Y1002D01*
X4909Y850D02*
Y1002D01*
X4986D01*
X5011Y977D01*
Y926D01*
X4986Y901D01*
X4909D01*
X4960D02*
X5011Y850D01*
X5062Y825D02*
X5163D01*
X5214Y1002D02*
Y850D01*
X5290D01*
X5316Y875D01*
Y901D01*
X5290Y926D01*
X5214D01*
X5290D01*
X5316Y952D01*
Y977D01*
X5290Y1002D01*
X5214D01*
X1300Y850D02*
Y1002D01*
X1351Y952D01*
X1402Y1002D01*
Y850D01*
X1529Y1002D02*
X1478D01*
X1452Y977D01*
Y875D01*
X1478Y850D01*
X1529D01*
X1554Y875D01*
Y977D01*
X1529Y1002D01*
X1605D02*
X1706D01*
X1655D01*
Y850D01*
X1833Y1002D02*
X1782D01*
X1757Y977D01*
Y875D01*
X1782Y850D01*
X1833D01*
X1859Y875D01*
Y977D01*
X1833Y1002D01*
X1909Y850D02*
Y1002D01*
X1986D01*
X2011Y977D01*
Y926D01*
X1986Y901D01*
X1909D01*
X1960D02*
X2011Y850D01*
X2062Y825D02*
X2163D01*
X2214Y850D02*
Y952D01*
X2265Y1002D01*
X2316Y952D01*
Y850D01*
Y926D01*
X2214D01*
X3544Y856D02*
Y1009D01*
X3595Y958D01*
X3645Y1009D01*
Y856D01*
X3798Y983D02*
X3772Y1009D01*
X3721D01*
X3696Y983D01*
Y882D01*
X3721Y856D01*
X3772D01*
X3798Y882D01*
X3848Y1009D02*
Y882D01*
X3874Y856D01*
X3925D01*
X3950Y882D01*
Y1009D01*
D46*
X540Y3356D02*
Y3396D01*
X550D01*
X590Y3356D01*
X600D01*
Y3396D01*
Y3446D02*
Y3426D01*
X590Y3416D01*
X570D01*
X560Y3426D01*
Y3446D01*
X570Y3456D01*
X580D01*
Y3416D01*
X600Y3476D02*
X560D01*
Y3506D01*
X570Y3516D01*
X600D01*
Y3566D02*
Y3546D01*
X590Y3536D01*
X570D01*
X560Y3546D01*
Y3566D01*
X570Y3576D01*
X580D01*
Y3536D01*
X560Y3596D02*
X600D01*
X580D01*
X570Y3606D01*
X560Y3616D01*
Y3626D01*
X600Y3716D02*
Y3736D01*
Y3726D01*
X540D01*
X550Y3716D01*
Y3766D02*
X540Y3776D01*
Y3796D01*
X550Y3806D01*
X590D01*
X600Y3796D01*
Y3776D01*
X590Y3766D01*
X550D01*
X540Y3826D02*
X580D01*
X600Y3846D01*
X580Y3866D01*
X540D01*
X3438Y4831D02*
Y4891D01*
X3467D01*
X3477Y4881D01*
Y4861D01*
X3467Y4851D01*
X3438D01*
X3457D02*
X3477Y4831D01*
X3537Y4891D02*
X3497D01*
Y4831D01*
X3537D01*
X3497Y4861D02*
X3517D01*
X3557Y4891D02*
Y4831D01*
X3587D01*
X3597Y4841D01*
Y4881D01*
X3587Y4891D01*
X3557D01*
X3617Y4821D02*
X3657D01*
X3677Y4891D02*
Y4831D01*
X3717D01*
X3777Y4891D02*
X3737D01*
Y4831D01*
X3777D01*
X3737Y4861D02*
X3757D01*
X3797Y4891D02*
Y4831D01*
X3827D01*
X3837Y4841D01*
Y4881D01*
X3827Y4891D01*
X3797D01*
X3897Y4831D02*
X3857D01*
X3897Y4871D01*
Y4881D01*
X3887Y4891D01*
X3867D01*
X3857Y4881D01*
X2775Y4831D02*
Y4891D01*
X2805D01*
X2815Y4881D01*
Y4861D01*
X2805Y4851D01*
X2775D01*
X2795D02*
X2815Y4831D01*
X2875Y4891D02*
X2835D01*
Y4831D01*
X2875D01*
X2835Y4861D02*
X2855D01*
X2895Y4891D02*
Y4831D01*
X2925D01*
X2935Y4841D01*
Y4881D01*
X2925Y4891D01*
X2895D01*
X2955Y4821D02*
X2995D01*
X3015Y4891D02*
Y4831D01*
X3055D01*
X3115Y4891D02*
X3075D01*
Y4831D01*
X3115D01*
X3075Y4861D02*
X3095D01*
X3135Y4891D02*
Y4831D01*
X3165D01*
X3175Y4841D01*
Y4881D01*
X3165Y4891D01*
X3135D01*
X3195Y4831D02*
X3215D01*
X3205D01*
Y4891D01*
X3195Y4881D01*
X2156Y4425D02*
Y4485D01*
X2186D01*
X2196Y4475D01*
Y4455D01*
X2186Y4445D01*
X2156D01*
X2176D02*
X2196Y4425D01*
X2256D02*
X2216D01*
X2256Y4465D01*
Y4475D01*
X2246Y4485D01*
X2226D01*
X2216Y4475D01*
X2306Y4425D02*
Y4485D01*
X2276Y4455D01*
X2316D01*
X3506Y4425D02*
Y4485D01*
X3536D01*
X3546Y4475D01*
Y4455D01*
X3536Y4445D01*
X3506D01*
X3526D02*
X3546Y4425D01*
X3606D02*
X3566D01*
X3606Y4465D01*
Y4475D01*
X3596Y4485D01*
X3576D01*
X3566Y4475D01*
X3626D02*
X3636Y4485D01*
X3656D01*
X3666Y4475D01*
Y4465D01*
X3656Y4455D01*
X3646D01*
X3656D01*
X3666Y4445D01*
Y4435D01*
X3656Y4425D01*
X3636D01*
X3626Y4435D01*
X2838Y4425D02*
Y4485D01*
X2867D01*
X2877Y4475D01*
Y4455D01*
X2867Y4445D01*
X2838D01*
X2857D02*
X2877Y4425D01*
X2937D02*
X2897D01*
X2937Y4465D01*
Y4475D01*
X2927Y4485D01*
X2907D01*
X2897Y4475D01*
X2997Y4425D02*
X2957D01*
X2997Y4465D01*
Y4475D01*
X2987Y4485D01*
X2967D01*
X2957Y4475D01*
X5812Y1088D02*
X5753D01*
Y1117D01*
X5763Y1127D01*
X5783D01*
X5793Y1117D01*
Y1088D01*
Y1107D02*
X5812Y1127D01*
Y1187D02*
Y1147D01*
X5773Y1187D01*
X5763D01*
X5753Y1177D01*
Y1157D01*
X5763Y1147D01*
X5812Y1207D02*
Y1227D01*
Y1217D01*
X5753D01*
X5763Y1207D01*
X5175Y1156D02*
Y1216D01*
X5205D01*
X5215Y1206D01*
Y1186D01*
X5205Y1176D01*
X5175D01*
X5195D02*
X5215Y1156D01*
X5275D02*
X5235D01*
X5275Y1196D01*
Y1206D01*
X5265Y1216D01*
X5245D01*
X5235Y1206D01*
X5295D02*
X5305Y1216D01*
X5325D01*
X5335Y1206D01*
Y1166D01*
X5325Y1156D01*
X5305D01*
X5295Y1166D01*
Y1206D01*
X5538Y2069D02*
X5478D01*
Y2099D01*
X5488Y2109D01*
X5508D01*
X5518Y2099D01*
Y2069D01*
Y2089D02*
X5538Y2109D01*
Y2129D02*
Y2149D01*
Y2139D01*
X5478D01*
X5488Y2129D01*
X5478Y2179D02*
Y2219D01*
X5488D01*
X5528Y2179D01*
X5538D01*
X4394Y2100D02*
X4334D01*
Y2130D01*
X4344Y2140D01*
X4364D01*
X4374Y2130D01*
Y2100D01*
Y2120D02*
X4394Y2140D01*
Y2160D02*
Y2180D01*
Y2170D01*
X4334D01*
X4344Y2160D01*
X4334Y2250D02*
X4344Y2230D01*
X4364Y2210D01*
X4384D01*
X4394Y2220D01*
Y2240D01*
X4384Y2250D01*
X4374D01*
X4364Y2240D01*
Y2210D01*
X5700Y2162D02*
X5640D01*
Y2192D01*
X5650Y2202D01*
X5670D01*
X5680Y2192D01*
Y2162D01*
Y2182D02*
X5700Y2202D01*
Y2222D02*
Y2242D01*
Y2232D01*
X5640D01*
X5650Y2222D01*
X5640Y2312D02*
Y2272D01*
X5670D01*
X5660Y2292D01*
Y2302D01*
X5670Y2312D01*
X5690D01*
X5700Y2302D01*
Y2282D01*
X5690Y2272D01*
X3975Y2094D02*
X3915D01*
Y2124D01*
X3925Y2134D01*
X3945D01*
X3955Y2124D01*
Y2094D01*
Y2114D02*
X3975Y2134D01*
Y2154D02*
Y2174D01*
Y2164D01*
X3915D01*
X3925Y2154D01*
X3975Y2234D02*
X3915D01*
X3945Y2204D01*
Y2244D01*
X869Y3238D02*
Y3297D01*
X899D01*
X909Y3287D01*
Y3267D01*
X899Y3257D01*
X869D01*
X889D02*
X909Y3238D01*
X929D02*
X949D01*
X939D01*
Y3297D01*
X929Y3287D01*
X979D02*
X989Y3297D01*
X1009D01*
X1019Y3287D01*
Y3277D01*
X1009Y3267D01*
X999D01*
X1009D01*
X1019Y3257D01*
Y3247D01*
X1009Y3238D01*
X989D01*
X979Y3247D01*
X4231Y4231D02*
Y4291D01*
X4261D01*
X4271Y4281D01*
Y4261D01*
X4261Y4251D01*
X4231D01*
X4251D02*
X4271Y4231D01*
X4291D02*
X4311D01*
X4301D01*
Y4291D01*
X4291Y4281D01*
X4341Y4231D02*
X4361D01*
X4351D01*
Y4291D01*
X4341Y4281D01*
X1088Y4325D02*
Y4385D01*
X1117D01*
X1127Y4375D01*
Y4355D01*
X1117Y4345D01*
X1088D01*
X1107D02*
X1127Y4325D01*
X1147Y4375D02*
X1157Y4385D01*
X1177D01*
X1187Y4375D01*
Y4365D01*
X1177Y4355D01*
X1187Y4345D01*
Y4335D01*
X1177Y4325D01*
X1157D01*
X1147Y4335D01*
Y4345D01*
X1157Y4355D01*
X1147Y4365D01*
Y4375D01*
X1157Y4355D02*
X1177D01*
X1238Y1619D02*
Y1679D01*
X1267D01*
X1277Y1669D01*
Y1649D01*
X1267Y1639D01*
X1238D01*
X1257D02*
X1277Y1619D01*
X1337Y1679D02*
X1317Y1669D01*
X1297Y1649D01*
Y1629D01*
X1307Y1619D01*
X1327D01*
X1337Y1629D01*
Y1639D01*
X1327Y1649D01*
X1297D01*
X2512Y2344D02*
Y2404D01*
X2542D01*
X2552Y2394D01*
Y2374D01*
X2542Y2364D01*
X2512D01*
X2532D02*
X2552Y2344D01*
X2612Y2404D02*
X2572D01*
Y2374D01*
X2592Y2384D01*
X2602D01*
X2612Y2374D01*
Y2354D01*
X2602Y2344D01*
X2582D01*
X2572Y2354D01*
X1206Y2306D02*
Y2366D01*
X1236D01*
X1246Y2356D01*
Y2336D01*
X1236Y2326D01*
X1206D01*
X1226D02*
X1246Y2306D01*
X1296D02*
Y2366D01*
X1266Y2336D01*
X1306D01*
X1094Y4112D02*
Y4172D01*
X1124D01*
X1134Y4162D01*
Y4142D01*
X1124Y4132D01*
X1094D01*
X1114D02*
X1134Y4112D01*
X1154Y4162D02*
X1164Y4172D01*
X1184D01*
X1194Y4162D01*
Y4152D01*
X1184Y4142D01*
X1174D01*
X1184D01*
X1194Y4132D01*
Y4122D01*
X1184Y4112D01*
X1164D01*
X1154Y4122D01*
X2188Y1050D02*
Y1110D01*
X2217D01*
X2227Y1100D01*
Y1080D01*
X2217Y1070D01*
X2188D01*
X2207D02*
X2227Y1050D01*
X2287D02*
X2247D01*
X2287Y1090D01*
Y1100D01*
X2277Y1110D01*
X2257D01*
X2247Y1100D01*
X1431Y1612D02*
Y1672D01*
X1461D01*
X1471Y1662D01*
Y1642D01*
X1461Y1632D01*
X1431D01*
X1451D02*
X1471Y1612D01*
X1491D02*
X1511D01*
X1501D01*
Y1672D01*
X1491Y1662D01*
X400Y1781D02*
X433D01*
X417D01*
Y1681D01*
X400D01*
X433D01*
X483D02*
Y1781D01*
X533D01*
X550Y1765D01*
Y1731D01*
X533Y1715D01*
X483D01*
X583Y1781D02*
Y1681D01*
X633D01*
X650Y1698D01*
Y1765D01*
X633Y1781D01*
X583D01*
X683Y1698D02*
X700Y1681D01*
X733D01*
X750Y1698D01*
Y1765D01*
X733Y1781D01*
X700D01*
X683Y1765D01*
Y1748D01*
X700Y1731D01*
X750D01*
X783Y1765D02*
X800Y1781D01*
X833D01*
X850Y1765D01*
Y1698D01*
X833Y1681D01*
X800D01*
X783Y1698D01*
Y1765D01*
X883Y1681D02*
Y1781D01*
X933D01*
X950Y1765D01*
Y1731D01*
X933Y1715D01*
X883D01*
X983Y1765D02*
X1000Y1781D01*
X1033D01*
X1050Y1765D01*
Y1698D01*
X1033Y1681D01*
X1000D01*
X983Y1698D01*
Y1765D01*
X1083D02*
X1100Y1781D01*
X1133D01*
X1150Y1765D01*
Y1748D01*
X1133Y1731D01*
X1116D01*
X1133D01*
X1150Y1715D01*
Y1698D01*
X1133Y1681D01*
X1100D01*
X1083Y1698D01*
X1183Y1681D02*
Y1781D01*
X1233D01*
X1250Y1765D01*
Y1731D01*
X1233Y1715D01*
X1183D01*
X1333Y1681D02*
Y1781D01*
X1283Y1731D01*
X1350D01*
X1383Y1781D02*
Y1681D01*
X1450D01*
X1483Y1731D02*
X1550D01*
X1583Y1765D02*
X1600Y1781D01*
X1633D01*
X1650Y1765D01*
Y1698D01*
X1633Y1681D01*
X1600D01*
X1583Y1698D01*
Y1765D01*
X1733Y1681D02*
Y1781D01*
X1683Y1731D01*
X1750D01*
X2077Y4875D02*
X2067Y4885D01*
X2047D01*
X2038Y4875D01*
Y4835D01*
X2047Y4825D01*
X2067D01*
X2077Y4835D01*
Y4855D01*
X2057D01*
X2097Y4825D02*
Y4885D01*
X2127D01*
X2137Y4875D01*
Y4855D01*
X2127Y4845D01*
X2097D01*
X2117D02*
X2137Y4825D01*
X2197Y4885D02*
X2157D01*
Y4825D01*
X2197D01*
X2157Y4855D02*
X2177D01*
X2257Y4885D02*
X2217D01*
Y4825D01*
X2257D01*
X2217Y4855D02*
X2237D01*
X2277Y4825D02*
Y4885D01*
X2317Y4825D01*
Y4885D01*
X2337Y4815D02*
X2377D01*
X2397Y4885D02*
Y4825D01*
X2437D01*
X2497Y4885D02*
X2457D01*
Y4825D01*
X2497D01*
X2457Y4855D02*
X2477D01*
X2517Y4885D02*
Y4825D01*
X2547D01*
X2557Y4835D01*
Y4875D01*
X2547Y4885D01*
X2517D01*
X5794Y3834D02*
X5784Y3824D01*
Y3804D01*
X5794Y3794D01*
X5834D01*
X5844Y3804D01*
Y3824D01*
X5834Y3834D01*
X5844Y3894D02*
Y3854D01*
X5804Y3894D01*
X5794D01*
X5784Y3884D01*
Y3864D01*
X5794Y3854D01*
X5784Y3954D02*
Y3914D01*
X5814D01*
X5804Y3934D01*
Y3944D01*
X5814Y3954D01*
X5834D01*
X5844Y3944D01*
Y3924D01*
X5834Y3914D01*
X5100Y3827D02*
X5090Y3817D01*
Y3797D01*
X5100Y3788D01*
X5140D01*
X5150Y3797D01*
Y3817D01*
X5140Y3827D01*
X5150Y3887D02*
Y3847D01*
X5110Y3887D01*
X5100D01*
X5090Y3877D01*
Y3857D01*
X5100Y3847D01*
X5150Y3937D02*
X5090D01*
X5120Y3907D01*
Y3947D01*
X4259Y4044D02*
X4249Y4054D01*
X4229D01*
X4219Y4044D01*
Y4004D01*
X4229Y3994D01*
X4249D01*
X4259Y4004D01*
X4279Y3994D02*
X4299D01*
X4289D01*
Y4054D01*
X4279Y4044D01*
X4369Y4054D02*
X4349Y4044D01*
X4329Y4024D01*
Y4004D01*
X4339Y3994D01*
X4359D01*
X4369Y4004D01*
Y4014D01*
X4359Y4024D01*
X4329D01*
X990Y1719D02*
X980Y1729D01*
X960D01*
X950Y1719D01*
Y1679D01*
X960Y1669D01*
X980D01*
X990Y1679D01*
X1010Y1669D02*
X1030D01*
X1020D01*
Y1729D01*
X1010Y1719D01*
X1100Y1669D02*
X1060D01*
X1100Y1709D01*
Y1719D01*
X1090Y1729D01*
X1070D01*
X1060Y1719D01*
X3121Y937D02*
X3111Y947D01*
X3091D01*
X3081Y937D01*
Y897D01*
X3091Y888D01*
X3111D01*
X3121Y897D01*
X3181Y947D02*
X3141D01*
Y917D01*
X3161Y927D01*
X3171D01*
X3181Y917D01*
Y897D01*
X3171Y888D01*
X3151D01*
X3141Y897D01*
X1602Y1337D02*
X1592Y1347D01*
X1572D01*
X1562Y1337D01*
Y1297D01*
X1572Y1288D01*
X1592D01*
X1602Y1297D01*
X1652Y1288D02*
Y1347D01*
X1622Y1317D01*
X1662D01*
X1296Y4787D02*
X1286Y4797D01*
X1266D01*
X1256Y4787D01*
Y4747D01*
X1266Y4738D01*
X1286D01*
X1296Y4747D01*
X1356Y4738D02*
X1316D01*
X1356Y4777D01*
Y4787D01*
X1346Y4797D01*
X1326D01*
X1316Y4787D01*
X1416Y4797D02*
X1396Y4787D01*
X1376Y4767D01*
Y4747D01*
X1386Y4738D01*
X1406D01*
X1416Y4747D01*
Y4757D01*
X1406Y4767D01*
X1376D01*
X81Y3584D02*
X71Y3574D01*
Y3554D01*
X81Y3544D01*
X121D01*
X131Y3554D01*
Y3574D01*
X121Y3584D01*
X131Y3644D02*
Y3604D01*
X91Y3644D01*
X81D01*
X71Y3634D01*
Y3614D01*
X81Y3604D01*
X71Y3664D02*
Y3704D01*
X81D01*
X121Y3664D01*
X131D01*
D70*
X3880Y1200D02*
G03*
X3880Y1200I-30J0D01*
G01*
D71*
X665Y3578D02*
X835D01*
X665Y3558D02*
X835D01*
Y3342D02*
Y3633D01*
X665Y3343D02*
Y3633D01*
Y3567D02*
X835D01*
X665Y3633D02*
Y3662D01*
X680Y3633D01*
X650D02*
X665Y3662D01*
X650Y3633D02*
X680D01*
X650Y3662D02*
X680D01*
X850Y2075D02*
Y2675D01*
X150Y2075D02*
Y2675D01*
X780D02*
Y2795D01*
X680Y2675D02*
X780D01*
X680D02*
Y2795D01*
X450Y2755D02*
X550D01*
X450Y2675D02*
Y2755D01*
Y2675D02*
X550D01*
Y2755D01*
X220Y2675D02*
Y2795D01*
Y2675D02*
X320D01*
Y2795D01*
X150Y2675D02*
X850D01*
X150Y2075D02*
X200D01*
X800D02*
X850D01*
D72*
X4308Y2925D02*
X4422D01*
X3254Y2836D02*
Y3014D01*
X3178Y2925D02*
X3343D01*
X6707D02*
X6872D01*
X6796Y2836D02*
Y3014D01*
X5628Y2925D02*
X5742D01*
X1869Y4188D02*
Y4962D01*
Y4188D02*
X1869Y4188D01*
X3950D01*
Y4969D01*
X1869D02*
X3950D01*
X2562Y4269D02*
Y4712D01*
X3225Y4269D02*
Y4712D01*
D73*
X6167Y1492D02*
X6150Y1475D01*
Y1442D01*
X6167Y1425D01*
X6183D01*
X6200Y1442D01*
Y1475D01*
X6217Y1492D01*
X6233D01*
X6250Y1475D01*
Y1442D01*
X6233Y1425D01*
X6250Y1525D02*
Y1558D01*
Y1542D01*
X6150D01*
X6167Y1525D01*
X438Y4825D02*
Y4925D01*
X487D01*
X504Y4908D01*
Y4875D01*
X487Y4858D01*
X438D01*
X471D02*
X504Y4825D01*
X587D02*
X554D01*
X537Y4842D01*
Y4875D01*
X554Y4892D01*
X587D01*
X604Y4875D01*
Y4858D01*
X537D01*
X671Y4792D02*
X687D01*
X704Y4808D01*
Y4892D01*
X654D01*
X637Y4875D01*
Y4842D01*
X654Y4825D01*
X704D01*
X737Y4892D02*
Y4842D01*
X754Y4825D01*
X804D01*
Y4892D01*
X837Y4825D02*
X871D01*
X854D01*
Y4925D01*
X837D01*
X937Y4892D02*
X971D01*
X987Y4875D01*
Y4825D01*
X937D01*
X921Y4842D01*
X937Y4858D01*
X987D01*
X1087Y4925D02*
Y4825D01*
X1037D01*
X1021Y4842D01*
Y4875D01*
X1037Y4892D01*
X1087D01*
X1137Y4825D02*
X1171D01*
X1187Y4842D01*
Y4875D01*
X1171Y4892D01*
X1137D01*
X1121Y4875D01*
Y4842D01*
X1137Y4825D01*
X1221Y4892D02*
Y4825D01*
Y4858D01*
X1237Y4875D01*
X1254Y4892D01*
X1271D01*
X4862Y4775D02*
Y4875D01*
X4912D01*
X4929Y4858D01*
Y4825D01*
X4912Y4808D01*
X4862D01*
X4962Y4775D02*
Y4875D01*
X5012D01*
X5029Y4858D01*
Y4825D01*
X5012Y4808D01*
X4962D01*
X4996D02*
X5029Y4775D01*
X5129Y4858D02*
X5112Y4875D01*
X5079D01*
X5062Y4858D01*
Y4792D01*
X5079Y4775D01*
X5112D01*
X5129Y4792D01*
Y4825D01*
X5096D01*
X144Y319D02*
X44D01*
Y369D01*
X60Y385D01*
X94D01*
X110Y369D01*
Y319D01*
X144Y419D02*
Y452D01*
Y435D01*
X44D01*
X60Y419D01*
X3767Y3708D02*
X3750Y3725D01*
X3717D01*
X3700Y3708D01*
Y3642D01*
X3717Y3625D01*
X3750D01*
X3767Y3642D01*
X3800Y3708D02*
X3817Y3725D01*
X3850D01*
X3867Y3708D01*
Y3692D01*
X3850Y3675D01*
X3833D01*
X3850D01*
X3867Y3658D01*
Y3642D01*
X3850Y3625D01*
X3817D01*
X3800Y3642D01*
X6329Y4833D02*
X6312Y4850D01*
X6279D01*
X6262Y4833D01*
Y4817D01*
X6279Y4800D01*
X6312D01*
X6329Y4783D01*
Y4767D01*
X6312Y4750D01*
X6279D01*
X6262Y4767D01*
X6362Y4750D02*
Y4817D01*
X6396Y4850D01*
X6429Y4817D01*
Y4750D01*
Y4800D01*
X6362D01*
X6367Y4033D02*
X6350Y4050D01*
X6317D01*
X6300Y4033D01*
Y4017D01*
X6317Y4000D01*
X6350D01*
X6367Y3983D01*
Y3967D01*
X6350Y3950D01*
X6317D01*
X6300Y3967D01*
X6400Y4050D02*
Y3950D01*
X6450D01*
X6467Y3967D01*
Y3983D01*
X6450Y4000D01*
X6400D01*
X6450D01*
X6467Y4017D01*
Y4033D01*
X6450Y4050D01*
X6400D01*
X6160Y3696D02*
X6144Y3712D01*
X6110D01*
X6094Y3696D01*
Y3629D01*
X6110Y3612D01*
X6144D01*
X6160Y3629D01*
X6194Y3612D02*
X6227D01*
X6210D01*
Y3712D01*
X6194Y3696D01*
X6344Y3712D02*
X6277D01*
Y3662D01*
X6310Y3679D01*
X6327D01*
X6344Y3662D01*
Y3629D01*
X6327Y3612D01*
X6294D01*
X6277Y3629D01*
%TF.MD5,cea7360d8b9b1dc21d28e007220df83a*%
M02*
