G04 Layer_Physical_Order=1*
G04 Layer_Color=255*
%FSLAX42Y42*%
%MOMM*%
%TF.FileFunction,Copper,L1,Top,Signal*%
%TF.Part,Single*%
G01*
G75*
%TA.AperFunction,SMDPad,CuDef*%
G04:AMPARAMS|DCode=10|XSize=1.6mm|YSize=2.19mm|CornerRadius=0.4mm|HoleSize=0mm|Usage=FLASHONLY|Rotation=0.000|XOffset=0mm|YOffset=0mm|HoleType=Round|Shape=RoundedRectangle|*
%AMROUNDEDRECTD10*
21,1,1.60,1.39,0,0,0.0*
21,1,0.80,2.19,0,0,0.0*
1,1,0.80,0.40,-0.69*
1,1,0.80,-0.40,-0.69*
1,1,0.80,-0.40,0.69*
1,1,0.80,0.40,0.69*
%
%ADD10ROUNDEDRECTD10*%
%ADD11R,1.70X1.10*%
%ADD12O,2.10X0.45*%
%ADD13R,0.70X0.90*%
%ADD14R,0.90X0.70*%
%ADD15R,0.65X0.80*%
%ADD16R,1.10X1.70*%
G04:AMPARAMS|DCode=17|XSize=0.8mm|YSize=1mm|CornerRadius=0.1mm|HoleSize=0mm|Usage=FLASHONLY|Rotation=180.000|XOffset=0mm|YOffset=0mm|HoleType=Round|Shape=RoundedRectangle|*
%AMROUNDEDRECTD17*
21,1,0.80,0.80,0,0,180.0*
21,1,0.60,1.00,0,0,180.0*
1,1,0.20,-0.30,0.40*
1,1,0.20,0.30,0.40*
1,1,0.20,0.30,-0.40*
1,1,0.20,-0.30,-0.40*
%
%ADD17ROUNDEDRECTD17*%
G04:AMPARAMS|DCode=18|XSize=3.5mm|YSize=1.75mm|CornerRadius=0.22mm|HoleSize=0mm|Usage=FLASHONLY|Rotation=90.000|XOffset=0mm|YOffset=0mm|HoleType=Round|Shape=RoundedRectangle|*
%AMROUNDEDRECTD18*
21,1,3.50,1.31,0,0,90.0*
21,1,3.06,1.75,0,0,90.0*
1,1,0.44,0.66,1.53*
1,1,0.44,0.66,-1.53*
1,1,0.44,-0.66,-1.53*
1,1,0.44,-0.66,1.53*
%
%ADD18ROUNDEDRECTD18*%
G04:AMPARAMS|DCode=19|XSize=1.1mm|YSize=1.75mm|CornerRadius=0.14mm|HoleSize=0mm|Usage=FLASHONLY|Rotation=90.000|XOffset=0mm|YOffset=0mm|HoleType=Round|Shape=RoundedRectangle|*
%AMROUNDEDRECTD19*
21,1,1.10,1.48,0,0,90.0*
21,1,0.82,1.75,0,0,90.0*
1,1,0.28,0.74,0.41*
1,1,0.28,0.74,-0.41*
1,1,0.28,-0.74,-0.41*
1,1,0.28,-0.74,0.41*
%
%ADD19ROUNDEDRECTD19*%
G04:AMPARAMS|DCode=20|XSize=1.1mm|YSize=1.75mm|CornerRadius=0.14mm|HoleSize=0mm|Usage=FLASHONLY|Rotation=90.000|XOffset=0mm|YOffset=0mm|HoleType=Round|Shape=RoundedRectangle|*
%AMROUNDEDRECTD20*
21,1,1.10,1.48,0,0,90.0*
21,1,0.82,1.75,0,0,90.0*
1,1,0.28,0.74,0.41*
1,1,0.28,0.74,-0.41*
1,1,0.28,-0.74,-0.41*
1,1,0.28,-0.74,0.41*
%
%ADD20ROUNDEDRECTD20*%
G04:AMPARAMS|DCode=21|XSize=5.5mm|YSize=5.7mm|CornerRadius=0.69mm|HoleSize=0mm|Usage=FLASHONLY|Rotation=180.000|XOffset=0mm|YOffset=0mm|HoleType=Round|Shape=RoundedRectangle|*
%AMROUNDEDRECTD21*
21,1,5.50,4.33,0,0,180.0*
21,1,4.13,5.70,0,0,180.0*
1,1,1.38,-2.06,2.16*
1,1,1.38,2.06,2.16*
1,1,1.38,2.06,-2.16*
1,1,1.38,-2.06,-2.16*
%
%ADD21ROUNDEDRECTD21*%
G04:AMPARAMS|DCode=22|XSize=1mm|YSize=1.6mm|CornerRadius=0.13mm|HoleSize=0mm|Usage=FLASHONLY|Rotation=180.000|XOffset=0mm|YOffset=0mm|HoleType=Round|Shape=RoundedRectangle|*
%AMROUNDEDRECTD22*
21,1,1.00,1.35,0,0,180.0*
21,1,0.75,1.60,0,0,180.0*
1,1,0.25,-0.38,0.68*
1,1,0.25,0.38,0.68*
1,1,0.25,0.38,-0.68*
1,1,0.25,-0.38,-0.68*
%
%ADD22ROUNDEDRECTD22*%
%TA.AperFunction,Conductor*%
%ADD23C,0.45*%
%ADD24C,0.60*%
%ADD25C,0.80*%
%ADD26C,3.50*%
%ADD27C,3.25*%
%TA.AperFunction,ComponentPad*%
%ADD28R,1.50X1.50*%
%ADD29C,1.50*%
%ADD30R,5.50X5.50*%
%ADD31C,5.50*%
%ADD32R,5.50X5.50*%
%ADD33C,1.35*%
%ADD34R,1.35X1.35*%
%TA.AperFunction,ViaPad*%
%ADD35C,1.27*%
%ADD36C,0.50*%
%ADD37C,2.00*%
G36*
X3281Y1516D02*
X3279Y1507D01*
X3282Y1491D01*
X3292Y1477D01*
Y1473D01*
X3282Y1459D01*
X3279Y1443D01*
X3281Y1434D01*
X3272Y1421D01*
X3196D01*
X3180Y1418D01*
X3166Y1408D01*
X3063Y1306D01*
X3054Y1292D01*
X3050Y1275D01*
Y1169D01*
X3054Y1152D01*
X3063Y1138D01*
X3407Y795D01*
Y287D01*
X3245Y125D01*
X2005D01*
X1875Y255D01*
Y329D01*
X1887Y333D01*
X1888Y332D01*
X2001Y219D01*
X2015Y210D01*
X2031Y207D01*
X2219D01*
X2224Y203D01*
X2244Y199D01*
X2456D01*
X2476Y203D01*
X2492Y214D01*
X2574Y295D01*
X2585Y312D01*
X2588Y331D01*
Y473D01*
X2585Y492D01*
X2574Y509D01*
X2446Y637D01*
X2429Y648D01*
X2428Y648D01*
X2204Y873D01*
X2209Y885D01*
X2225D01*
Y944D01*
X2177D01*
Y918D01*
X2164Y912D01*
X2130Y947D01*
Y1420D01*
X2135Y1424D01*
X2142Y1421D01*
X2147Y1417D01*
X2150Y1397D01*
X2158Y1377D01*
X2172Y1359D01*
X2189Y1346D01*
X2209Y1337D01*
X2231Y1335D01*
X2253Y1337D01*
X2273Y1346D01*
X2291Y1359D01*
X2297Y1368D01*
X2424D01*
X2431Y1355D01*
X2428Y1351D01*
X2424Y1331D01*
Y1081D01*
X2428Y1062D01*
X2439Y1045D01*
X2470Y1014D01*
X2473Y1012D01*
X2469Y1000D01*
X2443D01*
Y1001D01*
X2441Y1009D01*
X2437Y1016D01*
X2430Y1020D01*
X2423Y1022D01*
X2352D01*
X2345Y1020D01*
X2338Y1016D01*
X2334Y1009D01*
X2332Y1001D01*
Y911D01*
X2334Y903D01*
X2338Y897D01*
X2345Y892D01*
X2352Y891D01*
X2423D01*
X2430Y892D01*
X2437Y897D01*
X2441Y903D01*
X2443Y911D01*
Y913D01*
X2662D01*
Y871D01*
X2664Y863D01*
X2668Y857D01*
X2675Y852D01*
X2683Y851D01*
X2792D01*
X2800Y852D01*
X2807Y857D01*
X2811Y863D01*
X2813Y871D01*
Y1041D01*
X2811Y1049D01*
X2807Y1056D01*
X2800Y1060D01*
X2792Y1062D01*
X2683D01*
X2675Y1060D01*
X2668Y1056D01*
X2664Y1049D01*
X2662Y1041D01*
Y1000D01*
X2618D01*
X2555Y1063D01*
X2553Y1070D01*
X2542Y1086D01*
X2526Y1102D01*
Y1310D01*
X2540Y1324D01*
X3021D01*
X3041Y1328D01*
X3057Y1339D01*
X3240Y1522D01*
X3241D01*
X3261Y1525D01*
X3266Y1529D01*
X3272D01*
X3281Y1516D01*
D02*
G37*
G36*
X3281Y1321D02*
X3279Y1312D01*
X3282Y1296D01*
X3292Y1282D01*
Y1278D01*
X3282Y1264D01*
X3279Y1248D01*
X3282Y1231D01*
X3291Y1219D01*
X3288Y1217D01*
X3277Y1201D01*
X3276Y1195D01*
X3405D01*
Y1182D01*
X3418D01*
Y1134D01*
X3488D01*
X3506Y1137D01*
X3522Y1148D01*
X3527Y1156D01*
X3543Y1157D01*
X3544Y1157D01*
X3558Y1147D01*
X3574Y1144D01*
X3682D01*
X3769Y1057D01*
Y578D01*
X3753Y566D01*
X3740Y548D01*
X3731Y528D01*
X3728Y506D01*
X3731Y484D01*
X3740Y464D01*
X3753Y447D01*
X3770Y433D01*
X3791Y425D01*
X3812Y422D01*
X3834Y425D01*
X3855Y433D01*
X3872Y447D01*
X3885Y464D01*
X3894Y484D01*
X3897Y506D01*
X3894Y528D01*
X3885Y548D01*
X3872Y566D01*
X3856Y578D01*
Y624D01*
X3869Y625D01*
X3872Y610D01*
X3883Y593D01*
X3968Y508D01*
Y423D01*
X3946Y401D01*
X3693D01*
X3691Y403D01*
X3673Y417D01*
X3653Y425D01*
X3631Y428D01*
X3609Y425D01*
X3589Y417D01*
X3572Y403D01*
X3558Y386D01*
X3550Y366D01*
X3547Y344D01*
X3550Y322D01*
X3558Y302D01*
X3572Y284D01*
X3589Y271D01*
X3609Y262D01*
X3631Y260D01*
X3653Y262D01*
X3673Y271D01*
X3691Y284D01*
X3702Y299D01*
X3967D01*
X3986Y303D01*
X4003Y314D01*
X4049Y360D01*
X4061Y355D01*
Y220D01*
X4065Y204D01*
X4074Y190D01*
X4205Y58D01*
X4219Y49D01*
X4234Y46D01*
X4233Y33D01*
X3565D01*
X3561Y46D01*
X3568Y51D01*
X3637Y119D01*
X3716D01*
X3728Y103D01*
X3745Y90D01*
X3766Y81D01*
X3788Y78D01*
X3809Y81D01*
X3830Y90D01*
X3847Y103D01*
X3860Y120D01*
X3869Y141D01*
X3872Y162D01*
X3869Y184D01*
X3860Y205D01*
X3847Y222D01*
X3830Y235D01*
X3809Y244D01*
X3788Y247D01*
X3766Y244D01*
X3745Y235D01*
X3728Y222D01*
X3716Y206D01*
X3619D01*
X3602Y203D01*
X3588Y193D01*
X3520Y125D01*
X3384D01*
X3379Y136D01*
X3481Y238D01*
X3490Y252D01*
X3493Y269D01*
Y812D01*
X3490Y829D01*
X3481Y843D01*
X3137Y1187D01*
Y1257D01*
X3214Y1334D01*
X3272D01*
X3281Y1321D01*
D02*
G37*
G36*
X3066Y1777D02*
X3050Y1761D01*
X3043Y1760D01*
X3026Y1749D01*
X3015Y1732D01*
X3014Y1725D01*
X3062D01*
Y1712D01*
X3075D01*
Y1664D01*
X3082Y1665D01*
X3099Y1676D01*
X3110Y1693D01*
X3111Y1700D01*
X3135Y1724D01*
X3190D01*
X3195Y1712D01*
X3138Y1655D01*
X3138Y1655D01*
X3019Y1537D01*
X2529D01*
X2527Y1540D01*
X2534Y1553D01*
X2646D01*
X2663Y1556D01*
X2677Y1565D01*
X2900Y1789D01*
X3061D01*
X3066Y1777D01*
D02*
G37*
G36*
X6967Y33D02*
X5042D01*
X5041Y46D01*
X5056Y49D01*
X5070Y58D01*
X5234Y223D01*
X5376Y82D01*
X5390Y72D01*
X5406Y69D01*
X6356D01*
X6373Y72D01*
X6387Y82D01*
X6655Y350D01*
X6675Y347D01*
X6697Y350D01*
X6717Y358D01*
X6735Y372D01*
X6748Y389D01*
X6756Y409D01*
X6759Y431D01*
X6756Y453D01*
X6748Y473D01*
X6735Y491D01*
X6717Y504D01*
X6697Y513D01*
X6675Y515D01*
X6653Y513D01*
X6633Y504D01*
X6615Y491D01*
X6602Y473D01*
X6594Y453D01*
X6591Y431D01*
X6593Y411D01*
X6338Y156D01*
X5424D01*
X5287Y293D01*
X5287Y293D01*
X5275Y305D01*
Y375D01*
X5277Y388D01*
X5274Y405D01*
X5264Y420D01*
X5249Y430D01*
X5231Y433D01*
X5214Y430D01*
X5199Y420D01*
X5189Y405D01*
X5185Y388D01*
X5188Y375D01*
Y299D01*
X5021Y132D01*
X4254D01*
X4148Y238D01*
Y651D01*
X4145Y668D01*
X4143Y671D01*
X4142Y674D01*
X4132Y689D01*
X4118Y699D01*
X4100Y702D01*
X4082Y699D01*
X4068Y689D01*
X4058Y674D01*
X4054Y656D01*
X4058Y639D01*
X4061Y633D01*
Y577D01*
X4049Y571D01*
X3970Y650D01*
Y1147D01*
X3979Y1151D01*
X3982Y1151D01*
X3996Y1142D01*
X4012Y1139D01*
X4250D01*
X4344Y1044D01*
X4358Y1035D01*
X4375Y1032D01*
X5120D01*
Y1030D01*
X5121Y1022D01*
X5124Y1018D01*
Y919D01*
X5128Y899D01*
X5139Y883D01*
X5474Y548D01*
Y504D01*
X5465Y497D01*
X5452Y480D01*
X5444Y459D01*
X5441Y438D01*
X5444Y416D01*
X5452Y395D01*
X5465Y378D01*
X5483Y365D01*
X5503Y356D01*
X5525Y353D01*
X5547Y356D01*
X5567Y365D01*
X5585Y378D01*
X5598Y395D01*
X5606Y416D01*
X5609Y438D01*
X5606Y459D01*
X5598Y480D01*
X5585Y497D01*
X5576Y504D01*
Y569D01*
X5572Y588D01*
X5561Y605D01*
X5226Y940D01*
Y1018D01*
X5229Y1022D01*
X5230Y1030D01*
Y1120D01*
X5229Y1128D01*
X5224Y1134D01*
X5218Y1139D01*
X5210Y1140D01*
X5140D01*
X5132Y1139D01*
X5126Y1134D01*
X5121Y1128D01*
X5120Y1120D01*
Y1118D01*
X4393D01*
X4298Y1213D01*
X4284Y1223D01*
X4267Y1226D01*
X4228D01*
X4219Y1239D01*
X4221Y1248D01*
X4218Y1264D01*
X4208Y1278D01*
Y1282D01*
X4218Y1296D01*
X4221Y1312D01*
X4219Y1321D01*
X4228Y1334D01*
X4280D01*
X4419Y1194D01*
X4433Y1185D01*
X4450Y1182D01*
X5312D01*
X5329Y1185D01*
X5343Y1194D01*
X5366Y1217D01*
X5388Y1194D01*
X5402Y1185D01*
X5419Y1182D01*
X5837D01*
X5841Y1176D01*
X5847Y1171D01*
X5855Y1170D01*
X5945D01*
X5953Y1171D01*
X5959Y1176D01*
X5964Y1182D01*
X5965Y1190D01*
Y1260D01*
X5964Y1268D01*
X5959Y1274D01*
X5953Y1279D01*
X5945Y1280D01*
X5855D01*
X5847Y1279D01*
X5841Y1274D01*
X5837Y1268D01*
X5437D01*
X5413Y1292D01*
X5414Y1307D01*
X5425Y1315D01*
X5439Y1333D01*
X5447Y1353D01*
X5450Y1375D01*
X5447Y1397D01*
X5439Y1417D01*
X5425Y1435D01*
X5408Y1448D01*
X5399Y1451D01*
X5402Y1464D01*
X5539D01*
X5555Y1467D01*
X5569Y1477D01*
X5693Y1601D01*
X5703Y1615D01*
X5706Y1631D01*
Y1832D01*
X5818Y1944D01*
X5828Y1958D01*
X5831Y1975D01*
Y2095D01*
X5833D01*
X5840Y2096D01*
X5847Y2101D01*
X5851Y2107D01*
X5853Y2115D01*
Y2185D01*
X5851Y2193D01*
X5847Y2199D01*
X5840Y2204D01*
X5833Y2205D01*
X5742D01*
X5735Y2204D01*
X5728Y2199D01*
X5724Y2193D01*
X5722Y2185D01*
Y2115D01*
X5724Y2107D01*
X5728Y2101D01*
X5735Y2096D01*
X5742Y2095D01*
X5744D01*
Y1993D01*
X5632Y1881D01*
X5622Y1867D01*
X5619Y1850D01*
Y1649D01*
X5521Y1551D01*
X5472D01*
X5468Y1563D01*
X5499Y1594D01*
X5509Y1608D01*
X5512Y1625D01*
Y1659D01*
X5528Y1672D01*
X5542Y1689D01*
X5550Y1709D01*
X5553Y1731D01*
X5550Y1753D01*
X5542Y1773D01*
X5528Y1791D01*
X5511Y1804D01*
X5493Y1812D01*
X5493Y1821D01*
X5493Y1824D01*
X5497Y1825D01*
X5517Y1833D01*
X5535Y1847D01*
X5548Y1864D01*
X5556Y1884D01*
X5559Y1906D01*
X5556Y1928D01*
X5548Y1948D01*
X5535Y1966D01*
X5517Y1979D01*
X5497Y1988D01*
X5475Y1990D01*
X5453Y1988D01*
X5433Y1979D01*
X5415Y1966D01*
X5403Y1950D01*
X5375D01*
X5358Y1946D01*
X5344Y1937D01*
X5301Y1893D01*
X5291Y1879D01*
X5288Y1862D01*
Y1705D01*
X5263Y1681D01*
X4427D01*
X4423Y1693D01*
X4468Y1738D01*
X4525D01*
X4538Y1735D01*
X4555Y1739D01*
X4570Y1749D01*
X4580Y1764D01*
X4583Y1781D01*
X4580Y1799D01*
X4570Y1814D01*
X4555Y1824D01*
X4538Y1827D01*
X4525Y1825D01*
X4450D01*
X4433Y1821D01*
X4419Y1812D01*
X4353Y1746D01*
X4336D01*
X4331Y1758D01*
X4359Y1785D01*
X4359Y1785D01*
X4368Y1799D01*
X4371Y1816D01*
X4368Y1832D01*
X4359Y1846D01*
X4249Y1956D01*
X4235Y1965D01*
X4219Y1968D01*
X4175D01*
X4162Y1971D01*
X4145Y1967D01*
X4130Y1957D01*
X4120Y1943D01*
X4117Y1925D01*
X4120Y1907D01*
X4130Y1893D01*
X4145Y1883D01*
X4162Y1879D01*
X4175Y1882D01*
X4201D01*
X4259Y1824D01*
X4254Y1811D01*
X4012D01*
X3996Y1808D01*
X3982Y1798D01*
X3975Y1788D01*
X3962Y1791D01*
Y1967D01*
X4027Y2032D01*
X4095D01*
X4103Y2034D01*
X4109Y2038D01*
X4114Y2045D01*
X4115Y2052D01*
Y2123D01*
X4114Y2130D01*
X4109Y2137D01*
X4103Y2141D01*
X4095Y2143D01*
X4005D01*
X3997Y2141D01*
X3991Y2137D01*
X3986Y2130D01*
X3985Y2123D01*
Y2112D01*
X3900Y2027D01*
X3886Y2032D01*
X3886Y2033D01*
X3876Y2047D01*
X3793Y2131D01*
X3779Y2140D01*
X3762Y2143D01*
X2621D01*
X2620Y2149D01*
X2616Y2156D01*
X2609Y2160D01*
X2601Y2162D01*
X2511D01*
X2503Y2160D01*
X2497Y2156D01*
X2492Y2149D01*
X2491Y2141D01*
Y2071D01*
X2492Y2063D01*
X2497Y2057D01*
X2503Y2052D01*
X2511Y2051D01*
X2601D01*
X2609Y2052D01*
X2615Y2057D01*
X3745D01*
X3802Y1999D01*
Y1436D01*
X3806Y1419D01*
X3815Y1405D01*
X3920Y1300D01*
X3921Y1297D01*
X3918Y1284D01*
X3905Y1276D01*
X3883Y1253D01*
X3872Y1237D01*
X3868Y1217D01*
Y1080D01*
X3855Y1079D01*
X3853Y1092D01*
X3843Y1106D01*
X3731Y1218D01*
X3717Y1228D01*
X3700Y1231D01*
X3592D01*
X3566Y1257D01*
X3571Y1269D01*
X3700D01*
X3712Y1267D01*
X3730Y1270D01*
X3745Y1280D01*
X3755Y1295D01*
X3758Y1312D01*
X3755Y1330D01*
X3745Y1345D01*
X3730Y1355D01*
X3712Y1358D01*
X3700Y1356D01*
X3538D01*
X3529Y1369D01*
X3531Y1377D01*
X3529Y1386D01*
X3538Y1399D01*
X3597D01*
X3602Y1398D01*
X3602Y1398D01*
X3602Y1398D01*
X3727D01*
X3740Y1396D01*
X3757Y1399D01*
X3772Y1409D01*
X3782Y1424D01*
X3786Y1442D01*
X3782Y1459D01*
X3772Y1474D01*
X3757Y1484D01*
X3740Y1487D01*
X3727Y1485D01*
X3631D01*
X3627Y1497D01*
X3762Y1632D01*
X3771Y1646D01*
X3775Y1662D01*
Y1750D01*
X3777Y1762D01*
X3774Y1780D01*
X3764Y1795D01*
X3749Y1805D01*
X3731Y1808D01*
X3714Y1805D01*
X3699Y1795D01*
X3689Y1780D01*
X3685Y1762D01*
X3688Y1750D01*
Y1680D01*
X3558Y1551D01*
X3538D01*
X3529Y1564D01*
X3531Y1573D01*
X3529Y1583D01*
X3528Y1589D01*
X3538Y1597D01*
X3542Y1597D01*
X3556Y1607D01*
X3583Y1634D01*
X3593Y1648D01*
X3596Y1665D01*
Y1794D01*
X3593Y1811D01*
X3583Y1825D01*
X3545Y1863D01*
X3531Y1873D01*
X3514Y1876D01*
X2883D01*
X2866Y1873D01*
X2852Y1863D01*
X2628Y1639D01*
X2397D01*
X2112Y1924D01*
Y1959D01*
X2125Y1964D01*
X2379Y1710D01*
X2386Y1699D01*
X2401Y1689D01*
X2419Y1685D01*
X2436Y1689D01*
X2451Y1699D01*
X2461Y1714D01*
X2465Y1731D01*
X2461Y1749D01*
X2451Y1764D01*
X2440Y1771D01*
X2187Y2024D01*
Y3956D01*
X2184Y3973D01*
X2174Y3987D01*
X1790Y4372D01*
X1782Y4382D01*
X1768Y4392D01*
X1750Y4396D01*
X1732Y4392D01*
X1718Y4382D01*
X1708Y4368D01*
X1704Y4350D01*
X1708Y4332D01*
X1718Y4318D01*
X1728Y4310D01*
X2100Y3938D01*
Y3704D01*
X2088Y3699D01*
X1612Y4174D01*
X1598Y4184D01*
X1581Y4187D01*
X1480D01*
Y4189D01*
X1479Y4197D01*
X1474Y4203D01*
X1468Y4208D01*
X1462Y4209D01*
Y4293D01*
X1468Y4297D01*
X1473Y4303D01*
X1474Y4311D01*
Y4401D01*
X1473Y4409D01*
X1468Y4416D01*
X1462Y4420D01*
X1454Y4422D01*
X1384D01*
X1376Y4420D01*
X1369Y4416D01*
X1365Y4409D01*
X1363Y4401D01*
Y4311D01*
X1365Y4303D01*
X1369Y4297D01*
X1375Y4293D01*
Y4203D01*
X1371Y4197D01*
X1370Y4189D01*
Y4099D01*
X1371Y4091D01*
X1376Y4084D01*
X1382Y4080D01*
X1390Y4078D01*
X1460D01*
X1468Y4080D01*
X1474Y4084D01*
X1479Y4091D01*
X1480Y4099D01*
Y4100D01*
X1563D01*
X2025Y3638D01*
Y1906D01*
X2029Y1890D01*
X2038Y1876D01*
X2328Y1586D01*
X2323Y1574D01*
X2175D01*
X2158Y1571D01*
X2144Y1562D01*
X2066Y1483D01*
X2059Y1482D01*
X2043Y1471D01*
X2032Y1455D01*
X2028Y1435D01*
Y933D01*
X2015Y927D01*
X1898Y1044D01*
Y1445D01*
X1895Y1462D01*
X1886Y1476D01*
X1650Y1712D01*
Y1800D01*
X1646Y1817D01*
X1637Y1831D01*
X1374Y2093D01*
X1360Y2103D01*
X1344Y2106D01*
X1315D01*
X1314Y2112D01*
X1309Y2118D01*
X1303Y2123D01*
X1295Y2124D01*
X1205D01*
X1197Y2123D01*
X1191Y2118D01*
X1186Y2112D01*
X1185Y2104D01*
Y2034D01*
X1186Y2026D01*
X1191Y2019D01*
X1197Y2015D01*
X1205Y2013D01*
X1295D01*
X1303Y2015D01*
X1309Y2019D01*
X1326D01*
X1475Y1869D01*
X1470Y1857D01*
X1456Y1859D01*
X1434Y1856D01*
X1414Y1848D01*
X1397Y1835D01*
X1383Y1817D01*
X1375Y1797D01*
X1372Y1775D01*
X1375Y1753D01*
X1383Y1733D01*
X1397Y1715D01*
X1405Y1709D01*
Y1581D01*
X1405Y1580D01*
X1403Y1573D01*
Y1502D01*
X1405Y1495D01*
X1409Y1488D01*
X1416Y1484D01*
X1424Y1482D01*
X1514D01*
X1522Y1484D01*
X1526Y1487D01*
X1591D01*
X1690Y1388D01*
Y1255D01*
X1686D01*
X1678Y1254D01*
X1672Y1249D01*
X1667Y1243D01*
X1666Y1235D01*
Y1065D01*
X1667Y1057D01*
X1672Y1051D01*
X1678Y1046D01*
X1686Y1045D01*
X1698D01*
Y1021D01*
X1701Y1005D01*
X1711Y991D01*
X1751Y950D01*
X1746Y937D01*
X1418D01*
X1325Y1030D01*
Y1332D01*
X1326D01*
X1334Y1334D01*
X1341Y1338D01*
X1345Y1345D01*
X1347Y1352D01*
Y1423D01*
X1345Y1430D01*
X1341Y1437D01*
X1334Y1441D01*
X1326Y1443D01*
X1236D01*
X1228Y1441D01*
X1222Y1437D01*
X1217Y1430D01*
X1216Y1423D01*
Y1352D01*
X1217Y1345D01*
X1222Y1338D01*
X1228Y1334D01*
X1236Y1332D01*
X1238D01*
Y1012D01*
X1241Y996D01*
X1251Y982D01*
X1369Y863D01*
X1383Y854D01*
X1400Y850D01*
X1738D01*
X1782Y807D01*
X1776Y795D01*
X1775Y795D01*
X1775Y795D01*
X1225D01*
X1217Y794D01*
X1211Y789D01*
X1206Y783D01*
X1205Y775D01*
Y225D01*
X1206Y217D01*
X1211Y211D01*
X1217Y206D01*
X1225Y205D01*
X1775D01*
X1783Y206D01*
X1789Y211D01*
X1790D01*
X1802Y206D01*
X1957Y51D01*
X1964Y46D01*
X1960Y33D01*
X33D01*
Y4967D01*
X6967D01*
Y33D01*
D02*
G37*
%LPC*%
G36*
X2995Y944D02*
X2927D01*
Y871D01*
X2929Y861D01*
X2934Y853D01*
X2943Y847D01*
X2952Y845D01*
X2995D01*
Y944D01*
D02*
G37*
G36*
X3088D02*
X3020D01*
Y845D01*
X3062D01*
X3072Y847D01*
X3081Y853D01*
X3086Y861D01*
X3088Y871D01*
Y944D01*
D02*
G37*
G36*
X2298D02*
X2250D01*
Y885D01*
X2273D01*
X2282Y887D01*
X2291Y893D01*
X2296Y901D01*
X2298Y911D01*
Y944D01*
D02*
G37*
G36*
X3062Y1067D02*
X3020D01*
Y969D01*
X3088D01*
Y1041D01*
X3086Y1051D01*
X3081Y1060D01*
X3072Y1065D01*
X3062Y1067D01*
D02*
G37*
G36*
X2273Y1027D02*
X2250D01*
Y969D01*
X2298D01*
Y1001D01*
X2296Y1011D01*
X2291Y1020D01*
X2282Y1025D01*
X2273Y1027D01*
D02*
G37*
G36*
X2225D02*
X2202D01*
X2193Y1025D01*
X2184Y1020D01*
X2179Y1011D01*
X2177Y1001D01*
Y969D01*
X2225D01*
Y1027D01*
D02*
G37*
G36*
X2995Y1067D02*
X2952D01*
X2943Y1065D01*
X2934Y1060D01*
X2929Y1051D01*
X2927Y1041D01*
Y969D01*
X2995D01*
Y1067D01*
D02*
G37*
G36*
X3000Y796D02*
X2954Y792D01*
X2909Y781D01*
X2866Y764D01*
X2826Y739D01*
X2791Y709D01*
X2761Y674D01*
X2736Y634D01*
X2719Y591D01*
X2708Y546D01*
X2704Y500D01*
X2708Y454D01*
X2719Y409D01*
X2736Y366D01*
X2761Y326D01*
X2791Y291D01*
X2826Y261D01*
X2866Y236D01*
X2909Y219D01*
X2954Y208D01*
X3000Y204D01*
X3046Y208D01*
X3091Y219D01*
X3134Y236D01*
X3174Y261D01*
X3209Y291D01*
X3239Y326D01*
X3264Y366D01*
X3281Y409D01*
X3292Y454D01*
X3296Y500D01*
X3292Y546D01*
X3281Y591D01*
X3264Y634D01*
X3239Y674D01*
X3209Y709D01*
X3174Y739D01*
X3134Y764D01*
X3091Y781D01*
X3046Y792D01*
X3000Y796D01*
D02*
G37*
G36*
X2313Y1332D02*
Y1256D01*
X2388D01*
X2387Y1267D01*
X2378Y1289D01*
X2363Y1307D01*
X2345Y1321D01*
X2323Y1330D01*
X2313Y1332D01*
D02*
G37*
G36*
X2287D02*
X2277Y1330D01*
X2255Y1321D01*
X2237Y1307D01*
X2222Y1289D01*
X2213Y1267D01*
X2212Y1256D01*
X2287D01*
Y1332D01*
D02*
G37*
G36*
Y1231D02*
X2212D01*
X2213Y1221D01*
X2222Y1199D01*
X2237Y1180D01*
X2255Y1166D01*
X2277Y1157D01*
X2287Y1156D01*
Y1231D01*
D02*
G37*
G36*
X2388D02*
X2313D01*
Y1156D01*
X2323Y1157D01*
X2345Y1166D01*
X2363Y1180D01*
X2378Y1199D01*
X2387Y1221D01*
X2388Y1231D01*
D02*
G37*
G36*
X3625Y719D02*
X3614Y718D01*
X3593Y709D01*
X3574Y695D01*
X3560Y676D01*
X3551Y654D01*
X3550Y644D01*
X3625D01*
Y719D01*
D02*
G37*
G36*
X3650D02*
Y644D01*
X3725D01*
X3724Y654D01*
X3715Y676D01*
X3701Y695D01*
X3682Y709D01*
X3661Y718D01*
X3650Y719D01*
D02*
G37*
G36*
X3625Y619D02*
X3550D01*
X3551Y608D01*
X3560Y586D01*
X3574Y568D01*
X3593Y554D01*
X3614Y545D01*
X3625Y543D01*
Y619D01*
D02*
G37*
G36*
X3725D02*
X3650D01*
Y543D01*
X3661Y545D01*
X3682Y554D01*
X3701Y568D01*
X3715Y586D01*
X3724Y608D01*
X3725Y619D01*
D02*
G37*
G36*
X3392Y1170D02*
X3276D01*
X3277Y1164D01*
X3288Y1148D01*
X3304Y1137D01*
X3322Y1134D01*
X3392D01*
Y1170D01*
D02*
G37*
G36*
X3050Y1700D02*
X3014D01*
X3015Y1693D01*
X3026Y1676D01*
X3043Y1665D01*
X3050Y1664D01*
Y1700D01*
D02*
G37*
G36*
X6540Y2120D02*
X6513D01*
Y1997D01*
X6606D01*
Y2054D01*
X6604Y2071D01*
X6597Y2087D01*
X6587Y2101D01*
X6573Y2111D01*
X6557Y2118D01*
X6540Y2120D01*
D02*
G37*
G36*
X5670Y2112D02*
X5580D01*
X5572Y2110D01*
X5566Y2106D01*
X5562Y2100D01*
X5325D01*
X5308Y2096D01*
X5294Y2087D01*
X5257Y2050D01*
X5213D01*
X5200Y2052D01*
X5182Y2049D01*
X5168Y2039D01*
X5158Y2024D01*
X5154Y2006D01*
X5158Y1989D01*
X5168Y1974D01*
X5182Y1964D01*
X5200Y1960D01*
X5213Y1963D01*
X5275D01*
X5292Y1966D01*
X5306Y1976D01*
X5343Y2013D01*
X5562D01*
X5566Y2007D01*
X5572Y2002D01*
X5580Y2001D01*
X5670D01*
X5678Y2002D01*
X5684Y2007D01*
X5689Y2013D01*
X5690Y2021D01*
Y2091D01*
X5689Y2099D01*
X5684Y2106D01*
X5678Y2110D01*
X5670Y2112D01*
D02*
G37*
G36*
X6487Y2120D02*
X6460D01*
X6443Y2118D01*
X6427Y2111D01*
X6413Y2101D01*
X6403Y2087D01*
X6396Y2071D01*
X6394Y2054D01*
Y1997D01*
X6487D01*
Y2120D01*
D02*
G37*
G36*
X6013Y3017D02*
Y2938D01*
X6092D01*
X6091Y2949D01*
X6081Y2972D01*
X6066Y2991D01*
X6047Y3006D01*
X6024Y3016D01*
X6013Y3017D01*
D02*
G37*
G36*
X2550Y2709D02*
X2528Y2706D01*
X2508Y2698D01*
X2490Y2685D01*
X2477Y2667D01*
X2469Y2647D01*
X2466Y2625D01*
X2469Y2603D01*
X2477Y2583D01*
X2490Y2565D01*
X2505Y2554D01*
Y2310D01*
X2503Y2310D01*
X2497Y2306D01*
X2492Y2299D01*
X2491Y2291D01*
Y2221D01*
X2492Y2213D01*
X2497Y2207D01*
X2503Y2202D01*
X2511Y2201D01*
X2601D01*
X2609Y2202D01*
X2616Y2207D01*
X2620Y2213D01*
X2622Y2221D01*
Y2291D01*
X2620Y2299D01*
X2616Y2306D01*
X2609Y2310D01*
X2607Y2310D01*
Y2564D01*
X2610Y2565D01*
X2623Y2583D01*
X2631Y2603D01*
X2634Y2625D01*
X2631Y2647D01*
X2623Y2667D01*
X2610Y2685D01*
X2592Y2698D01*
X2572Y2706D01*
X2550Y2709D01*
D02*
G37*
G36*
X5629Y4670D02*
X5479D01*
X5471Y4669D01*
X5465Y4664D01*
X5460Y4658D01*
X5459Y4650D01*
Y4500D01*
X5460Y4492D01*
X5465Y4486D01*
X5471Y4481D01*
X5479Y4480D01*
X5485D01*
X5490Y4468D01*
X5398Y4376D01*
X5056D01*
X5037Y4372D01*
X5020Y4361D01*
X4883Y4224D01*
X4872Y4207D01*
X4868Y4188D01*
Y3569D01*
X4872Y3549D01*
X4883Y3533D01*
X5178Y3238D01*
Y2452D01*
X5182Y2433D01*
X5193Y2416D01*
X5236Y2373D01*
X5235Y2362D01*
X5237Y2341D01*
X5246Y2320D01*
X5259Y2303D01*
X5277Y2290D01*
X5297Y2281D01*
X5319Y2278D01*
X5341Y2281D01*
X5361Y2290D01*
X5378Y2303D01*
X5392Y2320D01*
X5400Y2341D01*
X5403Y2362D01*
X5400Y2384D01*
X5392Y2405D01*
X5378Y2422D01*
X5361Y2435D01*
X5341Y2444D01*
X5319Y2447D01*
X5308Y2445D01*
X5280Y2474D01*
Y3259D01*
X5276Y3278D01*
X5265Y3295D01*
X4970Y3590D01*
Y4166D01*
X5077Y4274D01*
X5419D01*
X5438Y4278D01*
X5455Y4289D01*
X5590Y4424D01*
X5601Y4441D01*
X5605Y4460D01*
Y4480D01*
X5629D01*
X5637Y4481D01*
X5643Y4486D01*
X5648Y4492D01*
X5649Y4500D01*
Y4650D01*
X5648Y4658D01*
X5643Y4664D01*
X5637Y4669D01*
X5629Y4670D01*
D02*
G37*
G36*
X1050Y2709D02*
X1028Y2706D01*
X1008Y2698D01*
X990Y2685D01*
X977Y2667D01*
X969Y2647D01*
X966Y2625D01*
X969Y2603D01*
X977Y2583D01*
X990Y2565D01*
X1007Y2553D01*
Y2494D01*
X1010Y2477D01*
X1019Y2463D01*
X1088Y2394D01*
X1102Y2385D01*
X1119Y2382D01*
X1195D01*
X1207Y2370D01*
Y2274D01*
X1205D01*
X1197Y2273D01*
X1191Y2268D01*
X1186Y2262D01*
X1185Y2254D01*
Y2184D01*
X1186Y2176D01*
X1191Y2169D01*
X1197Y2165D01*
X1205Y2163D01*
X1295D01*
X1303Y2165D01*
X1309Y2169D01*
X1314Y2176D01*
X1315Y2184D01*
Y2254D01*
X1314Y2262D01*
X1309Y2268D01*
X1303Y2273D01*
X1295Y2274D01*
X1293D01*
Y2388D01*
X1290Y2404D01*
X1281Y2418D01*
X1243Y2456D01*
X1229Y2465D01*
X1212Y2468D01*
X1137D01*
X1093Y2512D01*
Y2553D01*
X1110Y2565D01*
X1123Y2583D01*
X1131Y2603D01*
X1134Y2625D01*
X1131Y2647D01*
X1123Y2667D01*
X1110Y2685D01*
X1092Y2698D01*
X1072Y2706D01*
X1050Y2709D01*
D02*
G37*
G36*
X4231Y2922D02*
X4209Y2919D01*
X4189Y2910D01*
X4172Y2897D01*
X4158Y2880D01*
X4150Y2859D01*
X4147Y2838D01*
X4150Y2816D01*
X4158Y2795D01*
X4172Y2778D01*
X4189Y2765D01*
X4209Y2756D01*
X4225Y2754D01*
Y2312D01*
X4219Y2306D01*
X4211Y2293D01*
X4205D01*
X4197Y2291D01*
X4191Y2287D01*
X4186Y2280D01*
X4185Y2273D01*
Y2202D01*
X4186Y2195D01*
X4191Y2188D01*
X4197Y2184D01*
X4205Y2182D01*
X4295D01*
X4303Y2184D01*
X4309Y2188D01*
X4314Y2195D01*
X4315Y2202D01*
Y2273D01*
X4314Y2280D01*
X4310Y2285D01*
X4312Y2294D01*
Y2800D01*
X4310Y2810D01*
X4313Y2816D01*
X4315Y2838D01*
X4313Y2859D01*
X4304Y2880D01*
X4291Y2897D01*
X4273Y2910D01*
X4253Y2919D01*
X4231Y2922D01*
D02*
G37*
G36*
X4295Y2143D02*
X4205D01*
X4197Y2141D01*
X4191Y2137D01*
X4186Y2130D01*
X4185Y2123D01*
Y2052D01*
X4186Y2045D01*
X4191Y2038D01*
X4197Y2034D01*
X4205Y2032D01*
X4244D01*
X4351Y1926D01*
X4365Y1916D01*
X4381Y1913D01*
X4693D01*
X4706Y1910D01*
X4724Y1914D01*
X4739Y1924D01*
X4749Y1939D01*
X4752Y1956D01*
X4749Y1974D01*
X4739Y1989D01*
X4724Y1999D01*
X4706Y2002D01*
X4693Y2000D01*
X4399D01*
X4315Y2083D01*
Y2123D01*
X4314Y2130D01*
X4309Y2137D01*
X4303Y2141D01*
X4295Y2143D01*
D02*
G37*
G36*
X4792Y4671D02*
X4767Y4668D01*
X4744Y4658D01*
X4724Y4643D01*
X4709Y4623D01*
X4699Y4600D01*
X4696Y4575D01*
X4699Y4550D01*
X4709Y4527D01*
X4724Y4507D01*
X4744Y4492D01*
X4749Y4490D01*
Y3502D01*
X4752Y3485D01*
X4761Y3471D01*
X4994Y3238D01*
Y1853D01*
X4978Y1841D01*
X4965Y1823D01*
X4956Y1803D01*
X4953Y1781D01*
X4956Y1759D01*
X4965Y1739D01*
X4978Y1722D01*
X4995Y1708D01*
X5016Y1700D01*
X5038Y1697D01*
X5059Y1700D01*
X5080Y1708D01*
X5097Y1722D01*
X5110Y1739D01*
X5119Y1759D01*
X5122Y1781D01*
X5119Y1803D01*
X5110Y1823D01*
X5097Y1841D01*
X5081Y1853D01*
Y3256D01*
X5078Y3273D01*
X5068Y3287D01*
X4835Y3520D01*
Y4490D01*
X4840Y4492D01*
X4860Y4507D01*
X4875Y4527D01*
X4885Y4550D01*
X4888Y4575D01*
X4885Y4600D01*
X4875Y4623D01*
X4860Y4643D01*
X4840Y4658D01*
X4817Y4668D01*
X4792Y4671D01*
D02*
G37*
G36*
X706Y2461D02*
X294D01*
X271Y2458D01*
X249Y2449D01*
X230Y2435D01*
X216Y2416D01*
X207Y2394D01*
X204Y2371D01*
Y1939D01*
X207Y1916D01*
X216Y1894D01*
X230Y1875D01*
X249Y1861D01*
X271Y1852D01*
X294Y1849D01*
X304D01*
Y1725D01*
Y1452D01*
X225D01*
X217Y1451D01*
X211Y1446D01*
X206Y1440D01*
X205Y1432D01*
Y882D01*
X206Y874D01*
X211Y867D01*
X217Y863D01*
X225Y861D01*
X775D01*
X783Y863D01*
X789Y867D01*
X794Y874D01*
X795Y882D01*
Y1432D01*
X794Y1440D01*
X789Y1446D01*
X783Y1451D01*
X775Y1452D01*
X696D01*
Y1664D01*
X950D01*
X964Y1650D01*
Y1635D01*
X940D01*
X932Y1634D01*
X926Y1629D01*
X921Y1623D01*
X920Y1615D01*
Y1505D01*
X921Y1497D01*
X926Y1491D01*
X932Y1486D01*
X940Y1485D01*
X1110D01*
X1118Y1486D01*
X1124Y1491D01*
X1129Y1497D01*
X1130Y1505D01*
Y1615D01*
X1129Y1623D01*
X1124Y1629D01*
X1118Y1634D01*
X1110Y1635D01*
X1086D01*
Y1675D01*
X1082Y1698D01*
X1068Y1718D01*
X1018Y1768D01*
X998Y1782D01*
X975Y1786D01*
X696D01*
Y1849D01*
X706D01*
X729Y1852D01*
X751Y1861D01*
X770Y1875D01*
X784Y1894D01*
X793Y1916D01*
X796Y1939D01*
Y2371D01*
X793Y2394D01*
X784Y2416D01*
X770Y2435D01*
X751Y2449D01*
X729Y2458D01*
X706Y2461D01*
D02*
G37*
G36*
X1012Y3137D02*
X964D01*
Y3105D01*
X966Y3095D01*
X972Y3087D01*
X980Y3081D01*
X990Y3079D01*
X1012D01*
Y3137D01*
D02*
G37*
G36*
X6606Y1972D02*
X6513D01*
Y1849D01*
X6540D01*
X6557Y1851D01*
X6573Y1858D01*
X6587Y1868D01*
X6597Y1882D01*
X6604Y1898D01*
X6606Y1915D01*
Y1972D01*
D02*
G37*
G36*
X3023Y4403D02*
X2952D01*
X2945Y4401D01*
X2938Y4397D01*
X2934Y4390D01*
X2932Y4383D01*
Y4292D01*
X2934Y4285D01*
X2938Y4278D01*
X2944Y4274D01*
Y3824D01*
X2688Y3568D01*
X2679Y3554D01*
X2675Y3538D01*
Y2943D01*
X2595Y2862D01*
X2488D01*
X2471Y2859D01*
X2457Y2849D01*
X2326Y2718D01*
X2316Y2704D01*
X2313Y2688D01*
Y2050D01*
X2316Y2033D01*
X2326Y2019D01*
X2438Y1907D01*
X2452Y1897D01*
X2469Y1894D01*
X3700D01*
X3712Y1892D01*
X3730Y1895D01*
X3745Y1905D01*
X3755Y1920D01*
X3758Y1938D01*
X3755Y1955D01*
X3745Y1970D01*
X3730Y1980D01*
X3712Y1983D01*
X3700Y1981D01*
X2487D01*
X2400Y2068D01*
Y2670D01*
X2505Y2775D01*
X2612D01*
X2629Y2779D01*
X2643Y2788D01*
X2749Y2894D01*
X2759Y2908D01*
X2762Y2925D01*
Y3520D01*
X3018Y3776D01*
X3028Y3790D01*
X3031Y3806D01*
Y4274D01*
X3037Y4278D01*
X3041Y4285D01*
X3043Y4292D01*
Y4383D01*
X3041Y4390D01*
X3037Y4397D01*
X3030Y4401D01*
X3023Y4403D01*
D02*
G37*
G36*
X6696Y4658D02*
X6546D01*
X6538Y4656D01*
X6531Y4652D01*
X6527Y4645D01*
X6525Y4638D01*
Y4488D01*
X6527Y4480D01*
X6531Y4473D01*
X6538Y4469D01*
X6546Y4467D01*
X6696D01*
X6703Y4469D01*
X6710Y4473D01*
X6714Y4480D01*
X6716Y4488D01*
Y4512D01*
X6754D01*
X6805Y4460D01*
Y1809D01*
X6704Y1707D01*
X6672D01*
X6667Y1720D01*
X6730Y1783D01*
X6741Y1799D01*
X6745Y1819D01*
Y3688D01*
X6741Y3707D01*
X6730Y3724D01*
X6603Y3850D01*
X6659Y3905D01*
X6670Y3922D01*
X6674Y3942D01*
Y4142D01*
X6698D01*
X6706Y4144D01*
X6712Y4148D01*
X6717Y4155D01*
X6718Y4162D01*
Y4312D01*
X6717Y4320D01*
X6712Y4327D01*
X6706Y4331D01*
X6698Y4333D01*
X6548D01*
X6540Y4331D01*
X6533Y4327D01*
X6529Y4320D01*
X6527Y4312D01*
Y4162D01*
X6529Y4155D01*
X6533Y4148D01*
X6540Y4144D01*
X6548Y4142D01*
X6572D01*
Y3963D01*
X6495Y3886D01*
X6495Y3886D01*
X6479Y3870D01*
X6319D01*
X6299Y3866D01*
X6283Y3855D01*
X6054Y3626D01*
X5371D01*
X5351Y3646D01*
Y3665D01*
X5385D01*
X5393Y3666D01*
X5399Y3671D01*
X5404Y3677D01*
X5405Y3685D01*
Y3795D01*
X5404Y3803D01*
X5399Y3809D01*
X5393Y3814D01*
X5385Y3815D01*
X5215D01*
X5207Y3814D01*
X5201Y3809D01*
X5196Y3803D01*
X5195Y3795D01*
Y3685D01*
X5196Y3677D01*
X5201Y3671D01*
X5207Y3666D01*
X5215Y3665D01*
X5249D01*
Y3625D01*
X5253Y3605D01*
X5264Y3589D01*
X5314Y3539D01*
X5330Y3528D01*
X5350Y3524D01*
X6075D01*
X6095Y3528D01*
X6111Y3539D01*
X6340Y3768D01*
X6500D01*
X6520Y3772D01*
X6530Y3779D01*
X6643Y3666D01*
Y1840D01*
X6604Y1801D01*
X6140D01*
X6105Y1836D01*
X6106Y1841D01*
X6109Y1862D01*
X6106Y1884D01*
X6098Y1905D01*
X6085Y1922D01*
X6067Y1935D01*
X6047Y1944D01*
X6025Y1947D01*
X6003Y1944D01*
X5983Y1935D01*
X5965Y1922D01*
X5952Y1905D01*
X5944Y1884D01*
X5941Y1862D01*
X5944Y1841D01*
X5952Y1820D01*
X5965Y1803D01*
X5983Y1790D01*
X6003Y1781D01*
X6017Y1779D01*
X6077Y1720D01*
X6071Y1707D01*
X5977D01*
X5907Y1778D01*
X5909Y1794D01*
X5906Y1816D01*
X5898Y1836D01*
X5884Y1853D01*
X5867Y1867D01*
X5847Y1875D01*
X5825Y1878D01*
X5803Y1875D01*
X5783Y1867D01*
X5765Y1853D01*
X5752Y1836D01*
X5744Y1816D01*
X5741Y1794D01*
X5744Y1772D01*
X5752Y1752D01*
X5765Y1734D01*
X5783Y1721D01*
X5803Y1712D01*
X5825Y1710D01*
X5830Y1710D01*
X5920Y1620D01*
X5937Y1609D01*
X5956Y1605D01*
X6725D01*
X6745Y1609D01*
X6761Y1620D01*
X6892Y1751D01*
X6903Y1768D01*
X6907Y1788D01*
Y4481D01*
X6903Y4501D01*
X6892Y4517D01*
X6811Y4599D01*
X6795Y4610D01*
X6775Y4613D01*
X6716D01*
Y4638D01*
X6714Y4645D01*
X6710Y4652D01*
X6703Y4656D01*
X6696Y4658D01*
D02*
G37*
G36*
X6487Y1972D02*
X6394D01*
Y1915D01*
X6396Y1898D01*
X6403Y1882D01*
X6413Y1868D01*
X6427Y1858D01*
X6443Y1851D01*
X6460Y1849D01*
X6487D01*
Y1972D01*
D02*
G37*
G36*
X3697Y4403D02*
X3628D01*
X3620Y4401D01*
X3613Y4397D01*
X3609Y4390D01*
X3607Y4383D01*
Y4292D01*
X3609Y4285D01*
X3613Y4278D01*
X3620Y4274D01*
X3628Y4272D01*
X3697D01*
X3705Y4274D01*
X3712Y4278D01*
X3726Y4276D01*
X3838Y4163D01*
Y2338D01*
X3835Y2325D01*
X3839Y2307D01*
X3849Y2293D01*
X3864Y2283D01*
X3881Y2279D01*
X3899Y2283D01*
X3914Y2293D01*
X3924Y2307D01*
X3927Y2325D01*
X3925Y2338D01*
Y4181D01*
X3921Y4198D01*
X3912Y4212D01*
X3756Y4368D01*
X3742Y4378D01*
X3725Y4381D01*
X3718D01*
Y4383D01*
X3716Y4390D01*
X3712Y4397D01*
X3705Y4401D01*
X3697Y4403D01*
D02*
G37*
G36*
X5987Y2912D02*
X5908D01*
X5909Y2901D01*
X5919Y2878D01*
X5934Y2859D01*
X5953Y2844D01*
X5976Y2834D01*
X5987Y2833D01*
Y2912D01*
D02*
G37*
G36*
X6092D02*
X6013D01*
Y2833D01*
X6024Y2834D01*
X6047Y2844D01*
X6066Y2859D01*
X6081Y2878D01*
X6091Y2901D01*
X6092Y2912D01*
D02*
G37*
G36*
X4125Y2619D02*
Y2544D01*
X4200D01*
X4199Y2554D01*
X4190Y2576D01*
X4176Y2595D01*
X4157Y2609D01*
X4136Y2618D01*
X4125Y2619D01*
D02*
G37*
G36*
X4050Y3484D02*
X4028Y3481D01*
X4008Y3473D01*
X3990Y3460D01*
X3977Y3442D01*
X3969Y3422D01*
X3966Y3400D01*
X3969Y3378D01*
X3977Y3358D01*
X3990Y3340D01*
X4008Y3327D01*
X4028Y3319D01*
X4050Y3316D01*
X4072Y3319D01*
X4092Y3327D01*
X4110Y3340D01*
X4116Y3349D01*
X4366D01*
X4518Y3198D01*
Y2772D01*
X4509Y2766D01*
X4496Y2748D01*
X4487Y2728D01*
X4485Y2706D01*
X4487Y2684D01*
X4496Y2664D01*
X4509Y2647D01*
X4527Y2633D01*
X4547Y2625D01*
X4569Y2622D01*
X4591Y2625D01*
X4611Y2633D01*
X4628Y2647D01*
X4642Y2664D01*
X4650Y2684D01*
X4653Y2706D01*
X4650Y2728D01*
X4642Y2748D01*
X4628Y2766D01*
X4620Y2772D01*
Y3189D01*
X4622Y3193D01*
X4626Y3212D01*
X4622Y3232D01*
X4611Y3249D01*
X4424Y3436D01*
X4407Y3447D01*
X4388Y3451D01*
X4116D01*
X4110Y3460D01*
X4092Y3473D01*
X4072Y3481D01*
X4050Y3484D01*
D02*
G37*
G36*
X4063Y3017D02*
Y2938D01*
X4142D01*
X4141Y2949D01*
X4131Y2972D01*
X4116Y2991D01*
X4097Y3006D01*
X4074Y3016D01*
X4063Y3017D01*
D02*
G37*
G36*
X4037D02*
X4026Y3016D01*
X4003Y3006D01*
X3984Y2991D01*
X3969Y2972D01*
X3959Y2949D01*
X3958Y2938D01*
X4037D01*
Y3017D01*
D02*
G37*
G36*
X6568Y3013D02*
X6432D01*
X6425Y3011D01*
X6418Y3007D01*
X6414Y3000D01*
X6412Y2992D01*
Y2858D01*
X6414Y2850D01*
X6418Y2843D01*
X6425Y2839D01*
X6432Y2837D01*
X6568D01*
X6575Y2839D01*
X6582Y2843D01*
X6586Y2850D01*
X6588Y2858D01*
Y2992D01*
X6586Y3000D01*
X6582Y3007D01*
X6575Y3011D01*
X6568Y3013D01*
D02*
G37*
G36*
X3617Y3013D02*
X3483D01*
X3475Y3011D01*
X3468Y3007D01*
X3464Y3000D01*
X3462Y2993D01*
Y2858D01*
X3464Y2850D01*
X3468Y2843D01*
X3475Y2839D01*
X3483Y2837D01*
X3617D01*
X3625Y2839D01*
X3632Y2843D01*
X3636Y2850D01*
X3638Y2858D01*
Y2993D01*
X3636Y3000D01*
X3632Y3007D01*
X3625Y3011D01*
X3617Y3013D01*
D02*
G37*
G36*
X5419Y3284D02*
X5397Y3281D01*
X5377Y3273D01*
X5359Y3260D01*
X5346Y3242D01*
X5337Y3222D01*
X5335Y3200D01*
X5337Y3178D01*
X5346Y3158D01*
X5359Y3140D01*
X5377Y3127D01*
X5397Y3119D01*
X5419Y3116D01*
X5441Y3119D01*
X5461Y3127D01*
X5478Y3140D01*
X5485Y3149D01*
X5541D01*
X5787Y2904D01*
Y2838D01*
X5790Y2818D01*
X5801Y2801D01*
X5899Y2704D01*
Y2691D01*
X5890Y2685D01*
X5877Y2667D01*
X5869Y2647D01*
X5866Y2625D01*
X5869Y2603D01*
X5877Y2583D01*
X5890Y2565D01*
X5908Y2552D01*
X5928Y2544D01*
X5950Y2541D01*
X5972Y2544D01*
X5992Y2552D01*
X6010Y2565D01*
X6023Y2583D01*
X6031Y2603D01*
X6034Y2625D01*
X6031Y2647D01*
X6023Y2667D01*
X6010Y2685D01*
X6001Y2691D01*
Y2725D01*
X5997Y2745D01*
X5986Y2761D01*
X5888Y2859D01*
Y2925D01*
X5885Y2945D01*
X5874Y2961D01*
X5599Y3236D01*
X5582Y3247D01*
X5562Y3251D01*
X5485D01*
X5478Y3260D01*
X5461Y3273D01*
X5441Y3281D01*
X5419Y3284D01*
D02*
G37*
G36*
X4200Y2519D02*
X4125D01*
Y2443D01*
X4136Y2445D01*
X4157Y2454D01*
X4176Y2468D01*
X4190Y2486D01*
X4199Y2508D01*
X4200Y2519D01*
D02*
G37*
G36*
X2875Y3522D02*
X2853Y3519D01*
X2833Y3510D01*
X2815Y3497D01*
X2802Y3480D01*
X2794Y3459D01*
X2791Y3438D01*
X2794Y3416D01*
X2802Y3395D01*
X2815Y3378D01*
X2824Y3371D01*
Y2680D01*
X2822Y2678D01*
X2808Y2661D01*
X2800Y2641D01*
X2797Y2619D01*
X2800Y2597D01*
X2808Y2577D01*
X2822Y2559D01*
X2839Y2546D01*
X2859Y2537D01*
X2881Y2535D01*
X2903Y2537D01*
X2923Y2546D01*
X2941Y2559D01*
X2954Y2577D01*
X2963Y2597D01*
X2965Y2619D01*
X2963Y2641D01*
X2954Y2661D01*
X2941Y2678D01*
X2926Y2690D01*
Y3371D01*
X2935Y3378D01*
X2948Y3395D01*
X2956Y3416D01*
X2959Y3438D01*
X2956Y3459D01*
X2948Y3480D01*
X2935Y3497D01*
X2917Y3510D01*
X2897Y3519D01*
X2875Y3522D01*
D02*
G37*
G36*
X4142Y2912D02*
X3958D01*
X3959Y2901D01*
X3969Y2878D01*
X3984Y2859D01*
X4003Y2844D01*
X4008Y2842D01*
Y2828D01*
X3995Y2823D01*
X3978Y2810D01*
X3965Y2792D01*
X3956Y2772D01*
X3953Y2750D01*
X3955Y2738D01*
X3947Y2726D01*
X3943Y2706D01*
Y2398D01*
X3947Y2378D01*
X3958Y2362D01*
X3962Y2357D01*
Y2314D01*
X3966Y2294D01*
X3977Y2277D01*
X3985Y2270D01*
Y2202D01*
X3986Y2195D01*
X3991Y2188D01*
X3997Y2184D01*
X4005Y2182D01*
X4095D01*
X4103Y2184D01*
X4109Y2188D01*
X4114Y2195D01*
X4115Y2202D01*
Y2273D01*
X4114Y2280D01*
X4109Y2287D01*
X4103Y2291D01*
X4095Y2293D01*
X4093D01*
X4091Y2303D01*
X4080Y2319D01*
X4064Y2335D01*
Y2378D01*
X4061Y2398D01*
X4049Y2414D01*
X4045Y2419D01*
Y2455D01*
X4057Y2461D01*
X4068Y2454D01*
X4089Y2445D01*
X4100Y2443D01*
Y2531D01*
Y2619D01*
X4089Y2618D01*
X4068Y2609D01*
X4057Y2601D01*
X4045Y2607D01*
Y2667D01*
X4059Y2669D01*
X4080Y2677D01*
X4097Y2690D01*
X4110Y2708D01*
X4119Y2728D01*
X4122Y2750D01*
X4119Y2772D01*
X4110Y2792D01*
X4097Y2810D01*
X4080Y2823D01*
X4080Y2823D01*
Y2837D01*
X4097Y2844D01*
X4116Y2859D01*
X4131Y2878D01*
X4141Y2901D01*
X4142Y2912D01*
D02*
G37*
G36*
X5987Y3017D02*
X5976Y3016D01*
X5953Y3006D01*
X5934Y2991D01*
X5919Y2972D01*
X5909Y2949D01*
X5908Y2938D01*
X5987D01*
Y3017D01*
D02*
G37*
G36*
X3788Y4775D02*
X3388D01*
X3371Y4771D01*
X3357Y4762D01*
X3282Y4687D01*
X3272Y4673D01*
X3269Y4656D01*
Y4312D01*
X3272Y4296D01*
X3282Y4282D01*
X3707Y3857D01*
Y2357D01*
X3704Y2344D01*
X3708Y2326D01*
X3718Y2311D01*
X3732Y2301D01*
X3750Y2298D01*
X3768Y2301D01*
X3782Y2311D01*
X3792Y2326D01*
X3796Y2344D01*
X3793Y2357D01*
Y3875D01*
X3790Y3892D01*
X3781Y3906D01*
X3356Y4330D01*
Y4638D01*
X3405Y4688D01*
X3770D01*
X4175Y4282D01*
Y4207D01*
X4169Y4203D01*
X4165Y4197D01*
X4163Y4189D01*
Y4099D01*
X4165Y4091D01*
X4168Y4086D01*
X4128Y4046D01*
X4119Y4032D01*
X4115Y4015D01*
Y3974D01*
X4104D01*
X4096Y3973D01*
X4089Y3968D01*
X4085Y3962D01*
X4083Y3954D01*
Y3784D01*
X4085Y3776D01*
X4089Y3769D01*
X4096Y3765D01*
X4104Y3763D01*
X4115D01*
Y3697D01*
X4119Y3681D01*
X4128Y3667D01*
X4276Y3519D01*
X4290Y3510D01*
X4306Y3507D01*
X4488D01*
X4707Y3288D01*
Y2697D01*
X4690Y2685D01*
X4677Y2667D01*
X4669Y2647D01*
X4666Y2625D01*
X4669Y2603D01*
X4677Y2583D01*
X4690Y2565D01*
X4708Y2552D01*
X4728Y2544D01*
X4750Y2541D01*
X4772Y2544D01*
X4792Y2552D01*
X4810Y2565D01*
X4823Y2583D01*
X4831Y2603D01*
X4834Y2625D01*
X4831Y2647D01*
X4823Y2667D01*
X4810Y2685D01*
X4793Y2697D01*
Y3306D01*
X4790Y3323D01*
X4781Y3337D01*
X4537Y3581D01*
X4523Y3590D01*
X4506Y3593D01*
X4324D01*
X4202Y3715D01*
Y3763D01*
X4214D01*
X4222Y3765D01*
X4228Y3769D01*
X4233Y3776D01*
X4234Y3784D01*
Y3954D01*
X4233Y3962D01*
X4228Y3968D01*
X4222Y3973D01*
X4214Y3974D01*
X4202D01*
Y3997D01*
X4249Y4044D01*
X4259Y4058D01*
X4262Y4075D01*
Y4080D01*
X4268Y4084D01*
X4273Y4091D01*
X4274Y4099D01*
Y4189D01*
X4273Y4197D01*
X4268Y4203D01*
X4262Y4207D01*
Y4300D01*
X4259Y4317D01*
X4249Y4331D01*
X3818Y4762D01*
X3804Y4771D01*
X3788Y4775D01*
D02*
G37*
G36*
X5688Y2870D02*
X5450D01*
X5430Y2866D01*
X5414Y2855D01*
X5339Y2780D01*
X5328Y2763D01*
X5324Y2744D01*
Y2531D01*
X5328Y2512D01*
X5339Y2495D01*
X5566Y2269D01*
X5566Y2256D01*
X5561Y2249D01*
X5560Y2241D01*
Y2171D01*
X5561Y2163D01*
X5566Y2157D01*
X5572Y2152D01*
X5580Y2151D01*
X5670D01*
X5678Y2152D01*
X5684Y2157D01*
X5689Y2163D01*
X5690Y2171D01*
Y2241D01*
X5689Y2249D01*
X5684Y2256D01*
X5678Y2260D01*
X5670Y2262D01*
X5670D01*
Y2278D01*
X5682Y2283D01*
X5701Y2264D01*
X5718Y2253D01*
X5728Y2251D01*
X5728Y2251D01*
X5735Y2246D01*
X5742Y2245D01*
X5833D01*
X5840Y2246D01*
X5847Y2251D01*
X5851Y2257D01*
X5853Y2265D01*
Y2335D01*
X5851Y2343D01*
X5847Y2349D01*
X5840Y2354D01*
X5833Y2355D01*
X5754D01*
X5601Y2509D01*
Y2559D01*
X5610Y2565D01*
X5623Y2583D01*
X5631Y2603D01*
X5634Y2625D01*
X5631Y2647D01*
X5623Y2667D01*
X5610Y2685D01*
X5592Y2698D01*
X5572Y2706D01*
X5550Y2709D01*
X5528Y2706D01*
X5508Y2698D01*
X5490Y2685D01*
X5477Y2667D01*
X5469Y2647D01*
X5466Y2625D01*
X5469Y2603D01*
X5477Y2583D01*
X5490Y2565D01*
X5499Y2559D01*
Y2497D01*
X5486Y2492D01*
X5426Y2552D01*
Y2723D01*
X5471Y2768D01*
X5666D01*
X5699Y2735D01*
Y2691D01*
X5690Y2685D01*
X5677Y2667D01*
X5669Y2647D01*
X5666Y2625D01*
X5669Y2603D01*
X5677Y2583D01*
X5690Y2565D01*
X5708Y2552D01*
X5728Y2544D01*
X5750Y2541D01*
X5772Y2544D01*
X5792Y2552D01*
X5810Y2565D01*
X5823Y2583D01*
X5831Y2603D01*
X5834Y2625D01*
X5831Y2647D01*
X5823Y2667D01*
X5810Y2685D01*
X5801Y2691D01*
Y2756D01*
X5797Y2776D01*
X5786Y2792D01*
X5724Y2855D01*
X5707Y2866D01*
X5688Y2870D01*
D02*
G37*
G36*
X1175Y2851D02*
X925D01*
X905Y2847D01*
X889Y2836D01*
X826Y2774D01*
X815Y2757D01*
X812Y2738D01*
Y2469D01*
X815Y2449D01*
X826Y2433D01*
X912Y2348D01*
Y1981D01*
X915Y1962D01*
X926Y1945D01*
X1026Y1845D01*
X1043Y1834D01*
X1062Y1830D01*
X1191D01*
X1230Y1791D01*
Y1592D01*
X1228Y1591D01*
X1222Y1587D01*
X1217Y1580D01*
X1216Y1573D01*
Y1502D01*
X1217Y1495D01*
X1222Y1488D01*
X1228Y1484D01*
X1236Y1482D01*
X1326D01*
X1334Y1484D01*
X1341Y1488D01*
X1345Y1495D01*
X1347Y1502D01*
Y1573D01*
X1345Y1580D01*
X1341Y1587D01*
X1334Y1591D01*
X1332Y1592D01*
Y1812D01*
X1328Y1832D01*
X1317Y1849D01*
X1249Y1917D01*
X1232Y1928D01*
X1212Y1932D01*
X1084D01*
X1013Y2002D01*
Y2369D01*
X1010Y2388D01*
X999Y2405D01*
X913Y2490D01*
Y2716D01*
X946Y2749D01*
X1154D01*
X1199Y2704D01*
Y2691D01*
X1190Y2685D01*
X1177Y2667D01*
X1169Y2647D01*
X1166Y2625D01*
X1169Y2603D01*
X1177Y2583D01*
X1190Y2565D01*
X1208Y2552D01*
X1228Y2544D01*
X1250Y2541D01*
X1272Y2544D01*
X1292Y2552D01*
X1310Y2565D01*
X1323Y2583D01*
X1331Y2603D01*
X1334Y2625D01*
X1331Y2647D01*
X1323Y2667D01*
X1310Y2685D01*
X1301Y2691D01*
Y2725D01*
X1297Y2745D01*
X1286Y2761D01*
X1211Y2836D01*
X1195Y2847D01*
X1175Y2851D01*
D02*
G37*
G36*
X1050Y3484D02*
X1028Y3481D01*
X1008Y3473D01*
X990Y3460D01*
X977Y3442D01*
X969Y3422D01*
X966Y3400D01*
X969Y3378D01*
X977Y3358D01*
X990Y3340D01*
X1008Y3327D01*
X1028Y3319D01*
X1050Y3316D01*
X1072Y3319D01*
X1092Y3327D01*
X1110Y3340D01*
X1116Y3349D01*
X1198D01*
X1399Y3148D01*
Y2691D01*
X1390Y2685D01*
X1377Y2667D01*
X1369Y2647D01*
X1366Y2625D01*
X1369Y2603D01*
X1377Y2583D01*
X1390Y2565D01*
X1408Y2552D01*
X1428Y2544D01*
X1450Y2541D01*
X1472Y2544D01*
X1492Y2552D01*
X1510Y2565D01*
X1523Y2583D01*
X1531Y2603D01*
X1534Y2625D01*
X1531Y2647D01*
X1523Y2667D01*
X1510Y2685D01*
X1501Y2691D01*
Y3169D01*
X1497Y3188D01*
X1486Y3205D01*
X1255Y3436D01*
X1238Y3447D01*
X1219Y3451D01*
X1116D01*
X1110Y3460D01*
X1092Y3473D01*
X1072Y3481D01*
X1050Y3484D01*
D02*
G37*
G36*
X6000Y796D02*
X5954Y792D01*
X5909Y781D01*
X5866Y764D01*
X5826Y739D01*
X5791Y709D01*
X5761Y674D01*
X5736Y634D01*
X5719Y591D01*
X5708Y546D01*
X5704Y500D01*
X5708Y454D01*
X5719Y409D01*
X5736Y366D01*
X5761Y326D01*
X5791Y291D01*
X5826Y261D01*
X5866Y236D01*
X5909Y219D01*
X5954Y208D01*
X6000Y204D01*
X6046Y208D01*
X6091Y219D01*
X6134Y236D01*
X6174Y261D01*
X6209Y291D01*
X6239Y326D01*
X6264Y366D01*
X6281Y409D01*
X6292Y454D01*
X6296Y500D01*
X6292Y546D01*
X6281Y591D01*
X6264Y634D01*
X6239Y674D01*
X6209Y709D01*
X6174Y739D01*
X6134Y764D01*
X6091Y781D01*
X6046Y792D01*
X6000Y796D01*
D02*
G37*
G36*
X500Y475D02*
X212D01*
X215Y440D01*
X226Y394D01*
X244Y351D01*
X269Y310D01*
X299Y274D01*
X335Y244D01*
X376Y219D01*
X419Y201D01*
X465Y190D01*
X500Y187D01*
Y475D01*
D02*
G37*
G36*
X813D02*
X525D01*
Y187D01*
X560Y190D01*
X606Y201D01*
X649Y219D01*
X690Y244D01*
X726Y274D01*
X756Y310D01*
X781Y351D01*
X799Y394D01*
X810Y440D01*
X813Y475D01*
D02*
G37*
G36*
X4775Y795D02*
X4225D01*
X4217Y794D01*
X4211Y789D01*
X4206Y783D01*
X4205Y775D01*
Y225D01*
X4206Y217D01*
X4211Y211D01*
X4217Y206D01*
X4225Y205D01*
X4775D01*
X4783Y206D01*
X4789Y211D01*
X4794Y217D01*
X4795Y225D01*
Y775D01*
X4794Y783D01*
X4789Y789D01*
X4783Y794D01*
X4775Y795D01*
D02*
G37*
G36*
X500Y788D02*
X465Y785D01*
X419Y774D01*
X376Y756D01*
X335Y731D01*
X299Y701D01*
X269Y665D01*
X244Y624D01*
X226Y581D01*
X215Y535D01*
X212Y500D01*
X500D01*
Y788D01*
D02*
G37*
G36*
X525D02*
Y500D01*
X813D01*
X810Y535D01*
X799Y581D01*
X781Y624D01*
X756Y665D01*
X726Y701D01*
X690Y731D01*
X649Y756D01*
X606Y774D01*
X560Y785D01*
X525Y788D01*
D02*
G37*
G36*
X1012Y1371D02*
X940D01*
X930Y1369D01*
X922Y1363D01*
X916Y1355D01*
X914Y1345D01*
Y1303D01*
X1012D01*
Y1371D01*
D02*
G37*
G36*
X1136Y1277D02*
X1038D01*
Y1209D01*
X1110D01*
X1120Y1211D01*
X1128Y1217D01*
X1134Y1225D01*
X1136Y1235D01*
Y1277D01*
D02*
G37*
G36*
X1110Y1371D02*
X1038D01*
Y1303D01*
X1136D01*
Y1345D01*
X1134Y1355D01*
X1128Y1363D01*
X1120Y1369D01*
X1110Y1371D01*
D02*
G37*
G36*
X1456Y1448D02*
X1424D01*
X1414Y1446D01*
X1405Y1441D01*
X1400Y1432D01*
X1398Y1423D01*
Y1400D01*
X1456D01*
Y1448D01*
D02*
G37*
G36*
X1514D02*
X1481D01*
Y1400D01*
X1540D01*
Y1423D01*
X1538Y1432D01*
X1532Y1441D01*
X1524Y1446D01*
X1514Y1448D01*
D02*
G37*
G36*
X1456Y1375D02*
X1398D01*
Y1352D01*
X1400Y1343D01*
X1405Y1334D01*
X1414Y1329D01*
X1424Y1327D01*
X1456D01*
Y1375D01*
D02*
G37*
G36*
X1540D02*
X1481D01*
Y1327D01*
X1514D01*
X1524Y1329D01*
X1532Y1334D01*
X1538Y1343D01*
X1540Y1352D01*
Y1375D01*
D02*
G37*
G36*
X6540Y1196D02*
X6460D01*
X6437Y1192D01*
X6417Y1178D01*
X6403Y1158D01*
X6399Y1135D01*
Y1126D01*
X5957D01*
X5953Y1129D01*
X5945Y1130D01*
X5855D01*
X5847Y1129D01*
X5843Y1126D01*
X5379D01*
X5379Y1128D01*
X5374Y1134D01*
X5368Y1139D01*
X5360Y1140D01*
X5290D01*
X5282Y1139D01*
X5276Y1134D01*
X5271Y1128D01*
X5270Y1120D01*
Y1030D01*
X5271Y1022D01*
X5276Y1016D01*
X5282Y1011D01*
X5290Y1010D01*
X5360D01*
X5368Y1011D01*
X5374Y1016D01*
X5379Y1022D01*
X5379Y1024D01*
X5843D01*
X5847Y1021D01*
X5855Y1020D01*
X5945D01*
X5953Y1021D01*
X5957Y1024D01*
X6399D01*
Y996D01*
X6403Y973D01*
X6417Y953D01*
X6437Y939D01*
X6460Y935D01*
X6540D01*
X6563Y939D01*
X6583Y953D01*
X6597Y973D01*
X6601Y996D01*
Y1135D01*
X6597Y1158D01*
X6583Y1178D01*
X6563Y1192D01*
X6540Y1196D01*
D02*
G37*
G36*
X1459Y1137D02*
X1390D01*
Y1065D01*
X1392Y1055D01*
X1398Y1047D01*
X1406Y1041D01*
X1416Y1039D01*
X1459D01*
Y1137D01*
D02*
G37*
G36*
X1552D02*
X1484D01*
Y1039D01*
X1526D01*
X1536Y1041D01*
X1545Y1047D01*
X1550Y1055D01*
X1552Y1065D01*
Y1137D01*
D02*
G37*
G36*
X1526Y1261D02*
X1484D01*
Y1163D01*
X1552D01*
Y1235D01*
X1550Y1245D01*
X1545Y1253D01*
X1536Y1259D01*
X1526Y1261D01*
D02*
G37*
G36*
X1012Y1277D02*
X914D01*
Y1235D01*
X916Y1225D01*
X922Y1217D01*
X930Y1211D01*
X940Y1209D01*
X1012D01*
Y1277D01*
D02*
G37*
G36*
X1459Y1261D02*
X1416D01*
X1406Y1259D01*
X1398Y1253D01*
X1392Y1245D01*
X1390Y1235D01*
Y1163D01*
X1459D01*
Y1261D01*
D02*
G37*
G36*
X1086Y3137D02*
X1038D01*
Y3079D01*
X1060D01*
X1070Y3081D01*
X1078Y3087D01*
X1084Y3095D01*
X1086Y3105D01*
Y3137D01*
D02*
G37*
G36*
X207Y4576D02*
X154D01*
X136Y4573D01*
X120Y4562D01*
X110Y4547D01*
X106Y4528D01*
Y4388D01*
X207D01*
Y4576D01*
D02*
G37*
G36*
X867Y4456D02*
X806D01*
X791Y4453D01*
X778Y4444D01*
X769Y4432D01*
X766Y4416D01*
Y4388D01*
X867D01*
Y4456D01*
D02*
G37*
G36*
X1256Y4427D02*
X1234D01*
X1224Y4425D01*
X1215Y4420D01*
X1210Y4411D01*
X1208Y4401D01*
Y4369D01*
X1256D01*
Y4427D01*
D02*
G37*
G36*
X1304D02*
X1281D01*
Y4369D01*
X1330D01*
Y4401D01*
X1328Y4411D01*
X1322Y4420D01*
X1314Y4425D01*
X1304Y4427D01*
D02*
G37*
G36*
X286Y4576D02*
X233D01*
Y4388D01*
X334D01*
Y4528D01*
X330Y4547D01*
X320Y4562D01*
X304Y4573D01*
X286Y4576D01*
D02*
G37*
G36*
X6212Y4550D02*
X6125D01*
Y4463D01*
X6139Y4465D01*
X6163Y4475D01*
X6184Y4491D01*
X6200Y4512D01*
X6210Y4536D01*
X6212Y4550D01*
D02*
G37*
G36*
X5200Y4901D02*
X1300D01*
X1280Y4897D01*
X1264Y4886D01*
X1179Y4801D01*
X1168Y4785D01*
X1164Y4765D01*
Y4705D01*
X1160D01*
X1152Y4704D01*
X1146Y4699D01*
X1141Y4693D01*
X1140Y4685D01*
Y4651D01*
X987D01*
X986Y4659D01*
X978Y4671D01*
X967Y4678D01*
X954Y4681D01*
X806D01*
X793Y4678D01*
X782Y4671D01*
X774Y4659D01*
X772Y4646D01*
Y4564D01*
X774Y4551D01*
X782Y4539D01*
X793Y4532D01*
X806Y4529D01*
X954D01*
X967Y4532D01*
X978Y4539D01*
X984Y4549D01*
X1140D01*
Y4515D01*
X1141Y4507D01*
X1146Y4501D01*
X1152Y4496D01*
X1160Y4495D01*
X1270D01*
X1278Y4496D01*
X1284Y4501D01*
X1289Y4507D01*
X1290Y4515D01*
Y4685D01*
X1289Y4693D01*
X1284Y4699D01*
X1278Y4704D01*
X1270Y4705D01*
X1266D01*
Y4744D01*
X1321Y4799D01*
X1879D01*
X1924Y4754D01*
Y4650D01*
X1928Y4630D01*
X1939Y4614D01*
X1989Y4564D01*
X2005Y4553D01*
X2025Y4549D01*
X2126D01*
X2128Y4546D01*
X2135Y4541D01*
X2142Y4540D01*
X2208D01*
X2215Y4541D01*
X2222Y4546D01*
X2226Y4552D01*
X2228Y4560D01*
Y4640D01*
X2226Y4648D01*
X2222Y4654D01*
X2215Y4659D01*
X2208Y4660D01*
X2142D01*
X2135Y4659D01*
X2128Y4654D01*
X2126Y4651D01*
X2046D01*
X2026Y4671D01*
Y4775D01*
X2024Y4786D01*
X2033Y4799D01*
X5179D01*
X5249Y4729D01*
Y4656D01*
X5232Y4643D01*
X5217Y4623D01*
X5207Y4600D01*
X5204Y4575D01*
X5207Y4550D01*
X5217Y4527D01*
X5232Y4507D01*
X5252Y4492D01*
X5275Y4482D01*
X5300Y4479D01*
X5325Y4482D01*
X5348Y4492D01*
X5368Y4507D01*
X5383Y4527D01*
X5393Y4550D01*
X5396Y4575D01*
X5393Y4600D01*
X5383Y4623D01*
X5368Y4643D01*
X5351Y4656D01*
Y4729D01*
X5421Y4799D01*
X6204D01*
X6324Y4679D01*
Y4648D01*
X6319Y4645D01*
X6299Y4630D01*
X6284Y4610D01*
X6274Y4587D01*
X6271Y4562D01*
X6274Y4538D01*
X6284Y4515D01*
X6299Y4495D01*
X6319Y4480D01*
X6342Y4470D01*
X6367Y4467D01*
X6391Y4470D01*
X6414Y4480D01*
X6434Y4495D01*
X6449Y4515D01*
X6459Y4538D01*
X6462Y4562D01*
X6459Y4587D01*
X6449Y4610D01*
X6434Y4630D01*
X6426Y4637D01*
Y4700D01*
X6422Y4720D01*
X6411Y4736D01*
X6261Y4886D01*
X6245Y4897D01*
X6225Y4901D01*
X5400D01*
X5380Y4897D01*
X5364Y4886D01*
X5300Y4822D01*
X5236Y4886D01*
X5220Y4897D01*
X5200Y4901D01*
D02*
G37*
G36*
X954Y4456D02*
X893D01*
Y4388D01*
X994D01*
Y4416D01*
X991Y4432D01*
X982Y4444D01*
X969Y4453D01*
X954Y4456D01*
D02*
G37*
G36*
X6100Y4550D02*
X6013D01*
X6015Y4536D01*
X6025Y4512D01*
X6041Y4491D01*
X6062Y4475D01*
X6086Y4465D01*
X6100Y4463D01*
Y4550D01*
D02*
G37*
G36*
X3542Y4660D02*
X3478D01*
X3470Y4659D01*
X3463Y4654D01*
X3459Y4648D01*
X3457Y4640D01*
Y4560D01*
X3459Y4552D01*
X3463Y4546D01*
X3467Y4543D01*
Y4399D01*
X3463Y4397D01*
X3459Y4390D01*
X3457Y4383D01*
Y4292D01*
X3459Y4285D01*
X3463Y4278D01*
X3470Y4274D01*
X3478Y4272D01*
X3547D01*
X3555Y4274D01*
X3562Y4278D01*
X3566Y4285D01*
X3568Y4292D01*
Y4383D01*
X3566Y4390D01*
X3562Y4397D01*
X3555Y4401D01*
X3553Y4402D01*
Y4543D01*
X3557Y4546D01*
X3561Y4552D01*
X3563Y4560D01*
Y4640D01*
X3561Y4648D01*
X3557Y4654D01*
X3550Y4659D01*
X3542Y4660D01*
D02*
G37*
G36*
X1256Y4344D02*
X1208D01*
Y4311D01*
X1210Y4301D01*
X1215Y4293D01*
X1224Y4287D01*
X1234Y4285D01*
X1256D01*
Y4344D01*
D02*
G37*
G36*
X2338Y4660D02*
X2273D01*
X2265Y4659D01*
X2258Y4654D01*
X2254Y4648D01*
X2252Y4640D01*
Y4560D01*
X2254Y4552D01*
X2254Y4552D01*
Y4393D01*
X2252Y4390D01*
X2251Y4383D01*
Y4292D01*
X2252Y4285D01*
X2257Y4278D01*
X2263Y4274D01*
X2271Y4272D01*
X2341D01*
X2349Y4274D01*
X2356Y4278D01*
X2360Y4285D01*
X2362Y4292D01*
Y4383D01*
X2360Y4390D01*
X2356Y4396D01*
Y4552D01*
X2356Y4552D01*
X2358Y4560D01*
Y4640D01*
X2356Y4648D01*
X2352Y4654D01*
X2345Y4659D01*
X2338Y4660D01*
D02*
G37*
G36*
X2867D02*
X2802D01*
X2795Y4659D01*
X2788Y4654D01*
X2784Y4648D01*
X2782Y4640D01*
Y4560D01*
X2784Y4552D01*
X2784Y4552D01*
Y4391D01*
X2784Y4390D01*
X2782Y4383D01*
Y4292D01*
X2784Y4285D01*
X2788Y4278D01*
X2795Y4274D01*
X2802Y4272D01*
X2873D01*
X2880Y4274D01*
X2887Y4278D01*
X2891Y4285D01*
X2893Y4292D01*
Y4383D01*
X2891Y4390D01*
X2887Y4397D01*
X2886Y4398D01*
Y4552D01*
X2886Y4552D01*
X2888Y4560D01*
Y4640D01*
X2886Y4648D01*
X2882Y4654D01*
X2875Y4659D01*
X2867Y4660D01*
D02*
G37*
G36*
X1330Y4344D02*
X1281D01*
Y4285D01*
X1304D01*
X1314Y4287D01*
X1322Y4293D01*
X1328Y4301D01*
X1330Y4311D01*
Y4344D01*
D02*
G37*
G36*
X2144Y4408D02*
X2121D01*
X2111Y4406D01*
X2103Y4401D01*
X2097Y4392D01*
X2095Y4383D01*
Y4350D01*
X2144D01*
Y4408D01*
D02*
G37*
G36*
X2191D02*
X2169D01*
Y4350D01*
X2217D01*
Y4383D01*
X2215Y4392D01*
X2210Y4401D01*
X2201Y4406D01*
X2191Y4408D01*
D02*
G37*
G36*
X867Y4362D02*
X766D01*
Y4334D01*
X769Y4318D01*
X778Y4306D01*
X791Y4297D01*
X806Y4294D01*
X867D01*
Y4362D01*
D02*
G37*
G36*
X994D02*
X893D01*
Y4294D01*
X954D01*
X969Y4297D01*
X982Y4306D01*
X991Y4318D01*
X994Y4334D01*
Y4362D01*
D02*
G37*
G36*
X5033Y4562D02*
X4946D01*
X4948Y4549D01*
X4958Y4524D01*
X4974Y4503D01*
X4995Y4487D01*
X5020Y4477D01*
X5033Y4475D01*
Y4562D01*
D02*
G37*
G36*
X5059Y4675D02*
Y4588D01*
X5146D01*
X5144Y4601D01*
X5134Y4626D01*
X5118Y4647D01*
X5097Y4663D01*
X5072Y4673D01*
X5059Y4675D01*
D02*
G37*
G36*
X1472Y4711D02*
X1430D01*
X1420Y4709D01*
X1412Y4703D01*
X1406Y4695D01*
X1404Y4685D01*
Y4613D01*
X1472D01*
Y4711D01*
D02*
G37*
G36*
X6125Y4662D02*
Y4575D01*
X6212D01*
X6210Y4589D01*
X6200Y4613D01*
X6184Y4634D01*
X6163Y4650D01*
X6139Y4660D01*
X6125Y4662D01*
D02*
G37*
G36*
X5033Y4675D02*
X5020Y4673D01*
X4995Y4663D01*
X4974Y4647D01*
X4958Y4626D01*
X4948Y4601D01*
X4946Y4588D01*
X5033D01*
Y4675D01*
D02*
G37*
G36*
X1540Y4711D02*
X1498D01*
Y4613D01*
X1566D01*
Y4685D01*
X1564Y4695D01*
X1558Y4703D01*
X1550Y4709D01*
X1540Y4711D01*
D02*
G37*
G36*
X3627Y4666D02*
X3608D01*
X3598Y4664D01*
X3589Y4658D01*
X3584Y4650D01*
X3582Y4640D01*
Y4613D01*
X3627D01*
Y4666D01*
D02*
G37*
G36*
X3672D02*
X3653D01*
Y4613D01*
X3698D01*
Y4640D01*
X3696Y4650D01*
X3691Y4658D01*
X3682Y4664D01*
X3672Y4666D01*
D02*
G37*
G36*
X2952D02*
X2933D01*
X2923Y4664D01*
X2914Y4658D01*
X2909Y4650D01*
X2907Y4640D01*
Y4613D01*
X2952D01*
Y4666D01*
D02*
G37*
G36*
X2998D02*
X2978D01*
Y4613D01*
X3023D01*
Y4640D01*
X3021Y4650D01*
X3016Y4658D01*
X3007Y4664D01*
X2998Y4666D01*
D02*
G37*
G36*
X1472Y4587D02*
X1404D01*
Y4515D01*
X1406Y4505D01*
X1412Y4497D01*
X1420Y4491D01*
X1430Y4489D01*
X1472D01*
Y4587D01*
D02*
G37*
G36*
X1566D02*
X1498D01*
Y4489D01*
X1540D01*
X1550Y4491D01*
X1558Y4497D01*
X1564Y4505D01*
X1566Y4515D01*
Y4587D01*
D02*
G37*
G36*
X5146Y4562D02*
X5059D01*
Y4475D01*
X5072Y4477D01*
X5097Y4487D01*
X5118Y4503D01*
X5134Y4524D01*
X5144Y4549D01*
X5146Y4562D01*
D02*
G37*
G36*
X4538Y4671D02*
X4513Y4668D01*
X4490Y4658D01*
X4470Y4643D01*
X4455Y4623D01*
X4445Y4600D01*
X4442Y4575D01*
X4445Y4550D01*
X4455Y4527D01*
X4470Y4507D01*
X4490Y4492D01*
X4513Y4482D01*
X4538Y4479D01*
X4563Y4482D01*
X4586Y4492D01*
X4606Y4507D01*
X4621Y4527D01*
X4631Y4550D01*
X4634Y4575D01*
X4631Y4600D01*
X4621Y4623D01*
X4606Y4643D01*
X4586Y4658D01*
X4563Y4668D01*
X4538Y4671D01*
D02*
G37*
G36*
X2952Y4587D02*
X2907D01*
Y4560D01*
X2909Y4550D01*
X2914Y4542D01*
X2923Y4536D01*
X2933Y4534D01*
X2952D01*
Y4587D01*
D02*
G37*
G36*
X3698D02*
X3653D01*
Y4534D01*
X3672D01*
X3682Y4536D01*
X3691Y4542D01*
X3696Y4550D01*
X3698Y4560D01*
Y4587D01*
D02*
G37*
G36*
X6100Y4662D02*
X6086Y4660D01*
X6062Y4650D01*
X6041Y4634D01*
X6025Y4613D01*
X6015Y4589D01*
X6013Y4575D01*
X6100D01*
Y4662D01*
D02*
G37*
G36*
X3023Y4587D02*
X2978D01*
Y4534D01*
X2998D01*
X3007Y4536D01*
X3016Y4542D01*
X3021Y4550D01*
X3023Y4560D01*
Y4587D01*
D02*
G37*
G36*
X3627D02*
X3582D01*
Y4560D01*
X3584Y4550D01*
X3589Y4542D01*
X3598Y4536D01*
X3608Y4534D01*
X3627D01*
Y4587D01*
D02*
G37*
G36*
X2217Y4325D02*
X2169D01*
Y4267D01*
X2191D01*
X2201Y4269D01*
X2210Y4274D01*
X2215Y4283D01*
X2217Y4292D01*
Y4325D01*
D02*
G37*
G36*
X5612Y3821D02*
X5540D01*
X5530Y3819D01*
X5522Y3813D01*
X5516Y3805D01*
X5514Y3795D01*
Y3753D01*
X5612D01*
Y3821D01*
D02*
G37*
G36*
X5710D02*
X5638D01*
Y3753D01*
X5736D01*
Y3795D01*
X5734Y3805D01*
X5728Y3813D01*
X5720Y3819D01*
X5710Y3821D01*
D02*
G37*
G36*
X262Y3747D02*
X164D01*
Y3705D01*
X166Y3695D01*
X172Y3687D01*
X180Y3681D01*
X190Y3679D01*
X262D01*
Y3747D01*
D02*
G37*
G36*
X386D02*
X288D01*
Y3679D01*
X360D01*
X370Y3681D01*
X378Y3687D01*
X384Y3695D01*
X386Y3705D01*
Y3747D01*
D02*
G37*
G36*
X4416Y3856D02*
X4348D01*
Y3784D01*
X4350Y3774D01*
X4355Y3765D01*
X4364Y3760D01*
X4374Y3758D01*
X4416D01*
Y3856D01*
D02*
G37*
G36*
X360Y3841D02*
X288D01*
Y3773D01*
X386D01*
Y3815D01*
X384Y3825D01*
X378Y3833D01*
X370Y3839D01*
X360Y3841D01*
D02*
G37*
G36*
X4416Y3980D02*
X4374D01*
X4364Y3978D01*
X4355Y3972D01*
X4350Y3964D01*
X4348Y3954D01*
Y3881D01*
X4416D01*
Y3980D01*
D02*
G37*
G36*
X4510Y3856D02*
X4441D01*
Y3758D01*
X4484D01*
X4494Y3760D01*
X4502Y3765D01*
X4508Y3774D01*
X4510Y3784D01*
Y3856D01*
D02*
G37*
G36*
X262Y3841D02*
X190D01*
X180Y3839D01*
X172Y3833D01*
X166Y3825D01*
X164Y3815D01*
Y3773D01*
X262D01*
Y3841D01*
D02*
G37*
G36*
X1060Y3221D02*
X1038D01*
Y3163D01*
X1086D01*
Y3195D01*
X1084Y3205D01*
X1078Y3213D01*
X1070Y3219D01*
X1060Y3221D01*
D02*
G37*
G36*
X2425Y3437D02*
X2350D01*
X2351Y3427D01*
X2360Y3405D01*
X2374Y3387D01*
X2393Y3372D01*
X2414Y3363D01*
X2425Y3362D01*
Y3437D01*
D02*
G37*
G36*
X725Y3441D02*
X705Y3437D01*
X689Y3426D01*
X678Y3410D01*
X674Y3390D01*
Y3218D01*
X678Y3198D01*
X689Y3182D01*
X728Y3143D01*
X692Y3108D01*
X681Y3091D01*
X678Y3072D01*
Y2993D01*
X668Y2986D01*
X660Y2975D01*
X658Y2962D01*
Y2827D01*
X660Y2815D01*
X668Y2804D01*
X678Y2797D01*
X691Y2794D01*
X766D01*
X779Y2797D01*
X789Y2804D01*
X797Y2815D01*
X799Y2827D01*
Y2962D01*
X797Y2975D01*
X789Y2986D01*
X779Y2993D01*
Y3050D01*
X814Y3085D01*
X826Y3091D01*
X832Y3086D01*
X840Y3085D01*
X910D01*
X918Y3086D01*
X924Y3091D01*
X929Y3097D01*
X930Y3105D01*
Y3195D01*
X929Y3203D01*
X924Y3209D01*
X918Y3214D01*
X910Y3215D01*
X840D01*
X832Y3214D01*
X826Y3209D01*
X825Y3208D01*
X810Y3205D01*
X793Y3222D01*
X796Y3237D01*
X802Y3241D01*
X808Y3251D01*
X811Y3262D01*
Y3342D01*
X808Y3354D01*
X802Y3364D01*
X792Y3371D01*
X780Y3373D01*
X776D01*
Y3390D01*
X772Y3410D01*
X761Y3426D01*
X745Y3437D01*
X725Y3441D01*
D02*
G37*
G36*
X1012Y3221D02*
X990D01*
X980Y3219D01*
X972Y3213D01*
X966Y3205D01*
X964Y3195D01*
Y3163D01*
X1012D01*
Y3221D01*
D02*
G37*
G36*
X2525Y3437D02*
X2450D01*
Y3362D01*
X2461Y3363D01*
X2482Y3372D01*
X2501Y3387D01*
X2515Y3405D01*
X2524Y3427D01*
X2525Y3437D01*
D02*
G37*
G36*
X5612Y3727D02*
X5514D01*
Y3685D01*
X5516Y3675D01*
X5522Y3667D01*
X5530Y3661D01*
X5540Y3659D01*
X5612D01*
Y3727D01*
D02*
G37*
G36*
X5736D02*
X5638D01*
Y3659D01*
X5710D01*
X5720Y3661D01*
X5728Y3667D01*
X5734Y3675D01*
X5736Y3685D01*
Y3727D01*
D02*
G37*
G36*
X2425Y3538D02*
X2414Y3537D01*
X2393Y3528D01*
X2374Y3513D01*
X2360Y3495D01*
X2351Y3473D01*
X2350Y3463D01*
X2425D01*
Y3538D01*
D02*
G37*
G36*
X2450D02*
Y3463D01*
X2525D01*
X2524Y3473D01*
X2515Y3495D01*
X2501Y3513D01*
X2482Y3528D01*
X2461Y3537D01*
X2450Y3538D01*
D02*
G37*
G36*
X4484Y3980D02*
X4441D01*
Y3881D01*
X4510D01*
Y3954D01*
X4508Y3964D01*
X4502Y3972D01*
X4494Y3978D01*
X4484Y3980D01*
D02*
G37*
G36*
X4404Y4215D02*
X4381D01*
Y4156D01*
X4430D01*
Y4189D01*
X4428Y4199D01*
X4422Y4207D01*
X4414Y4213D01*
X4404Y4215D01*
D02*
G37*
G36*
X207Y4362D02*
X106D01*
Y4222D01*
X110Y4203D01*
X120Y4188D01*
X136Y4177D01*
X154Y4174D01*
X207D01*
Y4362D01*
D02*
G37*
G36*
X6369Y4333D02*
X6344Y4330D01*
X6321Y4320D01*
X6301Y4305D01*
X6286Y4285D01*
X6276Y4262D01*
X6273Y4238D01*
X6276Y4213D01*
X6286Y4190D01*
X6301Y4170D01*
X6321Y4155D01*
X6344Y4145D01*
X6369Y4142D01*
X6394Y4145D01*
X6417Y4155D01*
X6437Y4170D01*
X6452Y4190D01*
X6461Y4213D01*
X6465Y4238D01*
X6461Y4262D01*
X6452Y4285D01*
X6437Y4305D01*
X6417Y4320D01*
X6394Y4330D01*
X6369Y4333D01*
D02*
G37*
G36*
X4356Y4215D02*
X4334D01*
X4324Y4213D01*
X4315Y4207D01*
X4310Y4199D01*
X4308Y4189D01*
Y4156D01*
X4356D01*
Y4215D01*
D02*
G37*
G36*
X334Y4362D02*
X233D01*
Y4174D01*
X286D01*
X304Y4177D01*
X320Y4188D01*
X330Y4203D01*
X334Y4222D01*
Y4362D01*
D02*
G37*
G36*
X6127Y4337D02*
Y4250D01*
X6214D01*
X6213Y4264D01*
X6202Y4288D01*
X6186Y4309D01*
X6165Y4325D01*
X6141Y4335D01*
X6127Y4337D01*
D02*
G37*
G36*
X2144Y4325D02*
X2095D01*
Y4292D01*
X2097Y4283D01*
X2103Y4274D01*
X2111Y4269D01*
X2121Y4267D01*
X2144D01*
Y4325D01*
D02*
G37*
G36*
X5788Y4397D02*
X5766Y4394D01*
X5745Y4385D01*
X5728Y4372D01*
X5715Y4355D01*
X5706Y4334D01*
X5703Y4312D01*
X5705Y4302D01*
X5589Y4186D01*
X5578Y4170D01*
X5574Y4150D01*
Y4085D01*
X5540D01*
X5532Y4084D01*
X5526Y4079D01*
X5521Y4073D01*
X5520Y4065D01*
Y3955D01*
X5521Y3947D01*
X5526Y3941D01*
X5532Y3936D01*
X5540Y3935D01*
X5710D01*
X5718Y3936D01*
X5724Y3941D01*
X5729Y3947D01*
X5730Y3955D01*
Y4065D01*
X5729Y4073D01*
X5724Y4079D01*
X5718Y4084D01*
X5710Y4085D01*
X5676D01*
Y4129D01*
X5777Y4230D01*
X5788Y4228D01*
X5809Y4231D01*
X5830Y4240D01*
X5847Y4253D01*
X5860Y4270D01*
X5869Y4291D01*
X5872Y4312D01*
X5869Y4334D01*
X5860Y4355D01*
X5847Y4372D01*
X5830Y4385D01*
X5809Y4394D01*
X5788Y4397D01*
D02*
G37*
G36*
X6102Y4337D02*
X6089Y4335D01*
X6064Y4325D01*
X6043Y4309D01*
X6027Y4288D01*
X6017Y4264D01*
X6015Y4250D01*
X6102D01*
Y4337D01*
D02*
G37*
G36*
X5287Y4091D02*
X5215D01*
X5205Y4089D01*
X5197Y4083D01*
X5191Y4075D01*
X5189Y4065D01*
Y4023D01*
X5287D01*
Y4091D01*
D02*
G37*
G36*
X5385D02*
X5313D01*
Y4023D01*
X5411D01*
Y4065D01*
X5409Y4075D01*
X5403Y4083D01*
X5395Y4089D01*
X5385Y4091D01*
D02*
G37*
G36*
X5287Y3997D02*
X5189D01*
Y3955D01*
X5191Y3945D01*
X5197Y3937D01*
X5205Y3931D01*
X5215Y3929D01*
X5287D01*
Y3997D01*
D02*
G37*
G36*
X5411D02*
X5313D01*
Y3929D01*
X5385D01*
X5395Y3931D01*
X5403Y3937D01*
X5409Y3945D01*
X5411Y3955D01*
Y3997D01*
D02*
G37*
G36*
X4356Y4131D02*
X4308D01*
Y4099D01*
X4310Y4089D01*
X4315Y4080D01*
X4324Y4075D01*
X4334Y4073D01*
X4356D01*
Y4131D01*
D02*
G37*
G36*
X6102Y4225D02*
X6015D01*
X6017Y4211D01*
X6027Y4187D01*
X6043Y4166D01*
X6064Y4150D01*
X6089Y4140D01*
X6102Y4138D01*
Y4225D01*
D02*
G37*
G36*
X6214D02*
X6127D01*
Y4138D01*
X6141Y4140D01*
X6165Y4150D01*
X6186Y4166D01*
X6202Y4187D01*
X6213Y4211D01*
X6214Y4225D01*
D02*
G37*
G36*
X4430Y4131D02*
X4381D01*
Y4073D01*
X4404D01*
X4414Y4075D01*
X4422Y4080D01*
X4428Y4089D01*
X4430Y4099D01*
Y4131D01*
D02*
G37*
G36*
X954Y4221D02*
X806D01*
X793Y4218D01*
X782Y4211D01*
X774Y4199D01*
X772Y4186D01*
Y4104D01*
X774Y4091D01*
X782Y4079D01*
X793Y4072D01*
X806Y4069D01*
X849D01*
Y3821D01*
X839Y3811D01*
X560D01*
X540Y3807D01*
X524Y3796D01*
X464Y3736D01*
X453Y3720D01*
X449Y3700D01*
Y3571D01*
X419Y3541D01*
X380D01*
Y3545D01*
X379Y3553D01*
X374Y3559D01*
X368Y3564D01*
X360Y3565D01*
X190D01*
X182Y3564D01*
X176Y3559D01*
X171Y3553D01*
X170Y3545D01*
Y3435D01*
X171Y3427D01*
X176Y3421D01*
X182Y3416D01*
X190Y3415D01*
X224D01*
Y3373D01*
X201Y3366D01*
X170Y3349D01*
X142Y3326D01*
X119Y3298D01*
X102Y3267D01*
X92Y3232D01*
X88Y3197D01*
Y2962D01*
X92Y2927D01*
X102Y2892D01*
X119Y2861D01*
X142Y2833D01*
X170Y2810D01*
X201Y2793D01*
X236Y2783D01*
X271Y2779D01*
X307Y2783D01*
X342Y2793D01*
X373Y2810D01*
X401Y2833D01*
X424Y2861D01*
X441Y2892D01*
X451Y2927D01*
X455Y2962D01*
Y3197D01*
X451Y3232D01*
X441Y3267D01*
X424Y3298D01*
X401Y3326D01*
X373Y3349D01*
X342Y3366D01*
X326Y3371D01*
Y3415D01*
X360D01*
X368Y3416D01*
X374Y3421D01*
X379Y3427D01*
X380Y3435D01*
Y3439D01*
X440D01*
X460Y3443D01*
X476Y3454D01*
X536Y3514D01*
X547Y3530D01*
X551Y3550D01*
Y3679D01*
X581Y3709D01*
X689D01*
Y3633D01*
X692Y3621D01*
X698Y3611D01*
X708Y3604D01*
X720Y3602D01*
X780D01*
X792Y3604D01*
X802Y3611D01*
X808Y3621D01*
X808Y3622D01*
X1313D01*
X1699Y3235D01*
Y2716D01*
X1690Y2710D01*
X1677Y2692D01*
X1669Y2672D01*
X1666Y2650D01*
X1669Y2628D01*
X1677Y2608D01*
X1690Y2590D01*
X1708Y2577D01*
X1728Y2569D01*
X1750Y2566D01*
X1772Y2569D01*
X1792Y2577D01*
X1810Y2590D01*
X1823Y2608D01*
X1831Y2628D01*
X1834Y2650D01*
X1831Y2672D01*
X1823Y2692D01*
X1810Y2710D01*
X1801Y2716D01*
Y3256D01*
X1797Y3276D01*
X1786Y3292D01*
X1370Y3709D01*
X1353Y3720D01*
X1334Y3723D01*
X914D01*
X908Y3736D01*
X936Y3764D01*
X947Y3780D01*
X951Y3800D01*
Y4069D01*
X954D01*
X967Y4072D01*
X978Y4079D01*
X986Y4091D01*
X986Y4094D01*
X1221D01*
X1221Y4091D01*
X1226Y4084D01*
X1232Y4080D01*
X1240Y4078D01*
X1310D01*
X1318Y4080D01*
X1324Y4084D01*
X1329Y4091D01*
X1330Y4099D01*
Y4189D01*
X1329Y4197D01*
X1324Y4203D01*
X1318Y4208D01*
X1310Y4209D01*
X1240D01*
X1232Y4208D01*
X1226Y4203D01*
X1221Y4197D01*
X1221Y4196D01*
X986D01*
X986Y4199D01*
X978Y4211D01*
X967Y4218D01*
X954Y4221D01*
D02*
G37*
%LPD*%
D10*
X6500Y1065D02*
D03*
Y1984D02*
D03*
D11*
X5625Y4010D02*
D03*
Y3740D02*
D03*
X5300Y4010D02*
D03*
Y3740D02*
D03*
X1025Y1290D02*
D03*
Y1560D02*
D03*
X275Y3760D02*
D03*
Y3490D02*
D03*
D12*
X3405Y1767D02*
D03*
Y1702D02*
D03*
Y1638D02*
D03*
Y1573D02*
D03*
Y1507D02*
D03*
Y1443D02*
D03*
Y1377D02*
D03*
Y1312D02*
D03*
Y1248D02*
D03*
Y1182D02*
D03*
X4095Y1767D02*
D03*
Y1702D02*
D03*
Y1638D02*
D03*
Y1573D02*
D03*
Y1507D02*
D03*
Y1443D02*
D03*
Y1377D02*
D03*
Y1312D02*
D03*
Y1248D02*
D03*
Y1182D02*
D03*
D13*
X2156Y4338D02*
D03*
X2306D02*
D03*
X5175Y1075D02*
D03*
X5325D02*
D03*
X2238Y956D02*
D03*
X2388D02*
D03*
X4369Y4144D02*
D03*
X4219D02*
D03*
X3512Y4338D02*
D03*
X3662D02*
D03*
X2838D02*
D03*
X2988D02*
D03*
X1425Y4144D02*
D03*
X1275D02*
D03*
X1269Y4356D02*
D03*
X1419D02*
D03*
X1025Y3150D02*
D03*
X875D02*
D03*
D14*
X5900Y1075D02*
D03*
Y1225D02*
D03*
X1281Y1388D02*
D03*
Y1538D02*
D03*
X1469Y1388D02*
D03*
Y1538D02*
D03*
X1250Y2069D02*
D03*
Y2219D02*
D03*
X5625Y2056D02*
D03*
Y2206D02*
D03*
X5788Y2150D02*
D03*
Y2300D02*
D03*
X4050Y2088D02*
D03*
Y2238D02*
D03*
X4250Y2088D02*
D03*
Y2238D02*
D03*
X2556Y2106D02*
D03*
Y2256D02*
D03*
D15*
X2965Y4600D02*
D03*
X2835D02*
D03*
X3510D02*
D03*
X3640D02*
D03*
X2175D02*
D03*
X2305D02*
D03*
D16*
X1215D02*
D03*
X1485D02*
D03*
X1471Y1150D02*
D03*
X1741D02*
D03*
X3008Y956D02*
D03*
X2738D02*
D03*
X4429Y3869D02*
D03*
X4159D02*
D03*
D17*
X750Y3672D02*
D03*
Y3303D02*
D03*
D18*
X220Y4375D02*
D03*
D19*
X880Y4605D02*
D03*
Y4375D02*
D03*
D20*
Y4145D02*
D03*
D21*
X500Y2155D02*
D03*
D22*
X271Y2895D02*
D03*
X728Y2895D02*
D03*
D23*
X3262Y81D02*
X3538D01*
X1988D02*
X3262D01*
X3538D02*
X3619Y162D01*
X3262Y81D02*
X3450Y269D01*
X1831Y238D02*
X1988Y81D01*
X4250Y2088D02*
X4381Y1956D01*
X4706D01*
X5038Y1781D02*
Y3256D01*
X5200Y2006D02*
X5275D01*
X4792Y3502D02*
X5038Y3256D01*
X5275Y2006D02*
X5325Y2056D01*
X4095Y1638D02*
X5281D01*
X4095Y1573D02*
X5416D01*
X4095Y1507D02*
X5539D01*
X5281Y1638D02*
X5331Y1688D01*
X5416Y1573D02*
X5469Y1625D01*
X5539Y1507D02*
X5662Y1631D01*
X4095Y1767D02*
X4280D01*
X4095Y1702D02*
X4371D01*
X4100Y656D02*
X4105Y651D01*
Y220D02*
Y651D01*
Y220D02*
X4236Y89D01*
X2581Y2100D02*
X3762D01*
X3846Y1436D02*
Y2017D01*
X3762Y2100D02*
X3846Y2017D01*
X2356Y2688D02*
X2488Y2819D01*
X2356Y2050D02*
Y2688D01*
Y2050D02*
X2469Y1938D01*
X3712D01*
X2883Y1833D02*
X3514D01*
X2646Y1596D02*
X2883Y1833D01*
X2379Y1596D02*
X2646D01*
X3750Y2344D02*
Y3875D01*
X3312Y4312D02*
X3750Y3875D01*
X5788Y1975D02*
Y2150D01*
X5662Y1850D02*
X5788Y1975D01*
X3846Y1436D02*
X3969Y1312D01*
X3919Y1469D02*
X3945Y1443D01*
X3919Y1469D02*
Y1985D01*
X3945Y1443D02*
X4025D01*
X3919Y1985D02*
X4021Y2088D01*
X3969Y1312D02*
X4095D01*
X2144Y2006D02*
X2419Y1731D01*
X2069Y1906D02*
X2379Y1596D01*
X2465Y1531D02*
X2503Y1494D01*
X2175Y1531D02*
X2465D01*
X2079Y1435D02*
X2175Y1531D01*
X2503Y1494D02*
X3037D01*
X2069Y1906D02*
Y3656D01*
X2506Y1050D02*
X2597Y959D01*
X3062Y1712D02*
X3117Y1767D01*
X3168Y1625D02*
X3246Y1702D01*
X3168Y1625D02*
Y1625D01*
X3037Y1494D02*
X3168Y1625D01*
X3241Y1573D02*
X3405D01*
X3246Y1702D02*
X3405D01*
X2144Y2006D02*
Y3956D01*
X3117Y1767D02*
X3405D01*
X3514Y1833D02*
X3553Y1794D01*
X3525Y1638D02*
X3553Y1665D01*
Y1794D01*
X3450Y269D02*
Y812D01*
X3619Y162D02*
X3788D01*
X6356Y112D02*
X6675Y431D01*
X5406Y112D02*
X6356D01*
X5256Y262D02*
X5406Y112D01*
X1855Y1026D02*
X2000Y881D01*
Y619D02*
Y881D01*
Y619D02*
X2131Y487D01*
X1741Y1021D02*
X1919Y844D01*
Y362D02*
Y844D01*
Y362D02*
X2031Y250D01*
X1756Y894D02*
X1831Y819D01*
Y238D02*
Y819D01*
X3094Y1169D02*
Y1275D01*
Y1169D02*
X3450Y812D01*
X1581Y4144D02*
X2069Y3656D01*
X1750Y4350D02*
X2144Y3956D01*
X2131Y487D02*
X2362D01*
X1855Y1026D02*
Y1445D01*
X1606Y1694D02*
X1855Y1445D01*
X1606Y1694D02*
Y1800D01*
X3731Y1662D02*
Y1762D01*
X3576Y1507D02*
X3731Y1662D01*
X3405Y1507D02*
X3576D01*
X4280Y1767D02*
X4328Y1816D01*
X4021Y2088D02*
X4050D01*
X3405Y1702D02*
X3405Y1702D01*
Y1638D02*
X3525D01*
X3196Y1377D02*
X3405D01*
X3949Y1248D02*
X4095D01*
X3601Y1443D02*
X3602Y1442D01*
X3405Y1443D02*
X3601D01*
X4750Y2625D02*
Y3306D01*
X4267Y1182D02*
X4375Y1075D01*
X4297Y1377D02*
X4450Y1225D01*
X1274Y4145D02*
X1275Y4144D01*
X4375Y1075D02*
X5175D01*
X1050Y2494D02*
Y2625D01*
Y2494D02*
X1119Y2425D01*
X1212D01*
X1250Y2388D01*
Y2219D02*
Y2388D01*
X3510Y4340D02*
Y4600D01*
Y4340D02*
X3512Y4338D01*
X3662D02*
X3725D01*
X4792Y3502D02*
Y4575D01*
X5469Y1625D02*
Y1731D01*
X5331Y1688D02*
Y1862D01*
X5375Y1906D01*
X5475D01*
X2835Y4340D02*
X2838Y4338D01*
X1281Y1012D02*
Y1375D01*
X5419Y1225D02*
X5900D01*
X5366Y1278D02*
Y1375D01*
X5312Y1225D02*
X5366Y1278D01*
X4450Y1225D02*
X5312D01*
X5366Y1278D02*
X5419Y1225D01*
X5619Y2212D02*
X5625Y2206D01*
X5325Y2056D02*
X5625D01*
X1281Y1012D02*
X1400Y894D01*
X2305Y4339D02*
X2306Y4338D01*
X1419Y4150D02*
Y4356D01*
Y4150D02*
X1425Y4144D01*
X1741Y1021D02*
Y1106D01*
X1275Y2062D02*
X1344D01*
X1275D02*
X1281Y2069D01*
X1250D02*
X1281D01*
X1400Y894D02*
X1756D01*
X1344Y2062D02*
X1606Y1800D01*
X4095Y1248D02*
X4095Y1248D01*
X5662Y1631D02*
Y1850D01*
X4506Y3550D02*
X4750Y3306D01*
X4306Y3550D02*
X4506D01*
X4159Y3697D02*
X4306Y3550D01*
X4159Y3697D02*
Y3869D01*
Y4015D01*
X4219Y4075D01*
Y4144D01*
X3388Y4731D02*
X3788D01*
X3312Y4656D02*
X3388Y4731D01*
X3312Y4312D02*
Y4656D01*
X4095Y1182D02*
X4267D01*
X4095Y1377D02*
X4297D01*
X3788Y4731D02*
X4219Y4300D01*
Y4144D02*
Y4300D01*
X1425Y4144D02*
X1581D01*
X2988Y3806D02*
Y4338D01*
X2719Y2925D02*
Y3538D01*
X2988Y3806D01*
X2488Y2819D02*
X2612D01*
X2719Y2925D01*
X3094Y1275D02*
X3196Y1377D01*
X2031Y250D02*
X2244D01*
X3405Y1248D02*
X3405Y1248D01*
X3514D01*
X3574Y1188D02*
X3700D01*
X3514Y1248D02*
X3574Y1188D01*
X3812Y506D02*
Y1075D01*
X3700Y1188D02*
X3812Y1075D01*
X5231Y288D02*
Y388D01*
X4236Y89D02*
X5039D01*
X5234Y284D01*
X5231Y288D02*
X5234Y284D01*
X5256Y262D01*
X2381Y956D02*
X2738D01*
X4250Y2275D02*
X4269Y2294D01*
Y2800D01*
X4231Y2838D02*
X4269Y2800D01*
X3405Y1312D02*
X3712D01*
X3602Y1442D02*
X3740D01*
X4162Y1925D02*
X4219D01*
X4328Y1816D01*
X4450Y1781D02*
X4538D01*
X4371Y1702D02*
X4450Y1781D01*
X3725Y4338D02*
X3881Y4181D01*
Y2325D02*
Y4181D01*
D24*
X3638Y350D02*
X3862D01*
X3631Y344D02*
X3638Y350D01*
X2550Y2625D02*
X2556Y2619D01*
Y2256D02*
Y2619D01*
X3919Y629D02*
X4019Y529D01*
Y402D02*
Y529D01*
X3967Y350D02*
X4019Y402D01*
X5738Y2300D02*
X5788D01*
X5550Y2488D02*
X5738Y2300D01*
X5550Y2488D02*
Y2625D01*
X6119Y1750D02*
X6625D01*
X6694Y1819D01*
Y3688D01*
X2231Y1419D02*
X2475D01*
X2519Y1375D01*
X2475Y1081D02*
X2506Y1050D01*
X2475Y1081D02*
Y1331D01*
X2519Y1375D01*
X3219Y1573D02*
X3241D01*
X3021Y1375D02*
X3219Y1573D01*
X2519Y1375D02*
X3021D01*
X2079Y926D02*
Y1435D01*
Y926D02*
X2403Y601D01*
X2409D01*
X2538Y331D02*
Y473D01*
X2409Y601D02*
X2538Y473D01*
X2456Y250D02*
X2538Y331D01*
X2244Y250D02*
X2456D01*
X5300Y3625D02*
Y3740D01*
Y3625D02*
X5350Y3575D01*
X6075D01*
X5300Y4750D02*
X5400Y4850D01*
X5300Y4575D02*
Y4750D01*
X5200Y4850D02*
X5300Y4750D01*
X1900Y4850D02*
X5200D01*
X1900D02*
X1975Y4775D01*
Y4650D02*
Y4775D01*
Y4650D02*
X2025Y4600D01*
X2175D01*
X1300Y4850D02*
X1900D01*
X1215Y4765D02*
X1300Y4850D01*
X1215Y4600D02*
Y4765D01*
X880Y4605D02*
X885Y4600D01*
X1215D01*
X868Y3143D02*
X875Y3150D01*
X800Y3143D02*
X868D01*
X725Y3218D02*
X800Y3143D01*
X728Y3072D02*
X800Y3143D01*
X728Y2895D02*
Y3072D01*
X880Y4145D02*
X900Y4125D01*
Y3800D02*
Y4125D01*
X860Y3760D02*
X900Y3800D01*
X560Y3760D02*
X860D01*
X500Y3700D02*
X560Y3760D01*
X500Y3550D02*
Y3700D01*
X440Y3490D02*
X500Y3550D01*
X275Y3490D02*
X440D01*
X271Y3222D02*
X275Y3225D01*
X271Y3197D02*
Y3222D01*
X275Y3225D02*
Y3450D01*
X6490Y1075D02*
X6500Y1065D01*
X5325Y1075D02*
X5900D01*
X5325Y1075D02*
X5325Y1075D01*
X5175Y919D02*
Y1075D01*
X880Y4145D02*
X1274D01*
X1050Y3400D02*
X1219D01*
X1450Y3169D01*
Y2625D02*
Y3169D01*
X4050Y3400D02*
X4388D01*
X5750Y2625D02*
Y2756D01*
X5688Y2819D02*
X5750Y2756D01*
X5450Y2819D02*
X5688D01*
X5375Y2744D02*
X5450Y2819D01*
X5900Y1075D02*
X6490D01*
X5400Y4850D02*
X6225D01*
X6375Y4700D01*
Y4571D02*
Y4700D01*
X6367Y4562D02*
X6375Y4571D01*
X6075Y3575D02*
X6319Y3819D01*
X6500D01*
X6623Y3942D02*
Y4238D01*
X6531Y3850D02*
X6694Y3688D01*
X6500Y3819D02*
X6531Y3850D01*
X6623Y3942D01*
X5625Y4010D02*
Y4150D01*
X5788Y4312D01*
X6621Y4562D02*
X6775D01*
X2835Y4340D02*
Y4600D01*
X5229Y2452D02*
X5319Y2362D01*
X5229Y2452D02*
Y3259D01*
X5419Y3200D02*
X5562D01*
X5838Y2925D01*
Y2838D02*
Y2925D01*
Y2838D02*
X5950Y2725D01*
Y2625D02*
Y2725D01*
X4919Y3569D02*
X5229Y3259D01*
X4919Y3569D02*
Y4188D01*
X5554Y4460D02*
Y4575D01*
X4919Y4188D02*
X5056Y4325D01*
X5419D01*
X5554Y4460D01*
X1250Y2625D02*
Y2725D01*
X1175Y2800D02*
X1250Y2725D01*
X925Y2800D02*
X1175D01*
X862Y2738D02*
X925Y2800D01*
X862Y2469D02*
Y2738D01*
Y2469D02*
X962Y2369D01*
Y1981D02*
Y2369D01*
Y1981D02*
X1062Y1881D01*
X1212D01*
X1281Y1812D01*
X5375Y2531D02*
Y2744D01*
X5625Y2206D02*
X5625Y2206D01*
X5375Y2531D02*
X5619Y2288D01*
Y2212D02*
Y2288D01*
X2875Y2625D02*
X2881Y2619D01*
X2875Y2625D02*
Y3438D01*
X2305Y4339D02*
Y4600D01*
X1281Y1538D02*
Y1812D01*
X1456Y1550D02*
Y1775D01*
Y1550D02*
X1469Y1538D01*
X1612D02*
X1741Y1409D01*
X1469Y1538D02*
X1469D01*
X1612D01*
X1741Y1106D02*
Y1150D01*
Y1409D01*
X6775Y4562D02*
X6856Y4481D01*
X6725Y1656D02*
X6856Y1788D01*
Y4481D01*
X5525Y438D02*
Y569D01*
X5175Y919D02*
X5525Y569D01*
X3919Y1217D02*
X3941Y1240D01*
X3949D01*
X3862Y350D02*
X3967D01*
X3919Y629D02*
Y1217D01*
X725Y3218D02*
Y3390D01*
X4044Y2244D02*
X4050Y2238D01*
X4044Y2244D02*
Y2283D01*
X4388Y3400D02*
X4575Y3212D01*
X4569Y3206D02*
X4575Y3212D01*
X4569Y2706D02*
Y3206D01*
X750Y3672D02*
X1334D01*
X1750Y3256D01*
Y2650D02*
Y3256D01*
X6006Y1862D02*
X6025D01*
X5825Y1794D02*
Y1825D01*
X5956Y1656D02*
X6725D01*
X4013Y2314D02*
X4044Y2283D01*
X4013Y2314D02*
Y2378D01*
X3994Y2398D02*
X4013Y2378D01*
X3994Y2398D02*
Y2706D01*
X4038Y2750D01*
X275Y3450D02*
X300Y3475D01*
X5806Y1806D02*
X5825Y1825D01*
X5806Y1806D02*
X5956Y1656D01*
X6006Y1862D02*
X6119Y1750D01*
D25*
X1025Y1560D02*
Y1675D01*
X975Y1725D02*
X1025Y1675D01*
X500Y1725D02*
X975D01*
D26*
X500D02*
Y2155D01*
Y1157D02*
Y1725D01*
D27*
X271Y2962D02*
Y3197D01*
D28*
X6623Y4238D02*
D03*
X6621Y4562D02*
D03*
X5554Y4575D02*
D03*
D29*
X6369Y4238D02*
D03*
X6115D02*
D03*
X6112Y4562D02*
D03*
X6367D02*
D03*
X4538Y4575D02*
D03*
X4792D02*
D03*
X5046D02*
D03*
X5300D02*
D03*
D30*
X500Y1157D02*
D03*
D31*
X512Y488D02*
D03*
X6000Y500D02*
D03*
X3000D02*
D03*
D32*
X4500D02*
D03*
X1500D02*
D03*
D33*
X4050Y2925D02*
D03*
X6000Y2925D02*
D03*
D34*
X3550D02*
D03*
X6500Y2925D02*
D03*
D35*
X5038Y1781D02*
D03*
X3631Y344D02*
D03*
X3812Y506D02*
D03*
X2438Y3450D02*
D03*
X2231Y1419D02*
D03*
X2300Y1244D02*
D03*
X3788Y162D02*
D03*
X3638Y631D02*
D03*
X4750Y2625D02*
D03*
X1050Y3400D02*
D03*
X4050D02*
D03*
X5950Y2625D02*
D03*
X1450D02*
D03*
X1050D02*
D03*
X2550D02*
D03*
X1250D02*
D03*
X5550D02*
D03*
X5750D02*
D03*
X5319Y2362D02*
D03*
X5788Y4312D02*
D03*
X5475Y1906D02*
D03*
X5469Y1731D02*
D03*
X5419Y3200D02*
D03*
X5366Y1375D02*
D03*
X2881Y2619D02*
D03*
X2875Y3438D02*
D03*
X1456Y1775D02*
D03*
X5525Y438D02*
D03*
X6675Y431D02*
D03*
X4569Y2706D02*
D03*
X4038Y2750D02*
D03*
X4112Y2531D02*
D03*
X4231Y2838D02*
D03*
X1750Y2650D02*
D03*
X6025Y1862D02*
D03*
X5825Y1794D02*
D03*
D36*
X5200Y2006D02*
D03*
X4706Y1956D02*
D03*
X4100Y656D02*
D03*
X2419Y1731D02*
D03*
X3062Y1712D02*
D03*
X2362Y487D02*
D03*
X3731Y1762D02*
D03*
X3712Y1938D02*
D03*
X1750Y4350D02*
D03*
X3750Y2344D02*
D03*
X5231Y388D02*
D03*
X3712Y1312D02*
D03*
X3740Y1442D02*
D03*
X4162Y1925D02*
D03*
X4538Y1781D02*
D03*
X3881Y2325D02*
D03*
D37*
X275Y3225D02*
D03*
%TF.MD5,e4b19411574b93628fc5d50ef3b234d5*%
M02*
