G04 Layer_Color=32768*
%FSLAX42Y42*%
%MOMM*%
%TF.FileFunction,Other,Mechanical_15*%
%TF.Part,Single*%
G01*
G75*
%TA.AperFunction,NonConductor*%
%ADD45C,0.20*%
%ADD71C,0.13*%
%ADD74C,0.10*%
%ADD75C,0.05*%
%TA.AperFunction,OtherPad,Pad Zener 10V-0 (7.5mm,34.875mm)*%
%ADD76C,0.51*%
%TA.AperFunction,OtherPad,Pad Regulador-0 (5.5mm,43.75mm)*%
%ADD77C,1.00*%
%TA.AperFunction,OtherPad,Pad IPD90P03P4L-04-0 (5mm,25.25mm)*%
%ADD78C,0.50*%
%TA.AperFunction,NonConductor*%
%ADD79C,0.08*%
D45*
X6436Y1525D02*
X6564D01*
X6500Y1461D02*
Y1589D01*
X6144Y903D02*
X6856D01*
Y2147D01*
X6144D02*
X6856D01*
X6144Y903D02*
Y2147D01*
D71*
X90Y3995D02*
X1010D01*
Y4755D01*
X90D02*
X1010D01*
X90Y3995D02*
Y4755D01*
D74*
X5530Y4075D02*
X5720D01*
X5530Y3675D02*
X5720D01*
Y4075D01*
X5530Y3675D02*
Y4075D01*
X5625Y3825D02*
Y3925D01*
X5575Y3875D02*
X5675D01*
X5205Y4075D02*
X5395D01*
X5205Y3675D02*
X5395D01*
Y4075D01*
X5205Y3675D02*
Y4075D01*
X5300Y3825D02*
Y3925D01*
X5250Y3875D02*
X5350D01*
X6225Y3305D02*
Y3495D01*
X5825Y3305D02*
Y3495D01*
X6225D01*
X5825Y3305D02*
X6225D01*
X5975Y3400D02*
X6075D01*
X6025Y3350D02*
Y3450D01*
X2345Y3120D02*
X2455D01*
X2345Y2880D02*
X2455D01*
X2345D02*
Y3120D01*
X2455Y2880D02*
Y3120D01*
X2400Y2952D02*
Y3048D01*
X2352Y3000D02*
X2448D01*
X2555Y3260D02*
X2745D01*
X2555Y2860D02*
X2745D01*
X2555D02*
Y3260D01*
X2745Y2860D02*
Y3260D01*
X2650Y3010D02*
Y3110D01*
X2600Y3060D02*
X2700D01*
X3750Y1425D02*
Y1525D01*
X3700Y1475D02*
X3800D01*
X2111Y4283D02*
Y4392D01*
X2351Y4283D02*
Y4392D01*
X2111D02*
X2351D01*
X2111Y4283D02*
X2351D01*
X2184Y4338D02*
X2279D01*
X2231Y4290D02*
Y4385D01*
X5845Y1030D02*
X5955D01*
X5845Y1270D02*
X5955D01*
X5845Y1030D02*
Y1270D01*
X5955Y1030D02*
Y1270D01*
X5900Y1102D02*
Y1198D01*
X5853Y1150D02*
X5947D01*
X5130Y1020D02*
Y1130D01*
X5370Y1020D02*
Y1130D01*
X5130D02*
X5370D01*
X5130Y1020D02*
X5370D01*
X5203Y1075D02*
X5297D01*
X5250Y1027D02*
Y1123D01*
X1150Y4505D02*
Y4695D01*
X1550Y4505D02*
Y4695D01*
X1150D02*
X1550D01*
X1150Y4505D02*
X1550D01*
X1300Y4600D02*
X1400D01*
X1350Y4550D02*
Y4650D01*
X2114Y361D02*
X2224D01*
X2114Y601D02*
X2224D01*
Y361D02*
Y601D01*
X2114Y361D02*
Y601D01*
X2169Y434D02*
Y529D01*
X2121Y481D02*
X2216D01*
X1226Y1343D02*
X1336D01*
X1226Y1582D02*
X1336D01*
X1226Y1343D02*
Y1582D01*
X1336Y1343D02*
Y1582D01*
X1281Y1415D02*
Y1510D01*
X1234Y1462D02*
X1329D01*
X930Y1225D02*
X1120D01*
X930Y1625D02*
X1120D01*
X930Y1225D02*
Y1625D01*
X1120Y1225D02*
Y1625D01*
X1025Y1375D02*
Y1475D01*
X975Y1425D02*
X1075D01*
X1414Y1343D02*
X1524D01*
X1414Y1582D02*
X1524D01*
X1414Y1343D02*
Y1582D01*
X1524Y1343D02*
Y1582D01*
X1469Y1415D02*
Y1510D01*
X1421Y1462D02*
X1516D01*
X1406Y1055D02*
Y1245D01*
X1806Y1055D02*
Y1245D01*
X1406D02*
X1806D01*
X1406Y1055D02*
X1806D01*
X1556Y1150D02*
X1656D01*
X1606Y1100D02*
Y1200D01*
X1195Y2024D02*
X1305D01*
X1195Y2264D02*
X1305D01*
X1195Y2024D02*
Y2264D01*
X1305Y2024D02*
Y2264D01*
X1250Y2096D02*
Y2191D01*
X1202Y2144D02*
X1298D01*
X3073Y861D02*
Y1051D01*
X2673Y861D02*
Y1051D01*
Y861D02*
X3073D01*
X2673Y1051D02*
X3073D01*
X2823Y956D02*
X2923D01*
X2873Y906D02*
Y1006D01*
X2192Y901D02*
Y1011D01*
X2433Y901D02*
Y1011D01*
X2192D02*
X2433D01*
X2192Y901D02*
X2433D01*
X2265Y956D02*
X2360D01*
X2312Y909D02*
Y1004D01*
X5570Y2011D02*
X5680D01*
X5570Y2251D02*
X5680D01*
X5570Y2011D02*
Y2251D01*
X5680Y2011D02*
Y2251D01*
X5625Y2084D02*
Y2179D01*
X5578Y2131D02*
X5672D01*
X5733Y2105D02*
X5842D01*
X5733Y2345D02*
X5842D01*
X5733Y2105D02*
Y2345D01*
X5842Y2105D02*
Y2345D01*
X5788Y2177D02*
Y2273D01*
X5740Y2225D02*
X5835D01*
X3995Y2042D02*
X4105D01*
X3995Y2283D02*
X4105D01*
X3995Y2042D02*
Y2283D01*
X4105Y2042D02*
Y2283D01*
X4050Y2115D02*
Y2210D01*
X4003Y2162D02*
X4097D01*
X4195Y2042D02*
X4305D01*
X4195Y2283D02*
X4305D01*
X4195Y2042D02*
Y2283D01*
X4305Y2042D02*
Y2283D01*
X4250Y2115D02*
Y2210D01*
X4203Y2162D02*
X4297D01*
X2501Y2061D02*
X2611D01*
X2501Y2301D02*
X2611D01*
X2501Y2061D02*
Y2301D01*
X2611Y2061D02*
Y2301D01*
X2556Y2134D02*
Y2229D01*
X2509Y2181D02*
X2604D01*
X4494Y3774D02*
Y3964D01*
X4094Y3774D02*
Y3964D01*
Y3774D02*
X4494D01*
X4094Y3964D02*
X4494D01*
X4244Y3869D02*
X4344D01*
X4294Y3819D02*
Y3919D01*
X4414Y4089D02*
Y4199D01*
X4174Y4089D02*
Y4199D01*
Y4089D02*
X4414D01*
X4174Y4199D02*
X4414D01*
X4246Y4144D02*
X4341D01*
X4294Y4096D02*
Y4191D01*
X3467Y4283D02*
Y4392D01*
X3708Y4283D02*
Y4392D01*
X3467D02*
X3708D01*
X3467Y4283D02*
X3708D01*
X3540Y4338D02*
X3635D01*
X3588Y4290D02*
Y4385D01*
X2792Y4283D02*
Y4392D01*
X3033Y4283D02*
Y4392D01*
X2792D02*
X3033D01*
X2792Y4283D02*
X3033D01*
X2865Y4338D02*
X2960D01*
X2912Y4290D02*
Y4385D01*
X1470Y4089D02*
Y4199D01*
X1230Y4089D02*
Y4199D01*
Y4089D02*
X1470D01*
X1230Y4199D02*
X1470D01*
X1302Y4144D02*
X1398D01*
X1350Y4096D02*
Y4191D01*
X1224Y4301D02*
Y4411D01*
X1464Y4301D02*
Y4411D01*
X1224D02*
X1464D01*
X1224Y4301D02*
X1464D01*
X1296Y4356D02*
X1391D01*
X1344Y4309D02*
Y4404D01*
X180Y3825D02*
X370D01*
X180Y3425D02*
X370D01*
Y3825D01*
X180Y3425D02*
Y3825D01*
X275Y3575D02*
Y3675D01*
X225Y3625D02*
X325D01*
X1070Y3095D02*
Y3205D01*
X830Y3095D02*
Y3205D01*
Y3095D02*
X1070D01*
X830Y3205D02*
X1070D01*
X902Y3150D02*
X998D01*
X950Y3102D02*
Y3198D01*
X5421Y86D02*
Y276D01*
X5021Y86D02*
Y276D01*
X5421D01*
X5021Y86D02*
X5421D01*
X5171Y181D02*
X5271D01*
X5221Y131D02*
Y231D01*
X5339Y507D02*
Y618D01*
X5099Y507D02*
Y618D01*
X5339D01*
X5099Y507D02*
X5339D01*
X5171Y562D02*
X5266D01*
X5219Y515D02*
Y610D01*
X1500Y1675D02*
Y1775D01*
X1450Y1725D02*
X1550D01*
X940Y2435D02*
X2060D01*
X940Y795D02*
Y2435D01*
Y795D02*
X2060D01*
Y2435D01*
X4500Y1675D02*
Y1775D01*
X4450Y1725D02*
X4550D01*
X3940Y2435D02*
X5060D01*
X3940Y795D02*
Y2435D01*
Y795D02*
X5060D01*
Y2435D01*
X6000Y1675D02*
Y1775D01*
X5950Y1725D02*
X6050D01*
X5440Y2435D02*
X6560D01*
X5440Y795D02*
Y2435D01*
Y795D02*
X6560D01*
Y2435D01*
X6975Y2530D02*
Y2720D01*
X6575Y2530D02*
Y2720D01*
X6975D01*
X6575Y2530D02*
X6975D01*
X6725Y2625D02*
X6825D01*
X6775Y2575D02*
Y2675D01*
X2450Y2480D02*
Y2670D01*
X2050Y2480D02*
Y2670D01*
X2450D01*
X2050Y2480D02*
X2450D01*
X2200Y2575D02*
X2300D01*
X2250Y2525D02*
Y2625D01*
X1550Y2830D02*
Y3020D01*
X1950Y2830D02*
Y3020D01*
X1550Y2830D02*
X1950D01*
X1550Y3020D02*
X1950D01*
X1700Y2925D02*
X1800D01*
X1750Y2875D02*
Y2975D01*
X1530Y3500D02*
X1720D01*
X1530Y3100D02*
X1720D01*
X1530D02*
Y3500D01*
X1720Y3100D02*
Y3500D01*
X1625Y3250D02*
Y3350D01*
X1575Y3300D02*
X1675D01*
X1105Y3260D02*
X1295D01*
X1105Y2860D02*
X1295D01*
X1105D02*
Y3260D01*
X1295Y2860D02*
Y3260D01*
X1200Y3010D02*
Y3110D01*
X1150Y3060D02*
X1250D01*
X870Y3120D02*
X980D01*
X870Y2880D02*
X980D01*
X870D02*
Y3120D01*
X980Y2880D02*
Y3120D01*
X925Y2952D02*
Y3048D01*
X877Y3000D02*
X973D01*
X3030Y3500D02*
X3220D01*
X3030Y3100D02*
X3220D01*
X3030D02*
Y3500D01*
X3220Y3100D02*
Y3500D01*
X3125Y3250D02*
Y3350D01*
X3075Y3300D02*
X3175D01*
X3050Y2830D02*
Y3020D01*
X3450Y2830D02*
Y3020D01*
X3050Y2830D02*
X3450D01*
X3050Y3020D02*
X3450D01*
X3200Y2925D02*
X3300D01*
X3250Y2875D02*
Y2975D01*
X3730Y3450D02*
X3920D01*
X3730Y3050D02*
X3920D01*
X3730D02*
Y3450D01*
X3920Y3050D02*
Y3450D01*
X3825Y3200D02*
Y3300D01*
X3775Y3250D02*
X3875D01*
X3950Y2530D02*
Y2720D01*
X3550Y2530D02*
Y2720D01*
X3950D01*
X3550Y2530D02*
X3950D01*
X3700Y2625D02*
X3800D01*
X3750Y2575D02*
Y2675D01*
X4395Y3045D02*
Y3155D01*
X4155Y3045D02*
Y3155D01*
X4395D01*
X4155Y3045D02*
X4395D01*
X4228Y3100D02*
X4322D01*
X4275Y3052D02*
Y3148D01*
X4550Y2805D02*
Y2995D01*
X4950Y2805D02*
Y2995D01*
X4550Y2805D02*
X4950D01*
X4550Y2995D02*
X4950D01*
X4700Y2900D02*
X4800D01*
X4750Y2850D02*
Y2950D01*
X4530Y3500D02*
X4720D01*
X4530Y3100D02*
X4720D01*
X4530D02*
Y3500D01*
X4720Y3100D02*
Y3500D01*
X4625Y3250D02*
Y3350D01*
X4575Y3300D02*
X4675D01*
X5450Y2530D02*
Y2720D01*
X5050Y2530D02*
Y2720D01*
X5450D01*
X5050Y2530D02*
X5450D01*
X5200Y2625D02*
X5300D01*
X5250Y2575D02*
Y2675D01*
X5370Y3070D02*
X5480D01*
X5370Y2830D02*
X5480D01*
X5370D02*
Y3070D01*
X5480Y2830D02*
Y3070D01*
X5425Y2902D02*
Y2998D01*
X5378Y2950D02*
X5472D01*
X6050Y3055D02*
Y3245D01*
X6450Y3055D02*
Y3245D01*
X6050Y3055D02*
X6450D01*
X6050Y3245D02*
X6450D01*
X6200Y3150D02*
X6300D01*
X6250Y3100D02*
Y3200D01*
X5605Y3225D02*
X5795D01*
X5605Y2825D02*
X5795D01*
X5605D02*
Y3225D01*
X5795Y2825D02*
Y3225D01*
X5700Y2975D02*
Y3075D01*
X5650Y3025D02*
X5750D01*
X3000Y1675D02*
Y1775D01*
X2950Y1725D02*
X3050D01*
X2440Y2435D02*
X3560D01*
X2440Y795D02*
Y2435D01*
Y795D02*
X3560D01*
Y2435D01*
D75*
X3275Y1875D02*
X4225D01*
X3275Y1075D02*
X4225D01*
X3275D02*
Y1875D01*
X4225Y1075D02*
Y1875D01*
D76*
X750Y3488D02*
D03*
D77*
X550Y4375D02*
D03*
D78*
X500Y2525D02*
D03*
D79*
X650Y3225D02*
X850D01*
Y3750D01*
X650D02*
X850D01*
X650Y3225D02*
Y3750D01*
X119Y1839D02*
X881D01*
X119D02*
Y3008D01*
X881D01*
Y1839D02*
Y3008D01*
%TF.MD5,e6771c19a8eb057cc930f266def8056a*%
M02*
