G04 Layer_Color=8421504*
%FSLAX42Y42*%
%MOMM*%
%TF.FileFunction,Paste,Top*%
%TF.Part,Single*%
G01*
G75*
%TA.AperFunction,SMDPad,CuDef*%
G04:AMPARAMS|DCode=10|XSize=1.6mm|YSize=2.19mm|CornerRadius=0.4mm|HoleSize=0mm|Usage=FLASHONLY|Rotation=0.000|XOffset=0mm|YOffset=0mm|HoleType=Round|Shape=RoundedRectangle|*
%AMROUNDEDRECTD10*
21,1,1.60,1.39,0,0,0.0*
21,1,0.80,2.19,0,0,0.0*
1,1,0.80,0.40,-0.69*
1,1,0.80,-0.40,-0.69*
1,1,0.80,-0.40,0.69*
1,1,0.80,0.40,0.69*
%
%ADD10ROUNDEDRECTD10*%
%ADD11R,1.70X1.10*%
%ADD12O,2.10X0.45*%
%ADD13R,0.70X0.90*%
%ADD14R,0.90X0.70*%
%ADD15R,0.65X0.80*%
%ADD16R,1.10X1.70*%
G04:AMPARAMS|DCode=17|XSize=0.8mm|YSize=1mm|CornerRadius=0.1mm|HoleSize=0mm|Usage=FLASHONLY|Rotation=180.000|XOffset=0mm|YOffset=0mm|HoleType=Round|Shape=RoundedRectangle|*
%AMROUNDEDRECTD17*
21,1,0.80,0.80,0,0,180.0*
21,1,0.60,1.00,0,0,180.0*
1,1,0.20,-0.30,0.40*
1,1,0.20,0.30,0.40*
1,1,0.20,0.30,-0.40*
1,1,0.20,-0.30,-0.40*
%
%ADD17ROUNDEDRECTD17*%
G04:AMPARAMS|DCode=18|XSize=3.5mm|YSize=1.75mm|CornerRadius=0.22mm|HoleSize=0mm|Usage=FLASHONLY|Rotation=90.000|XOffset=0mm|YOffset=0mm|HoleType=Round|Shape=RoundedRectangle|*
%AMROUNDEDRECTD18*
21,1,3.50,1.31,0,0,90.0*
21,1,3.06,1.75,0,0,90.0*
1,1,0.44,0.66,1.53*
1,1,0.44,0.66,-1.53*
1,1,0.44,-0.66,-1.53*
1,1,0.44,-0.66,1.53*
%
%ADD18ROUNDEDRECTD18*%
G04:AMPARAMS|DCode=19|XSize=1.1mm|YSize=1.75mm|CornerRadius=0.14mm|HoleSize=0mm|Usage=FLASHONLY|Rotation=90.000|XOffset=0mm|YOffset=0mm|HoleType=Round|Shape=RoundedRectangle|*
%AMROUNDEDRECTD19*
21,1,1.10,1.48,0,0,90.0*
21,1,0.82,1.75,0,0,90.0*
1,1,0.28,0.74,0.41*
1,1,0.28,0.74,-0.41*
1,1,0.28,-0.74,-0.41*
1,1,0.28,-0.74,0.41*
%
%ADD19ROUNDEDRECTD19*%
G04:AMPARAMS|DCode=20|XSize=1.1mm|YSize=1.75mm|CornerRadius=0.14mm|HoleSize=0mm|Usage=FLASHONLY|Rotation=90.000|XOffset=0mm|YOffset=0mm|HoleType=Round|Shape=RoundedRectangle|*
%AMROUNDEDRECTD20*
21,1,1.10,1.48,0,0,90.0*
21,1,0.82,1.75,0,0,90.0*
1,1,0.28,0.74,0.41*
1,1,0.28,0.74,-0.41*
1,1,0.28,-0.74,-0.41*
1,1,0.28,-0.74,0.41*
%
%ADD20ROUNDEDRECTD20*%
G04:AMPARAMS|DCode=21|XSize=5.5mm|YSize=5.7mm|CornerRadius=0.69mm|HoleSize=0mm|Usage=FLASHONLY|Rotation=180.000|XOffset=0mm|YOffset=0mm|HoleType=Round|Shape=RoundedRectangle|*
%AMROUNDEDRECTD21*
21,1,5.50,4.33,0,0,180.0*
21,1,4.13,5.70,0,0,180.0*
1,1,1.38,-2.06,2.16*
1,1,1.38,2.06,2.16*
1,1,1.38,2.06,-2.16*
1,1,1.38,-2.06,-2.16*
%
%ADD21ROUNDEDRECTD21*%
G04:AMPARAMS|DCode=22|XSize=1mm|YSize=1.6mm|CornerRadius=0.13mm|HoleSize=0mm|Usage=FLASHONLY|Rotation=180.000|XOffset=0mm|YOffset=0mm|HoleType=Round|Shape=RoundedRectangle|*
%AMROUNDEDRECTD22*
21,1,1.00,1.35,0,0,180.0*
21,1,0.75,1.60,0,0,180.0*
1,1,0.25,-0.38,0.68*
1,1,0.25,0.38,0.68*
1,1,0.25,0.38,-0.68*
1,1,0.25,-0.38,-0.68*
%
%ADD22ROUNDEDRECTD22*%
D10*
X6500Y1065D02*
D03*
Y1984D02*
D03*
D11*
X5625Y4010D02*
D03*
Y3740D02*
D03*
X5300Y4010D02*
D03*
Y3740D02*
D03*
X1025Y1290D02*
D03*
Y1560D02*
D03*
X275Y3760D02*
D03*
Y3490D02*
D03*
D12*
X3405Y1767D02*
D03*
Y1702D02*
D03*
Y1638D02*
D03*
Y1573D02*
D03*
Y1507D02*
D03*
Y1443D02*
D03*
Y1377D02*
D03*
Y1312D02*
D03*
Y1248D02*
D03*
Y1182D02*
D03*
X4095Y1767D02*
D03*
Y1702D02*
D03*
Y1638D02*
D03*
Y1573D02*
D03*
Y1507D02*
D03*
Y1443D02*
D03*
Y1377D02*
D03*
Y1312D02*
D03*
Y1248D02*
D03*
Y1182D02*
D03*
D13*
X2156Y4338D02*
D03*
X2306D02*
D03*
X5175Y1075D02*
D03*
X5325D02*
D03*
X2238Y956D02*
D03*
X2388D02*
D03*
X4369Y4144D02*
D03*
X4219D02*
D03*
X3512Y4338D02*
D03*
X3662D02*
D03*
X2838D02*
D03*
X2988D02*
D03*
X1425Y4144D02*
D03*
X1275D02*
D03*
X1269Y4356D02*
D03*
X1419D02*
D03*
X1025Y3150D02*
D03*
X875D02*
D03*
D14*
X5900Y1075D02*
D03*
Y1225D02*
D03*
X1281Y1388D02*
D03*
Y1538D02*
D03*
X1469Y1388D02*
D03*
Y1538D02*
D03*
X1250Y2069D02*
D03*
Y2219D02*
D03*
X5625Y2056D02*
D03*
Y2206D02*
D03*
X5788Y2150D02*
D03*
Y2300D02*
D03*
X4050Y2088D02*
D03*
Y2238D02*
D03*
X4250Y2088D02*
D03*
Y2238D02*
D03*
X2556Y2106D02*
D03*
Y2256D02*
D03*
D15*
X2965Y4600D02*
D03*
X2835D02*
D03*
X3510D02*
D03*
X3640D02*
D03*
X2175D02*
D03*
X2305D02*
D03*
D16*
X1215D02*
D03*
X1485D02*
D03*
X1471Y1150D02*
D03*
X1741D02*
D03*
X3008Y956D02*
D03*
X2738D02*
D03*
X4429Y3869D02*
D03*
X4159D02*
D03*
D17*
X750Y3672D02*
D03*
Y3303D02*
D03*
D18*
X220Y4375D02*
D03*
D19*
X880Y4605D02*
D03*
Y4375D02*
D03*
D20*
Y4145D02*
D03*
D21*
X500Y2155D02*
D03*
D22*
X271Y2895D02*
D03*
X728Y2895D02*
D03*
%TF.MD5,394bf620810771b8c3dc06d9e6d2e502*%
M02*
