G04 Layer_Color=32896*
%FSLAX42Y42*%
%MOMM*%
%TF.FileFunction,Legend,Bot*%
%TF.Part,Single*%
G01*
G75*
%TA.AperFunction,NonConductor*%
%ADD44C,0.25*%
%ADD45C,0.20*%
%ADD46C,0.12*%
D44*
X962Y2225D02*
G03*
X962Y2225I-12J0D01*
G01*
X3962D02*
G03*
X3962Y2225I-12J0D01*
G01*
X5462Y2225D02*
G03*
X5462Y2225I-12J0D01*
G01*
X2462D02*
G03*
X2462Y2225I-12J0D01*
G01*
D45*
X5985Y3475D02*
X6065D01*
X5985Y3325D02*
X6065D01*
X2365Y2980D02*
Y3020D01*
X2435Y2980D02*
Y3020D01*
X2575Y3020D02*
Y3100D01*
X2725Y3020D02*
Y3100D01*
X2204Y461D02*
Y501D01*
X2134Y461D02*
Y501D01*
X5181Y256D02*
X5261D01*
X5181Y106D02*
X5261D01*
X5199Y597D02*
X5239D01*
X5199Y528D02*
X5239D01*
X1000Y1665D02*
Y2000D01*
X2000D01*
Y1665D02*
Y2000D01*
X4000Y1665D02*
Y2000D01*
X5000D01*
Y1665D02*
Y2000D01*
X5500Y1665D02*
Y2000D01*
X6500D01*
Y1665D02*
Y2000D01*
X6735Y2700D02*
X6815D01*
X6735Y2550D02*
X6815D01*
X2210Y2650D02*
X2290D01*
X2210Y2500D02*
X2290D01*
X1710Y2850D02*
X1790D01*
X1710Y3000D02*
X1790D01*
X1550Y3260D02*
Y3340D01*
X1700Y3260D02*
Y3340D01*
X1125Y3020D02*
Y3100D01*
X1275Y3020D02*
Y3100D01*
X890Y2980D02*
Y3020D01*
X960Y2980D02*
Y3020D01*
X3050Y3260D02*
Y3340D01*
X3200Y3260D02*
Y3340D01*
X3210Y2850D02*
X3290D01*
X3210Y3000D02*
X3290D01*
X3750Y3210D02*
Y3290D01*
X3900Y3210D02*
Y3290D01*
X3710Y2700D02*
X3790D01*
X3710Y2550D02*
X3790D01*
X4255Y3135D02*
X4295D01*
X4255Y3065D02*
X4295D01*
X4710Y2825D02*
X4790D01*
X4710Y2975D02*
X4790D01*
X4550Y3260D02*
Y3340D01*
X4700Y3260D02*
Y3340D01*
X5210Y2700D02*
X5290D01*
X5210Y2550D02*
X5290D01*
X5390Y2930D02*
Y2970D01*
X5460Y2930D02*
Y2970D01*
X6210Y3075D02*
X6290D01*
X6210Y3225D02*
X6290D01*
X5625Y2985D02*
Y3065D01*
X5775Y2985D02*
Y3065D01*
X2500Y1665D02*
Y2000D01*
X3500D01*
Y1665D02*
Y2000D01*
D46*
X6694Y2229D02*
Y2179D01*
X6684Y2169D01*
X6664D01*
X6654Y2179D01*
Y2229D01*
X6604Y2169D02*
Y2229D01*
X6634Y2199D01*
X6594D01*
X5188Y2210D02*
Y2160D01*
X5178Y2150D01*
X5158D01*
X5148Y2160D01*
Y2210D01*
X5128Y2200D02*
X5118Y2210D01*
X5098D01*
X5088Y2200D01*
Y2190D01*
X5098Y2180D01*
X5108D01*
X5098D01*
X5088Y2170D01*
Y2160D01*
X5098Y2150D01*
X5118D01*
X5128Y2160D01*
X2162Y2154D02*
Y2104D01*
X2153Y2094D01*
X2133D01*
X2123Y2104D01*
Y2154D01*
X2103Y2094D02*
X2083D01*
X2093D01*
Y2154D01*
X2103Y2144D01*
X5331Y3038D02*
X5271D01*
Y3008D01*
X5281Y2998D01*
X5301D01*
X5311Y3008D01*
Y3038D01*
Y3018D02*
X5331Y2998D01*
Y2978D02*
Y2958D01*
Y2968D01*
X5271D01*
X5281Y2978D01*
X5321Y2928D02*
X5331Y2918D01*
Y2898D01*
X5321Y2888D01*
X5281D01*
X5271Y2898D01*
Y2918D01*
X5281Y2928D01*
X5291D01*
X5301Y2918D01*
Y2888D01*
X4350Y3194D02*
Y3254D01*
X4320D01*
X4310Y3244D01*
Y3224D01*
X4320Y3214D01*
X4350D01*
X4330D02*
X4310Y3194D01*
X4290D02*
X4270D01*
X4280D01*
Y3254D01*
X4290Y3244D01*
X4240D02*
X4230Y3254D01*
X4210D01*
X4200Y3244D01*
Y3234D01*
X4210Y3224D01*
X4200Y3214D01*
Y3204D01*
X4210Y3194D01*
X4230D01*
X4240Y3204D01*
Y3214D01*
X4230Y3224D01*
X4240Y3234D01*
Y3244D01*
X4230Y3224D02*
X4210D01*
X5294Y656D02*
Y716D01*
X5264D01*
X5254Y706D01*
Y686D01*
X5264Y676D01*
X5294D01*
X5274D02*
X5254Y656D01*
X5234D02*
X5214D01*
X5224D01*
Y716D01*
X5234Y706D01*
X5144Y656D02*
X5184D01*
X5144Y696D01*
Y706D01*
X5154Y716D01*
X5174D01*
X5184Y706D01*
X2469Y3156D02*
Y3216D01*
X2439D01*
X2429Y3206D01*
Y3186D01*
X2439Y3176D01*
X2469D01*
X2449D02*
X2429Y3156D01*
X2409D02*
X2389D01*
X2399D01*
Y3216D01*
X2409Y3206D01*
X2359D02*
X2349Y3216D01*
X2329D01*
X2319Y3206D01*
Y3166D01*
X2329Y3156D01*
X2349D01*
X2359Y3166D01*
Y3206D01*
X969Y3156D02*
Y3216D01*
X939D01*
X929Y3206D01*
Y3186D01*
X939Y3176D01*
X969D01*
X949D02*
X929Y3156D01*
X909Y3166D02*
X899Y3156D01*
X879D01*
X869Y3166D01*
Y3206D01*
X879Y3216D01*
X899D01*
X909Y3206D01*
Y3196D01*
X899Y3186D01*
X869D01*
X2219Y644D02*
Y704D01*
X2189D01*
X2179Y694D01*
Y674D01*
X2189Y664D01*
X2219D01*
X2199D02*
X2179Y644D01*
X2159Y704D02*
X2119D01*
Y694D01*
X2159Y654D01*
Y644D01*
X6054Y3575D02*
X6064Y3585D01*
X6084D01*
X6094Y3575D01*
Y3535D01*
X6084Y3525D01*
X6064D01*
X6054Y3535D01*
X5994Y3525D02*
X6034D01*
X5994Y3565D01*
Y3575D01*
X6004Y3585D01*
X6024D01*
X6034Y3575D01*
X5974D02*
X5964Y3585D01*
X5944D01*
X5934Y3575D01*
Y3565D01*
X5944Y3555D01*
X5954D01*
X5944D01*
X5934Y3545D01*
Y3535D01*
X5944Y3525D01*
X5964D01*
X5974Y3535D01*
X3860Y3531D02*
X3870Y3541D01*
X3890D01*
X3900Y3531D01*
Y3491D01*
X3890Y3481D01*
X3870D01*
X3860Y3491D01*
X3800Y3481D02*
X3840D01*
X3800Y3521D01*
Y3531D01*
X3810Y3541D01*
X3830D01*
X3840Y3531D01*
X3740Y3481D02*
X3780D01*
X3740Y3521D01*
Y3531D01*
X3750Y3541D01*
X3770D01*
X3780Y3531D01*
X5723Y3306D02*
X5733Y3316D01*
X5753D01*
X5762Y3306D01*
Y3266D01*
X5753Y3256D01*
X5733D01*
X5723Y3266D01*
X5663Y3256D02*
X5703D01*
X5663Y3296D01*
Y3306D01*
X5673Y3316D01*
X5693D01*
X5703Y3306D01*
X5643Y3256D02*
X5623D01*
X5633D01*
Y3316D01*
X5643Y3306D01*
X4666Y3594D02*
X4676Y3604D01*
X4696D01*
X4706Y3594D01*
Y3554D01*
X4696Y3544D01*
X4676D01*
X4666Y3554D01*
X4606Y3544D02*
X4646D01*
X4606Y3584D01*
Y3594D01*
X4616Y3604D01*
X4636D01*
X4646Y3594D01*
X4586D02*
X4576Y3604D01*
X4556D01*
X4546Y3594D01*
Y3554D01*
X4556Y3544D01*
X4576D01*
X4586Y3554D01*
Y3594D01*
X6385Y3331D02*
X6395Y3341D01*
X6415D01*
X6425Y3331D01*
Y3291D01*
X6415Y3281D01*
X6395D01*
X6385Y3291D01*
X6365Y3281D02*
X6345D01*
X6355D01*
Y3341D01*
X6365Y3331D01*
X6315Y3291D02*
X6305Y3281D01*
X6285D01*
X6275Y3291D01*
Y3331D01*
X6285Y3341D01*
X6305D01*
X6315Y3331D01*
Y3321D01*
X6305Y3311D01*
X6275D01*
X4879Y3087D02*
X4889Y3097D01*
X4909D01*
X4919Y3087D01*
Y3047D01*
X4909Y3038D01*
X4889D01*
X4879Y3047D01*
X4859Y3038D02*
X4839D01*
X4849D01*
Y3097D01*
X4859Y3087D01*
X4809D02*
X4799Y3097D01*
X4779D01*
X4769Y3087D01*
Y3077D01*
X4779Y3067D01*
X4769Y3057D01*
Y3047D01*
X4779Y3038D01*
X4799D01*
X4809Y3047D01*
Y3057D01*
X4799Y3067D01*
X4809Y3077D01*
Y3087D01*
X4799Y3067D02*
X4779D01*
X5098Y362D02*
X5108Y372D01*
X5128D01*
X5138Y362D01*
Y322D01*
X5128Y312D01*
X5108D01*
X5098Y322D01*
X5078Y312D02*
X5058D01*
X5068D01*
Y372D01*
X5078Y362D01*
X5028Y372D02*
X4988D01*
Y362D01*
X5028Y322D01*
Y312D01*
X6816Y2806D02*
X6826Y2816D01*
X6846D01*
X6856Y2806D01*
Y2766D01*
X6846Y2756D01*
X6826D01*
X6816Y2766D01*
X6796Y2756D02*
X6776D01*
X6786D01*
Y2816D01*
X6796Y2806D01*
X6716Y2756D02*
Y2816D01*
X6746Y2786D01*
X6706D01*
X5285Y2812D02*
X5295Y2822D01*
X5315D01*
X5325Y2812D01*
Y2772D01*
X5315Y2762D01*
X5295D01*
X5285Y2772D01*
X5265Y2762D02*
X5245D01*
X5255D01*
Y2822D01*
X5265Y2812D01*
X5215D02*
X5205Y2822D01*
X5185D01*
X5175Y2812D01*
Y2802D01*
X5185Y2792D01*
X5195D01*
X5185D01*
X5175Y2782D01*
Y2772D01*
X5185Y2762D01*
X5205D01*
X5215Y2772D01*
X2666Y3356D02*
X2676Y3366D01*
X2696D01*
X2706Y3356D01*
Y3316D01*
X2696Y3306D01*
X2676D01*
X2666Y3316D01*
X2646Y3306D02*
X2626D01*
X2636D01*
Y3366D01*
X2646Y3356D01*
X2596Y3306D02*
X2576D01*
X2586D01*
Y3366D01*
X2596Y3356D01*
X1241Y3344D02*
X1251Y3354D01*
X1271D01*
X1281Y3344D01*
Y3304D01*
X1271Y3294D01*
X1251D01*
X1241Y3304D01*
X1221Y3294D02*
X1201D01*
X1211D01*
Y3354D01*
X1221Y3344D01*
X1171D02*
X1161Y3354D01*
X1141D01*
X1131Y3344D01*
Y3304D01*
X1141Y3294D01*
X1161D01*
X1171Y3304D01*
Y3344D01*
X3129Y3587D02*
X3139Y3597D01*
X3159D01*
X3169Y3587D01*
Y3547D01*
X3159Y3538D01*
X3139D01*
X3129Y3547D01*
X3109D02*
X3099Y3538D01*
X3079D01*
X3069Y3547D01*
Y3587D01*
X3079Y3597D01*
X3099D01*
X3109Y3587D01*
Y3577D01*
X3099Y3567D01*
X3069D01*
X1635Y3587D02*
X1645Y3597D01*
X1665D01*
X1675Y3587D01*
Y3547D01*
X1665Y3538D01*
X1645D01*
X1635Y3547D01*
X1615Y3587D02*
X1605Y3597D01*
X1585D01*
X1575Y3587D01*
Y3577D01*
X1585Y3567D01*
X1575Y3557D01*
Y3547D01*
X1585Y3538D01*
X1605D01*
X1615Y3547D01*
Y3557D01*
X1605Y3567D01*
X1615Y3577D01*
Y3587D01*
X1605Y3567D02*
X1585D01*
X3360Y3106D02*
X3370Y3116D01*
X3390D01*
X3400Y3106D01*
Y3066D01*
X3390Y3056D01*
X3370D01*
X3360Y3066D01*
X3340Y3116D02*
X3300D01*
Y3106D01*
X3340Y3066D01*
Y3056D01*
X1885Y3119D02*
X1895Y3129D01*
X1915D01*
X1925Y3119D01*
Y3079D01*
X1915Y3069D01*
X1895D01*
X1885Y3079D01*
X1825Y3129D02*
X1845Y3119D01*
X1865Y3099D01*
Y3079D01*
X1855Y3069D01*
X1835D01*
X1825Y3079D01*
Y3089D01*
X1835Y3099D01*
X1865D01*
X3785Y2812D02*
X3795Y2822D01*
X3815D01*
X3825Y2812D01*
Y2772D01*
X3815Y2762D01*
X3795D01*
X3785Y2772D01*
X3725Y2762D02*
X3765D01*
X3725Y2802D01*
Y2812D01*
X3735Y2822D01*
X3755D01*
X3765Y2812D01*
X2248Y2775D02*
X2258Y2785D01*
X2278D01*
X2288Y2775D01*
Y2735D01*
X2278Y2725D01*
X2258D01*
X2248Y2735D01*
X2228Y2725D02*
X2208D01*
X2218D01*
Y2785D01*
X2228Y2775D01*
X3681Y2191D02*
Y2141D01*
X3671Y2131D01*
X3651D01*
X3641Y2141D01*
Y2191D01*
X3581Y2131D02*
X3621D01*
X3581Y2171D01*
Y2181D01*
X3591Y2191D01*
X3611D01*
X3621Y2181D01*
%TF.MD5,014657c6c7ca2d8373e4a968ab837622*%
M02*
